<?xml version="1.0" encoding="UTF-8"?><svg id="Layer_2" xmlns="http://www.w3.org/2000/svg" xmlns:xlink="http://www.w3.org/1999/xlink" viewBox="0 0 199.1 199.52"><defs><style>.cls-1,.cls-2{fill:none;}.cls-3{clip-path:url(#clippath);}.cls-4{fill:#fff;}.cls-5{fill:#fbcf0e;}.cls-6{fill:#dd2226;}.cls-7{fill:#595a5a;}.cls-2{clip-rule:evenodd;}.cls-8{clip-path:url(#clippath-1);}.cls-9{clip-path:url(#clippath-4);}.cls-10{clip-path:url(#clippath-3);}.cls-11{clip-path:url(#clippath-2);}.cls-12{clip-path:url(#clippath-7);}.cls-13{clip-path:url(#clippath-8);}.cls-14{clip-path:url(#clippath-6);}.cls-15{clip-path:url(#clippath-5);}.cls-16{clip-path:url(#clippath-9);}.cls-17{clip-path:url(#clippath-14);}.cls-18{clip-path:url(#clippath-13);}.cls-19{clip-path:url(#clippath-12);}.cls-20{clip-path:url(#clippath-10);}.cls-21{clip-path:url(#clippath-15);}.cls-22{clip-path:url(#clippath-11);}</style><clipPath id="clippath"><path class="cls-2" d="M196.99,99.97v53.57c0,24.23-19.64,43.87-43.87,43.87H45.98c-24.23,0-43.87-19.64-43.87-43.87v-53.57H196.99Z"/></clipPath><clipPath id="clippath-1"><rect class="cls-1" x="-92.38" y="-320.52" width="1068" height="747"/></clipPath><clipPath id="clippath-2"><path class="cls-2" d="M62.59,146.46v-.12c2.95-1.39,4.69-5.08,4.69-8.26,0-9.82-7.76-11.96-15.97-11.96h-5.32v43.56h10.18c7.7,0,15.16-3.47,15.16-12.19,0-5.08-3.59-10.11-8.74-11.03Zm-11.17-15.48h1.51c5.09,0,9.26,1.04,9.26,7.16s-4.22,7.28-9.38,7.28h-1.39v-14.44Zm4.17,33.86h-4.17v-15.08h3.36c4.86,0,11.11,1.27,11.11,7.39s-5.27,7.68-10.3,7.68Z"/></clipPath><clipPath id="clippath-3"><rect class="cls-1" x="-92.38" y="-320.52" width="1068" height="747"/></clipPath><clipPath id="clippath-4"><path class="cls-2" d="M97.28,126.12c-12.5,0-22.86,10.23-22.86,22.71s10.25,22.71,22.86,22.71,22.86-9.76,22.86-22.71-10.36-22.71-22.86-22.71m0,40.33c-9.43,0-17.42-7.68-17.42-17.62s7.18-17.62,17.42-17.62,17.42,8.03,17.42,17.62-7.99,17.62-17.42,17.62"/></clipPath><clipPath id="clippath-5"><rect class="cls-1" x="-92.38" y="-320.52" width="1068" height="747"/></clipPath><clipPath id="clippath-6"><polygon class="cls-2" points="139.82 146.87 152.38 126.12 146.19 126.12 136.7 142.01 127.79 126.12 121.59 126.12 133.63 146.87 119.92 169.69 125.99 169.69 136.7 151.83 147 169.69 153.08 169.69 139.82 146.87"/></clipPath><clipPath id="clippath-7"><rect class="cls-1" x="-92.38" y="-320.52" width="1068" height="747"/></clipPath><clipPath id="clippath-8"><path class="cls-2" d="M2.11,100.39V45.98c0-24.23,19.64-43.87,43.87-43.87h107.14c24.23,0,43.87,19.64,43.87,43.87v54.41H2.11Z"/></clipPath><clipPath id="clippath-9"><rect class="cls-1" x="-92.38" y="-320.52" width="1068" height="747"/></clipPath><clipPath id="clippath-10"><path class="cls-2" d="M75.09,84.4h19.77l1.56,1.12c1.6,1.15,3.91,1.15,5.5,0l1.56-1.12h19.77l1.83-14.44,12.52-9c.45-2.36,.68-4.78,.68-7.19,0-21.3-17.55-38.64-39.11-38.64s-39.11,17.33-39.11,38.64c0,2.42,.23,4.83,.68,7.19l12.52,9,1.83,14.44Zm24.08,4.82c-1.59,0-3.12-.49-4.4-1.41l-.82-.59h-21.35l-1.98-15.69-12.42-8.93-.11-.54c-.56-2.71-.84-5.5-.84-8.29,0-22.86,18.81-41.45,41.93-41.45s41.93,18.6,41.93,41.45c0,2.78-.28,5.57-.85,8.29l-.11,.54-12.42,8.93-1.98,15.69h-21.35l-.82,.59c-1.26,.91-2.83,1.41-4.4,1.41Z"/></clipPath><clipPath id="clippath-11"><rect class="cls-1" x="-92.38" y="-320.52" width="1068" height="747"/></clipPath><clipPath id="clippath-12"><path class="cls-2" d="M102.91,86.7c-1.04,.75-2.29,1.15-3.58,1.15s-2.54-.4-3.58-1.15l-1.19-.85h-20.56l-1.91-15.06-12.47-8.97c-.54-2.63-.82-5.32-.82-8.01,0-22.11,18.15-40.05,40.52-40.05s40.52,17.94,40.52,40.05c0,2.69-.27,5.37-.82,8.01l-12.47,8.97-1.91,15.06h-20.56l-1.19,.85Z"/></clipPath><clipPath id="clippath-13"><rect class="cls-1" x="-92.38" y="-320.52" width="1068" height="747"/></clipPath><clipPath id="clippath-14"><path class="cls-2" d="M132.03,58.2l-12.3,8.86-1.51,11.93h-14.94l-2.22,1.59c-.55,.39-1.21,.61-1.9,.61s-1.34-.22-1.9-.61l-2.21-1.59h-14.95l-1.51-11.93-12.3-8.86c-.36-1.39-.55-2.82-.55-4.24,0-2.39,.51-4.75,1.5-6.94l21.8,21.78-21.19-25.85c.83-3.36,2.67-6.38,5.29-8.67l19,32.4-16.82-35.47c2.17-2.87,5.2-4.97,8.67-6.02l11.62,40.21-8.5-41.87c2.58-1.44,5.51-2.21,8.46-2.21,.63,0,1.26,.04,1.87,.1l1.73,43.55,1.73-43.55c.63-.07,1.26-.1,1.87-.1,2.97,0,5.88,.76,8.46,2.21l-8.48,41.87,11.61-40.21c3.47,1.05,6.51,3.16,8.69,6.02l-16.82,35.47,18.98-32.4c2.62,2.29,4.47,5.31,5.3,8.67l-21.19,25.85,21.79-21.78c.99,2.19,1.5,4.55,1.5,6.94,0,1.42-.17,2.85-.55,4.24M99.15,13.92c-22.36,0-40.51,17.93-40.51,40.04,0,2.68,.27,5.38,.82,8.01l12.48,8.97,1.9,15.05h20.56l1.19,.87c1.04,.75,2.29,1.14,3.57,1.14s2.55-.39,3.59-1.14l1.17-.87h20.56l1.92-15.05,12.47-8.97c.55-2.63,.82-5.33,.82-8.01,0-22.11-18.16-40.04-40.53-40.04"/></clipPath><clipPath id="clippath-15"><rect class="cls-1" x="-92.38" y="-320.52" width="1068" height="747"/></clipPath></defs><g id="Layer_1-2"><g><g class="cls-3"><g class="cls-8"><rect class="cls-5" x="-2.89" y="94.97" width="204.88" height="107.44"/></g></g><g class="cls-11"><g class="cls-10"><rect class="cls-7" x="40.98" y="121.12" width="35.35" height="53.56"/></g></g><g class="cls-9"><g class="cls-15"><rect class="cls-7" x="69.42" y="121.12" width="55.72" height="55.41"/></g></g><g class="cls-14"><g class="cls-12"><rect class="cls-7" x="114.92" y="121.12" width="43.16" height="53.57"/></g></g><g class="cls-13"><g class="cls-16"><rect class="cls-4" x="-2.89" y="-2.89" width="204.88" height="108.28"/></g></g><g class="cls-20"><g class="cls-22"><rect class="cls-4" x="52.24" y="7.32" width="93.86" height="86.9"/></g></g><g class="cls-19"><g class="cls-18"><rect class="cls-5" x="53.82" y="8.76" width="91.04" height="84.08"/></g></g><g class="cls-17"><g class="cls-21"><rect class="cls-6" x="53.63" y="8.92" width="91.04" height="84.07"/></g></g><path class="cls-4" d="M153.12,199.52H45.98c-25.35,0-45.98-20.63-45.98-45.98V45.98C0,20.63,20.63,0,45.98,0h107.14c25.35,0,45.98,20.63,45.98,45.98v107.56c0,25.35-20.63,45.98-45.98,45.98ZM45.98,4.22C22.95,4.22,4.22,22.95,4.22,45.98v107.56c0,23.03,18.73,41.76,41.76,41.76h107.14c23.03,0,41.76-18.73,41.76-41.76V45.98c0-23.03-18.73-41.76-41.76-41.76H45.98Z"/></g></g></svg>