<svg xmlns="http://www.w3.org/2000/svg" width="191.01" height="122.604" viewBox="0 0 191.01 122.604">
  <g id="aspas-fim" transform="translate(-557.939 -8572)">
    <path id="Path_2797" data-name="Path 2797" d="M86.012,1.527,24.054,45.594a26.2,26.2,0,0,0-9.958,14.2L.285,111.334c-1.06,3.956.927,7.162,4.438,7.162H58.58c3.511,0,7.216-3.206,8.276-7.162L94.765,7.175c1.6-5.963-3.6-9.315-8.753-5.648" transform="translate(746.928 8692.496) rotate(180)" fill="none" stroke="#6fac46" stroke-width="4"/>
    <path id="Path_2798" data-name="Path 2798" d="M86.012,1.527,24.054,45.594a26.2,26.2,0,0,0-9.958,14.2L.285,111.334c-1.06,3.956.927,7.162,4.438,7.162H58.58c3.511,0,7.216-3.206,8.276-7.162L94.765,7.175c1.6-5.963-3.6-9.315-8.753-5.648" transform="translate(655.061 8692.496) rotate(180)" fill="none" stroke="#6fac46" stroke-width="4"/>
  </g>
</svg>
