<svg id="Group_827" data-name="Group 827" xmlns="http://www.w3.org/2000/svg" xmlns:xlink="http://www.w3.org/1999/xlink" width="164.8" height="104.469" viewBox="0 0 164.8 104.469">
  <defs>
    <clipPath id="clip-path">
      <rect id="Rectangle_456" data-name="Rectangle 456" width="164.8" height="104.469" fill="#fdb515"/>
    </clipPath>
  </defs>
  <g id="Group_644" data-name="Group 644" clip-path="url(#clip-path)">
    <path id="Path_2795" data-name="Path 2795" d="M75.83,1.346,21.206,40.2a23.094,23.094,0,0,0-8.779,12.519L.251,98.155c-.934,3.487.817,6.314,3.912,6.314H51.645c3.1,0,6.362-2.827,7.3-6.314L83.547,6.326c1.409-5.257-3.17-8.212-7.717-4.979" transform="translate(0 0)" fill="#fdb515"/>
    <path id="Path_2796" data-name="Path 2796" d="M144.83,1.346,90.206,40.2a23.094,23.094,0,0,0-8.779,12.519L69.251,98.155c-.934,3.487.817,6.314,3.912,6.314h47.482c3.1,0,6.362-2.827,7.3-6.314L152.547,6.326c1.409-5.257-3.17-8.212-7.717-4.979" transform="translate(11.993 0)" fill="#fdb515"/>
  </g>
</svg>
