<svg xmlns="http://www.w3.org/2000/svg" width="266.193" height="170.279" viewBox="0 0 266.193 170.279">
  <g id="Group_828" data-name="Group 828" transform="translate(-557.921 -8572)">
    <path id="Path_2797" data-name="Path 2797" d="M120.6,2.141,33.725,63.927A36.728,36.728,0,0,0,19.763,83.835L.4,156.1c-1.486,5.546,1.3,10.041,6.222,10.041H82.133c4.923,0,10.118-4.5,11.6-10.041L132.868,10.06C135.108,1.7,127.826-3,120.6,2.141" transform="translate(822.087 8740.141) rotate(180)" fill="none" stroke="#781f78" stroke-width="4"/>
    <path id="Path_2798" data-name="Path 2798" d="M120.6,2.141,33.725,63.927A36.728,36.728,0,0,0,19.764,83.835L.4,156.1c-1.486,5.546,1.3,10.041,6.222,10.041H82.133c4.923,0,10.118-4.5,11.6-10.041L132.868,10.06C135.108,1.7,127.826-3,120.6,2.141" transform="translate(693.281 8740.141) rotate(180)" fill="none" stroke="#781f78" stroke-width="4"/>
  </g>
</svg>
