<svg id="aspas-inicio" xmlns="http://www.w3.org/2000/svg" xmlns:xlink="http://www.w3.org/1999/xlink" width="140.398" height="89" viewBox="0 0 140.398 89">
  <defs>
    <clipPath id="clip-path">
      <rect id="Rectangle_456" data-name="Rectangle 456" width="140.398" height="89" fill="none"/>
    </clipPath>
  </defs>
  <g id="Group_644" data-name="Group 644" clip-path="url(#clip-path)">
    <path id="Path_2795" data-name="Path 2795" d="M64.6,1.147l-46.536,33.1A19.675,19.675,0,0,0,10.587,44.91L.214,83.621C-.582,86.592.91,89,3.547,89H44c2.637,0,5.42-2.408,6.216-5.379L71.176,5.389c1.2-4.479-2.7-7-6.574-4.242" fill="#781e77"/>
    <path id="Path_2796" data-name="Path 2796" d="M133.6,1.147l-46.536,33.1A19.675,19.675,0,0,0,79.587,44.91L69.214,83.621c-.8,2.971.7,5.379,3.333,5.379H113c2.637,0,5.42-2.408,6.216-5.379L140.176,5.389c1.2-4.479-2.7-7-6.574-4.242" fill="#781e77"/>
  </g>
</svg>
