<svg xmlns="http://www.w3.org/2000/svg" xmlns:xlink="http://www.w3.org/1999/xlink" width="138" height="138" viewBox="0 0 138 138"><defs><filter id="a" x="0" y="0" width="138" height="138" filterUnits="userSpaceOnUse"><feOffset dy="3" input="SourceAlpha"/><feGaussianBlur stdDeviation="5" result="b"/><feFlood flood-opacity="0.161"/><feComposite operator="in" in2="b"/><feComposite in="SourceGraphic"/></filter><clipPath id="c"><rect width="98" height="102" rx="20.202" transform="translate(-0.31 0.116)" fill="none"/></clipPath></defs><g transform="translate(-494.224 -17572.224)"><g transform="matrix(1, 0, 0, 1, 494.22, 17572.22)" filter="url(#a)"><rect width="108" height="108" rx="23" transform="translate(15 12)" fill="#fff"/></g><g transform="translate(514.533 17585.107)"><g transform="translate(0 0)" clip-path="url(#c)"><rect width="99" height="50" transform="translate(-0.31 52.116)" fill="#fbce2f"/><rect width="99" height="52" transform="translate(-0.31 0.116)" fill="#fff"/><g transform="translate(4.053 3.754)"><path d="M75.991,43.74c-1.5.007-3.01,0-4.515.021a.4.4,0,0,0-.3.13,2.714,2.714,0,0,1-3.736-.042.249.249,0,0,0-.19-.084c-.944-.023-1.889-.019-2.834-.021q-3.169,0-6.338.006c-.1,0-.123-.031-.134-.12q-.244-2.106-.494-4.21c-.1-.807-.193-1.614-.286-2.421a.228.228,0,0,0-.112-.173c-1.667-1.181-3.338-2.356-4.974-3.58l-.017-.014c-.477-.362-.473-.363-.582-.954a17.949,17.949,0,0,1-.292-2.8,17.069,17.069,0,0,1,.588-4.865,18.079,18.079,0,0,1,3.967-7.369,18.319,18.319,0,0,1,6.594-4.785,17.471,17.471,0,0,1,5.123-1.334A15.95,15.95,0,0,1,69.426,11a18.006,18.006,0,0,1,9.33,2.72,18.453,18.453,0,0,1,6.954,7.724,17.491,17.491,0,0,1,1.383,11.269.4.4,0,0,1-.154.251c-.854.668-1.738,1.3-2.619,1.927q-1.361.976-2.73,1.941a.219.219,0,0,0-.1.171q-.36,3.048-.722,6.1c-.022.186-.046.371-.063.557-.007.07-.032.091-.1.09q-1.4-.007-2.791-.008c-.608,0-1.216,0-1.824,0m-3.359-8.961v0c.018-.044.035-.088.055-.131l3.351-7.138q2-4.255,4-8.51a.214.214,0,0,0-.01-.224,2.367,2.367,0,0,0-.309-.4,9.116,9.116,0,0,0-2.434-1.838,2.908,2.908,0,0,0-1-.331c-.1-.011-.132.02-.158.111q-2.5,8.787-5.013,17.574c-.02.069-.043.136-.065.2a2.181,2.181,0,0,1,.035-.228l1.509-7.516,1.674-8.345c.165-.822.329-1.644.5-2.465a.141.141,0,0,0-.071-.18c-.115-.064-.223-.142-.338-.2a6.573,6.573,0,0,0-2.08-.674,7.112,7.112,0,0,0-2.023-.088c-.107.013-.144.048-.148.161q-.072,2.042-.156,4.084-.171,4.347-.342,8.694-.116,2.947-.23,5.895c-.01.262,0,.526-.041.817-.006-.073-.011-.116-.013-.159q-.067-1.7-.133-3.392-.126-3.189-.252-6.378-.164-4.133-.329-8.265c-.017-.443-.038-.885-.054-1.328,0-.066-.012-.113-.091-.118-.095-.007-.189-.025-.284-.031a7.918,7.918,0,0,0-2.289.209,5.661,5.661,0,0,0-1.9.768.169.169,0,0,0-.085.206q1.018,5.049,2.03,10.1l1.645,8.194c.01.05.017.1.026.152a.34.34,0,0,1-.055-.121q-.478-1.674-.955-3.348-2.029-7.107-4.056-14.215c-.026-.092-.062-.12-.158-.109a2.738,2.738,0,0,0-.867.269,9.021,9.021,0,0,0-2.223,1.557,4,4,0,0,0-.626.7.265.265,0,0,0-.018.293q3.618,7.7,7.229,15.4c.016.034.048.066.033.116-.041-.021-.053-.061-.072-.094l-5.565-9.648q-1.278-2.217-2.555-4.435c-.049-.086-.089-.094-.167-.042a2.145,2.145,0,0,0-.466.431,10.93,10.93,0,0,0-1.611,2.7,2.676,2.676,0,0,0-.2.66.328.328,0,0,0,.073.275q3.923,4.8,7.841,9.6.646.79,1.289,1.585l-.019.021-.056-.053L61.108,32.2l-6-6.091c-.1-.1-.1-.1-.167.026a4.49,4.49,0,0,0-.342.831,7.758,7.758,0,0,0-.041,4.155.183.183,0,0,0,.083.11c.179.128.357.257.535.385l4.783,3.453a.2.2,0,0,1,.1.144c.217,1.729.439,3.458.654,5.187.014.113.051.141.161.141q3.23-.005,6.46,0a.271.271,0,0,1,.2.073,5.7,5.7,0,0,0,1.073.76,1.409,1.409,0,0,0,1.435,0,5.674,5.674,0,0,0,1.074-.758.3.3,0,0,1,.216-.08q3.208,0,6.416,0c.033,0,.066,0,.1,0,.055,0,.078-.019.083-.074.015-.142.035-.283.053-.425q.3-2.38.6-4.762a.291.291,0,0,1,.129-.223q2.638-1.9,5.274-3.8a.292.292,0,0,0,.121-.184,8.333,8.333,0,0,0,.21-2.791,5.878,5.878,0,0,0-.592-2.113c-.08-.155-.082-.154-.2-.03l-9.156,9.3a.468.468,0,0,1-.132.114.2.2,0,0,1,.07-.124q4.461-5.462,8.928-10.92a.564.564,0,0,0,.12-.592c-.012-.034-.019-.071-.032-.105a10.47,10.47,0,0,0-1.776-3.088,1.832,1.832,0,0,0-.412-.377c-.122-.079-.123-.079-.195.045l-8.22,14.253c-.028.047-.06.091-.091.136" transform="translate(-23.99 -5.422)" fill="#ec1c24"/><path d="M68.5,39.908q-.644-.792-1.289-1.585-3.92-4.8-7.842-9.6a.326.326,0,0,1-.073-.275,2.68,2.68,0,0,1,.2-.66,10.956,10.956,0,0,1,1.611-2.7,2.147,2.147,0,0,1,.467-.431c.078-.052.117-.044.167.043q1.274,2.219,2.555,4.435l5.565,9.648c.019.033.031.073.072.094.015-.05-.016-.082-.032-.116q-3.613-7.7-7.229-15.4a.265.265,0,0,1,.017-.293,4.023,4.023,0,0,1,.626-.7,9.021,9.021,0,0,1,2.223-1.557,2.735,2.735,0,0,1,.867-.269c.1-.011.132.017.158.109q2.025,7.108,4.056,14.215l.954,3.348a.34.34,0,0,0,.055.121c-.008-.051-.016-.1-.026-.152L69.96,29.993q-1.014-5.05-2.03-10.1a.169.169,0,0,1,.085-.206,5.667,5.667,0,0,1,1.9-.768,7.916,7.916,0,0,1,2.289-.209c.095.006.189.024.284.031.079.006.089.052.091.118.016.443.036.885.054,1.328l.329,8.265q.126,3.189.252,6.378.067,1.7.133,3.392c0,.043.007.086.013.159.035-.291.03-.554.041-.816q.119-2.947.23-5.895.171-4.347.343-8.694.08-2.042.156-4.084c0-.113.041-.148.148-.161a7.114,7.114,0,0,1,2.023.088,6.573,6.573,0,0,1,2.08.674c.116.063.223.141.338.2a.141.141,0,0,1,.071.18q-.252,1.232-.5,2.465-.838,4.173-1.674,8.345-.754,3.758-1.509,7.516a1.962,1.962,0,0,0-.034.229c.022-.068.045-.136.065-.2q2.507-8.787,5.013-17.574c.026-.091.061-.122.158-.11a2.893,2.893,0,0,1,.995.33,9.136,9.136,0,0,1,2.435,1.838,2.364,2.364,0,0,1,.309.4.212.212,0,0,1,.01.224q-2,4.254-4,8.51l-3.351,7.139c-.02.043-.037.087-.055.131a.023.023,0,0,1,.005.007l0,.005s0-.009,0-.014c.03-.045.063-.089.09-.136l8.221-14.253c.072-.124.072-.125.195-.045a1.821,1.821,0,0,1,.412.377,10.46,10.46,0,0,1,1.776,3.088c.013.034.021.071.032.105a.563.563,0,0,1-.121.592q-4.471,5.454-8.928,10.92a.2.2,0,0,0-.07.124.449.449,0,0,0,.132-.114l9.156-9.3c.123-.124.125-.125.2.03a5.869,5.869,0,0,1,.592,2.113,8.342,8.342,0,0,1-.21,2.791.293.293,0,0,1-.121.184q-2.638,1.9-5.275,3.8a.293.293,0,0,0-.129.223q-.3,2.382-.6,4.762c-.018.142-.038.283-.053.425-.006.055-.029.079-.084.074-.033,0-.066,0-.1,0q-3.208,0-6.416,0a.3.3,0,0,0-.216.08,5.674,5.674,0,0,1-1.074.758,1.409,1.409,0,0,1-1.435,0,5.7,5.7,0,0,1-1.073-.76.27.27,0,0,0-.2-.073q-3.23,0-6.459,0c-.11,0-.147-.028-.161-.141-.215-1.729-.437-3.458-.654-5.187a.2.2,0,0,0-.1-.144L59.21,35.956c-.178-.129-.356-.258-.534-.386a.184.184,0,0,1-.083-.11,7.754,7.754,0,0,1,.041-4.155,4.49,4.49,0,0,1,.342-.831c.068-.125.069-.125.166-.026l6,6.091,3.283,3.335c.018.018.038.035.056.053l.023.024c.008,0,.021.013.024.011s0-.022-.008-.031l-.02-.024m9.53.248c0-.019.006-.025.022-.025s.007-.007.007,0h-.008c.01.024,0,.032-.022.023l-.005.012-.006-.006.012-.006m-9.448-.133a.025.025,0,0,0,0,.008h.007l-.013-.006c0-.016,0-.025-.021-.022v-.017l-.009,0,.012.013.022.022m9.65-.083c.009-.009.024-.017.01-.031s-.02.008-.029.014l-.019.023-.1.117,0,0v-.007c.059-.01.086-.059.119-.1l.022-.022m-8.241-.974-.015-.02c-.012.011-.005.022,0,.033s.01.036.035.032c0,.008,0,.017,0,.025l.009,0-.014-.021a.045.045,0,0,0-.019-.047m6.629.248-.007-.005.011-.009s0,.006,0,.008,0,0-.007.006M75.06,38.53a.067.067,0,0,1-.014.009s-.006,0-.009,0l.009-.015.013.01m-5.1.383-.006-.007-.007.007.009.007,0-.006" transform="translate(-28.021 -9.758)" fill="#fed400"/></g><path d="M103.584,67.517l.128-.144.02.02c-.041.05-.073.109-.145.121Z" transform="translate(-48.408 -31.69)" fill="#ec1c24"/><path d="M100.21,65.684s.007,0,.008-.007,0-.006,0-.01l-.013.011.009.006" transform="translate(-46.832 -30.895)" fill="#ec1c24"/><path d="M96.63,64.119l-.017-.012-.011.018s.009.007.011.006a.089.089,0,0,0,.017-.012" transform="translate(-45.155 -30.168)" fill="#ec1c24"/><path d="M85.018,65.129a.056.056,0,0,1,.023.058l0,0c-.03,0-.033-.022-.043-.039l.017-.017" transform="translate(-39.75 -30.644)" fill="#ec1c24"/><path d="M85.076,65.235l.018.026-.011,0c0-.011,0-.021,0-.031l0,0" transform="translate(-39.785 -30.693)" fill="#ec1c24"/><path d="M100.321,65.47v.017l0-.006s0-.005-.006-.008l0,0" transform="translate(-46.887 -30.803)" fill="#ec1c24"/><path d="M84.952,65l0,.007L84.937,65l.008-.008.007.009" transform="translate(-39.72 -30.58)" fill="#ec1c24"/><path d="M84.992,65.125c-.008-.013-.017-.026,0-.04l.019.023-.017.017" transform="translate(-39.741 -30.624)" fill="#ec1c24"/><path d="M81.6,67.34l-.028-.029.023-.025.024.03-.019.023" transform="translate(-38.154 -31.649)" fill="#ec1c24"/><path d="M103.867,67.3c.012-.007.018-.033.036-.017s0,.027-.012.037l-.023-.021" transform="translate(-48.54 -31.647)" fill="#ec1c24"/><path d="M81.646,67.342c.013.011.024.022.009.037s-.018-.008-.028-.013l.019-.024" transform="translate(-38.178 -31.676)" fill="#ec1c24"/><path d="M103.87,67.342l-.027.027-.02-.02.023-.028.024.021" transform="translate(-48.52 -31.666)" fill="#ec1c24"/><path d="M81.743,67.484l-.015-.016.012,0c0,.007,0,.014,0,.021Z" transform="translate(-38.225 -31.733)" fill="#ec1c24"/><path d="M81.753,67.5c.021,0,.028.008.026.027l0,0-.026-.027,0,0" transform="translate(-38.237 -31.749)" fill="#ec1c24"/><path d="M81.8,67.553l.015.007h-.008a.03.03,0,0,1-.005-.01l0,0" transform="translate(-38.259 -31.772)" fill="#ec1c24"/><path d="M103.587,67.637v.008l0-.005,0,0" transform="translate(-48.408 -31.813)" fill="#ec1c24"/><path d="M103.5,67.793l.01,0q0-.017-.008,0Z" transform="translate(-48.368 -31.882)" fill="#ec1c24"/><path d="M103.474,67.8c-.02,0-.033.007-.028.03h0c.03.011.04,0,.028-.028v0" transform="translate(-48.344 -31.888)" fill="#ec1c24"/><path d="M103.435,67.853l-.015.007.008.007.006-.015h0" transform="translate(-48.332 -31.913)" fill="#ec1c24"/><text transform="translate(20.19 85.641)" fill="#595959" font-size="29" font-family="FuturaPT-Medium, Futura PT" font-weight="500"><tspan x="0" y="0">B</tspan></text><text transform="translate(35.982 85.641)" fill="#595959" font-size="29" font-family="FuturaPT-Medium, Futura PT" font-weight="500"><tspan x="0" y="0">O</tspan></text><text transform="translate(59.536 86.641)" fill="#595959" font-size="30" font-family="FuturaPT-Medium, Futura PT" font-weight="500"><tspan x="0" y="0">X</tspan></text></g></g></g></svg>