<svg xmlns="http://www.w3.org/2000/svg" xmlns:xlink="http://www.w3.org/1999/xlink" width="94.179" height="411.847" viewBox="0 0 94.179 411.847"><defs><clipPath id="a"><rect width="94.179" height="411.847" fill="none"/></clipPath></defs><g clip-path="url(#a)"><path d="M26.968,269.425c-1.654,0-3.007-.885-3.007-1.967V200.024c0-1.083,1.353-1.968,3.007-1.968h5.527c1.652,0,3.007.885,3.007,1.968v67.434c0,1.081-1.355,1.967-3.007,1.967Z" transform="translate(17.23 142.423)" fill="#851f83"/><rect width="5.577" height="3.032" transform="translate(44.172 225.271)" fill="#fbfbfb"/><path d="M1.749,0H9.79a1.75,1.75,0,0,1,1.75,1.75V107.4a1.749,1.749,0,0,1-1.749,1.749H1.749A1.749,1.749,0,0,1,0,107.4V1.749A1.749,1.749,0,0,1,1.749,0Z" transform="translate(41.191 116.126)" fill="#851f83"/><path d="M1.75,0H9.79a1.75,1.75,0,0,1,1.75,1.75V107.4a1.749,1.749,0,0,1-1.749,1.749H1.749A1.749,1.749,0,0,1,0,107.4V1.75A1.75,1.75,0,0,1,1.75,0Z" transform="translate(41.191 228.303)" fill="#851f83"/><rect width="5.577" height="3.032" transform="translate(44.172 337.448)" fill="#fbfbfb"/><path d="M1.75,0H9.79a1.75,1.75,0,0,1,1.75,1.75v109.6a1.749,1.749,0,0,1-1.749,1.749H1.749A1.749,1.749,0,0,1,0,111.346V1.75A1.75,1.75,0,0,1,1.75,0Z" transform="translate(41.191 0.001)" fill="#851f83"/><rect width="5.577" height="3.033" transform="translate(44.172 113.093)" fill="#fbfbfb"/><rect width="5.577" height="3.032" transform="translate(61.264 395.05)" fill="#fbfbfb"/><path d="M36.909,253.628c-1.654,0-3.007-1.083-3.007-2.407v-82.5c0-1.324,1.353-2.407,3.007-2.407h5.527c1.652,0,3.007,1.083,3.007,2.407v82.5c0,1.324-1.355,2.407-3.007,2.407Z" transform="translate(24.379 119.595)" fill="#b4cd00"/><rect width="5.577" height="3.033" transform="translate(61.264 170.698)" fill="#fbfbfb"/><path d="M1.749,0H9.79a1.75,1.75,0,0,1,1.75,1.75V107.4a1.749,1.749,0,0,1-1.749,1.749H1.75A1.75,1.75,0,0,1,0,107.4V1.749A1.749,1.749,0,0,1,1.749,0Z" transform="translate(58.281 61.553)" fill="#b4cd00"/><path d="M48.335,168.771a2.236,2.236,0,1,1-2.237-2.235,2.235,2.235,0,0,1,2.237,2.235" transform="translate(31.543 119.757)" fill="#b4cd00"/><path d="M48.563,159.435c4.592-4.592,10.389-6.8,15.2-6.289.516,4.8-1.7,10.6-6.29,15.193s-10.389,6.806-15.193,6.29c-.516-4.807,1.7-10.6,6.288-15.2" transform="translate(30.347 110.076)" fill="#b4cd00"/><path d="M1.749,0H9.79a1.75,1.75,0,0,1,1.75,1.75V107.4a1.749,1.749,0,0,1-1.749,1.749H1.75A1.75,1.75,0,0,1,0,107.4V1.749A1.749,1.749,0,0,1,1.749,0Z" transform="translate(58.281 173.73)" fill="#b4cd00"/><rect width="5.577" height="3.032" transform="translate(61.264 282.875)" fill="#fbfbfb"/><path d="M48.335,79.3A2.236,2.236,0,1,1,46.1,77.062,2.235,2.235,0,0,1,48.335,79.3" transform="translate(31.543 55.416)" fill="#b4cd00"/><path d="M48.563,69.961c4.592-4.592,10.389-6.8,15.2-6.288.516,4.807-1.7,10.6-6.29,15.193s-10.389,6.806-15.193,6.29c-.516-4.807,1.7-10.6,6.288-15.2" transform="translate(30.347 45.734)" fill="#b4cd00"/><rect width="5.577" height="3.033" transform="translate(61.264 58.522)" fill="#fbfbfb"/><rect width="5.577" height="3.032" transform="translate(27.339 395.05)" fill="#fbfbfb"/><path d="M1.75,0H9.79a1.75,1.75,0,0,1,1.75,1.75V107.4a1.749,1.749,0,0,1-1.749,1.749H1.75A1.75,1.75,0,0,1,0,107.4V1.75A1.75,1.75,0,0,1,1.75,0Z" transform="translate(24.357 285.906)" fill="#f68933"/><rect width="5.577" height="3.033" transform="translate(27.339 170.698)" fill="#fbfbfb"/><path d="M1.749,0H9.79a1.75,1.75,0,0,1,1.75,1.75V107.4a1.749,1.749,0,0,1-1.749,1.749H1.75A1.75,1.75,0,0,1,0,107.4V1.749A1.749,1.749,0,0,1,1.749,0Z" transform="translate(24.357 61.553)" fill="#f68933"/><path d="M8.319,233.692a2.235,2.235,0,1,0,2.235-2.235,2.234,2.234,0,0,0-2.235,2.235" transform="translate(5.982 134.822)" fill="#f68933"/><path d="M15.269,224.356c-4.592-4.592-10.389-6.8-15.2-6.288-.516,4.8,1.7,10.6,6.29,15.193s10.389,6.806,15.193,6.29c.516-4.807-1.7-10.6-6.288-15.2" transform="translate(0 156.76)" fill="#f68933"/><path d="M1.749,0H9.79a1.75,1.75,0,0,1,1.75,1.75V107.4a1.749,1.749,0,0,1-1.749,1.749H1.75A1.75,1.75,0,0,1,0,107.4V1.749A1.749,1.749,0,0,1,1.749,0Z" transform="translate(24.357 173.73)" fill="#f68933"/><rect width="5.577" height="3.032" transform="translate(27.339 282.875)" fill="#fbfbfb"/><path d="M8.319,103.186a2.235,2.235,0,1,0,2.235-2.235,2.234,2.234,0,0,0-2.235,2.235" transform="translate(5.982 72.594)" fill="#f68933"/><path d="M15.269,93.85c-4.592-4.592-10.389-6.8-15.2-6.288-.516,4.8,1.7,10.6,6.29,15.193s10.389,6.806,15.193,6.29c.516-4.807-1.7-10.6-6.288-15.2" transform="translate(0 62.913)" fill="#f68933"/><path d="M14.168,10.635v39.1c0,.627,1.355,1.141,3.007,1.141H22.7c1.652,0,3.007-.514,3.007-1.141v-39.1" transform="translate(10.188 7.648)" fill="#f68933"/><rect width="5.577" height="3.033" transform="translate(27.339 58.522)" fill="#fbfbfb"/><path d="M42.979,44.119a3.75,3.75,0,1,0,3.749-3.749,3.751,3.751,0,0,0-3.749,3.749" transform="translate(30.906 29.03)" fill="#b4cd00"/><path d="M42.979,177.548a3.75,3.75,0,1,0,3.749-3.749,3.751,3.751,0,0,0-3.749,3.749" transform="translate(30.906 124.979)" fill="#b4cd00"/><path d="M8.066,15.563a3.75,3.75,0,1,1,3.749,3.749,3.751,3.751,0,0,1-3.749-3.749" transform="translate(5.8 8.495)" fill="#f68933"/><path d="M8.9,132.34a3.75,3.75,0,1,1,3.749,3.749A3.751,3.751,0,0,1,8.9,132.34" transform="translate(6.397 92.47)" fill="#f68933"/><path d="M7.541,194.756a3.75,3.75,0,1,1,3.749,3.749,3.751,3.751,0,0,1-3.749-3.749" transform="translate(5.423 137.354)" fill="#f68933"/></g></svg>