<svg xmlns="http://www.w3.org/2000/svg" width="533" height="382" viewBox="0 0 533 382"><g transform="translate(-1120 -17133)"><text transform="translate(1124 17218)" fill="#05c3de" font-size="50" font-family="DINNextLTPro-Light, DIN Next LT Pro" font-weight="300"><tspan x="0" y="0">1</tspan></text><path d="M3.744,18a.227.227,0,0,0,.24-.24V11.472c0-1.992.72-3.36,2.472-3.36a3.238,3.238,0,0,1,1.776.552.217.217,0,0,0,.336-.048L9.456,7.44c.1-.12.072-.216-.048-.336A3.532,3.532,0,0,0,7.056,6.24,3.2,3.2,0,0,0,4.008,7.92H3.984V6.744a.227.227,0,0,0-.24-.24H2.208a.227.227,0,0,0-.24.24V17.76a.227.227,0,0,0,.24.24Zm11.688.264A5.59,5.59,0,0,0,19.92,16.3a.215.215,0,0,0-.024-.336l-.984-.888a.245.245,0,0,0-.36.048A3.755,3.755,0,0,1,15.6,16.392,2.839,2.839,0,0,1,12.7,14.4a4.308,4.308,0,0,1-.192-1.392.127.127,0,0,1,.144-.144H19.92a.234.234,0,0,0,.264-.24,10.03,10.03,0,0,0-.36-3.288,4.452,4.452,0,0,0-4.512-3.1,4.444,4.444,0,0,0-4.512,3.1,8.918,8.918,0,0,0-.36,2.9,9.012,9.012,0,0,0,.384,2.9A4.446,4.446,0,0,0,15.432,18.264Zm-2.784-7.008a.127.127,0,0,1-.144-.144,4.045,4.045,0,0,1,.168-1.3,2.6,2.6,0,0,1,2.64-1.8,2.6,2.6,0,0,1,2.64,1.8,4.045,4.045,0,0,1,.168,1.3.127.127,0,0,1-.144.144Zm14.28,11.328c3.24,0,5.016-1.824,5.016-5.088V6.744a.227.227,0,0,0-.24-.24H30.168a.227.227,0,0,0-.24.24v1.08H29.9A3.3,3.3,0,0,0,26.712,6.24a3.769,3.769,0,0,0-3.864,2.784,9,9,0,0,0-.384,3.024,9,9,0,0,0,.384,3.024,3.769,3.769,0,0,0,3.864,2.784A3.3,3.3,0,0,0,29.9,16.272h.024v1.344c0,2.112-1.008,3.1-2.9,3.1a3.835,3.835,0,0,1-2.712-1.152.225.225,0,0,0-.36,0l-.984.984a.216.216,0,0,0-.024.336A5.2,5.2,0,0,0,26.928,22.584Zm.288-6.576a2.346,2.346,0,0,1-2.424-1.728,7.1,7.1,0,0,1-.288-2.232,7.2,7.2,0,0,1,.288-2.232,2.352,2.352,0,0,1,2.424-1.7,2.358,2.358,0,0,1,2.448,1.7,7.085,7.085,0,0,1,.264,2.232,6.988,6.988,0,0,1-.264,2.232A2.377,2.377,0,0,1,27.216,16.008Zm12.72,2.256A5.59,5.59,0,0,0,44.424,16.3a.215.215,0,0,0-.024-.336l-.984-.888a.245.245,0,0,0-.36.048A3.755,3.755,0,0,1,40.1,16.392,2.839,2.839,0,0,1,37.2,14.4a4.308,4.308,0,0,1-.192-1.392.127.127,0,0,1,.144-.144h7.272a.234.234,0,0,0,.264-.24,10.03,10.03,0,0,0-.36-3.288,4.452,4.452,0,0,0-4.512-3.1,4.444,4.444,0,0,0-4.512,3.1,8.917,8.917,0,0,0-.36,2.9,9.012,9.012,0,0,0,.384,2.9A4.446,4.446,0,0,0,39.936,18.264Zm-2.784-7.008a.127.127,0,0,1-.144-.144,4.045,4.045,0,0,1,.168-1.3,2.836,2.836,0,0,1,5.28,0,4.045,4.045,0,0,1,.168,1.3.127.127,0,0,1-.144.144ZM56.688,18a.227.227,0,0,0,.24-.24v-7.2c0-2.616-1.488-4.32-3.984-4.32A3.634,3.634,0,0,0,49.728,7.8H49.7V6.744a.227.227,0,0,0-.24-.24H47.928a.227.227,0,0,0-.24.24V17.76a.227.227,0,0,0,.24.24h1.536a.227.227,0,0,0,.24-.24V10.92a2.58,2.58,0,0,1,2.64-2.808c1.728,0,2.568,1.08,2.568,2.928v6.72a.227.227,0,0,0,.24.24Zm8.112.264A5.59,5.59,0,0,0,69.288,16.3a.215.215,0,0,0-.024-.336l-.984-.888a.245.245,0,0,0-.36.048,3.755,3.755,0,0,1-2.952,1.272,2.839,2.839,0,0,1-2.9-1.992,4.308,4.308,0,0,1-.192-1.392.127.127,0,0,1,.144-.144h7.272a.234.234,0,0,0,.264-.24,10.03,10.03,0,0,0-.36-3.288,4.836,4.836,0,0,0-9.024,0,8.917,8.917,0,0,0-.36,2.9,9.012,9.012,0,0,0,.384,2.9A4.446,4.446,0,0,0,64.8,18.264Zm-2.784-7.008a.127.127,0,0,1-.144-.144,4.045,4.045,0,0,1,.168-1.3,2.836,2.836,0,0,1,5.28,0,4.045,4.045,0,0,1,.168,1.3.127.127,0,0,1-.144.144ZM74.328,18a.227.227,0,0,0,.24-.24V11.472c0-1.992.72-3.36,2.472-3.36a3.238,3.238,0,0,1,1.776.552.217.217,0,0,0,.336-.048L80.04,7.44c.1-.12.072-.216-.048-.336A3.532,3.532,0,0,0,77.64,6.24a3.2,3.2,0,0,0-3.048,1.68h-.024V6.744a.227.227,0,0,0-.24-.24H72.792a.227.227,0,0,0-.24.24V17.76a.227.227,0,0,0,.24.24Zm15.624,0a.227.227,0,0,0,.24-.24V10.152c0-2.832-1.248-3.912-4.512-3.912a6.377,6.377,0,0,0-3.912,1.128.254.254,0,0,0-.048.336l.648,1.1c.072.12.216.12.336.024a4.469,4.469,0,0,1,2.784-.816c2.136,0,2.76.672,2.76,2.256v.84a.127.127,0,0,1-.144.144H85.488C82.68,11.256,81,12.384,81,14.808c0,2.328,1.68,3.456,3.864,3.456a3.769,3.769,0,0,0,3.408-1.512H88.3V17.76a.227.227,0,0,0,.24.24Zm-4.608-1.464c-1.536,0-2.4-.624-2.4-1.8,0-1.3.864-1.872,2.856-1.872h2.3a.127.127,0,0,1,.144.144V14.28C88.248,15.7,87.144,16.536,85.344,16.536ZM98.016,18.12a.227.227,0,0,0,.24-.24V16.488a.227.227,0,0,0-.24-.24h-.5c-1.032,0-1.464-.312-1.464-1.464V8.28a.127.127,0,0,1,.144-.144h1.824a.227.227,0,0,0,.24-.24V6.744a.227.227,0,0,0-.24-.24H96.192a.127.127,0,0,1-.144-.144V3.12a.227.227,0,0,0-.24-.24H94.272a.227.227,0,0,0-.24.24V6.36a.127.127,0,0,1-.144.144h-.96a.227.227,0,0,0-.24.24V7.9a.227.227,0,0,0,.24.24h.96a.127.127,0,0,1,.144.144v6.576c0,2.256.864,3.264,3.1,3.264Zm7.416.144A5.59,5.59,0,0,0,109.92,16.3a.215.215,0,0,0-.024-.336l-.984-.888a.245.245,0,0,0-.36.048,3.755,3.755,0,0,1-2.952,1.272,2.839,2.839,0,0,1-2.9-1.992,4.308,4.308,0,0,1-.192-1.392.127.127,0,0,1,.144-.144h7.272a.234.234,0,0,0,.264-.24,10.03,10.03,0,0,0-.36-3.288,4.836,4.836,0,0,0-9.024,0,8.917,8.917,0,0,0-.36,2.9,9.012,9.012,0,0,0,.384,2.9A4.446,4.446,0,0,0,105.432,18.264Zm-2.784-7.008a.127.127,0,0,1-.144-.144,4.045,4.045,0,0,1,.168-1.3,2.836,2.836,0,0,1,5.28,0,4.045,4.045,0,0,1,.168,1.3.127.127,0,0,1-.144.144ZM127.7,18a.227.227,0,0,0,.24-.24v-7.2c0-2.616-1.488-4.32-3.984-4.32a3.634,3.634,0,0,0-3.216,1.56h-.024V6.744a.227.227,0,0,0-.24-.24h-1.536a.227.227,0,0,0-.24.24V17.76a.227.227,0,0,0,.24.24h1.536a.227.227,0,0,0,.24-.24V10.92a2.58,2.58,0,0,1,2.64-2.808c1.728,0,2.568,1.08,2.568,2.928v6.72a.227.227,0,0,0,.24.24ZM139.9,18a.227.227,0,0,0,.24-.24V10.152c0-2.832-1.248-3.912-4.512-3.912a6.377,6.377,0,0,0-3.912,1.128.254.254,0,0,0-.048.336l.648,1.1c.072.12.216.12.336.024a4.47,4.47,0,0,1,2.784-.816c2.136,0,2.76.672,2.76,2.256v.84a.127.127,0,0,1-.144.144h-2.616c-2.808,0-4.488,1.128-4.488,3.552,0,2.328,1.68,3.456,3.864,3.456a3.769,3.769,0,0,0,3.408-1.512h.024V17.76a.227.227,0,0,0,.24.24Zm-4.608-1.464c-1.536,0-2.4-.624-2.4-1.8,0-1.3.864-1.872,2.856-1.872h2.3a.127.127,0,0,1,.144.144V14.28C138.192,15.7,137.088,16.536,135.288,16.536ZM147.96,18.12a.227.227,0,0,0,.24-.24V16.488a.227.227,0,0,0-.24-.24h-.5c-1.032,0-1.464-.312-1.464-1.464V8.28a.127.127,0,0,1,.144-.144h1.824a.227.227,0,0,0,.24-.24V6.744a.227.227,0,0,0-.24-.24h-1.824a.127.127,0,0,1-.144-.144V3.12a.227.227,0,0,0-.24-.24h-1.536a.227.227,0,0,0-.24.24V6.36a.127.127,0,0,1-.144.144h-.96a.227.227,0,0,0-.24.24V7.9a.227.227,0,0,0,.24.24h.96a.127.127,0,0,1,.144.144v6.576c0,2.256.864,3.264,3.1,3.264ZM159.84,18a.227.227,0,0,0,.24-.24V6.744a.227.227,0,0,0-.24-.24H158.3a.227.227,0,0,0-.24.24V13.56a2.552,2.552,0,0,1-2.592,2.832c-1.7,0-2.544-1.08-2.544-2.952v-6.7a.227.227,0,0,0-.24-.24h-1.536a.227.227,0,0,0-.24.24V13.92c0,2.616,1.464,4.344,3.984,4.344a3.506,3.506,0,0,0,3.144-1.584h.024v1.08a.227.227,0,0,0,.24.24Zm5.712,0a.227.227,0,0,0,.24-.24V11.472c0-1.992.72-3.36,2.472-3.36a3.238,3.238,0,0,1,1.776.552.217.217,0,0,0,.336-.048l.888-1.176c.1-.12.072-.216-.048-.336a3.532,3.532,0,0,0-2.352-.864,3.2,3.2,0,0,0-3.048,1.68h-.024V6.744a.227.227,0,0,0-.24-.24h-1.536a.227.227,0,0,0-.24.24V17.76a.227.227,0,0,0,.24.24Zm15.624,0a.227.227,0,0,0,.24-.24V10.152c0-2.832-1.248-3.912-4.512-3.912a6.377,6.377,0,0,0-3.912,1.128.254.254,0,0,0-.048.336l.648,1.1c.072.12.216.12.336.024a4.47,4.47,0,0,1,2.784-.816c2.136,0,2.76.672,2.76,2.256v.84a.127.127,0,0,1-.144.144h-2.616c-2.808,0-4.488,1.128-4.488,3.552,0,2.328,1.68,3.456,3.864,3.456a3.769,3.769,0,0,0,3.408-1.512h.024V17.76a.227.227,0,0,0,.24.24Zm-4.608-1.464c-1.536,0-2.4-.624-2.4-1.8,0-1.3.864-1.872,2.856-1.872h2.3a.127.127,0,0,1,.144.144V14.28C179.472,15.7,178.368,16.536,176.568,16.536Zm12.024,1.584a.227.227,0,0,0,.24-.24V16.488a.227.227,0,0,0-.24-.24h-.456c-.792,0-1.152-.312-1.152-1.272V1.92a.227.227,0,0,0-.24-.24h-1.536a.227.227,0,0,0-.24.24V15.1c0,2.064.792,3.024,2.808,3.024Zm12.312.144c3,0,4.632-1.512,4.632-3.768,0-1.848-1.128-3.024-3.456-3.24l-1.2-.12c-1.7-.168-2.256-.648-2.256-1.56,0-.936.744-1.584,2.184-1.584a6.052,6.052,0,0,1,3.1.936.235.235,0,0,0,.336-.048l.816-1.032a.232.232,0,0,0-.048-.336,6.877,6.877,0,0,0-4.08-1.272c-2.712,0-4.272,1.32-4.272,3.5,0,1.872,1.176,3,3.432,3.24l1.224.12c1.8.192,2.232.7,2.232,1.608,0,1.032-.84,1.752-2.52,1.752a5.585,5.585,0,0,1-3.552-1.32.232.232,0,0,0-.336,0l-.984,1.056a.232.232,0,0,0,0,.336A7.144,7.144,0,0,0,200.9,18.264Zm8.28,4.056c1.728,0,2.616-.72,3.624-3.432l4.536-12.144c.048-.144-.048-.24-.192-.24H215.52a.281.281,0,0,0-.288.24l-2.9,8.3h-.048l-3.024-8.3a.281.281,0,0,0-.288-.24h-1.68c-.168,0-.24.1-.192.24l4.224,10.92-.384,1.056c-.5,1.32-1.008,1.728-1.944,1.728h-.432a.227.227,0,0,0-.24.24V22.08a.227.227,0,0,0,.24.24Zm14.232-4.056c3,0,4.632-1.512,4.632-3.768,0-1.848-1.128-3.024-3.456-3.24l-1.2-.12c-1.7-.168-2.256-.648-2.256-1.56,0-.936.744-1.584,2.184-1.584a6.052,6.052,0,0,1,3.1.936.235.235,0,0,0,.336-.048l.816-1.032a.232.232,0,0,0-.048-.336,6.877,6.877,0,0,0-4.08-1.272c-2.712,0-4.272,1.32-4.272,3.5,0,1.872,1.176,3,3.432,3.24l1.224.12c1.8.192,2.232.7,2.232,1.608,0,1.032-.84,1.752-2.52,1.752a5.585,5.585,0,0,1-3.552-1.32.232.232,0,0,0-.336,0l-.984,1.056a.232.232,0,0,0,0,.336A7.144,7.144,0,0,0,223.416,18.264ZM235.2,18.12a.227.227,0,0,0,.24-.24V16.488a.227.227,0,0,0-.24-.24h-.5c-1.032,0-1.464-.312-1.464-1.464V8.28a.127.127,0,0,1,.144-.144H235.2a.227.227,0,0,0,.24-.24V6.744a.227.227,0,0,0-.24-.24h-1.824a.127.127,0,0,1-.144-.144V3.12a.227.227,0,0,0-.24-.24h-1.536a.227.227,0,0,0-.24.24V6.36a.127.127,0,0,1-.144.144h-.96a.227.227,0,0,0-.24.24V7.9a.227.227,0,0,0,.24.24h.96a.127.127,0,0,1,.144.144v6.576c0,2.256.864,3.264,3.1,3.264Zm7.416.144A5.59,5.59,0,0,0,247.1,16.3a.215.215,0,0,0-.024-.336l-.984-.888a.245.245,0,0,0-.36.048,3.755,3.755,0,0,1-2.952,1.272,2.839,2.839,0,0,1-2.9-1.992,4.308,4.308,0,0,1-.192-1.392.127.127,0,0,1,.144-.144H247.1a.234.234,0,0,0,.264-.24,10.03,10.03,0,0,0-.36-3.288,4.836,4.836,0,0,0-9.024,0,8.917,8.917,0,0,0-.36,2.9,9.012,9.012,0,0,0,.384,2.9A4.446,4.446,0,0,0,242.616,18.264Zm-2.784-7.008a.127.127,0,0,1-.144-.144,4.045,4.045,0,0,1,.168-1.3,2.836,2.836,0,0,1,5.28,0,4.045,4.045,0,0,1,.168,1.3.127.127,0,0,1-.144.144ZM266.592,18a.227.227,0,0,0,.24-.24v-7.2c0-2.616-1.44-4.32-4.1-4.32a4.28,4.28,0,0,0-3.72,1.8h-.024a4.064,4.064,0,0,0-6.576-.24h-.024V6.744a.227.227,0,0,0-.24-.24h-1.536a.227.227,0,0,0-.24.24V17.76a.227.227,0,0,0,.24.24h1.536a.227.227,0,0,0,.24-.24V10.92a2.58,2.58,0,0,1,2.64-2.808c1.728,0,2.568,1.08,2.568,2.928v6.72a.227.227,0,0,0,.24.24h1.536a.227.227,0,0,0,.24-.24V10.92a2.592,2.592,0,0,1,2.64-2.808c1.728,0,2.568,1.08,2.568,2.928v6.72a.227.227,0,0,0,.24.24Zm7.776.264c3,0,4.632-1.512,4.632-3.768,0-1.848-1.128-3.024-3.456-3.24l-1.2-.12c-1.7-.168-2.256-.648-2.256-1.56,0-.936.744-1.584,2.184-1.584a6.053,6.053,0,0,1,3.1.936.235.235,0,0,0,.336-.048l.816-1.032a.232.232,0,0,0-.048-.336,6.877,6.877,0,0,0-4.08-1.272c-2.712,0-4.272,1.32-4.272,3.5,0,1.872,1.176,3,3.432,3.24l1.224.12c1.8.192,2.232.7,2.232,1.608,0,1.032-.84,1.752-2.52,1.752a5.585,5.585,0,0,1-3.552-1.32.232.232,0,0,0-.336,0l-.984,1.056a.232.232,0,0,0,0,.336A7.144,7.144,0,0,0,274.368,18.264Z" transform="translate(1279 17428)" fill="#78787a"/><path d="M10.7,18a.227.227,0,0,0,.24-.24V1.92a.227.227,0,0,0-.24-.24H9.168a.227.227,0,0,0-.24.24v5.9H8.9A3.487,3.487,0,0,0,5.64,6.24,3.8,3.8,0,0,0,1.68,9a9.507,9.507,0,0,0-.408,3.24A9.57,9.57,0,0,0,1.68,15.5a3.8,3.8,0,0,0,3.96,2.76A3.5,3.5,0,0,0,8.9,16.656h.024v1.1a.227.227,0,0,0,.24.24ZM6.12,16.392A2.459,2.459,0,0,1,3.6,14.64a7.974,7.974,0,0,1-.264-2.4A8.181,8.181,0,0,1,3.6,9.84,2.44,2.44,0,0,1,6.12,8.112,2.443,2.443,0,0,1,8.664,9.84a7.481,7.481,0,0,1,.264,2.4,7.386,7.386,0,0,1-.264,2.4A2.461,2.461,0,0,1,6.12,16.392Zm12.816,1.872A5.59,5.59,0,0,0,23.424,16.3a.215.215,0,0,0-.024-.336l-.984-.888a.245.245,0,0,0-.36.048A3.755,3.755,0,0,1,19.1,16.392,2.839,2.839,0,0,1,16.2,14.4a4.308,4.308,0,0,1-.192-1.392.127.127,0,0,1,.144-.144h7.272a.234.234,0,0,0,.264-.24,10.03,10.03,0,0,0-.36-3.288,4.452,4.452,0,0,0-4.512-3.1,4.444,4.444,0,0,0-4.512,3.1,8.918,8.918,0,0,0-.36,2.9,9.012,9.012,0,0,0,.384,2.9A4.446,4.446,0,0,0,18.936,18.264Zm-2.784-7.008a.127.127,0,0,1-.144-.144,4.045,4.045,0,0,1,.168-1.3,2.6,2.6,0,0,1,2.64-1.8,2.6,2.6,0,0,1,2.64,1.8,4.045,4.045,0,0,1,.168,1.3.127.127,0,0,1-.144.144Zm14.5,7.008c3,0,4.632-1.512,4.632-3.768,0-1.848-1.128-3.024-3.456-3.24l-1.2-.12c-1.7-.168-2.256-.648-2.256-1.56,0-.936.744-1.584,2.184-1.584a6.052,6.052,0,0,1,3.1.936.235.235,0,0,0,.336-.048L34.8,7.848a.232.232,0,0,0-.048-.336,6.877,6.877,0,0,0-4.08-1.272c-2.712,0-4.272,1.32-4.272,3.5,0,1.872,1.176,3,3.432,3.24l1.224.12c1.8.192,2.232.7,2.232,1.608,0,1.032-.84,1.752-2.52,1.752a5.585,5.585,0,0,1-3.552-1.32.232.232,0,0,0-.336,0L25.9,16.2a.232.232,0,0,0,0,.336A7.144,7.144,0,0,0,30.648,18.264ZM40.032,3.912a.227.227,0,0,0,.24-.24V1.92a.227.227,0,0,0-.24-.24H38.4a.227.227,0,0,0-.24.24V3.672a.227.227,0,0,0,.24.24ZM39.984,18a.227.227,0,0,0,.24-.24V6.744a.227.227,0,0,0-.24-.24H38.448a.227.227,0,0,0-.24.24V17.76a.227.227,0,0,0,.24.24Zm7.68,4.584c3.24,0,5.016-1.824,5.016-5.088V6.744a.227.227,0,0,0-.24-.24H50.9a.227.227,0,0,0-.24.24v1.08H50.64A3.3,3.3,0,0,0,47.448,6.24a3.769,3.769,0,0,0-3.864,2.784,9,9,0,0,0-.384,3.024,9,9,0,0,0,.384,3.024,3.769,3.769,0,0,0,3.864,2.784,3.3,3.3,0,0,0,3.192-1.584h.024v1.344c0,2.112-1.008,3.1-2.9,3.1a3.835,3.835,0,0,1-2.712-1.152.225.225,0,0,0-.36,0l-.984.984a.216.216,0,0,0-.024.336A5.2,5.2,0,0,0,47.664,22.584Zm.288-6.576a2.346,2.346,0,0,1-2.424-1.728,7.1,7.1,0,0,1-.288-2.232,7.2,7.2,0,0,1,.288-2.232,2.593,2.593,0,0,1,4.872,0,7.085,7.085,0,0,1,.264,2.232A6.989,6.989,0,0,1,50.4,14.28,2.377,2.377,0,0,1,47.952,16.008ZM65.376,18a.227.227,0,0,0,.24-.24v-7.2c0-2.616-1.488-4.32-3.984-4.32A3.634,3.634,0,0,0,58.416,7.8h-.024V6.744a.227.227,0,0,0-.24-.24H56.616a.227.227,0,0,0-.24.24V17.76a.227.227,0,0,0,.24.24h1.536a.227.227,0,0,0,.24-.24V10.92a2.58,2.58,0,0,1,2.64-2.808c1.728,0,2.568,1.08,2.568,2.928v6.72a.227.227,0,0,0,.24.24Zm13.56.264a4.47,4.47,0,0,0,4.536-3.1,8.632,8.632,0,0,0,.384-2.928,8.571,8.571,0,0,0-.384-2.9,4.871,4.871,0,0,0-9.072,0,8.571,8.571,0,0,0-.384,2.9,8.632,8.632,0,0,0,.384,2.928A4.47,4.47,0,0,0,78.936,18.264Zm0-1.872a2.557,2.557,0,0,1-2.592-1.8,7.53,7.53,0,0,1-.264-2.352,7.362,7.362,0,0,1,.264-2.328,2.766,2.766,0,0,1,5.184,0,7.362,7.362,0,0,1,.264,2.328,7.53,7.53,0,0,1-.264,2.352A2.557,2.557,0,0,1,78.936,16.392ZM95.616,18a.227.227,0,0,0,.24-.24V6.744a.227.227,0,0,0-.24-.24H94.08a.227.227,0,0,0-.24.24V13.56a2.552,2.552,0,0,1-2.592,2.832c-1.7,0-2.544-1.08-2.544-2.952v-6.7a.227.227,0,0,0-.24-.24H86.928a.227.227,0,0,0-.24.24V13.92c0,2.616,1.464,4.344,3.984,4.344a3.506,3.506,0,0,0,3.144-1.584h.024v1.08a.227.227,0,0,0,.24.24Zm8.16.12a.227.227,0,0,0,.24-.24V16.488a.227.227,0,0,0-.24-.24h-.5c-1.032,0-1.464-.312-1.464-1.464V8.28a.127.127,0,0,1,.144-.144h1.824a.227.227,0,0,0,.24-.24V6.744a.227.227,0,0,0-.24-.24h-1.824a.127.127,0,0,1-.144-.144V3.12a.227.227,0,0,0-.24-.24h-1.536a.227.227,0,0,0-.24.24V6.36a.127.127,0,0,1-.144.144h-.96a.227.227,0,0,0-.24.24V7.9a.227.227,0,0,0,.24.24h.96a.127.127,0,0,1,.144.144v6.576c0,2.256.864,3.264,3.1,3.264Zm19.9-.12c.168,0,.24-.1.288-.24l3.624-11.016a.164.164,0,0,0-.168-.24h-1.632a.271.271,0,0,0-.312.24L123,15.048h-.048l-2.616-8.3a.3.3,0,0,0-.312-.24h-1.248a.281.281,0,0,0-.288.24l-2.592,8.3h-.048l-2.544-8.3c-.072-.192-.144-.24-.312-.24H111.36a.164.164,0,0,0-.168.24l3.6,11.016a.3.3,0,0,0,.288.24h1.392a.3.3,0,0,0,.288-.24l2.616-8.232h.048l2.592,8.232a.3.3,0,0,0,.288.24Zm14.664,0a.227.227,0,0,0,.24-.24V10.152c0-2.832-1.248-3.912-4.512-3.912a6.377,6.377,0,0,0-3.912,1.128.254.254,0,0,0-.048.336l.648,1.1c.072.12.216.12.336.024a4.469,4.469,0,0,1,2.784-.816c2.136,0,2.76.672,2.76,2.256v.84a.127.127,0,0,1-.144.144h-2.616c-2.808,0-4.488,1.128-4.488,3.552,0,2.328,1.68,3.456,3.864,3.456a3.769,3.769,0,0,0,3.408-1.512h.024V17.76a.227.227,0,0,0,.24.24Zm-4.608-1.464c-1.536,0-2.4-.624-2.4-1.8,0-1.3.864-1.872,2.856-1.872h2.3a.127.127,0,0,1,.144.144V14.28C136.632,15.7,135.528,16.536,133.728,16.536Zm12.408,1.728c3,0,4.632-1.512,4.632-3.768,0-1.848-1.128-3.024-3.456-3.24l-1.2-.12c-1.7-.168-2.256-.648-2.256-1.56,0-.936.744-1.584,2.184-1.584a6.052,6.052,0,0,1,3.1.936.235.235,0,0,0,.336-.048l.816-1.032a.232.232,0,0,0-.048-.336,6.877,6.877,0,0,0-4.08-1.272c-2.712,0-4.272,1.32-4.272,3.5,0,1.872,1.176,3,3.432,3.24l1.224.12c1.8.192,2.232.7,2.232,1.608,0,1.032-.84,1.752-2.52,1.752a5.585,5.585,0,0,1-3.552-1.32.232.232,0,0,0-.336,0l-.984,1.056a.232.232,0,0,0,0,.336A7.144,7.144,0,0,0,146.136,18.264Zm11.784-.144a.227.227,0,0,0,.24-.24V16.488a.227.227,0,0,0-.24-.24h-.5c-1.032,0-1.464-.312-1.464-1.464V8.28a.127.127,0,0,1,.144-.144h1.824a.227.227,0,0,0,.24-.24V6.744a.227.227,0,0,0-.24-.24H156.1a.127.127,0,0,1-.144-.144V3.12a.227.227,0,0,0-.24-.24h-1.536a.227.227,0,0,0-.24.24V6.36a.127.127,0,0,1-.144.144h-.96a.227.227,0,0,0-.24.24V7.9a.227.227,0,0,0,.24.24h.96a.127.127,0,0,1,.144.144v6.576c0,2.256.864,3.264,3.1,3.264Zm7.416.144a5.59,5.59,0,0,0,4.488-1.968.215.215,0,0,0-.024-.336l-.984-.888a.245.245,0,0,0-.36.048,3.755,3.755,0,0,1-2.952,1.272,2.839,2.839,0,0,1-2.9-1.992,4.308,4.308,0,0,1-.192-1.392.127.127,0,0,1,.144-.144h7.272a.234.234,0,0,0,.264-.24,10.03,10.03,0,0,0-.36-3.288,4.836,4.836,0,0,0-9.024,0,8.917,8.917,0,0,0-.36,2.9,9.012,9.012,0,0,0,.384,2.9A4.446,4.446,0,0,0,165.336,18.264Zm-2.784-7.008a.127.127,0,0,1-.144-.144,4.045,4.045,0,0,1,.168-1.3,2.836,2.836,0,0,1,5.28,0,4.045,4.045,0,0,1,.168,1.3.127.127,0,0,1-.144.144ZM186.984,18a.227.227,0,0,0,.24-.24V10.152c0-2.832-1.248-3.912-4.512-3.912A6.377,6.377,0,0,0,178.8,7.368a.254.254,0,0,0-.048.336l.648,1.1c.072.12.216.12.336.024a4.47,4.47,0,0,1,2.784-.816c2.136,0,2.76.672,2.76,2.256v.84a.127.127,0,0,1-.144.144H182.52c-2.808,0-4.488,1.128-4.488,3.552,0,2.328,1.68,3.456,3.864,3.456a3.769,3.769,0,0,0,3.408-1.512h.024V17.76a.227.227,0,0,0,.24.24Zm-4.608-1.464c-1.536,0-2.4-.624-2.4-1.8,0-1.3.864-1.872,2.856-1.872h2.3a.127.127,0,0,1,.144.144V14.28C185.28,15.7,184.176,16.536,182.376,16.536ZM199.824,18a.227.227,0,0,0,.24-.24v-7.2c0-2.616-1.488-4.32-3.984-4.32a3.634,3.634,0,0,0-3.216,1.56h-.024V6.744a.227.227,0,0,0-.24-.24h-1.536a.227.227,0,0,0-.24.24V17.76a.227.227,0,0,0,.24.24H192.6a.227.227,0,0,0,.24-.24V10.92a2.58,2.58,0,0,1,2.64-2.808c1.728,0,2.568,1.08,2.568,2.928v6.72a.227.227,0,0,0,.24.24Zm12.552,0a.227.227,0,0,0,.24-.24V1.92a.227.227,0,0,0-.24-.24H210.84a.227.227,0,0,0-.24.24v5.9h-.024a3.487,3.487,0,0,0-3.264-1.584A3.8,3.8,0,0,0,203.352,9a9.507,9.507,0,0,0-.408,3.24,9.57,9.57,0,0,0,.408,3.264,3.8,3.8,0,0,0,3.96,2.76,3.5,3.5,0,0,0,3.264-1.608h.024v1.1a.227.227,0,0,0,.24.24Zm-4.584-1.608a2.459,2.459,0,0,1-2.52-1.752,7.974,7.974,0,0,1-.264-2.4,8.18,8.18,0,0,1,.264-2.4,2.719,2.719,0,0,1,5.064,0,7.481,7.481,0,0,1,.264,2.4,7.387,7.387,0,0,1-.264,2.4A2.461,2.461,0,0,1,207.792,16.392Zm15.816,5.928a.227.227,0,0,0,.24-.24V16.656h.024a3.5,3.5,0,0,0,3.264,1.608,3.8,3.8,0,0,0,3.96-2.76,9.57,9.57,0,0,0,.408-3.264A9.506,9.506,0,0,0,231.1,9a3.8,3.8,0,0,0-3.96-2.76,3.487,3.487,0,0,0-3.264,1.584h-.024V6.744a.227.227,0,0,0-.24-.24h-1.536a.227.227,0,0,0-.24.24V22.08a.227.227,0,0,0,.24.24Zm3.048-5.928a2.461,2.461,0,0,1-2.544-1.752,7.386,7.386,0,0,1-.264-2.4,7.481,7.481,0,0,1,.264-2.4,2.719,2.719,0,0,1,5.064,0,8.18,8.18,0,0,1,.264,2.4,7.974,7.974,0,0,1-.264,2.4A2.459,2.459,0,0,1,226.656,16.392Zm12.072,1.872a4.47,4.47,0,0,0,4.536-3.1,8.632,8.632,0,0,0,.384-2.928,8.571,8.571,0,0,0-.384-2.9,4.871,4.871,0,0,0-9.072,0,8.571,8.571,0,0,0-.384,2.9,8.632,8.632,0,0,0,.384,2.928A4.47,4.47,0,0,0,238.728,18.264Zm0-1.872a2.557,2.557,0,0,1-2.592-1.8,7.53,7.53,0,0,1-.264-2.352,7.362,7.362,0,0,1,.264-2.328,2.766,2.766,0,0,1,5.184,0,7.362,7.362,0,0,1,.264,2.328,7.53,7.53,0,0,1-.264,2.352A2.557,2.557,0,0,1,238.728,16.392Zm11.5,1.728a.227.227,0,0,0,.24-.24V16.488a.227.227,0,0,0-.24-.24h-.456c-.792,0-1.152-.312-1.152-1.272V1.92a.227.227,0,0,0-.24-.24H246.84a.227.227,0,0,0-.24.24V15.1c0,2.064.792,3.024,2.808,3.024Zm6.36,0a.227.227,0,0,0,.24-.24V16.488a.227.227,0,0,0-.24-.24h-.456c-.792,0-1.152-.312-1.152-1.272V1.92a.227.227,0,0,0-.24-.24H253.2a.227.227,0,0,0-.24.24V15.1c0,2.064.792,3.024,2.808,3.024ZM268.176,18a.227.227,0,0,0,.24-.24V6.744a.227.227,0,0,0-.24-.24H266.64a.227.227,0,0,0-.24.24V13.56a2.552,2.552,0,0,1-2.592,2.832c-1.7,0-2.544-1.08-2.544-2.952v-6.7a.227.227,0,0,0-.24-.24h-1.536a.227.227,0,0,0-.24.24V13.92c0,2.616,1.464,4.344,3.984,4.344a3.506,3.506,0,0,0,3.144-1.584h.024v1.08a.227.227,0,0,0,.24.24Zm8.16.12a.227.227,0,0,0,.24-.24V16.488a.227.227,0,0,0-.24-.24h-.5c-1.032,0-1.464-.312-1.464-1.464V8.28a.127.127,0,0,1,.144-.144h1.824a.227.227,0,0,0,.24-.24V6.744a.227.227,0,0,0-.24-.24h-1.824a.127.127,0,0,1-.144-.144V3.12a.227.227,0,0,0-.24-.24h-1.536a.227.227,0,0,0-.24.24V6.36a.127.127,0,0,1-.144.144h-.96a.227.227,0,0,0-.24.24V7.9a.227.227,0,0,0,.24.24h.96a.127.127,0,0,1,.144.144v6.576c0,2.256.864,3.264,3.1,3.264ZM281.28,3.912a.227.227,0,0,0,.24-.24V1.92a.227.227,0,0,0-.24-.24h-1.632a.227.227,0,0,0-.24.24V3.672a.227.227,0,0,0,.24.24ZM281.232,18a.227.227,0,0,0,.24-.24V6.744a.227.227,0,0,0-.24-.24H279.7a.227.227,0,0,0-.24.24V17.76a.227.227,0,0,0,.24.24Zm8.16.264a4.47,4.47,0,0,0,4.536-3.1,8.632,8.632,0,0,0,.384-2.928,8.571,8.571,0,0,0-.384-2.9,4.871,4.871,0,0,0-9.072,0,8.571,8.571,0,0,0-.384,2.9,8.632,8.632,0,0,0,.384,2.928A4.47,4.47,0,0,0,289.392,18.264Zm0-1.872a2.557,2.557,0,0,1-2.592-1.8,7.53,7.53,0,0,1-.264-2.352,7.361,7.361,0,0,1,.264-2.328,2.766,2.766,0,0,1,5.184,0,7.361,7.361,0,0,1,.264,2.328,7.53,7.53,0,0,1-.264,2.352A2.557,2.557,0,0,1,289.392,16.392ZM306.312,18a.227.227,0,0,0,.24-.24v-7.2c0-2.616-1.488-4.32-3.984-4.32a3.634,3.634,0,0,0-3.216,1.56h-.024V6.744a.227.227,0,0,0-.24-.24h-1.536a.227.227,0,0,0-.24.24V17.76a.227.227,0,0,0,.24.24h1.536a.227.227,0,0,0,.24-.24V10.92a2.58,2.58,0,0,1,2.64-2.808c1.728,0,2.568,1.08,2.568,2.928v6.72a.227.227,0,0,0,.24.24Z" transform="translate(1257 17189)" fill="#78787a"/><path d="M15.936,18a.155.155,0,0,0,.144-.24l-4.248-6.912,3.528-4.1c.1-.12.048-.24-.1-.24H13.488a.51.51,0,0,0-.432.216L8.52,12.072V1.92a.227.227,0,0,0-.24-.24H6.744a.227.227,0,0,0-.24.24V17.76a.227.227,0,0,0,.24.24H8.28a.227.227,0,0,0,.24-.24V14.736l1.992-2.328,3.264,5.352a.412.412,0,0,0,.384.24Zm6.6.264A5.59,5.59,0,0,0,27.024,16.3.215.215,0,0,0,27,15.96l-.984-.888a.245.245,0,0,0-.36.048A3.755,3.755,0,0,1,22.7,16.392,2.839,2.839,0,0,1,19.8,14.4a4.308,4.308,0,0,1-.192-1.392.127.127,0,0,1,.144-.144h7.272a.234.234,0,0,0,.264-.24,10.03,10.03,0,0,0-.36-3.288,4.452,4.452,0,0,0-4.512-3.1,4.444,4.444,0,0,0-4.512,3.1,8.918,8.918,0,0,0-.36,2.9,9.012,9.012,0,0,0,.384,2.9A4.446,4.446,0,0,0,22.536,18.264Zm-2.784-7.008a.127.127,0,0,1-.144-.144,4.045,4.045,0,0,1,.168-1.3,2.6,2.6,0,0,1,2.64-1.8,2.6,2.6,0,0,1,2.64,1.8,4.045,4.045,0,0,1,.168,1.3.127.127,0,0,1-.144.144Zm14.832,7.008A5.59,5.59,0,0,0,39.072,16.3a.215.215,0,0,0-.024-.336l-.984-.888a.245.245,0,0,0-.36.048,3.755,3.755,0,0,1-2.952,1.272,2.839,2.839,0,0,1-2.9-1.992,4.308,4.308,0,0,1-.192-1.392.127.127,0,0,1,.144-.144h7.272a.234.234,0,0,0,.264-.24,10.03,10.03,0,0,0-.36-3.288,4.452,4.452,0,0,0-4.512-3.1,4.444,4.444,0,0,0-4.512,3.1,8.918,8.918,0,0,0-.36,2.9,9.012,9.012,0,0,0,.384,2.9A4.446,4.446,0,0,0,34.584,18.264ZM31.8,11.256a.127.127,0,0,1-.144-.144,4.045,4.045,0,0,1,.168-1.3,2.836,2.836,0,0,1,5.28,0,4.045,4.045,0,0,1,.168,1.3.127.127,0,0,1-.144.144ZM44.112,22.32a.227.227,0,0,0,.24-.24V16.656h.024a3.5,3.5,0,0,0,3.264,1.608A3.8,3.8,0,0,0,51.6,15.5a9.57,9.57,0,0,0,.408-3.264A9.507,9.507,0,0,0,51.6,9a3.8,3.8,0,0,0-3.96-2.76,3.487,3.487,0,0,0-3.264,1.584h-.024V6.744a.227.227,0,0,0-.24-.24H42.576a.227.227,0,0,0-.24.24V22.08a.227.227,0,0,0,.24.24Zm3.048-5.928a2.461,2.461,0,0,1-2.544-1.752,7.386,7.386,0,0,1-.264-2.4,7.481,7.481,0,0,1,.264-2.4,2.719,2.719,0,0,1,5.064,0,8.181,8.181,0,0,1,.264,2.4,7.974,7.974,0,0,1-.264,2.4A2.459,2.459,0,0,1,47.16,16.392ZM62.3,22.32a.227.227,0,0,0,.24-.24V16.656h.024a3.5,3.5,0,0,0,3.264,1.608,3.8,3.8,0,0,0,3.96-2.76A9.57,9.57,0,0,0,70.2,12.24,9.506,9.506,0,0,0,69.792,9a3.8,3.8,0,0,0-3.96-2.76,3.487,3.487,0,0,0-3.264,1.584h-.024V6.744a.227.227,0,0,0-.24-.24H60.768a.227.227,0,0,0-.24.24V22.08a.227.227,0,0,0,.24.24Zm3.048-5.928a2.461,2.461,0,0,1-2.544-1.752,7.386,7.386,0,0,1-.264-2.4,7.481,7.481,0,0,1,.264-2.4,2.719,2.719,0,0,1,5.064,0,8.181,8.181,0,0,1,.264,2.4,7.974,7.974,0,0,1-.264,2.4A2.459,2.459,0,0,1,65.352,16.392ZM74.976,18a.227.227,0,0,0,.24-.24V11.472c0-1.992.72-3.36,2.472-3.36a3.238,3.238,0,0,1,1.776.552.217.217,0,0,0,.336-.048l.888-1.176c.1-.12.072-.216-.048-.336a3.532,3.532,0,0,0-2.352-.864A3.2,3.2,0,0,0,75.24,7.92h-.024V6.744a.227.227,0,0,0-.24-.24H73.44a.227.227,0,0,0-.24.24V17.76a.227.227,0,0,0,.24.24Zm11.616.264a4.47,4.47,0,0,0,4.536-3.1,8.632,8.632,0,0,0,.384-2.928,8.571,8.571,0,0,0-.384-2.9,4.871,4.871,0,0,0-9.072,0,8.571,8.571,0,0,0-.384,2.9,8.632,8.632,0,0,0,.384,2.928A4.47,4.47,0,0,0,86.592,18.264Zm0-1.872A2.557,2.557,0,0,1,84,14.592a7.53,7.53,0,0,1-.264-2.352A7.362,7.362,0,0,1,84,9.912a2.766,2.766,0,0,1,5.184,0,7.362,7.362,0,0,1,.264,2.328,7.53,7.53,0,0,1-.264,2.352A2.557,2.557,0,0,1,86.592,16.392ZM103.248,18a.227.227,0,0,0,.24-.24V1.92a.227.227,0,0,0-.24-.24h-1.536a.227.227,0,0,0-.24.24v5.9h-.024A3.487,3.487,0,0,0,98.184,6.24,3.8,3.8,0,0,0,94.224,9a9.507,9.507,0,0,0-.408,3.24,9.57,9.57,0,0,0,.408,3.264,3.8,3.8,0,0,0,3.96,2.76,3.5,3.5,0,0,0,3.264-1.608h.024v1.1a.227.227,0,0,0,.24.24Zm-4.584-1.608a2.459,2.459,0,0,1-2.52-1.752,7.974,7.974,0,0,1-.264-2.4,8.181,8.181,0,0,1,.264-2.4,2.719,2.719,0,0,1,5.064,0,7.481,7.481,0,0,1,.264,2.4,7.386,7.386,0,0,1-.264,2.4A2.461,2.461,0,0,1,98.664,16.392ZM115.944,18a.227.227,0,0,0,.24-.24V6.744a.227.227,0,0,0-.24-.24h-1.536a.227.227,0,0,0-.24.24V13.56a2.552,2.552,0,0,1-2.592,2.832c-1.7,0-2.544-1.08-2.544-2.952v-6.7a.227.227,0,0,0-.24-.24h-1.536a.227.227,0,0,0-.24.24V13.92c0,2.616,1.464,4.344,3.984,4.344a3.506,3.506,0,0,0,3.144-1.584h.024v1.08a.227.227,0,0,0,.24.24Zm3.24-5.76a9.931,9.931,0,0,0,.36,2.928,4.454,4.454,0,0,0,4.536,3.1,4.609,4.609,0,0,0,3.936-1.944c.072-.12.072-.216-.072-.336l-1.056-.864a.215.215,0,0,0-.336.024,2.826,2.826,0,0,1-2.472,1.248,2.494,2.494,0,0,1-2.568-1.8,7.729,7.729,0,0,1-.264-2.352,7.658,7.658,0,0,1,.264-2.328,2.494,2.494,0,0,1,2.568-1.8,2.826,2.826,0,0,1,2.472,1.248.215.215,0,0,0,.336.024l1.056-.864c.144-.12.144-.216.072-.336A4.609,4.609,0,0,0,124.08,6.24a4.454,4.454,0,0,0-4.536,3.1A9.867,9.867,0,0,0,119.184,12.24Zm16.008,5.88a.227.227,0,0,0,.24-.24V16.488a.227.227,0,0,0-.24-.24h-.5c-1.032,0-1.464-.312-1.464-1.464V8.28a.127.127,0,0,1,.144-.144h1.824a.227.227,0,0,0,.24-.24V6.744a.227.227,0,0,0-.24-.24h-1.824a.127.127,0,0,1-.144-.144V3.12a.227.227,0,0,0-.24-.24h-1.536a.227.227,0,0,0-.24.24V6.36a.127.127,0,0,1-.144.144h-.96a.227.227,0,0,0-.24.24V7.9a.227.227,0,0,0,.24.24h.96a.127.127,0,0,1,.144.144v6.576c0,2.256.864,3.264,3.1,3.264Zm7.08.144c3,0,4.632-1.512,4.632-3.768,0-1.848-1.128-3.024-3.456-3.24l-1.2-.12c-1.7-.168-2.256-.648-2.256-1.56,0-.936.744-1.584,2.184-1.584a6.052,6.052,0,0,1,3.1.936.235.235,0,0,0,.336-.048l.816-1.032a.232.232,0,0,0-.048-.336A6.877,6.877,0,0,0,142.3,6.24c-2.712,0-4.272,1.32-4.272,3.5,0,1.872,1.176,3,3.432,3.24l1.224.12c1.8.192,2.232.7,2.232,1.608,0,1.032-.84,1.752-2.52,1.752a5.585,5.585,0,0,1-3.552-1.32.232.232,0,0,0-.336,0L137.52,16.2a.232.232,0,0,0,0,.336A7.144,7.144,0,0,0,142.272,18.264ZM163.728,18a.227.227,0,0,0,.24-.24V10.152c0-2.832-1.248-3.912-4.512-3.912a6.377,6.377,0,0,0-3.912,1.128.254.254,0,0,0-.048.336l.648,1.1c.072.12.216.12.336.024a4.47,4.47,0,0,1,2.784-.816c2.136,0,2.76.672,2.76,2.256v.84a.127.127,0,0,1-.144.144h-2.616c-2.808,0-4.488,1.128-4.488,3.552,0,2.328,1.68,3.456,3.864,3.456a3.769,3.769,0,0,0,3.408-1.512h.024V17.76a.227.227,0,0,0,.24.24Zm-4.608-1.464c-1.536,0-2.4-.624-2.4-1.8,0-1.3.864-1.872,2.856-1.872h2.3a.127.127,0,0,1,.144.144V14.28C162.024,15.7,160.92,16.536,159.12,16.536ZM176.568,18a.227.227,0,0,0,.24-.24v-7.2c0-2.616-1.488-4.32-3.984-4.32a3.634,3.634,0,0,0-3.216,1.56h-.024V6.744a.227.227,0,0,0-.24-.24h-1.536a.227.227,0,0,0-.24.24V17.76a.227.227,0,0,0,.24.24h1.536a.227.227,0,0,0,.24-.24V10.92a2.58,2.58,0,0,1,2.64-2.808c1.728,0,2.568,1.08,2.568,2.928v6.72a.227.227,0,0,0,.24.24Zm12.552,0a.227.227,0,0,0,.24-.24V1.92a.227.227,0,0,0-.24-.24h-1.536a.227.227,0,0,0-.24.24v5.9h-.024a3.487,3.487,0,0,0-3.264-1.584A3.8,3.8,0,0,0,180.1,9a9.507,9.507,0,0,0-.408,3.24A9.57,9.57,0,0,0,180.1,15.5a3.8,3.8,0,0,0,3.96,2.76,3.5,3.5,0,0,0,3.264-1.608h.024v1.1a.227.227,0,0,0,.24.24Zm-4.584-1.608a2.459,2.459,0,0,1-2.52-1.752,7.974,7.974,0,0,1-.264-2.4,8.18,8.18,0,0,1,.264-2.4,2.719,2.719,0,0,1,5.064,0,7.481,7.481,0,0,1,.264,2.4,7.387,7.387,0,0,1-.264,2.4A2.461,2.461,0,0,1,184.536,16.392ZM214.8,18a.227.227,0,0,0,.24-.24v-7.2c0-2.616-1.44-4.32-4.1-4.32a4.28,4.28,0,0,0-3.72,1.8h-.024a4.064,4.064,0,0,0-6.576-.24h-.024V6.744a.227.227,0,0,0-.24-.24h-1.536a.227.227,0,0,0-.24.24V17.76a.227.227,0,0,0,.24.24h1.536a.227.227,0,0,0,.24-.24V10.92a2.58,2.58,0,0,1,2.64-2.808c1.728,0,2.568,1.08,2.568,2.928v6.72a.227.227,0,0,0,.24.24h1.536a.227.227,0,0,0,.24-.24V10.92a2.592,2.592,0,0,1,2.64-2.808c1.728,0,2.568,1.08,2.568,2.928v6.72a.227.227,0,0,0,.24.24Zm12.192,0a.227.227,0,0,0,.24-.24V10.152c0-2.832-1.248-3.912-4.512-3.912a6.377,6.377,0,0,0-3.912,1.128.254.254,0,0,0-.048.336l.648,1.1c.072.12.216.12.336.024a4.47,4.47,0,0,1,2.784-.816c2.136,0,2.76.672,2.76,2.256v.84a.127.127,0,0,1-.144.144h-2.616c-2.808,0-4.488,1.128-4.488,3.552,0,2.328,1.68,3.456,3.864,3.456a3.769,3.769,0,0,0,3.408-1.512h.024V17.76a.227.227,0,0,0,.24.24Zm-4.608-1.464c-1.536,0-2.4-.624-2.4-1.8,0-1.3.864-1.872,2.856-1.872h2.3a.127.127,0,0,1,.144.144V14.28C225.288,15.7,224.184,16.536,222.384,16.536Zm12.672,1.584a.227.227,0,0,0,.24-.24V16.488a.227.227,0,0,0-.24-.24h-.5c-1.032,0-1.464-.312-1.464-1.464V8.28a.127.127,0,0,1,.144-.144h1.824a.227.227,0,0,0,.24-.24V6.744a.227.227,0,0,0-.24-.24h-1.824a.127.127,0,0,1-.144-.144V3.12a.227.227,0,0,0-.24-.24h-1.536a.227.227,0,0,0-.24.24V6.36a.127.127,0,0,1-.144.144h-.96a.227.227,0,0,0-.24.24V7.9a.227.227,0,0,0,.24.24h.96a.127.127,0,0,1,.144.144v6.576c0,2.256.864,3.264,3.1,3.264Zm7.416.144A5.59,5.59,0,0,0,246.96,16.3a.215.215,0,0,0-.024-.336l-.984-.888a.245.245,0,0,0-.36.048,3.755,3.755,0,0,1-2.952,1.272,2.839,2.839,0,0,1-2.9-1.992,4.308,4.308,0,0,1-.192-1.392.127.127,0,0,1,.144-.144h7.272a.234.234,0,0,0,.264-.24,10.03,10.03,0,0,0-.36-3.288,4.836,4.836,0,0,0-9.024,0,8.917,8.917,0,0,0-.36,2.9,9.012,9.012,0,0,0,.384,2.9A4.446,4.446,0,0,0,242.472,18.264Zm-2.784-7.008a.127.127,0,0,1-.144-.144,4.045,4.045,0,0,1,.168-1.3,2.836,2.836,0,0,1,5.28,0,4.045,4.045,0,0,1,.168,1.3.127.127,0,0,1-.144.144ZM252,18a.227.227,0,0,0,.24-.24V11.472c0-1.992.72-3.36,2.472-3.36a3.238,3.238,0,0,1,1.776.552.217.217,0,0,0,.336-.048l.888-1.176c.1-.12.072-.216-.048-.336a3.532,3.532,0,0,0-2.352-.864,3.2,3.2,0,0,0-3.048,1.68h-.024V6.744A.227.227,0,0,0,252,6.5h-1.536a.227.227,0,0,0-.24.24V17.76a.227.227,0,0,0,.24.24Zm9.648-14.088a.227.227,0,0,0,.24-.24V1.92a.227.227,0,0,0-.24-.24h-1.632a.227.227,0,0,0-.24.24V3.672a.227.227,0,0,0,.24.24ZM261.6,18a.227.227,0,0,0,.24-.24V6.744a.227.227,0,0,0-.24-.24h-1.536a.227.227,0,0,0-.24.24V17.76a.227.227,0,0,0,.24.24Zm12.312,0a.227.227,0,0,0,.24-.24V10.152c0-2.832-1.248-3.912-4.512-3.912a6.377,6.377,0,0,0-3.912,1.128.254.254,0,0,0-.048.336l.648,1.1c.072.12.216.12.336.024a4.469,4.469,0,0,1,2.784-.816c2.136,0,2.76.672,2.76,2.256v.84a.127.127,0,0,1-.144.144h-2.616c-2.808,0-4.488,1.128-4.488,3.552,0,2.328,1.68,3.456,3.864,3.456a3.769,3.769,0,0,0,3.408-1.512h.024V17.76a.227.227,0,0,0,.24.24ZM269.3,16.536c-1.536,0-2.4-.624-2.4-1.8,0-1.3.864-1.872,2.856-1.872h2.3a.127.127,0,0,1,.144.144V14.28C272.208,15.7,271.1,16.536,269.3,16.536Zm12.024,1.584a.227.227,0,0,0,.24-.24V16.488a.227.227,0,0,0-.24-.24h-.456c-.792,0-1.152-.312-1.152-1.272V1.92a.227.227,0,0,0-.24-.24h-1.536a.227.227,0,0,0-.24.24V15.1c0,2.064.792,3.024,2.808,3.024Zm6.792.144c3,0,4.632-1.512,4.632-3.768,0-1.848-1.128-3.024-3.456-3.24l-1.2-.12c-1.7-.168-2.256-.648-2.256-1.56,0-.936.744-1.584,2.184-1.584a6.053,6.053,0,0,1,3.1.936.235.235,0,0,0,.336-.048l.816-1.032a.232.232,0,0,0-.048-.336,6.877,6.877,0,0,0-4.08-1.272c-2.712,0-4.272,1.32-4.272,3.5,0,1.872,1.176,3,3.432,3.24l1.224.12c1.8.192,2.232.7,2.232,1.608,0,1.032-.84,1.752-2.52,1.752a5.585,5.585,0,0,1-3.552-1.32.232.232,0,0,0-.336,0l-.984,1.056a.232.232,0,0,0,0,.336A7.144,7.144,0,0,0,288.12,18.264Zm14.9-14.352a.227.227,0,0,0,.24-.24V1.92a.227.227,0,0,0-.24-.24h-1.632a.227.227,0,0,0-.24.24V3.672a.227.227,0,0,0,.24.24ZM302.976,18a.227.227,0,0,0,.24-.24V6.744a.227.227,0,0,0-.24-.24H301.44a.227.227,0,0,0-.24.24V17.76a.227.227,0,0,0,.24.24Zm12.936,0a.227.227,0,0,0,.24-.24v-7.2c0-2.616-1.488-4.32-3.984-4.32a3.634,3.634,0,0,0-3.216,1.56h-.024V6.744a.227.227,0,0,0-.24-.24h-1.536a.227.227,0,0,0-.24.24V17.76a.227.227,0,0,0,.24.24h1.536a.227.227,0,0,0,.24-.24V10.92a2.58,2.58,0,0,1,2.64-2.808c1.728,0,2.568,1.08,2.568,2.928v6.72a.227.227,0,0,0,.24.24ZM30.672,42a.227.227,0,0,0,.24-.24V30.744a.227.227,0,0,0-.24-.24H29.136a.227.227,0,0,0-.24.24V37.56A2.552,2.552,0,0,1,26.3,40.392c-1.7,0-2.544-1.08-2.544-2.952v-6.7a.227.227,0,0,0-.24-.24H21.984a.227.227,0,0,0-.24.24V37.92c0,2.616,1.464,4.344,3.984,4.344a3.506,3.506,0,0,0,3.144-1.584H28.9v1.08a.227.227,0,0,0,.24.24Zm7.9.264c3,0,4.632-1.512,4.632-3.768,0-1.848-1.128-3.024-3.456-3.24l-1.2-.12c-1.7-.168-2.256-.648-2.256-1.56,0-.936.744-1.584,2.184-1.584a6.052,6.052,0,0,1,3.1.936.235.235,0,0,0,.336-.048l.816-1.032a.232.232,0,0,0-.048-.336,6.877,6.877,0,0,0-4.08-1.272c-2.712,0-4.272,1.32-4.272,3.5,0,1.872,1.176,3,3.432,3.24l1.224.12c1.8.192,2.232.7,2.232,1.608,0,1.032-.84,1.752-2.52,1.752a5.585,5.585,0,0,1-3.552-1.32.232.232,0,0,0-.336,0L33.816,40.2a.232.232,0,0,0,0,.336A7.144,7.144,0,0,0,38.568,42.264Zm11.856,0A5.59,5.59,0,0,0,54.912,40.3a.215.215,0,0,0-.024-.336l-.984-.888a.245.245,0,0,0-.36.048,3.755,3.755,0,0,1-2.952,1.272,2.839,2.839,0,0,1-2.9-1.992,4.308,4.308,0,0,1-.192-1.392.127.127,0,0,1,.144-.144h7.272a.234.234,0,0,0,.264-.24,10.03,10.03,0,0,0-.36-3.288,4.452,4.452,0,0,0-4.512-3.1,4.444,4.444,0,0,0-4.512,3.1,8.917,8.917,0,0,0-.36,2.9,9.012,9.012,0,0,0,.384,2.9A4.446,4.446,0,0,0,50.424,42.264ZM47.64,35.256a.127.127,0,0,1-.144-.144,4.045,4.045,0,0,1,.168-1.3,2.836,2.836,0,0,1,5.28,0,4.045,4.045,0,0,1,.168,1.3.127.127,0,0,1-.144.144ZM72.072,42a.227.227,0,0,0,.24-.24V34.152c0-2.832-1.248-3.912-4.512-3.912a6.377,6.377,0,0,0-3.912,1.128.254.254,0,0,0-.048.336l.648,1.1c.072.12.216.12.336.024a4.47,4.47,0,0,1,2.784-.816c2.136,0,2.76.672,2.76,2.256v.84a.127.127,0,0,1-.144.144H67.608c-2.808,0-4.488,1.128-4.488,3.552,0,2.328,1.68,3.456,3.864,3.456a3.769,3.769,0,0,0,3.408-1.512h.024V41.76a.227.227,0,0,0,.24.24Zm-4.608-1.464c-1.536,0-2.4-.624-2.4-1.8,0-1.3.864-1.872,2.856-1.872h2.3a.127.127,0,0,1,.144.144V38.28C70.368,39.7,69.264,40.536,67.464,40.536ZM84.912,42a.227.227,0,0,0,.24-.24v-7.2c0-2.616-1.488-4.32-3.984-4.32a3.634,3.634,0,0,0-3.216,1.56h-.024V30.744a.227.227,0,0,0-.24-.24H76.152a.227.227,0,0,0-.24.24V41.76a.227.227,0,0,0,.24.24h1.536a.227.227,0,0,0,.24-.24V34.92a2.58,2.58,0,0,1,2.64-2.808c1.728,0,2.568,1.08,2.568,2.928v6.72a.227.227,0,0,0,.24.24Zm12.552,0a.227.227,0,0,0,.24-.24V25.92a.227.227,0,0,0-.24-.24H95.928a.227.227,0,0,0-.24.24v5.9h-.024A3.487,3.487,0,0,0,92.4,30.24,3.8,3.8,0,0,0,88.44,33a9.507,9.507,0,0,0-.408,3.24A9.57,9.57,0,0,0,88.44,39.5a3.8,3.8,0,0,0,3.96,2.76,3.5,3.5,0,0,0,3.264-1.608h.024v1.1a.227.227,0,0,0,.24.24ZM92.88,40.392a2.459,2.459,0,0,1-2.52-1.752,7.974,7.974,0,0,1-.264-2.4,8.181,8.181,0,0,1,.264-2.4,2.719,2.719,0,0,1,5.064,0,7.481,7.481,0,0,1,.264,2.4,7.386,7.386,0,0,1-.264,2.4A2.461,2.461,0,0,1,92.88,40.392ZM115.3,42a.227.227,0,0,0,.24-.24V34.152c0-2.832-1.248-3.912-4.512-3.912a6.377,6.377,0,0,0-3.912,1.128.254.254,0,0,0-.048.336l.648,1.1c.072.12.216.12.336.024a4.469,4.469,0,0,1,2.784-.816c2.136,0,2.76.672,2.76,2.256v.84a.127.127,0,0,1-.144.144h-2.616c-2.808,0-4.488,1.128-4.488,3.552,0,2.328,1.68,3.456,3.864,3.456a3.769,3.769,0,0,0,3.408-1.512h.024V41.76a.227.227,0,0,0,.24.24Zm-4.608-1.464c-1.536,0-2.4-.624-2.4-1.8,0-1.3.864-1.872,2.856-1.872h2.3a.127.127,0,0,1,.144.144V38.28C113.592,39.7,112.488,40.536,110.688,40.536ZM123.36,42.12a.227.227,0,0,0,.24-.24V40.488a.227.227,0,0,0-.24-.24h-.5c-1.032,0-1.464-.312-1.464-1.464v-6.5a.127.127,0,0,1,.144-.144h1.824a.227.227,0,0,0,.24-.24V30.744a.227.227,0,0,0-.24-.24h-1.824a.127.127,0,0,1-.144-.144V27.12a.227.227,0,0,0-.24-.24h-1.536a.227.227,0,0,0-.24.24v3.24a.127.127,0,0,1-.144.144h-.96a.227.227,0,0,0-.24.24V31.9a.227.227,0,0,0,.24.24h.96a.127.127,0,0,1,.144.144v6.576c0,2.256.864,3.264,3.1,3.264Zm12.864,0a.227.227,0,0,0,.24-.24V40.488a.227.227,0,0,0-.24-.24h-.5c-1.032,0-1.464-.312-1.464-1.464v-6.5a.127.127,0,0,1,.144-.144h1.824a.227.227,0,0,0,.24-.24V30.744a.227.227,0,0,0-.24-.24H134.4a.127.127,0,0,1-.144-.144V27.12a.227.227,0,0,0-.24-.24H132.48a.227.227,0,0,0-.24.24v3.24a.127.127,0,0,1-.144.144h-.96a.227.227,0,0,0-.24.24V31.9a.227.227,0,0,0,.24.24h.96a.127.127,0,0,1,.144.144v6.576c0,2.256.864,3.264,3.1,3.264Zm12.12-.12a.227.227,0,0,0,.24-.24v-7.2c0-2.616-1.488-4.32-3.984-4.32a3.634,3.634,0,0,0-3.216,1.56h-.024V25.92a.227.227,0,0,0-.24-.24h-1.536a.227.227,0,0,0-.24.24V41.76a.227.227,0,0,0,.24.24h1.536a.227.227,0,0,0,.24-.24V34.92A2.58,2.58,0,0,1,144,32.112c1.728,0,2.568,1.08,2.568,2.928v6.72a.227.227,0,0,0,.24.24Zm8.112.264a5.59,5.59,0,0,0,4.488-1.968.215.215,0,0,0-.024-.336l-.984-.888a.245.245,0,0,0-.36.048,3.755,3.755,0,0,1-2.952,1.272,2.839,2.839,0,0,1-2.9-1.992,4.308,4.308,0,0,1-.192-1.392.127.127,0,0,1,.144-.144h7.272a.234.234,0,0,0,.264-.24,10.03,10.03,0,0,0-.36-3.288,4.836,4.836,0,0,0-9.024,0,8.917,8.917,0,0,0-.36,2.9,9.012,9.012,0,0,0,.384,2.9A4.446,4.446,0,0,0,156.456,42.264Zm-2.784-7.008a.127.127,0,0,1-.144-.144,4.045,4.045,0,0,1,.168-1.3,2.836,2.836,0,0,1,5.28,0,4.045,4.045,0,0,1,.168,1.3.127.127,0,0,1-.144.144Zm12.36-7.344a.227.227,0,0,0,.24-.24V25.92a.227.227,0,0,0-.24-.24H164.4a.227.227,0,0,0-.24.24v1.752a.227.227,0,0,0,.24.24ZM165.984,42a.227.227,0,0,0,.24-.24V30.744a.227.227,0,0,0-.24-.24h-1.536a.227.227,0,0,0-.24.24V41.76a.227.227,0,0,0,.24.24Zm5.712,0a.227.227,0,0,0,.24-.24V35.472c0-1.992.72-3.36,2.472-3.36a3.238,3.238,0,0,1,1.776.552.217.217,0,0,0,.336-.048l.888-1.176c.1-.12.072-.216-.048-.336a3.532,3.532,0,0,0-2.352-.864,3.2,3.2,0,0,0-3.048,1.68h-.024V30.744a.227.227,0,0,0-.24-.24H170.16a.227.227,0,0,0-.24.24V41.76a.227.227,0,0,0,.24.24Zm22.344,0a.227.227,0,0,0,.24-.24v-7.2c0-2.616-1.488-4.32-3.984-4.32a3.634,3.634,0,0,0-3.216,1.56h-.024V25.92a.227.227,0,0,0-.24-.24H185.28a.227.227,0,0,0-.24.24V41.76a.227.227,0,0,0,.24.24h1.536a.227.227,0,0,0,.24-.24V34.92a2.58,2.58,0,0,1,2.64-2.808c1.728,0,2.568,1.08,2.568,2.928v6.72a.227.227,0,0,0,.24.24Zm5.64-14.088a.227.227,0,0,0,.24-.24V25.92a.227.227,0,0,0-.24-.24h-1.632a.227.227,0,0,0-.24.24v1.752a.227.227,0,0,0,.24.24ZM199.632,42a.227.227,0,0,0,.24-.24V30.744a.227.227,0,0,0-.24-.24H198.1a.227.227,0,0,0-.24.24V41.76a.227.227,0,0,0,.24.24Zm7.68,4.584c3.24,0,5.016-1.824,5.016-5.088V30.744a.227.227,0,0,0-.24-.24h-1.536a.227.227,0,0,0-.24.24v1.08h-.024A3.3,3.3,0,0,0,207.1,30.24a3.769,3.769,0,0,0-3.864,2.784,9,9,0,0,0-.384,3.024,9,9,0,0,0,.384,3.024,3.769,3.769,0,0,0,3.864,2.784,3.3,3.3,0,0,0,3.192-1.584h.024v1.344c0,2.112-1.008,3.1-2.9,3.1A3.835,3.835,0,0,1,204.7,43.56a.225.225,0,0,0-.36,0l-.984.984a.216.216,0,0,0-.024.336A5.2,5.2,0,0,0,207.312,46.584Zm.288-6.576a2.346,2.346,0,0,1-2.424-1.728,7.1,7.1,0,0,1-.288-2.232,7.2,7.2,0,0,1,.288-2.232,2.593,2.593,0,0,1,4.872,0,7.085,7.085,0,0,1,.264,2.232,6.988,6.988,0,0,1-.264,2.232A2.377,2.377,0,0,1,207.6,40.008ZM225.024,42a.227.227,0,0,0,.24-.24v-7.2c0-2.616-1.488-4.32-3.984-4.32a3.634,3.634,0,0,0-3.216,1.56h-.024V25.92a.227.227,0,0,0-.24-.24h-1.536a.227.227,0,0,0-.24.24V41.76a.227.227,0,0,0,.24.24H217.8a.227.227,0,0,0,.24-.24V34.92a2.58,2.58,0,0,1,2.64-2.808c1.728,0,2.568,1.08,2.568,2.928v6.72a.227.227,0,0,0,.24.24Zm8.112.264a5.59,5.59,0,0,0,4.488-1.968.215.215,0,0,0-.024-.336l-.984-.888a.245.245,0,0,0-.36.048,3.755,3.755,0,0,1-2.952,1.272,2.839,2.839,0,0,1-2.9-1.992,4.308,4.308,0,0,1-.192-1.392.127.127,0,0,1,.144-.144h7.272a.234.234,0,0,0,.264-.24,10.03,10.03,0,0,0-.36-3.288,4.836,4.836,0,0,0-9.024,0,8.917,8.917,0,0,0-.36,2.9,9.012,9.012,0,0,0,.384,2.9A4.446,4.446,0,0,0,233.136,42.264Zm-2.784-7.008a.127.127,0,0,1-.144-.144,4.045,4.045,0,0,1,.168-1.3,2.836,2.836,0,0,1,5.28,0,4.045,4.045,0,0,1,.168,1.3.127.127,0,0,1-.144.144Zm14.5,7.008c3,0,4.632-1.512,4.632-3.768,0-1.848-1.128-3.024-3.456-3.24l-1.2-.12c-1.7-.168-2.256-.648-2.256-1.56,0-.936.744-1.584,2.184-1.584a6.052,6.052,0,0,1,3.1.936.235.235,0,0,0,.336-.048L249,31.848a.232.232,0,0,0-.048-.336,6.877,6.877,0,0,0-4.08-1.272c-2.712,0-4.272,1.32-4.272,3.5,0,1.872,1.176,3,3.432,3.24l1.224.12c1.8.192,2.232.7,2.232,1.608,0,1.032-.84,1.752-2.52,1.752a5.585,5.585,0,0,1-3.552-1.32.232.232,0,0,0-.336,0L240.1,40.2a.232.232,0,0,0,0,.336A7.144,7.144,0,0,0,244.848,42.264Zm11.784-.144a.227.227,0,0,0,.24-.24V40.488a.227.227,0,0,0-.24-.24h-.5c-1.032,0-1.464-.312-1.464-1.464v-6.5a.127.127,0,0,1,.144-.144h1.824a.227.227,0,0,0,.24-.24V30.744a.227.227,0,0,0-.24-.24h-1.824a.127.127,0,0,1-.144-.144V27.12a.227.227,0,0,0-.24-.24h-1.536a.227.227,0,0,0-.24.24v3.24a.127.127,0,0,1-.144.144h-.96a.227.227,0,0,0-.24.24V31.9a.227.227,0,0,0,.24.24h.96a.127.127,0,0,1,.144.144v6.576c0,2.256.864,3.264,3.1,3.264Zm13.08-.12a.311.311,0,0,0,.312-.24l4.1-11.016c.048-.144-.024-.24-.192-.24H272.3a.281.281,0,0,0-.288.24L269.112,39h-.048l-2.976-8.256c-.072-.168-.144-.24-.312-.24H264.12c-.168,0-.24.1-.192.24l4.128,11.016c.048.144.12.24.288.24Zm15.024,0a.227.227,0,0,0,.24-.24V34.152c0-2.832-1.248-3.912-4.512-3.912a6.377,6.377,0,0,0-3.912,1.128.254.254,0,0,0-.048.336l.648,1.1c.072.12.216.12.336.024a4.469,4.469,0,0,1,2.784-.816c2.136,0,2.76.672,2.76,2.256v.84a.127.127,0,0,1-.144.144h-2.616c-2.808,0-4.488,1.128-4.488,3.552,0,2.328,1.68,3.456,3.864,3.456a3.769,3.769,0,0,0,3.408-1.512h.024V41.76a.227.227,0,0,0,.24.24Zm-4.608-1.464c-1.536,0-2.4-.624-2.4-1.8,0-1.3.864-1.872,2.856-1.872h2.3a.127.127,0,0,1,.144.144V38.28C283.032,39.7,281.928,40.536,280.128,40.536Zm12.024,1.584a.227.227,0,0,0,.24-.24V40.488a.227.227,0,0,0-.24-.24H291.7c-.792,0-1.152-.312-1.152-1.272V25.92a.227.227,0,0,0-.24-.24h-1.536a.227.227,0,0,0-.24.24V39.1c0,2.064.792,3.024,2.808,3.024ZM303.744,42a.227.227,0,0,0,.24-.24V30.744a.227.227,0,0,0-.24-.24h-1.536a.227.227,0,0,0-.24.24V37.56a2.552,2.552,0,0,1-2.592,2.832c-1.7,0-2.544-1.08-2.544-2.952v-6.7a.227.227,0,0,0-.24-.24h-1.536a.227.227,0,0,0-.24.24V37.92c0,2.616,1.464,4.344,3.984,4.344a3.506,3.506,0,0,0,3.144-1.584h.024v1.08a.227.227,0,0,0,.24.24Zm8.232.264a5.59,5.59,0,0,0,4.488-1.968.215.215,0,0,0-.024-.336l-.984-.888a.245.245,0,0,0-.36.048,3.755,3.755,0,0,1-2.952,1.272,2.839,2.839,0,0,1-2.9-1.992,4.308,4.308,0,0,1-.192-1.392.127.127,0,0,1,.144-.144h7.272a.234.234,0,0,0,.264-.24,10.031,10.031,0,0,0-.36-3.288,4.836,4.836,0,0,0-9.024,0,8.918,8.918,0,0,0-.36,2.9,9.012,9.012,0,0,0,.384,2.9A4.446,4.446,0,0,0,311.976,42.264Zm-2.784-7.008a.127.127,0,0,1-.144-.144,4.045,4.045,0,0,1,.168-1.3,2.836,2.836,0,0,1,5.28,0,4.045,4.045,0,0,1,.168,1.3.127.127,0,0,1-.144.144Z" transform="translate(1228 17296)" fill="#78787a"/><text transform="translate(1120 17459)" fill="#b4cd00" font-size="50" font-family="DINNextLTPro-Light, DIN Next LT Pro" font-weight="300"><tspan x="0" y="0">3</tspan></text><g transform="translate(1207 17413.697)"><g transform="translate(0)" fill="#b4cd00" stroke="rgba(0,0,0,0)" stroke-width="1" opacity="0"><rect width="48.905" height="50.303" stroke="none"/><rect x="0.5" y="0.5" width="47.905" height="49.303" fill="none"/></g><path d="M40.626,16.815h4.292v3.314H40.626a23.235,23.235,0,0,1-8.584-1.657,23.612,23.612,0,0,1-17.167,0,23.32,23.32,0,0,1-8.584,1.657H2V16.815H6.292a18.074,18.074,0,0,0,8.584-2.2,18.4,18.4,0,0,0,17.167,0,18.074,18.074,0,0,0,8.584,2.2m0-9.941h4.292v3.314H40.626A23.235,23.235,0,0,1,32.043,8.53a23.612,23.612,0,0,1-17.167,0,23.32,23.32,0,0,1-8.584,1.657H2V6.874H6.292a18.074,18.074,0,0,0,8.584-2.2,18.4,18.4,0,0,0,17.167,0,18.074,18.074,0,0,0,8.584,2.2m0,19.882h4.292v3.314H40.626a23.235,23.235,0,0,1-8.584-1.657,23.612,23.612,0,0,1-17.167,0,23.32,23.32,0,0,1-8.584,1.657H2V26.756H6.292a18.074,18.074,0,0,0,8.584-2.2,18.4,18.4,0,0,0,17.167,0A18.074,18.074,0,0,0,40.626,26.756Z" transform="translate(0.937 6.45)" fill="#b4cd00"/></g><text transform="translate(1581 17338)" fill="#5cc86f" font-size="50" font-family="DINNextLTPro-Light, DIN Next LT Pro" font-weight="300"><tspan x="0" y="0">2</tspan></text><path d="M8507.076,15392.83c2.762,0,4.5.142,4.811.17h323.267a115.154,115.154,0,0,1,26.555,2.89,70.423,70.423,0,0,1,23.35,9.873,49.747,49.747,0,0,1,16.64,18.673,55.275,55.275,0,0,1,4.659,13.137,73.535,73.535,0,0,1,1.644,15.9,75.034,75.034,0,0,1-1.622,15.941,56.846,56.846,0,0,1-4.607,13.252,50.762,50.762,0,0,1-16.516,19.035,69.776,69.776,0,0,1-23.329,10.241,111.075,111.075,0,0,1-26.772,3.058H8583.688c-26.459,0-70.848,7.682-70.848,59.125,0,53.139,49.546,58.875,70.848,58.875h251.465c.759,0,1.563,0,2.4,0a150.3,150.3,0,0,1,20.179,1.074,85.649,85.649,0,0,1,11.642,2.333,62.228,62.228,0,0,1,11.53,4.425,48.524,48.524,0,0,1,10.539,7.2,45.036,45.036,0,0,1,8.631,10.628,54.189,54.189,0,0,1,5.8,14.657,88.306,88.306,0,0,1-.194,39.3,55.9,55.9,0,0,1-6.3,15.28,48.434,48.434,0,0,1-9.282,11.116,53.425,53.425,0,0,1-11.215,7.569,77.123,77.123,0,0,1-24.089,7.213,138.506,138.506,0,0,1-19.65,1.207H8511.861a108.548,108.548,0,0,1-20.706-2.513,85.4,85.4,0,0,1-18.091-5.99,51.194,51.194,0,0,1-16.406-11.764,56.878,56.878,0,0,1-10.492-18.077,106.548,106.548,0,0,1-5.191-19.82,140.916,140.916,0,0,1-1.98-22.609v-200.205a123.818,123.818,0,0,1,1.53-22.649,100.076,100.076,0,0,1,5.3-20.27,60.729,60.729,0,0,1,11.4-19.135c6.784-7.46,15.871-12.852,27.011-16.023A84.873,84.873,0,0,1,8507.076,15392.83ZM8835.153,15513c21.3,0,70.847-5.8,70.847-59.527,0-50.876-44.388-58.473-70.847-58.473h-323.36l-.048,0c-.017,0-1.775-.165-4.669-.165-9.492,0-33.209,1.8-48.378,18.483-10.116,11.125-14.393,27.008-16.2,38.372a121.053,121.053,0,0,0-1.507,22.266v200.293a138.525,138.525,0,0,0,1.958,22.294c1.9,11.23,6.079,26.742,15.192,36.857s23.209,14.9,33.438,17.139a106.244,106.244,0,0,0,20.278,2.466h323.292c7.3,0,26.709,0,42.833-8.2,18.588-9.457,28.014-27.025,28.014-52.219,0-24.367-8.748-41.179-26-49.968-14.9-7.592-32.732-7.613-42.361-7.613h-.081c-.841,0-1.644,0-2.4,0H8583.688a119.8,119.8,0,0,1-17.069-1.164,85.543,85.543,0,0,1-24.35-7,53.583,53.583,0,0,1-21.93-18.19,52.107,52.107,0,0,1-6.927-14.928,70.857,70.857,0,0,1-2.572-19.594,72.339,72.339,0,0,1,2.519-19.6,51.059,51.059,0,0,1,28.428-33.234,84.046,84.046,0,0,1,24.293-7.087,122.324,122.324,0,0,1,17.608-1.2Z" transform="translate(10074 32897.828) rotate(180)" fill="#781f78" opacity="0.33"/><g transform="translate(1150 17422)" fill="#b4cd00" stroke="#fff" stroke-width="2"><circle cx="20" cy="20" r="20" stroke="none"/><circle cx="20" cy="20" r="19" fill="none"/></g><g transform="translate(1418 17133) rotate(90)" fill="#4d354e"><path d="M 20.21694564819336 17 L 1.783054947853088 17 L 11 1.917726397514343 L 20.21694564819336 17 Z" stroke="none"/><path d="M 11 3.835453033447266 L 3.566110610961914 16 L 18.43388938903809 16 L 11 3.835453033447266 M 11 0 L 22 18 L 0 18 L 11 0 Z" stroke="none" fill="#f4f4f4"/></g><g transform="translate(1447 17372) rotate(90)" fill="#4d354e"><path d="M 20.21694564819336 17 L 1.783054947853088 17 L 11 1.917726397514343 L 20.21694564819336 17 Z" stroke="none"/><path d="M 11 3.835453033447266 L 3.566110610961914 16 L 18.43388938903809 16 L 11 3.835453033447266 M 11 0 L 22 18 L 0 18 L 11 0 Z" stroke="none" fill="#f4f4f4"/></g><g transform="translate(1367 17515) rotate(-90)" fill="#4d354e"><path d="M 20.21694564819336 17 L 1.783054947853088 17 L 11 1.917726397514343 L 20.21694564819336 17 Z" stroke="none"/><path d="M 11 3.835453033447266 L 3.566110610961914 16 L 18.43388938903809 16 L 11 3.835453033447266 M 11 0 L 22 18 L 0 18 L 11 0 Z" stroke="none" fill="#f4f4f4"/></g><g transform="translate(1309 17275) rotate(-90)" fill="#4d354e"><path d="M 20.21694564819336 17 L 1.783054947853088 17 L 11 1.917726397514343 L 20.21694564819336 17 Z" stroke="none"/><path d="M 11 3.835453033447266 L 3.566110610961914 16 L 18.43388938903809 16 L 11 3.835453033447266 M 11 0 L 22 18 L 0 18 L 11 0 Z" stroke="none" fill="#f4f4f4"/></g><g transform="translate(1645 17218) rotate(180)" fill="#4d354e"><path d="M 20.21694564819336 17 L 1.783054947853088 17 L 11 1.917726397514343 L 20.21694564819336 17 Z" stroke="none"/><path d="M 11 3.835453033447266 L 3.566110610961914 16 L 18.43388938903809 16 L 11 3.835453033447266 M 11 0 L 22 18 L 0 18 L 11 0 Z" stroke="none" fill="#f4f4f4"/></g><g transform="translate(1645 17449) rotate(180)" fill="#4d354e"><path d="M 20.21694564819336 17 L 1.783054947853088 17 L 11 1.917726397514343 L 20.21694564819336 17 Z" stroke="none"/><path d="M 11 3.835453033447266 L 3.566110610961914 16 L 18.43388938903809 16 L 11 3.835453033447266 M 11 0 L 22 18 L 0 18 L 11 0 Z" stroke="none" fill="#f4f4f4"/></g><g transform="translate(1613 17302)" fill="#52c77b" stroke="#fff" stroke-width="2"><circle cx="20" cy="20" r="20" stroke="none"/><circle cx="20" cy="20" r="19" fill="none"/></g><g transform="translate(1150 17180)" fill="#05c3de" stroke="#fff" stroke-width="2"><circle cx="20" cy="20" r="20" stroke="none"/><circle cx="20" cy="20" r="19" fill="none"/></g><g transform="translate(1192.916 17170)"><rect width="54.336" height="54.336" fill="#05c3de" opacity="0"/><path d="M19.483,19.392,16.23,30.94,12.978,19.392,2,15.97l10.978-3.422L16.23,1l3.253,11.548L30.461,15.97,19.483,19.392m13.011,9.837,8.132-4.7-4.472,8.554,4.472,8.554-8.132-4.7-8.132,4.7,4.472-8.554-4.472-8.554,8.132,4.7m-14.23,3.849-3.456,6.416,3.456,6.416-6.1-3.636-6.1,3.636,3.456-6.416L6.066,33.078l6.1,3.636,6.1-3.636" transform="translate(7.426 5.284)" fill="#05c3de"/></g><g transform="translate(1184.084 17302)"><rect width="40" height="40" fill="#52c77b" opacity="0"/><path d="M27.2,14.6h5.4l-9,12.6M16.4,14.6h7.2L20,29M7.4,14.6h5.4l3.6,12.6m9-21.6H29L32.6,11H27.2m-9-5.4h3.6L23.6,11H16.4M11,5.6h3.6L12.8,11H7.4M9.2,2,2,12.8,20,38,38,12.8,30.8,2Z" transform="translate(0 0)" fill="#52c77b"/></g></g></svg>