<svg xmlns="http://www.w3.org/2000/svg" width="533" height="382" viewBox="0 0 533 382"><g transform="translate(-1120 -17133)"><text transform="translate(1124 17218)" fill="#05c3de" font-size="50" font-family="DINNextLTPro-Light, DIN Next LT Pro" font-weight="300"><tspan x="0" y="0">1</tspan></text><path d="M13.392,18a.171.171,0,0,0,.144-.288l-3.48-6.888a4.443,4.443,0,0,0,3.216-4.44c0-2.832-2.064-4.7-5.112-4.7h-5.9a.227.227,0,0,0-.24.24V17.76a.227.227,0,0,0,.24.24H3.912a.227.227,0,0,0,.24-.24V11.232a.127.127,0,0,1,.144-.144H7.9L11.16,17.76c.072.168.144.24.312.24ZM8.112,9.1H4.3a.127.127,0,0,1-.144-.144V3.816A.127.127,0,0,1,4.3,3.672H8.112c1.9,0,3.024,1.008,3.024,2.712S10.008,9.1,8.112,9.1Zm12.48,9.168A5.59,5.59,0,0,0,25.08,16.3a.215.215,0,0,0-.024-.336l-.984-.888a.245.245,0,0,0-.36.048,3.755,3.755,0,0,1-2.952,1.272,2.839,2.839,0,0,1-2.9-1.992,4.308,4.308,0,0,1-.192-1.392.127.127,0,0,1,.144-.144H25.08a.234.234,0,0,0,.264-.24,10.03,10.03,0,0,0-.36-3.288,4.452,4.452,0,0,0-4.512-3.1,4.444,4.444,0,0,0-4.512,3.1,8.918,8.918,0,0,0-.36,2.9,9.012,9.012,0,0,0,.384,2.9A4.446,4.446,0,0,0,20.592,18.264Zm-2.784-7.008a.127.127,0,0,1-.144-.144,4.045,4.045,0,0,1,.168-1.3,2.6,2.6,0,0,1,2.64-1.8,2.6,2.6,0,0,1,2.64,1.8,4.045,4.045,0,0,1,.168,1.3.127.127,0,0,1-.144.144Zm14.28,11.328c3.24,0,5.016-1.824,5.016-5.088V6.744a.227.227,0,0,0-.24-.24H35.328a.227.227,0,0,0-.24.24v1.08h-.024A3.3,3.3,0,0,0,31.872,6.24a3.769,3.769,0,0,0-3.864,2.784,9,9,0,0,0-.384,3.024,9,9,0,0,0,.384,3.024,3.769,3.769,0,0,0,3.864,2.784,3.3,3.3,0,0,0,3.192-1.584h.024v1.344c0,2.112-1.008,3.1-2.9,3.1a3.835,3.835,0,0,1-2.712-1.152.225.225,0,0,0-.36,0l-.984.984a.216.216,0,0,0-.024.336A5.2,5.2,0,0,0,32.088,22.584Zm.288-6.576a2.346,2.346,0,0,1-2.424-1.728,7.1,7.1,0,0,1-.288-2.232,7.2,7.2,0,0,1,.288-2.232,2.352,2.352,0,0,1,2.424-1.7,2.358,2.358,0,0,1,2.448,1.7,7.085,7.085,0,0,1,.264,2.232,6.988,6.988,0,0,1-.264,2.232A2.377,2.377,0,0,1,32.376,16.008ZM45.1,18.264A5.59,5.59,0,0,0,49.584,16.3a.215.215,0,0,0-.024-.336l-.984-.888a.245.245,0,0,0-.36.048,3.755,3.755,0,0,1-2.952,1.272,2.839,2.839,0,0,1-2.9-1.992,4.308,4.308,0,0,1-.192-1.392.127.127,0,0,1,.144-.144h7.272a.234.234,0,0,0,.264-.24,10.03,10.03,0,0,0-.36-3.288,4.452,4.452,0,0,0-4.512-3.1,4.444,4.444,0,0,0-4.512,3.1,8.917,8.917,0,0,0-.36,2.9,9.012,9.012,0,0,0,.384,2.9A4.446,4.446,0,0,0,45.1,18.264Zm-2.784-7.008a.127.127,0,0,1-.144-.144,4.045,4.045,0,0,1,.168-1.3,2.836,2.836,0,0,1,5.28,0,4.045,4.045,0,0,1,.168,1.3.127.127,0,0,1-.144.144ZM61.848,18a.227.227,0,0,0,.24-.24v-7.2c0-2.616-1.488-4.32-3.984-4.32A3.634,3.634,0,0,0,54.888,7.8h-.024V6.744a.227.227,0,0,0-.24-.24H53.088a.227.227,0,0,0-.24.24V17.76a.227.227,0,0,0,.24.24h1.536a.227.227,0,0,0,.24-.24V10.92A2.58,2.58,0,0,1,57.5,8.112c1.728,0,2.568,1.08,2.568,2.928v6.72a.227.227,0,0,0,.24.24Zm8.112.264A5.59,5.59,0,0,0,74.448,16.3a.215.215,0,0,0-.024-.336l-.984-.888a.245.245,0,0,0-.36.048,3.755,3.755,0,0,1-2.952,1.272,2.839,2.839,0,0,1-2.9-1.992,4.308,4.308,0,0,1-.192-1.392.127.127,0,0,1,.144-.144h7.272a.234.234,0,0,0,.264-.24,10.03,10.03,0,0,0-.36-3.288,4.836,4.836,0,0,0-9.024,0,8.917,8.917,0,0,0-.36,2.9,9.012,9.012,0,0,0,.384,2.9A4.446,4.446,0,0,0,69.96,18.264Zm-2.784-7.008a.127.127,0,0,1-.144-.144,4.045,4.045,0,0,1,.168-1.3,2.836,2.836,0,0,1,5.28,0,4.045,4.045,0,0,1,.168,1.3.127.127,0,0,1-.144.144ZM79.488,18a.227.227,0,0,0,.24-.24V11.472c0-1.992.72-3.36,2.472-3.36a3.238,3.238,0,0,1,1.776.552.217.217,0,0,0,.336-.048L85.2,7.44c.1-.12.072-.216-.048-.336A3.532,3.532,0,0,0,82.8,6.24a3.2,3.2,0,0,0-3.048,1.68h-.024V6.744a.227.227,0,0,0-.24-.24H77.952a.227.227,0,0,0-.24.24V17.76a.227.227,0,0,0,.24.24Zm15.624,0a.227.227,0,0,0,.24-.24V10.152c0-2.832-1.248-3.912-4.512-3.912a6.377,6.377,0,0,0-3.912,1.128.254.254,0,0,0-.048.336l.648,1.1c.072.12.216.12.336.024a4.469,4.469,0,0,1,2.784-.816c2.136,0,2.76.672,2.76,2.256v.84a.127.127,0,0,1-.144.144H90.648c-2.808,0-4.488,1.128-4.488,3.552,0,2.328,1.68,3.456,3.864,3.456a3.769,3.769,0,0,0,3.408-1.512h.024V17.76a.227.227,0,0,0,.24.24ZM90.5,16.536c-1.536,0-2.4-.624-2.4-1.8,0-1.3.864-1.872,2.856-1.872h2.3a.127.127,0,0,1,.144.144V14.28C93.408,15.7,92.3,16.536,90.5,16.536ZM100.728,18a.227.227,0,0,0,.24-.24V11.472c0-1.992.72-3.36,2.472-3.36a3.238,3.238,0,0,1,1.776.552.217.217,0,0,0,.336-.048l.888-1.176c.1-.12.072-.216-.048-.336a3.532,3.532,0,0,0-2.352-.864,3.2,3.2,0,0,0-3.048,1.68h-.024V6.744a.227.227,0,0,0-.24-.24H99.192a.227.227,0,0,0-.24.24V17.76a.227.227,0,0,0,.24.24Zm17.3.264c3,0,4.632-1.512,4.632-3.768,0-1.848-1.128-3.024-3.456-3.24l-1.2-.12c-1.7-.168-2.256-.648-2.256-1.56,0-.936.744-1.584,2.184-1.584a6.052,6.052,0,0,1,3.1.936.235.235,0,0,0,.336-.048l.816-1.032a.232.232,0,0,0-.048-.336,6.877,6.877,0,0,0-4.08-1.272c-2.712,0-4.272,1.32-4.272,3.5,0,1.872,1.176,3,3.432,3.24l1.224.12c1.8.192,2.232.7,2.232,1.608,0,1.032-.84,1.752-2.52,1.752a5.585,5.585,0,0,1-3.552-1.32.232.232,0,0,0-.336,0L113.28,16.2a.232.232,0,0,0,0,.336A7.144,7.144,0,0,0,118.032,18.264Zm9.384-14.352a.227.227,0,0,0,.24-.24V1.92a.227.227,0,0,0-.24-.24h-1.632a.227.227,0,0,0-.24.24V3.672a.227.227,0,0,0,.24.24ZM127.368,18a.227.227,0,0,0,.24-.24V6.744a.227.227,0,0,0-.24-.24h-1.536a.227.227,0,0,0-.24.24V17.76a.227.227,0,0,0,.24.24Zm7.9.264c3,0,4.632-1.512,4.632-3.768,0-1.848-1.128-3.024-3.456-3.24l-1.2-.12c-1.7-.168-2.256-.648-2.256-1.56,0-.936.744-1.584,2.184-1.584a6.052,6.052,0,0,1,3.1.936.235.235,0,0,0,.336-.048l.816-1.032a.232.232,0,0,0-.048-.336,6.877,6.877,0,0,0-4.08-1.272c-2.712,0-4.272,1.32-4.272,3.5,0,1.872,1.176,3,3.432,3.24l1.224.12c1.8.192,2.232.7,2.232,1.608,0,1.032-.84,1.752-2.52,1.752a5.585,5.585,0,0,1-3.552-1.32.232.232,0,0,0-.336,0l-.984,1.056a.232.232,0,0,0,0,.336A7.144,7.144,0,0,0,135.264,18.264Zm11.784-.144a.227.227,0,0,0,.24-.24V16.488a.227.227,0,0,0-.24-.24h-.5c-1.032,0-1.464-.312-1.464-1.464V8.28a.127.127,0,0,1,.144-.144h1.824a.227.227,0,0,0,.24-.24V6.744a.227.227,0,0,0-.24-.24h-1.824a.127.127,0,0,1-.144-.144V3.12a.227.227,0,0,0-.24-.24H143.3a.227.227,0,0,0-.24.24V6.36a.127.127,0,0,1-.144.144h-.96a.227.227,0,0,0-.24.24V7.9a.227.227,0,0,0,.24.24h.96a.127.127,0,0,1,.144.144v6.576c0,2.256.864,3.264,3.1,3.264Zm7.416.144a5.59,5.59,0,0,0,4.488-1.968.215.215,0,0,0-.024-.336l-.984-.888a.245.245,0,0,0-.36.048,3.755,3.755,0,0,1-2.952,1.272,2.839,2.839,0,0,1-2.9-1.992,4.308,4.308,0,0,1-.192-1.392.127.127,0,0,1,.144-.144h7.272a.234.234,0,0,0,.264-.24,10.03,10.03,0,0,0-.36-3.288,4.836,4.836,0,0,0-9.024,0,8.917,8.917,0,0,0-.36,2.9,9.012,9.012,0,0,0,.384,2.9A4.446,4.446,0,0,0,154.464,18.264Zm-2.784-7.008a.127.127,0,0,1-.144-.144,4.045,4.045,0,0,1,.168-1.3,2.836,2.836,0,0,1,5.28,0,4.045,4.045,0,0,1,.168,1.3.127.127,0,0,1-.144.144ZM178.44,18a.227.227,0,0,0,.24-.24v-7.2c0-2.616-1.44-4.32-4.1-4.32a4.28,4.28,0,0,0-3.72,1.8h-.024a4.064,4.064,0,0,0-6.576-.24h-.024V6.744a.227.227,0,0,0-.24-.24h-1.536a.227.227,0,0,0-.24.24V17.76a.227.227,0,0,0,.24.24h1.536a.227.227,0,0,0,.24-.24V10.92a2.58,2.58,0,0,1,2.64-2.808c1.728,0,2.568,1.08,2.568,2.928v6.72a.227.227,0,0,0,.24.24h1.536a.227.227,0,0,0,.24-.24V10.92a2.592,2.592,0,0,1,2.64-2.808c1.728,0,2.568,1.08,2.568,2.928v6.72a.227.227,0,0,0,.24.24Zm12.192,0a.227.227,0,0,0,.24-.24V10.152c0-2.832-1.248-3.912-4.512-3.912a6.377,6.377,0,0,0-3.912,1.128.254.254,0,0,0-.048.336l.648,1.1c.072.12.216.12.336.024a4.47,4.47,0,0,1,2.784-.816c2.136,0,2.76.672,2.76,2.256v.84a.127.127,0,0,1-.144.144h-2.616c-2.808,0-4.488,1.128-4.488,3.552,0,2.328,1.68,3.456,3.864,3.456a3.769,3.769,0,0,0,3.408-1.512h.024V17.76a.227.227,0,0,0,.24.24Zm-4.608-1.464c-1.536,0-2.4-.624-2.4-1.8,0-1.3.864-1.872,2.856-1.872h2.3a.127.127,0,0,1,.144.144V14.28C188.928,15.7,187.824,16.536,186.024,16.536Zm12.408,1.728c3,0,4.632-1.512,4.632-3.768,0-1.848-1.128-3.024-3.456-3.24l-1.2-.12c-1.7-.168-2.256-.648-2.256-1.56,0-.936.744-1.584,2.184-1.584a6.052,6.052,0,0,1,3.1.936.235.235,0,0,0,.336-.048l.816-1.032a.232.232,0,0,0-.048-.336,6.877,6.877,0,0,0-4.08-1.272c-2.712,0-4.272,1.32-4.272,3.5,0,1.872,1.176,3,3.432,3.24l1.224.12c1.8.192,2.232.7,2.232,1.608,0,1.032-.84,1.752-2.52,1.752A5.585,5.585,0,0,1,195,15.144a.232.232,0,0,0-.336,0L193.68,16.2a.232.232,0,0,0,0,.336A7.144,7.144,0,0,0,198.432,18.264ZM220.512,18a.227.227,0,0,0,.24-.24v-7.2c0-2.616-1.488-4.32-3.984-4.32a3.634,3.634,0,0,0-3.216,1.56h-.024V6.744a.227.227,0,0,0-.24-.24h-1.536a.227.227,0,0,0-.24.24V17.76a.227.227,0,0,0,.24.24h1.536a.227.227,0,0,0,.24-.24V10.92a2.58,2.58,0,0,1,2.64-2.808c1.728,0,2.568,1.08,2.568,2.928v6.72a.227.227,0,0,0,.24.24ZM232.7,18a.227.227,0,0,0,.24-.24V10.152c0-2.832-1.248-3.912-4.512-3.912a6.377,6.377,0,0,0-3.912,1.128.254.254,0,0,0-.048.336l.648,1.1c.072.12.216.12.336.024a4.47,4.47,0,0,1,2.784-.816c2.136,0,2.76.672,2.76,2.256v.84a.127.127,0,0,1-.144.144H228.24c-2.808,0-4.488,1.128-4.488,3.552,0,2.328,1.68,3.456,3.864,3.456a3.769,3.769,0,0,0,3.408-1.512h.024V17.76a.227.227,0,0,0,.24.24ZM228.1,16.536c-1.536,0-2.4-.624-2.4-1.8,0-1.3.864-1.872,2.856-1.872h2.3a.127.127,0,0,1,.144.144V14.28C231,15.7,229.9,16.536,228.1,16.536Zm12.672,1.584a.227.227,0,0,0,.24-.24V16.488a.227.227,0,0,0-.24-.24h-.5c-1.032,0-1.464-.312-1.464-1.464V8.28a.127.127,0,0,1,.144-.144h1.824a.227.227,0,0,0,.24-.24V6.744a.227.227,0,0,0-.24-.24h-1.824a.127.127,0,0,1-.144-.144V3.12a.227.227,0,0,0-.24-.24h-1.536a.227.227,0,0,0-.24.24V6.36a.127.127,0,0,1-.144.144h-.96a.227.227,0,0,0-.24.24V7.9a.227.227,0,0,0,.24.24h.96a.127.127,0,0,1,.144.144v6.576c0,2.256.864,3.264,3.1,3.264Zm11.88-.12a.227.227,0,0,0,.24-.24V6.744a.227.227,0,0,0-.24-.24h-1.536a.227.227,0,0,0-.24.24V13.56a2.552,2.552,0,0,1-2.592,2.832c-1.7,0-2.544-1.08-2.544-2.952v-6.7a.227.227,0,0,0-.24-.24H243.96a.227.227,0,0,0-.24.24V13.92c0,2.616,1.464,4.344,3.984,4.344a3.506,3.506,0,0,0,3.144-1.584h.024v1.08a.227.227,0,0,0,.24.24Zm5.712,0a.227.227,0,0,0,.24-.24V11.472c0-1.992.72-3.36,2.472-3.36a3.238,3.238,0,0,1,1.776.552.217.217,0,0,0,.336-.048l.888-1.176c.1-.12.072-.216-.048-.336a3.532,3.532,0,0,0-2.352-.864,3.2,3.2,0,0,0-3.048,1.68H258.6V6.744a.227.227,0,0,0-.24-.24h-1.536a.227.227,0,0,0-.24.24V17.76a.227.227,0,0,0,.24.24Zm15.624,0a.227.227,0,0,0,.24-.24V10.152c0-2.832-1.248-3.912-4.512-3.912A6.377,6.377,0,0,0,265.8,7.368a.254.254,0,0,0-.048.336l.648,1.1c.072.12.216.12.336.024a4.469,4.469,0,0,1,2.784-.816c2.136,0,2.76.672,2.76,2.256v.84a.127.127,0,0,1-.144.144H269.52c-2.808,0-4.488,1.128-4.488,3.552,0,2.328,1.68,3.456,3.864,3.456a3.769,3.769,0,0,0,3.408-1.512h.024V17.76a.227.227,0,0,0,.24.24Zm-4.608-1.464c-1.536,0-2.4-.624-2.4-1.8,0-1.3.864-1.872,2.856-1.872h2.3a.127.127,0,0,1,.144.144V14.28C272.28,15.7,271.176,16.536,269.376,16.536ZM281.4,18.12a.227.227,0,0,0,.24-.24V16.488a.227.227,0,0,0-.24-.24h-.456c-.792,0-1.152-.312-1.152-1.272V1.92a.227.227,0,0,0-.24-.24h-1.536a.227.227,0,0,0-.24.24V15.1c0,2.064.792,3.024,2.808,3.024Zm7.128.144a5.59,5.59,0,0,0,4.488-1.968.215.215,0,0,0-.024-.336l-.984-.888a.245.245,0,0,0-.36.048,3.755,3.755,0,0,1-2.952,1.272,2.839,2.839,0,0,1-2.9-1.992,4.308,4.308,0,0,1-.192-1.392.127.127,0,0,1,.144-.144h7.272a.234.234,0,0,0,.264-.24,10.031,10.031,0,0,0-.36-3.288,4.836,4.836,0,0,0-9.024,0,8.918,8.918,0,0,0-.36,2.9,9.012,9.012,0,0,0,.384,2.9A4.446,4.446,0,0,0,288.528,18.264Zm-2.784-7.008a.127.127,0,0,1-.144-.144,4.045,4.045,0,0,1,.168-1.3,2.836,2.836,0,0,1,5.28,0,4.045,4.045,0,0,1,.168,1.3.127.127,0,0,1-.144.144Zm14.5,7.008c3,0,4.632-1.512,4.632-3.768,0-1.848-1.128-3.024-3.456-3.24l-1.2-.12c-1.7-.168-2.256-.648-2.256-1.56,0-.936.744-1.584,2.184-1.584a6.053,6.053,0,0,1,3.1.936.235.235,0,0,0,.336-.048l.816-1.032a.232.232,0,0,0-.048-.336,6.877,6.877,0,0,0-4.08-1.272c-2.712,0-4.272,1.32-4.272,3.5,0,1.872,1.176,3,3.432,3.24l1.224.12c1.8.192,2.232.7,2.232,1.608,0,1.032-.84,1.752-2.52,1.752a5.585,5.585,0,0,1-3.552-1.32.232.232,0,0,0-.336,0l-.984,1.056a.232.232,0,0,0,0,.336A7.144,7.144,0,0,0,300.24,18.264Zm7.272-.5a.227.227,0,0,0,.24.24h1.824a.227.227,0,0,0,.24-.24V15.7a.227.227,0,0,0-.24-.24h-1.824a.227.227,0,0,0-.24.24Z" transform="translate(1279 17426)" fill="#78787a"/><path d="M2.016,17.76a.227.227,0,0,0,.24.24h9.816a.227.227,0,0,0,.24-.24V16.248a.227.227,0,0,0-.24-.24H4.3a.127.127,0,0,1-.144-.144V10.9a.127.127,0,0,1,.144-.144h6.6a.227.227,0,0,0,.24-.24V9a.227.227,0,0,0-.24-.24H4.3a.127.127,0,0,1-.144-.144v-4.8A.127.127,0,0,1,4.3,3.672h7.776a.227.227,0,0,0,.24-.24V1.92a.227.227,0,0,0-.24-.24H2.256a.227.227,0,0,0-.24.24Zm16.8.36a.227.227,0,0,0,.24-.24V16.488a.227.227,0,0,0-.24-.24H18.36c-.792,0-1.152-.312-1.152-1.272V1.92a.227.227,0,0,0-.24-.24H15.432a.227.227,0,0,0-.24.24V15.1c0,2.064.792,3.024,2.808,3.024ZM23.472,3.912a.227.227,0,0,0,.24-.24V1.92a.227.227,0,0,0-.24-.24H21.84a.227.227,0,0,0-.24.24V3.672a.227.227,0,0,0,.24.24ZM23.424,18a.227.227,0,0,0,.24-.24V6.744a.227.227,0,0,0-.24-.24H21.888a.227.227,0,0,0-.24.24V17.76a.227.227,0,0,0,.24.24Zm20.16,0a.227.227,0,0,0,.24-.24v-7.2c0-2.616-1.44-4.32-4.1-4.32A4.28,4.28,0,0,0,36,8.04h-.024a3.613,3.613,0,0,0-3.36-1.8A3.634,3.634,0,0,0,29.4,7.8h-.024V6.744a.227.227,0,0,0-.24-.24H27.6a.227.227,0,0,0-.24.24V17.76a.227.227,0,0,0,.24.24h1.536a.227.227,0,0,0,.24-.24V10.92a2.58,2.58,0,0,1,2.64-2.808c1.728,0,2.568,1.08,2.568,2.928v6.72a.227.227,0,0,0,.24.24H36.36a.227.227,0,0,0,.24-.24V10.92a2.592,2.592,0,0,1,2.64-2.808c1.728,0,2.568,1.08,2.568,2.928v6.72a.227.227,0,0,0,.24.24Zm5.64-14.088a.227.227,0,0,0,.24-.24V1.92a.227.227,0,0,0-.24-.24H47.592a.227.227,0,0,0-.24.24V3.672a.227.227,0,0,0,.24.24ZM49.176,18a.227.227,0,0,0,.24-.24V6.744a.227.227,0,0,0-.24-.24H47.64a.227.227,0,0,0-.24.24V17.76a.227.227,0,0,0,.24.24Zm12.936,0a.227.227,0,0,0,.24-.24v-7.2c0-2.616-1.488-4.32-3.984-4.32A3.634,3.634,0,0,0,55.152,7.8h-.024V6.744a.227.227,0,0,0-.24-.24H53.352a.227.227,0,0,0-.24.24V17.76a.227.227,0,0,0,.24.24h1.536a.227.227,0,0,0,.24-.24V10.92a2.58,2.58,0,0,1,2.64-2.808c1.728,0,2.568,1.08,2.568,2.928v6.72a.227.227,0,0,0,.24.24ZM74.3,18a.227.227,0,0,0,.24-.24V10.152c0-2.832-1.248-3.912-4.512-3.912A6.377,6.377,0,0,0,66.12,7.368a.254.254,0,0,0-.048.336l.648,1.1c.072.12.216.12.336.024a4.469,4.469,0,0,1,2.784-.816c2.136,0,2.76.672,2.76,2.256v.84a.127.127,0,0,1-.144.144H69.84c-2.808,0-4.488,1.128-4.488,3.552,0,2.328,1.68,3.456,3.864,3.456a3.769,3.769,0,0,0,3.408-1.512h.024V17.76a.227.227,0,0,0,.24.24ZM69.7,16.536c-1.536,0-2.4-.624-2.4-1.8,0-1.3.864-1.872,2.856-1.872h2.3a.127.127,0,0,1,.144.144V14.28C72.6,15.7,71.5,16.536,69.7,16.536ZM79.92,18a.227.227,0,0,0,.24-.24V11.472c0-1.992.72-3.36,2.472-3.36a3.238,3.238,0,0,1,1.776.552.217.217,0,0,0,.336-.048l.888-1.176c.1-.12.072-.216-.048-.336a3.532,3.532,0,0,0-2.352-.864,3.2,3.2,0,0,0-3.048,1.68H80.16V6.744a.227.227,0,0,0-.24-.24H78.384a.227.227,0,0,0-.24.24V17.76a.227.227,0,0,0,.24.24Zm15.12,0a.227.227,0,0,0,.24-.24V11.472c0-1.992.72-3.36,2.472-3.36a3.238,3.238,0,0,1,1.776.552.217.217,0,0,0,.336-.048l.888-1.176c.1-.12.072-.216-.048-.336a3.532,3.532,0,0,0-2.352-.864A3.2,3.2,0,0,0,95.3,7.92H95.28V6.744a.227.227,0,0,0-.24-.24H93.5a.227.227,0,0,0-.24.24V17.76a.227.227,0,0,0,.24.24Zm11.688.264a5.59,5.59,0,0,0,4.488-1.968.215.215,0,0,0-.024-.336l-.984-.888a.245.245,0,0,0-.36.048,3.755,3.755,0,0,1-2.952,1.272,2.839,2.839,0,0,1-2.9-1.992,4.308,4.308,0,0,1-.192-1.392.127.127,0,0,1,.144-.144h7.272a.234.234,0,0,0,.264-.24,10.03,10.03,0,0,0-.36-3.288,4.836,4.836,0,0,0-9.024,0,8.917,8.917,0,0,0-.36,2.9,9.012,9.012,0,0,0,.384,2.9A4.446,4.446,0,0,0,106.728,18.264Zm-2.784-7.008a.127.127,0,0,1-.144-.144,4.045,4.045,0,0,1,.168-1.3,2.836,2.836,0,0,1,5.28,0,4.045,4.045,0,0,1,.168,1.3.127.127,0,0,1-.144.144Zm14.5,7.008c3,0,4.632-1.512,4.632-3.768,0-1.848-1.128-3.024-3.456-3.24l-1.2-.12c-1.7-.168-2.256-.648-2.256-1.56,0-.936.744-1.584,2.184-1.584a6.052,6.052,0,0,1,3.1.936.235.235,0,0,0,.336-.048l.816-1.032a.232.232,0,0,0-.048-.336,6.877,6.877,0,0,0-4.08-1.272c-2.712,0-4.272,1.32-4.272,3.5,0,1.872,1.176,3,3.432,3.24l1.224.12c1.8.192,2.232.7,2.232,1.608,0,1.032-.84,1.752-2.52,1.752a5.585,5.585,0,0,1-3.552-1.32.232.232,0,0,0-.336,0l-.984,1.056a.232.232,0,0,0,0,.336A7.144,7.144,0,0,0,118.44,18.264Zm9.384-14.352a.227.227,0,0,0,.24-.24V1.92a.227.227,0,0,0-.24-.24h-1.632a.227.227,0,0,0-.24.24V3.672a.227.227,0,0,0,.24.24ZM127.776,18a.227.227,0,0,0,.24-.24V6.744a.227.227,0,0,0-.24-.24H126.24a.227.227,0,0,0-.24.24V17.76a.227.227,0,0,0,.24.24Zm12.672,0a.227.227,0,0,0,.24-.24V1.92a.227.227,0,0,0-.24-.24h-1.536a.227.227,0,0,0-.24.24v5.9h-.024a3.487,3.487,0,0,0-3.264-1.584A3.8,3.8,0,0,0,131.424,9a9.507,9.507,0,0,0-.408,3.24,9.57,9.57,0,0,0,.408,3.264,3.8,3.8,0,0,0,3.96,2.76,3.5,3.5,0,0,0,3.264-1.608h.024v1.1a.227.227,0,0,0,.24.24Zm-4.584-1.608a2.459,2.459,0,0,1-2.52-1.752,7.974,7.974,0,0,1-.264-2.4,8.18,8.18,0,0,1,.264-2.4,2.719,2.719,0,0,1,5.064,0,7.481,7.481,0,0,1,.264,2.4,7.387,7.387,0,0,1-.264,2.4A2.461,2.461,0,0,1,135.864,16.392ZM153.144,18a.227.227,0,0,0,.24-.24V6.744a.227.227,0,0,0-.24-.24h-1.536a.227.227,0,0,0-.24.24V13.56a2.552,2.552,0,0,1-2.592,2.832c-1.7,0-2.544-1.08-2.544-2.952v-6.7a.227.227,0,0,0-.24-.24h-1.536a.227.227,0,0,0-.24.24V13.92c0,2.616,1.464,4.344,3.984,4.344a3.506,3.506,0,0,0,3.144-1.584h.024v1.08a.227.227,0,0,0,.24.24Zm8.16.264a4.47,4.47,0,0,0,4.536-3.1,8.632,8.632,0,0,0,.384-2.928,8.571,8.571,0,0,0-.384-2.9,4.871,4.871,0,0,0-9.072,0,8.571,8.571,0,0,0-.384,2.9,8.632,8.632,0,0,0,.384,2.928A4.47,4.47,0,0,0,161.3,18.264Zm0-1.872a2.557,2.557,0,0,1-2.592-1.8,7.53,7.53,0,0,1-.264-2.352,7.362,7.362,0,0,1,.264-2.328,2.766,2.766,0,0,1,5.184,0,7.362,7.362,0,0,1,.264,2.328,7.53,7.53,0,0,1-.264,2.352A2.557,2.557,0,0,1,161.3,16.392Zm11.88,1.872c3,0,4.632-1.512,4.632-3.768,0-1.848-1.128-3.024-3.456-3.24l-1.2-.12c-1.7-.168-2.256-.648-2.256-1.56,0-.936.744-1.584,2.184-1.584a6.052,6.052,0,0,1,3.1.936.235.235,0,0,0,.336-.048l.816-1.032a.232.232,0,0,0-.048-.336,6.877,6.877,0,0,0-4.08-1.272c-2.712,0-4.272,1.32-4.272,3.5,0,1.872,1.176,3,3.432,3.24l1.224.12c1.8.192,2.232.7,2.232,1.608,0,1.032-.84,1.752-2.52,1.752a5.585,5.585,0,0,1-3.552-1.32.232.232,0,0,0-.336,0l-.984,1.056a.232.232,0,0,0,0,.336A7.144,7.144,0,0,0,173.184,18.264Zm13.8,4.056c1.728,0,2.616-.72,3.624-3.432l4.536-12.144c.048-.144-.048-.24-.192-.24H193.32a.281.281,0,0,0-.288.24l-2.9,8.3h-.048l-3.024-8.3a.281.281,0,0,0-.288-.24h-1.68c-.168,0-.24.1-.192.24l4.224,10.92-.384,1.056c-.5,1.32-1.008,1.728-1.944,1.728h-.432a.227.227,0,0,0-.24.24V22.08a.227.227,0,0,0,.24.24ZM1.272,36.24a9.932,9.932,0,0,0,.36,2.928,4.454,4.454,0,0,0,4.536,3.1A4.609,4.609,0,0,0,10.1,40.32c.072-.12.072-.216-.072-.336L8.976,39.12a.215.215,0,0,0-.336.024,2.826,2.826,0,0,1-2.472,1.248,2.494,2.494,0,0,1-2.568-1.8,7.729,7.729,0,0,1-.264-2.352A7.658,7.658,0,0,1,3.6,33.912a2.494,2.494,0,0,1,2.568-1.8A2.826,2.826,0,0,1,8.64,33.36a.215.215,0,0,0,.336.024l1.056-.864c.144-.12.144-.216.072-.336A4.609,4.609,0,0,0,6.168,30.24a4.454,4.454,0,0,0-4.536,3.1A9.868,9.868,0,0,0,1.272,36.24Zm15.72,6.024a4.47,4.47,0,0,0,4.536-3.1,8.632,8.632,0,0,0,.384-2.928,8.571,8.571,0,0,0-.384-2.9,4.443,4.443,0,0,0-4.536-3.1,4.443,4.443,0,0,0-4.536,3.1,8.571,8.571,0,0,0-.384,2.9,8.632,8.632,0,0,0,.384,2.928A4.47,4.47,0,0,0,16.992,42.264Zm0-1.872a2.557,2.557,0,0,1-2.592-1.8,7.53,7.53,0,0,1-.264-2.352,7.362,7.362,0,0,1,.264-2.328,2.557,2.557,0,0,1,2.592-1.8,2.557,2.557,0,0,1,2.592,1.8,7.362,7.362,0,0,1,.264,2.328,7.53,7.53,0,0,1-.264,2.352A2.557,2.557,0,0,1,16.992,40.392ZM33.912,42a.227.227,0,0,0,.24-.24v-7.2c0-2.616-1.488-4.32-3.984-4.32a3.634,3.634,0,0,0-3.216,1.56h-.024V30.744a.227.227,0,0,0-.24-.24H25.152a.227.227,0,0,0-.24.24V41.76a.227.227,0,0,0,.24.24h1.536a.227.227,0,0,0,.24-.24V34.92a2.58,2.58,0,0,1,2.64-2.808c1.728,0,2.568,1.08,2.568,2.928v6.72a.227.227,0,0,0,.24.24Zm8.04.12a.227.227,0,0,0,.24-.24V40.488a.227.227,0,0,0-.24-.24h-.5c-1.032,0-1.464-.312-1.464-1.464v-6.5a.127.127,0,0,1,.144-.144h1.824a.227.227,0,0,0,.24-.24V30.744a.227.227,0,0,0-.24-.24H40.128a.127.127,0,0,1-.144-.144V27.12a.227.227,0,0,0-.24-.24H38.208a.227.227,0,0,0-.24.24v3.24a.127.127,0,0,1-.144.144h-.96a.227.227,0,0,0-.24.24V31.9a.227.227,0,0,0,.24.24h.96a.127.127,0,0,1,.144.144v6.576c0,2.256.864,3.264,3.1,3.264Zm11.5-.12a.227.227,0,0,0,.24-.24V34.152c0-2.832-1.248-3.912-4.512-3.912a6.377,6.377,0,0,0-3.912,1.128.254.254,0,0,0-.048.336l.648,1.1c.072.12.216.12.336.024a4.469,4.469,0,0,1,2.784-.816c2.136,0,2.76.672,2.76,2.256v.84a.127.127,0,0,1-.144.144H48.984c-2.808,0-4.488,1.128-4.488,3.552,0,2.328,1.68,3.456,3.864,3.456a3.769,3.769,0,0,0,3.408-1.512h.024V41.76a.227.227,0,0,0,.24.24ZM48.84,40.536c-1.536,0-2.4-.624-2.4-1.8,0-1.3.864-1.872,2.856-1.872h2.3a.127.127,0,0,1,.144.144V38.28C51.744,39.7,50.64,40.536,48.84,40.536ZM73.512,42a.227.227,0,0,0,.24-.24v-7.2c0-2.616-1.44-4.32-4.1-4.32a4.28,4.28,0,0,0-3.72,1.8H65.9a4.064,4.064,0,0,0-6.576-.24H59.3V30.744a.227.227,0,0,0-.24-.24H57.528a.227.227,0,0,0-.24.24V41.76a.227.227,0,0,0,.24.24h1.536a.227.227,0,0,0,.24-.24V34.92a2.58,2.58,0,0,1,2.64-2.808c1.728,0,2.568,1.08,2.568,2.928v6.72a.227.227,0,0,0,.24.24h1.536a.227.227,0,0,0,.24-.24V34.92a2.592,2.592,0,0,1,2.64-2.808c1.728,0,2.568,1.08,2.568,2.928v6.72a.227.227,0,0,0,.24.24Zm5.64-14.088a.227.227,0,0,0,.24-.24V25.92a.227.227,0,0,0-.24-.24H77.52a.227.227,0,0,0-.24.24v1.752a.227.227,0,0,0,.24.24ZM79.1,42a.227.227,0,0,0,.24-.24V30.744a.227.227,0,0,0-.24-.24H77.568a.227.227,0,0,0-.24.24V41.76a.227.227,0,0,0,.24.24ZM92.04,42a.227.227,0,0,0,.24-.24v-7.2c0-2.616-1.488-4.32-3.984-4.32A3.634,3.634,0,0,0,85.08,31.8h-.024V30.744a.227.227,0,0,0-.24-.24H83.28a.227.227,0,0,0-.24.24V41.76a.227.227,0,0,0,.24.24h1.536a.227.227,0,0,0,.24-.24V34.92a2.58,2.58,0,0,1,2.64-2.808c1.728,0,2.568,1.08,2.568,2.928v6.72a.227.227,0,0,0,.24.24Zm12.192,0a.227.227,0,0,0,.24-.24V34.152c0-2.832-1.248-3.912-4.512-3.912a6.377,6.377,0,0,0-3.912,1.128A.254.254,0,0,0,96,31.7l.648,1.1c.072.12.216.12.336.024a4.469,4.469,0,0,1,2.784-.816c2.136,0,2.76.672,2.76,2.256v.84a.127.127,0,0,1-.144.144H99.768c-2.808,0-4.488,1.128-4.488,3.552,0,2.328,1.68,3.456,3.864,3.456a3.769,3.769,0,0,0,3.408-1.512h.024V41.76a.227.227,0,0,0,.24.24Zm-4.608-1.464c-1.536,0-2.4-.624-2.4-1.8,0-1.3.864-1.872,2.856-1.872h2.3a.127.127,0,0,1,.144.144V38.28C102.528,39.7,101.424,40.536,99.624,40.536Zm7.752-4.3a9.931,9.931,0,0,0,.36,2.928,4.454,4.454,0,0,0,4.536,3.1,4.609,4.609,0,0,0,3.936-1.944c.072-.12.072-.216-.072-.336l-1.056-.864a.215.215,0,0,0-.336.024,2.826,2.826,0,0,1-2.472,1.248,2.494,2.494,0,0,1-2.568-1.8,7.729,7.729,0,0,1-.264-2.352,7.658,7.658,0,0,1,.264-2.328,2.494,2.494,0,0,1,2.568-1.8,2.826,2.826,0,0,1,2.472,1.248.215.215,0,0,0,.336.024l1.056-.864c.144-.12.144-.216.072-.336a4.609,4.609,0,0,0-3.936-1.944,4.454,4.454,0,0,0-4.536,3.1A9.867,9.867,0,0,0,107.376,36.24Zm13.608-8.328a.227.227,0,0,0,.24-.24V25.92a.227.227,0,0,0-.24-.24h-1.632a.227.227,0,0,0-.24.24v1.752a.227.227,0,0,0,.24.24ZM120.936,42a.227.227,0,0,0,.24-.24V30.744a.227.227,0,0,0-.24-.24H119.4a.227.227,0,0,0-.24.24V41.76a.227.227,0,0,0,.24.24Zm8.424-13.368a.473.473,0,0,0,.456-.24l2.208-2.952c.1-.12.024-.24-.12-.24H130.32a.422.422,0,0,0-.408.24l-1.824,2.952c-.072.144,0,.24.144.24ZM129.1,42.264a4.47,4.47,0,0,0,4.536-3.1,8.632,8.632,0,0,0,.384-2.928,8.572,8.572,0,0,0-.384-2.9,4.871,4.871,0,0,0-9.072,0,8.571,8.571,0,0,0-.384,2.9,8.632,8.632,0,0,0,.384,2.928A4.47,4.47,0,0,0,129.1,42.264Zm0-1.872a2.557,2.557,0,0,1-2.592-1.8,7.53,7.53,0,0,1-.264-2.352,7.362,7.362,0,0,1,.264-2.328,2.766,2.766,0,0,1,5.184,0,7.362,7.362,0,0,1,.264,2.328,7.53,7.53,0,0,1-.264,2.352A2.557,2.557,0,0,1,129.1,40.392ZM146.016,42a.227.227,0,0,0,.24-.24v-7.2c0-2.616-1.488-4.32-3.984-4.32a3.634,3.634,0,0,0-3.216,1.56h-.024V30.744a.227.227,0,0,0-.24-.24h-1.536a.227.227,0,0,0-.24.24V41.76a.227.227,0,0,0,.24.24h1.536a.227.227,0,0,0,.24-.24V34.92a2.58,2.58,0,0,1,2.64-2.808c1.728,0,2.568,1.08,2.568,2.928v6.72a.227.227,0,0,0,.24.24Zm18.072,0a.227.227,0,0,0,.24-.24V25.92a.227.227,0,0,0-.24-.24h-1.536a.227.227,0,0,0-.24.24v5.9h-.024a3.487,3.487,0,0,0-3.264-1.584,3.8,3.8,0,0,0-3.96,2.76,9.507,9.507,0,0,0-.408,3.24,9.57,9.57,0,0,0,.408,3.264,3.8,3.8,0,0,0,3.96,2.76,3.5,3.5,0,0,0,3.264-1.608h.024v1.1a.227.227,0,0,0,.24.24ZM159.5,40.392a2.459,2.459,0,0,1-2.52-1.752,7.974,7.974,0,0,1-.264-2.4,8.181,8.181,0,0,1,.264-2.4,2.719,2.719,0,0,1,5.064,0,7.481,7.481,0,0,1,.264,2.4,7.387,7.387,0,0,1-.264,2.4A2.461,2.461,0,0,1,159.5,40.392Zm12.816,1.872a5.59,5.59,0,0,0,4.488-1.968.215.215,0,0,0-.024-.336l-.984-.888a.245.245,0,0,0-.36.048,3.755,3.755,0,0,1-2.952,1.272,2.839,2.839,0,0,1-2.9-1.992,4.308,4.308,0,0,1-.192-1.392.127.127,0,0,1,.144-.144h7.272a.234.234,0,0,0,.264-.24,10.03,10.03,0,0,0-.36-3.288,4.836,4.836,0,0,0-9.024,0,8.917,8.917,0,0,0-.36,2.9,9.012,9.012,0,0,0,.384,2.9A4.446,4.446,0,0,0,172.32,42.264Zm-2.784-7.008a.127.127,0,0,1-.144-.144,4.045,4.045,0,0,1,.168-1.3,2.836,2.836,0,0,1,5.28,0,4.045,4.045,0,0,1,.168,1.3.127.127,0,0,1-.144.144Zm14.5,7.008c3,0,4.632-1.512,4.632-3.768,0-1.848-1.128-3.024-3.456-3.24l-1.2-.12c-1.7-.168-2.256-.648-2.256-1.56,0-.936.744-1.584,2.184-1.584a6.052,6.052,0,0,1,3.1.936.235.235,0,0,0,.336-.048l.816-1.032a.232.232,0,0,0-.048-.336,6.877,6.877,0,0,0-4.08-1.272c-2.712,0-4.272,1.32-4.272,3.5,0,1.872,1.176,3,3.432,3.24l1.224.12c1.8.192,2.232.7,2.232,1.608,0,1.032-.84,1.752-2.52,1.752a5.585,5.585,0,0,1-3.552-1.32.232.232,0,0,0-.336,0L179.28,40.2a.232.232,0,0,0,0,.336A7.144,7.144,0,0,0,184.032,42.264Zm16.3-.264a.227.227,0,0,0,.24-.24V25.92a.227.227,0,0,0-.24-.24h-1.536a.227.227,0,0,0-.24.24v5.9h-.024a3.487,3.487,0,0,0-3.264-1.584A3.8,3.8,0,0,0,191.3,33a9.507,9.507,0,0,0-.408,3.24A9.57,9.57,0,0,0,191.3,39.5a3.8,3.8,0,0,0,3.96,2.76,3.5,3.5,0,0,0,3.264-1.608h.024v1.1a.227.227,0,0,0,.24.24Zm-4.584-1.608a2.459,2.459,0,0,1-2.52-1.752,7.974,7.974,0,0,1-.264-2.4,8.181,8.181,0,0,1,.264-2.4,2.719,2.719,0,0,1,5.064,0,7.481,7.481,0,0,1,.264,2.4,7.387,7.387,0,0,1-.264,2.4A2.461,2.461,0,0,1,195.744,40.392Zm12.816,1.872a5.59,5.59,0,0,0,4.488-1.968.215.215,0,0,0-.024-.336l-.984-.888a.245.245,0,0,0-.36.048,3.755,3.755,0,0,1-2.952,1.272,2.839,2.839,0,0,1-2.9-1.992,4.308,4.308,0,0,1-.192-1.392.127.127,0,0,1,.144-.144h7.272a.234.234,0,0,0,.264-.24,10.03,10.03,0,0,0-.36-3.288,4.836,4.836,0,0,0-9.024,0,8.917,8.917,0,0,0-.36,2.9,9.012,9.012,0,0,0,.384,2.9A4.446,4.446,0,0,0,208.56,42.264Zm-2.784-7.008a.127.127,0,0,1-.144-.144,4.045,4.045,0,0,1,.168-1.3,2.836,2.836,0,0,1,5.28,0,4.045,4.045,0,0,1,.168,1.3.127.127,0,0,1-.144.144Zm20.352,7.008a5.59,5.59,0,0,0,4.488-1.968.215.215,0,0,0-.024-.336l-.984-.888a.245.245,0,0,0-.36.048,3.755,3.755,0,0,1-2.952,1.272,2.839,2.839,0,0,1-2.9-1.992,4.308,4.308,0,0,1-.192-1.392.127.127,0,0,1,.144-.144h7.272a.234.234,0,0,0,.264-.24,10.03,10.03,0,0,0-.36-3.288,4.836,4.836,0,0,0-9.024,0,8.917,8.917,0,0,0-.36,2.9,9.012,9.012,0,0,0,.384,2.9A4.446,4.446,0,0,0,226.128,42.264Zm-2.784-7.008a.127.127,0,0,1-.144-.144,4.045,4.045,0,0,1,.168-1.3,2.836,2.836,0,0,1,5.28,0,4.045,4.045,0,0,1,.168,1.3.127.127,0,0,1-.144.144Zm14.112,6.864a.227.227,0,0,0,.24-.24V40.488a.227.227,0,0,0-.24-.24H237c-.792,0-1.152-.312-1.152-1.272V25.92a.227.227,0,0,0-.24-.24h-1.536a.227.227,0,0,0-.24.24V39.1c0,2.064.792,3.024,2.808,3.024Zm10.128,4.2a.227.227,0,0,0,.24-.24V40.656h.024a3.5,3.5,0,0,0,3.264,1.608,3.8,3.8,0,0,0,3.96-2.76,9.57,9.57,0,0,0,.408-3.264,9.506,9.506,0,0,0-.408-3.24,3.8,3.8,0,0,0-3.96-2.76,3.487,3.487,0,0,0-3.264,1.584h-.024v-1.08a.227.227,0,0,0-.24-.24h-1.536a.227.227,0,0,0-.24.24V46.08a.227.227,0,0,0,.24.24Zm3.048-5.928a2.461,2.461,0,0,1-2.544-1.752,7.386,7.386,0,0,1-.264-2.4,7.481,7.481,0,0,1,.264-2.4,2.719,2.719,0,0,1,5.064,0,8.181,8.181,0,0,1,.264,2.4,7.974,7.974,0,0,1-.264,2.4A2.459,2.459,0,0,1,250.632,40.392ZM260.256,42a.227.227,0,0,0,.24-.24V35.472c0-1.992.72-3.36,2.472-3.36a3.238,3.238,0,0,1,1.776.552.217.217,0,0,0,.336-.048l.888-1.176c.1-.12.072-.216-.048-.336a3.532,3.532,0,0,0-2.352-.864,3.2,3.2,0,0,0-3.048,1.68H260.5V30.744a.227.227,0,0,0-.24-.24H258.72a.227.227,0,0,0-.24.24V41.76a.227.227,0,0,0,.24.24ZM269.9,27.912a.227.227,0,0,0,.24-.24V25.92a.227.227,0,0,0-.24-.24h-1.632a.227.227,0,0,0-.24.24v1.752a.227.227,0,0,0,.24.24ZM269.856,42a.227.227,0,0,0,.24-.24V30.744a.227.227,0,0,0-.24-.24H268.32a.227.227,0,0,0-.24.24V41.76a.227.227,0,0,0,.24.24Zm12.936,0a.227.227,0,0,0,.24-.24v-7.2c0-2.616-1.488-4.32-3.984-4.32a3.634,3.634,0,0,0-3.216,1.56h-.024V30.744a.227.227,0,0,0-.24-.24h-1.536a.227.227,0,0,0-.24.24V41.76a.227.227,0,0,0,.24.24h1.536a.227.227,0,0,0,.24-.24V34.92a2.58,2.58,0,0,1,2.64-2.808c1.728,0,2.568,1.08,2.568,2.928v6.72a.227.227,0,0,0,.24.24Zm3.12-5.76a9.931,9.931,0,0,0,.36,2.928,4.454,4.454,0,0,0,4.536,3.1,4.609,4.609,0,0,0,3.936-1.944c.072-.12.072-.216-.072-.336l-1.056-.864a.215.215,0,0,0-.336.024,2.826,2.826,0,0,1-2.472,1.248,2.494,2.494,0,0,1-2.568-1.8,7.728,7.728,0,0,1-.264-2.352,7.657,7.657,0,0,1,.264-2.328,2.494,2.494,0,0,1,2.568-1.8,2.826,2.826,0,0,1,2.472,1.248.215.215,0,0,0,.336.024l1.056-.864c.144-.12.144-.216.072-.336a4.609,4.609,0,0,0-3.936-1.944,4.454,4.454,0,0,0-4.536,3.1A9.867,9.867,0,0,0,285.912,36.24Zm13.608-8.328a.227.227,0,0,0,.24-.24V25.92a.227.227,0,0,0-.24-.24h-1.632a.227.227,0,0,0-.24.24v1.752a.227.227,0,0,0,.24.24ZM299.472,42a.227.227,0,0,0,.24-.24V30.744a.227.227,0,0,0-.24-.24h-1.536a.227.227,0,0,0-.24.24V41.76a.227.227,0,0,0,.24.24Zm5.712,4.32a.227.227,0,0,0,.24-.24V40.656h.024a3.5,3.5,0,0,0,3.264,1.608,3.8,3.8,0,0,0,3.96-2.76,9.57,9.57,0,0,0,.408-3.264,9.506,9.506,0,0,0-.408-3.24,3.8,3.8,0,0,0-3.96-2.76,3.487,3.487,0,0,0-3.264,1.584h-.024v-1.08a.227.227,0,0,0-.24-.24h-1.536a.227.227,0,0,0-.24.24V46.08a.227.227,0,0,0,.24.24Zm3.048-5.928a2.461,2.461,0,0,1-2.544-1.752,7.387,7.387,0,0,1-.264-2.4,7.482,7.482,0,0,1,.264-2.4,2.719,2.719,0,0,1,5.064,0,8.181,8.181,0,0,1,.264,2.4,7.975,7.975,0,0,1-.264,2.4A2.459,2.459,0,0,1,308.232,40.392Zm9.672-12.48a.227.227,0,0,0,.24-.24V25.92a.227.227,0,0,0-.24-.24h-1.632a.227.227,0,0,0-.24.24v1.752a.227.227,0,0,0,.24.24ZM317.856,42a.227.227,0,0,0,.24-.24V30.744a.227.227,0,0,0-.24-.24H316.32a.227.227,0,0,0-.24.24V41.76a.227.227,0,0,0,.24.24Zm8.16.264a4.47,4.47,0,0,0,4.536-3.1,8.632,8.632,0,0,0,.384-2.928,8.571,8.571,0,0,0-.384-2.9,4.871,4.871,0,0,0-9.072,0,8.571,8.571,0,0,0-.384,2.9,8.632,8.632,0,0,0,.384,2.928A4.47,4.47,0,0,0,326.016,42.264Zm0-1.872a2.557,2.557,0,0,1-2.592-1.8,7.53,7.53,0,0,1-.264-2.352,7.361,7.361,0,0,1,.264-2.328,2.766,2.766,0,0,1,5.184,0,7.361,7.361,0,0,1,.264,2.328,7.53,7.53,0,0,1-.264,2.352A2.557,2.557,0,0,1,326.016,40.392Zm7.968-7.344h1.824a.227.227,0,0,0,.24-.24V30.744a.227.227,0,0,0-.24-.24h-1.824a.227.227,0,0,0-.24.24v2.064A.227.227,0,0,0,333.984,33.048Zm-.168,6.648v4.68a.215.215,0,0,0,.216.216.378.378,0,0,0,.312-.168l1.488-1.992a.7.7,0,0,0,.144-.5V39.7a.227.227,0,0,0-.24-.24h-1.68A.227.227,0,0,0,333.816,39.7Z" transform="translate(1257 17176)" fill="#78787a"/><path d="M9.984,18a.227.227,0,0,0,.24-.24V11.568a.127.127,0,0,1,.144-.144h3.768c3.144,0,5.184-1.92,5.184-4.872S17.28,1.68,14.136,1.68H8.328a.227.227,0,0,0-.24.24V17.76a.227.227,0,0,0,.24.24Zm4.032-8.568H10.368a.127.127,0,0,1-.144-.144V3.816a.127.127,0,0,1,.144-.144h3.648c2.016,0,3.192,1.1,3.192,2.88S16.032,9.432,14.016,9.432ZM23.784,18a.227.227,0,0,0,.24-.24V11.472c0-1.992.72-3.36,2.472-3.36a3.238,3.238,0,0,1,1.776.552.217.217,0,0,0,.336-.048L29.5,7.44c.1-.12.072-.216-.048-.336A3.532,3.532,0,0,0,27.1,6.24a3.2,3.2,0,0,0-3.048,1.68h-.024V6.744a.227.227,0,0,0-.24-.24H22.248a.227.227,0,0,0-.24.24V17.76a.227.227,0,0,0,.24.24Zm11.616.264a4.47,4.47,0,0,0,4.536-3.1,8.632,8.632,0,0,0,.384-2.928,8.571,8.571,0,0,0-.384-2.9A4.443,4.443,0,0,0,35.4,6.24a4.443,4.443,0,0,0-4.536,3.1,8.571,8.571,0,0,0-.384,2.9,8.632,8.632,0,0,0,.384,2.928A4.47,4.47,0,0,0,35.4,18.264Zm0-1.872a2.557,2.557,0,0,1-2.592-1.8,7.53,7.53,0,0,1-.264-2.352,7.362,7.362,0,0,1,.264-2.328,2.766,2.766,0,0,1,5.184,0,7.362,7.362,0,0,1,.264,2.328,7.53,7.53,0,0,1-.264,2.352A2.557,2.557,0,0,1,35.4,16.392ZM52.056,18a.227.227,0,0,0,.24-.24V1.92a.227.227,0,0,0-.24-.24H50.52a.227.227,0,0,0-.24.24v5.9h-.024A3.487,3.487,0,0,0,46.992,6.24,3.8,3.8,0,0,0,43.032,9a9.507,9.507,0,0,0-.408,3.24,9.57,9.57,0,0,0,.408,3.264,3.8,3.8,0,0,0,3.96,2.76,3.5,3.5,0,0,0,3.264-1.608h.024v1.1a.227.227,0,0,0,.24.24Zm-4.584-1.608a2.459,2.459,0,0,1-2.52-1.752,7.974,7.974,0,0,1-.264-2.4,8.181,8.181,0,0,1,.264-2.4,2.719,2.719,0,0,1,5.064,0,7.481,7.481,0,0,1,.264,2.4,7.387,7.387,0,0,1-.264,2.4A2.461,2.461,0,0,1,47.472,16.392ZM64.752,18a.227.227,0,0,0,.24-.24V6.744a.227.227,0,0,0-.24-.24H63.216a.227.227,0,0,0-.24.24V13.56a2.552,2.552,0,0,1-2.592,2.832c-1.7,0-2.544-1.08-2.544-2.952v-6.7a.227.227,0,0,0-.24-.24H56.064a.227.227,0,0,0-.24.24V13.92c0,2.616,1.464,4.344,3.984,4.344a3.506,3.506,0,0,0,3.144-1.584h.024v1.08a.227.227,0,0,0,.24.24Zm3.24-5.76a9.931,9.931,0,0,0,.36,2.928,4.454,4.454,0,0,0,4.536,3.1,4.609,4.609,0,0,0,3.936-1.944c.072-.12.072-.216-.072-.336L75.7,15.12a.215.215,0,0,0-.336.024,2.826,2.826,0,0,1-2.472,1.248,2.494,2.494,0,0,1-2.568-1.8,7.729,7.729,0,0,1-.264-2.352,7.658,7.658,0,0,1,.264-2.328,2.494,2.494,0,0,1,2.568-1.8A2.826,2.826,0,0,1,75.36,9.36a.215.215,0,0,0,.336.024l1.056-.864c.144-.12.144-.216.072-.336A4.609,4.609,0,0,0,72.888,6.24a4.454,4.454,0,0,0-4.536,3.1A9.867,9.867,0,0,0,67.992,12.24ZM84,18.12a.227.227,0,0,0,.24-.24V16.488a.227.227,0,0,0-.24-.24h-.5c-1.032,0-1.464-.312-1.464-1.464V8.28a.127.127,0,0,1,.144-.144H84a.227.227,0,0,0,.24-.24V6.744A.227.227,0,0,0,84,6.5H82.176a.127.127,0,0,1-.144-.144V3.12a.227.227,0,0,0-.24-.24H80.256a.227.227,0,0,0-.24.24V6.36a.127.127,0,0,1-.144.144h-.96a.227.227,0,0,0-.24.24V7.9a.227.227,0,0,0,.24.24h.96a.127.127,0,0,1,.144.144v6.576c0,2.256.864,3.264,3.1,3.264Zm7.344.144a4.47,4.47,0,0,0,4.536-3.1,8.632,8.632,0,0,0,.384-2.928,8.571,8.571,0,0,0-.384-2.9,4.871,4.871,0,0,0-9.072,0,8.571,8.571,0,0,0-.384,2.9,8.632,8.632,0,0,0,.384,2.928A4.47,4.47,0,0,0,91.344,18.264Zm0-1.872a2.557,2.557,0,0,1-2.592-1.8,7.53,7.53,0,0,1-.264-2.352,7.362,7.362,0,0,1,.264-2.328,2.766,2.766,0,0,1,5.184,0A7.362,7.362,0,0,1,94.2,12.24a7.53,7.53,0,0,1-.264,2.352A2.557,2.557,0,0,1,91.344,16.392Zm11.88,1.872c3,0,4.632-1.512,4.632-3.768,0-1.848-1.128-3.024-3.456-3.24l-1.2-.12c-1.7-.168-2.256-.648-2.256-1.56,0-.936.744-1.584,2.184-1.584a6.052,6.052,0,0,1,3.1.936.235.235,0,0,0,.336-.048l.816-1.032a.232.232,0,0,0-.048-.336,6.877,6.877,0,0,0-4.08-1.272c-2.712,0-4.272,1.32-4.272,3.5,0,1.872,1.176,3,3.432,3.24l1.224.12c1.8.192,2.232.7,2.232,1.608,0,1.032-.84,1.752-2.52,1.752a5.585,5.585,0,0,1-3.552-1.32.232.232,0,0,0-.336,0L98.472,16.2a.232.232,0,0,0,0,.336A7.144,7.144,0,0,0,103.224,18.264Zm13.8,4.056c1.728,0,2.616-.72,3.624-3.432l4.536-12.144c.048-.144-.048-.24-.192-.24H123.36a.281.281,0,0,0-.288.24l-2.9,8.3h-.048l-3.024-8.3a.281.281,0,0,0-.288-.24h-1.68c-.168,0-.24.1-.192.24l4.224,10.92-.384,1.056c-.5,1.32-1.008,1.728-1.944,1.728H116.4a.227.227,0,0,0-.24.24V22.08a.227.227,0,0,0,.24.24ZM149.256,18a.227.227,0,0,0,.24-.24v-7.2c0-2.616-1.44-4.32-4.1-4.32a4.28,4.28,0,0,0-3.72,1.8h-.024a4.064,4.064,0,0,0-6.576-.24h-.024V6.744a.227.227,0,0,0-.24-.24h-1.536a.227.227,0,0,0-.24.24V17.76a.227.227,0,0,0,.24.24h1.536a.227.227,0,0,0,.24-.24V10.92a2.58,2.58,0,0,1,2.64-2.808c1.728,0,2.568,1.08,2.568,2.928v6.72a.227.227,0,0,0,.24.24h1.536a.227.227,0,0,0,.24-.24V10.92a2.592,2.592,0,0,1,2.64-2.808c1.728,0,2.568,1.08,2.568,2.928v6.72a.227.227,0,0,0,.24.24Zm12.192,0a.227.227,0,0,0,.24-.24V10.152c0-2.832-1.248-3.912-4.512-3.912a6.377,6.377,0,0,0-3.912,1.128.254.254,0,0,0-.048.336l.648,1.1c.072.12.216.12.336.024a4.47,4.47,0,0,1,2.784-.816c2.136,0,2.76.672,2.76,2.256v.84a.127.127,0,0,1-.144.144h-2.616c-2.808,0-4.488,1.128-4.488,3.552,0,2.328,1.68,3.456,3.864,3.456a3.769,3.769,0,0,0,3.408-1.512h.024V17.76a.227.227,0,0,0,.24.24Zm-4.608-1.464c-1.536,0-2.4-.624-2.4-1.8,0-1.3.864-1.872,2.856-1.872h2.3a.127.127,0,0,1,.144.144V14.28C159.744,15.7,158.64,16.536,156.84,16.536Zm12.672,1.584a.227.227,0,0,0,.24-.24V16.488a.227.227,0,0,0-.24-.24h-.5c-1.032,0-1.464-.312-1.464-1.464V8.28a.127.127,0,0,1,.144-.144h1.824a.227.227,0,0,0,.24-.24V6.744a.227.227,0,0,0-.24-.24h-1.824a.127.127,0,0,1-.144-.144V3.12a.227.227,0,0,0-.24-.24h-1.536a.227.227,0,0,0-.24.24V6.36a.127.127,0,0,1-.144.144h-.96a.227.227,0,0,0-.24.24V7.9a.227.227,0,0,0,.24.24h.96a.127.127,0,0,1,.144.144v6.576c0,2.256.864,3.264,3.1,3.264Zm7.416.144a5.59,5.59,0,0,0,4.488-1.968.215.215,0,0,0-.024-.336l-.984-.888a.245.245,0,0,0-.36.048,3.755,3.755,0,0,1-2.952,1.272,2.839,2.839,0,0,1-2.9-1.992A4.308,4.308,0,0,1,174,13.008a.127.127,0,0,1,.144-.144h7.272a.234.234,0,0,0,.264-.24,10.03,10.03,0,0,0-.36-3.288,4.836,4.836,0,0,0-9.024,0,8.917,8.917,0,0,0-.36,2.9,9.012,9.012,0,0,0,.384,2.9A4.446,4.446,0,0,0,176.928,18.264Zm-2.784-7.008a.127.127,0,0,1-.144-.144,4.045,4.045,0,0,1,.168-1.3,2.836,2.836,0,0,1,5.28,0,4.045,4.045,0,0,1,.168,1.3.127.127,0,0,1-.144.144ZM186.456,18a.227.227,0,0,0,.24-.24V11.472c0-1.992.72-3.36,2.472-3.36a3.238,3.238,0,0,1,1.776.552.217.217,0,0,0,.336-.048l.888-1.176c.1-.12.072-.216-.048-.336a3.532,3.532,0,0,0-2.352-.864,3.2,3.2,0,0,0-3.048,1.68H186.7V6.744a.227.227,0,0,0-.24-.24H184.92a.227.227,0,0,0-.24.24V17.76a.227.227,0,0,0,.24.24ZM196.1,3.912a.227.227,0,0,0,.24-.24V1.92a.227.227,0,0,0-.24-.24h-1.632a.227.227,0,0,0-.24.24V3.672a.227.227,0,0,0,.24.24ZM196.056,18a.227.227,0,0,0,.24-.24V6.744a.227.227,0,0,0-.24-.24H194.52a.227.227,0,0,0-.24.24V17.76a.227.227,0,0,0,.24.24Zm12.312,0a.227.227,0,0,0,.24-.24V10.152c0-2.832-1.248-3.912-4.512-3.912a6.377,6.377,0,0,0-3.912,1.128.254.254,0,0,0-.048.336l.648,1.1c.072.12.216.12.336.024a4.47,4.47,0,0,1,2.784-.816c2.136,0,2.76.672,2.76,2.256v.84a.127.127,0,0,1-.144.144H203.9c-2.808,0-4.488,1.128-4.488,3.552,0,2.328,1.68,3.456,3.864,3.456a3.769,3.769,0,0,0,3.408-1.512h.024V17.76a.227.227,0,0,0,.24.24Zm-4.608-1.464c-1.536,0-2.4-.624-2.4-1.8,0-1.3.864-1.872,2.856-1.872h2.3a.127.127,0,0,1,.144.144V14.28C206.664,15.7,205.56,16.536,203.76,16.536Zm12.024,1.584a.227.227,0,0,0,.24-.24V16.488a.227.227,0,0,0-.24-.24h-.456c-.792,0-1.152-.312-1.152-1.272V1.92a.227.227,0,0,0-.24-.24H212.4a.227.227,0,0,0-.24.24V15.1c0,2.064.792,3.024,2.808,3.024Zm7.128.144A5.59,5.59,0,0,0,227.4,16.3a.215.215,0,0,0-.024-.336l-.984-.888a.245.245,0,0,0-.36.048,3.755,3.755,0,0,1-2.952,1.272,2.839,2.839,0,0,1-2.9-1.992,4.308,4.308,0,0,1-.192-1.392.127.127,0,0,1,.144-.144H227.4a.234.234,0,0,0,.264-.24,10.03,10.03,0,0,0-.36-3.288,4.836,4.836,0,0,0-9.024,0,8.917,8.917,0,0,0-.36,2.9,9.012,9.012,0,0,0,.384,2.9A4.446,4.446,0,0,0,222.912,18.264Zm-2.784-7.008a.127.127,0,0,1-.144-.144,4.045,4.045,0,0,1,.168-1.3,2.836,2.836,0,0,1,5.28,0,4.045,4.045,0,0,1,.168,1.3.127.127,0,0,1-.144.144Zm14.5,7.008c3,0,4.632-1.512,4.632-3.768,0-1.848-1.128-3.024-3.456-3.24l-1.2-.12c-1.7-.168-2.256-.648-2.256-1.56,0-.936.744-1.584,2.184-1.584a6.052,6.052,0,0,1,3.1.936.235.235,0,0,0,.336-.048l.816-1.032a.232.232,0,0,0-.048-.336,6.877,6.877,0,0,0-4.08-1.272c-2.712,0-4.272,1.32-4.272,3.5,0,1.872,1.176,3,3.432,3.24l1.224.12c1.8.192,2.232.7,2.232,1.608,0,1.032-.84,1.752-2.52,1.752a5.585,5.585,0,0,1-3.552-1.32.232.232,0,0,0-.336,0l-.984,1.056a.232.232,0,0,0,0,.336A7.144,7.144,0,0,0,234.624,18.264Zm17.376,0a5.59,5.59,0,0,0,4.488-1.968.215.215,0,0,0-.024-.336l-.984-.888a.245.245,0,0,0-.36.048,3.755,3.755,0,0,1-2.952,1.272,2.839,2.839,0,0,1-2.9-1.992,4.308,4.308,0,0,1-.192-1.392.127.127,0,0,1,.144-.144h7.272a.234.234,0,0,0,.264-.24,10.031,10.031,0,0,0-.36-3.288,4.836,4.836,0,0,0-9.024,0,8.917,8.917,0,0,0-.36,2.9,9.012,9.012,0,0,0,.384,2.9A4.446,4.446,0,0,0,252,18.264Zm-2.784-7.008a.127.127,0,0,1-.144-.144,4.045,4.045,0,0,1,.168-1.3,2.836,2.836,0,0,1,5.28,0,4.045,4.045,0,0,1,.168,1.3.127.127,0,0,1-.144.144ZM268.752,18a.227.227,0,0,0,.24-.24v-7.2c0-2.616-1.488-4.32-3.984-4.32a3.634,3.634,0,0,0-3.216,1.56h-.024V6.744a.227.227,0,0,0-.24-.24h-1.536a.227.227,0,0,0-.24.24V17.76a.227.227,0,0,0,.24.24h1.536a.227.227,0,0,0,.24-.24V10.92a2.58,2.58,0,0,1,2.64-2.808c1.728,0,2.568,1.08,2.568,2.928v6.72a.227.227,0,0,0,.24.24Zm18.1,0a.227.227,0,0,0,.24-.24V6.744a.227.227,0,0,0-.24-.24h-1.536a.227.227,0,0,0-.24.24V13.56a2.552,2.552,0,0,1-2.592,2.832c-1.7,0-2.544-1.08-2.544-2.952v-6.7a.227.227,0,0,0-.24-.24H278.16a.227.227,0,0,0-.24.24V13.92c0,2.616,1.464,4.344,3.984,4.344a3.506,3.506,0,0,0,3.144-1.584h.024v1.08a.227.227,0,0,0,.24.24Zm7.9.264c3,0,4.632-1.512,4.632-3.768,0-1.848-1.128-3.024-3.456-3.24l-1.2-.12c-1.7-.168-2.256-.648-2.256-1.56,0-.936.744-1.584,2.184-1.584a6.053,6.053,0,0,1,3.1.936.235.235,0,0,0,.336-.048l.816-1.032a.232.232,0,0,0-.048-.336,6.877,6.877,0,0,0-4.08-1.272c-2.712,0-4.272,1.32-4.272,3.5,0,1.872,1.176,3,3.432,3.24l1.224.12c1.8.192,2.232.7,2.232,1.608,0,1.032-.84,1.752-2.52,1.752a5.585,5.585,0,0,1-3.552-1.32.232.232,0,0,0-.336,0l-.984,1.056a.232.232,0,0,0,0,.336A7.144,7.144,0,0,0,294.744,18.264Zm11.784,0a4.47,4.47,0,0,0,4.536-3.1,8.632,8.632,0,0,0,.384-2.928,8.571,8.571,0,0,0-.384-2.9,4.871,4.871,0,0,0-9.072,0,8.571,8.571,0,0,0-.384,2.9,8.632,8.632,0,0,0,.384,2.928A4.47,4.47,0,0,0,306.528,18.264Zm0-1.872a2.557,2.557,0,0,1-2.592-1.8,7.53,7.53,0,0,1-.264-2.352,7.361,7.361,0,0,1,.264-2.328,2.766,2.766,0,0,1,5.184,0,7.361,7.361,0,0,1,.264,2.328,7.53,7.53,0,0,1-.264,2.352A2.557,2.557,0,0,1,306.528,16.392Zm7.632-.7v4.68a.215.215,0,0,0,.216.216.378.378,0,0,0,.312-.168l1.488-1.968a.765.765,0,0,0,.144-.528V15.7a.227.227,0,0,0-.24-.24H314.4A.227.227,0,0,0,314.16,15.7ZM97.3,42.264a5.59,5.59,0,0,0,4.488-1.968.215.215,0,0,0-.024-.336l-.984-.888a.245.245,0,0,0-.36.048,3.755,3.755,0,0,1-2.952,1.272,2.839,2.839,0,0,1-2.9-1.992,4.308,4.308,0,0,1-.192-1.392.127.127,0,0,1,.144-.144h7.272a.234.234,0,0,0,.264-.24,10.03,10.03,0,0,0-.36-3.288,4.836,4.836,0,0,0-9.024,0,8.917,8.917,0,0,0-.36,2.9,9.012,9.012,0,0,0,.384,2.9A4.446,4.446,0,0,0,97.3,42.264Zm-2.784-7.008a.127.127,0,0,1-.144-.144,4.045,4.045,0,0,1,.168-1.3,2.836,2.836,0,0,1,5.28,0,4.045,4.045,0,0,1,.168,1.3.127.127,0,0,1-.144.144ZM114.048,42a.227.227,0,0,0,.24-.24v-7.2c0-2.616-1.488-4.32-3.984-4.32a3.634,3.634,0,0,0-3.216,1.56h-.024V30.744a.227.227,0,0,0-.24-.24h-1.536a.227.227,0,0,0-.24.24V41.76a.227.227,0,0,0,.24.24h1.536a.227.227,0,0,0,.24-.24V34.92a2.58,2.58,0,0,1,2.64-2.808c1.728,0,2.568,1.08,2.568,2.928v6.72a.227.227,0,0,0,.24.24Zm13.3.264c3,0,4.632-1.512,4.632-3.768,0-1.848-1.128-3.024-3.456-3.24l-1.2-.12c-1.7-.168-2.256-.648-2.256-1.56,0-.936.744-1.584,2.184-1.584a6.052,6.052,0,0,1,3.1.936.235.235,0,0,0,.336-.048l.816-1.032a.232.232,0,0,0-.048-.336,6.877,6.877,0,0,0-4.08-1.272c-2.712,0-4.272,1.32-4.272,3.5,0,1.872,1.176,3,3.432,3.24l1.224.12c1.8.192,2.232.7,2.232,1.608,0,1.032-.84,1.752-2.52,1.752a5.585,5.585,0,0,1-3.552-1.32.232.232,0,0,0-.336,0l-.984,1.056a.232.232,0,0,0,0,.336A7.144,7.144,0,0,0,127.344,42.264ZM143.664,42a.227.227,0,0,0,.24-.24V30.744a.227.227,0,0,0-.24-.24h-1.536a.227.227,0,0,0-.24.24V37.56a2.552,2.552,0,0,1-2.592,2.832c-1.7,0-2.544-1.08-2.544-2.952v-6.7a.227.227,0,0,0-.24-.24h-1.536a.227.227,0,0,0-.24.24V37.92c0,2.616,1.464,4.344,3.984,4.344a3.506,3.506,0,0,0,3.144-1.584h.024v1.08a.227.227,0,0,0,.24.24Zm25.68,0a.227.227,0,0,0,.24-.24v-7.2c0-2.616-1.44-4.32-4.1-4.32a4.28,4.28,0,0,0-3.72,1.8h-.024a4.064,4.064,0,0,0-6.576-.24h-.024V30.744a.227.227,0,0,0-.24-.24H153.36a.227.227,0,0,0-.24.24V41.76a.227.227,0,0,0,.24.24H154.9a.227.227,0,0,0,.24-.24V34.92a2.58,2.58,0,0,1,2.64-2.808c1.728,0,2.568,1.08,2.568,2.928v6.72a.227.227,0,0,0,.24.24h1.536a.227.227,0,0,0,.24-.24V34.92A2.592,2.592,0,0,1,165,32.112c1.728,0,2.568,1.08,2.568,2.928v6.72a.227.227,0,0,0,.24.24Zm12.192,0a.227.227,0,0,0,.24-.24V34.152c0-2.832-1.248-3.912-4.512-3.912a6.377,6.377,0,0,0-3.912,1.128.254.254,0,0,0-.048.336l.648,1.1c.072.12.216.12.336.024a4.47,4.47,0,0,1,2.784-.816c2.136,0,2.76.672,2.76,2.256v.84a.127.127,0,0,1-.144.144h-2.616c-2.808,0-4.488,1.128-4.488,3.552,0,2.328,1.68,3.456,3.864,3.456a3.769,3.769,0,0,0,3.408-1.512h.024V41.76a.227.227,0,0,0,.24.24Zm-4.608-1.464c-1.536,0-2.4-.624-2.4-1.8,0-1.3.864-1.872,2.856-1.872h2.3a.127.127,0,0,1,.144.144V38.28C179.832,39.7,178.728,40.536,176.928,40.536Zm.792-11.9a.473.473,0,0,0,.456-.24l2.208-2.952c.1-.12.024-.24-.12-.24H178.68a.422.422,0,0,0-.408.24l-1.824,2.952c-.072.144,0,.24.144.24Zm11.616,13.632c3,0,4.632-1.512,4.632-3.768,0-1.848-1.128-3.024-3.456-3.24l-1.2-.12c-1.7-.168-2.256-.648-2.256-1.56,0-.936.744-1.584,2.184-1.584a6.052,6.052,0,0,1,3.1.936.235.235,0,0,0,.336-.048l.816-1.032a.232.232,0,0,0-.048-.336,6.877,6.877,0,0,0-4.08-1.272c-2.712,0-4.272,1.32-4.272,3.5,0,1.872,1.176,3,3.432,3.24l1.224.12c1.8.192,2.232.7,2.232,1.608,0,1.032-.84,1.752-2.52,1.752a5.585,5.585,0,0,1-3.552-1.32.232.232,0,0,0-.336,0l-.984,1.056a.232.232,0,0,0,0,.336A7.144,7.144,0,0,0,189.336,42.264ZM210.792,42a.227.227,0,0,0,.24-.24V34.152c0-2.832-1.248-3.912-4.512-3.912a6.377,6.377,0,0,0-3.912,1.128.254.254,0,0,0-.048.336l.648,1.1c.072.12.216.12.336.024a4.47,4.47,0,0,1,2.784-.816c2.136,0,2.76.672,2.76,2.256v.84a.127.127,0,0,1-.144.144h-2.616c-2.808,0-4.488,1.128-4.488,3.552,0,2.328,1.68,3.456,3.864,3.456a3.769,3.769,0,0,0,3.408-1.512h.024V41.76a.227.227,0,0,0,.24.24Zm-4.608-1.464c-1.536,0-2.4-.624-2.4-1.8,0-1.3.864-1.872,2.856-1.872h2.3a.127.127,0,0,1,.144.144V38.28C209.088,39.7,207.984,40.536,206.184,40.536Zm12.024,1.584a.227.227,0,0,0,.24-.24V40.488a.227.227,0,0,0-.24-.24h-.456c-.792,0-1.152-.312-1.152-1.272V25.92a.227.227,0,0,0-.24-.24h-1.536a.227.227,0,0,0-.24.24V39.1c0,2.064.792,3.024,2.808,3.024Zm6.936,0a.227.227,0,0,0,.24-.24V40.488a.227.227,0,0,0-.24-.24h-.5c-1.032,0-1.464-.312-1.464-1.464v-6.5a.127.127,0,0,1,.144-.144h1.824a.227.227,0,0,0,.24-.24V30.744a.227.227,0,0,0-.24-.24H223.32a.127.127,0,0,1-.144-.144V27.12a.227.227,0,0,0-.24-.24H221.4a.227.227,0,0,0-.24.24v3.24a.127.127,0,0,1-.144.144h-.96a.227.227,0,0,0-.24.24V31.9a.227.227,0,0,0,.24.24h.96a.127.127,0,0,1,.144.144v6.576c0,2.256.864,3.264,3.1,3.264Zm7.344.144a4.47,4.47,0,0,0,4.536-3.1,8.632,8.632,0,0,0,.384-2.928,8.571,8.571,0,0,0-.384-2.9,4.871,4.871,0,0,0-9.072,0,8.571,8.571,0,0,0-.384,2.9,8.632,8.632,0,0,0,.384,2.928A4.47,4.47,0,0,0,232.488,42.264Zm0-1.872a2.557,2.557,0,0,1-2.592-1.8,7.53,7.53,0,0,1-.264-2.352,7.362,7.362,0,0,1,.264-2.328,2.766,2.766,0,0,1,5.184,0,7.362,7.362,0,0,1,.264,2.328,7.53,7.53,0,0,1-.264,2.352A2.557,2.557,0,0,1,232.488,40.392ZM250.368,42a.311.311,0,0,0,.312-.24l4.1-11.016c.048-.144-.024-.24-.192-.24H252.96a.281.281,0,0,0-.288.24L249.768,39h-.048l-2.976-8.256c-.072-.168-.144-.24-.312-.24h-1.656c-.168,0-.24.1-.192.24l4.128,11.016c.048.144.12.24.288.24Zm15.024,0a.227.227,0,0,0,.24-.24V34.152c0-2.832-1.248-3.912-4.512-3.912a6.377,6.377,0,0,0-3.912,1.128.254.254,0,0,0-.048.336l.648,1.1c.072.12.216.12.336.024a4.469,4.469,0,0,1,2.784-.816c2.136,0,2.76.672,2.76,2.256v.84a.127.127,0,0,1-.144.144h-2.616c-2.808,0-4.488,1.128-4.488,3.552,0,2.328,1.68,3.456,3.864,3.456a3.769,3.769,0,0,0,3.408-1.512h.024V41.76a.227.227,0,0,0,.24.24Zm-4.608-1.464c-1.536,0-2.4-.624-2.4-1.8,0-1.3.864-1.872,2.856-1.872h2.3a.127.127,0,0,1,.144.144V38.28C263.688,39.7,262.584,40.536,260.784,40.536Zm12.024,1.584a.227.227,0,0,0,.24-.24V40.488a.227.227,0,0,0-.24-.24h-.456c-.792,0-1.152-.312-1.152-1.272V25.92a.227.227,0,0,0-.24-.24h-1.536a.227.227,0,0,0-.24.24V39.1c0,2.064.792,3.024,2.808,3.024Zm7.056.144a4.47,4.47,0,0,0,4.536-3.1,8.632,8.632,0,0,0,.384-2.928,8.571,8.571,0,0,0-.384-2.9,4.871,4.871,0,0,0-9.072,0,8.571,8.571,0,0,0-.384,2.9,8.632,8.632,0,0,0,.384,2.928A4.47,4.47,0,0,0,279.864,42.264Zm0-1.872a2.557,2.557,0,0,1-2.592-1.8,7.53,7.53,0,0,1-.264-2.352,7.361,7.361,0,0,1,.264-2.328,2.766,2.766,0,0,1,5.184,0,7.361,7.361,0,0,1,.264,2.328,7.53,7.53,0,0,1-.264,2.352A2.557,2.557,0,0,1,279.864,40.392ZM289.56,42a.227.227,0,0,0,.24-.24V35.472c0-1.992.72-3.36,2.472-3.36a3.238,3.238,0,0,1,1.776.552.217.217,0,0,0,.336-.048l.888-1.176c.1-.12.072-.216-.048-.336a3.532,3.532,0,0,0-2.352-.864,3.2,3.2,0,0,0-3.048,1.68H289.8V30.744a.227.227,0,0,0-.24-.24h-1.536a.227.227,0,0,0-.24.24V41.76a.227.227,0,0,0,.24.24Zm7.872-8.952h1.824a.227.227,0,0,0,.24-.24V30.744a.227.227,0,0,0-.24-.24h-1.824a.227.227,0,0,0-.24.24v2.064A.227.227,0,0,0,297.432,33.048Zm-.168,6.648v4.68a.215.215,0,0,0,.216.216.378.378,0,0,0,.312-.168l1.488-1.992a.7.7,0,0,0,.144-.5V39.7a.227.227,0,0,0-.24-.24H297.5A.227.227,0,0,0,297.264,39.7ZM309.24,46.32c1.728,0,2.616-.72,3.624-3.432L317.4,30.744c.048-.144-.048-.24-.192-.24h-1.632a.281.281,0,0,0-.288.24l-2.9,8.3h-.048l-3.024-8.3a.281.281,0,0,0-.288-.24h-1.68c-.168,0-.24.1-.192.24l4.224,10.92-.384,1.056c-.5,1.32-1.008,1.728-1.944,1.728h-.432a.227.227,0,0,0-.24.24V46.08a.227.227,0,0,0,.24.24Z" transform="translate(1231 17296)" fill="#78787a"/><text transform="translate(1120 17459)" fill="#b4cd00" font-size="50" font-family="DINNextLTPro-Light, DIN Next LT Pro" font-weight="300"><tspan x="0" y="0">3</tspan></text><g transform="translate(1207 17413.697)"><g transform="translate(0)" fill="#b4cd00" stroke="rgba(0,0,0,0)" stroke-width="1" opacity="0"><rect width="48.905" height="50.303" stroke="none"/><rect x="0.5" y="0.5" width="47.905" height="49.303" fill="none"/></g><path d="M40.626,16.815h4.292v3.314H40.626a23.235,23.235,0,0,1-8.584-1.657,23.612,23.612,0,0,1-17.167,0,23.32,23.32,0,0,1-8.584,1.657H2V16.815H6.292a18.074,18.074,0,0,0,8.584-2.2,18.4,18.4,0,0,0,17.167,0,18.074,18.074,0,0,0,8.584,2.2m0-9.941h4.292v3.314H40.626A23.235,23.235,0,0,1,32.043,8.53a23.612,23.612,0,0,1-17.167,0,23.32,23.32,0,0,1-8.584,1.657H2V6.874H6.292a18.074,18.074,0,0,0,8.584-2.2,18.4,18.4,0,0,0,17.167,0,18.074,18.074,0,0,0,8.584,2.2m0,19.882h4.292v3.314H40.626a23.235,23.235,0,0,1-8.584-1.657,23.612,23.612,0,0,1-17.167,0,23.32,23.32,0,0,1-8.584,1.657H2V26.756H6.292a18.074,18.074,0,0,0,8.584-2.2,18.4,18.4,0,0,0,17.167,0A18.074,18.074,0,0,0,40.626,26.756Z" transform="translate(0.937 6.45)" fill="#b4cd00"/></g><text transform="translate(1581 17338)" fill="#5cc86f" font-size="50" font-family="DINNextLTPro-Light, DIN Next LT Pro" font-weight="300"><tspan x="0" y="0">2</tspan></text><path d="M8507.076,15392.83c2.762,0,4.5.142,4.811.17h323.267a115.154,115.154,0,0,1,26.555,2.89,70.423,70.423,0,0,1,23.35,9.873,49.747,49.747,0,0,1,16.64,18.673,55.275,55.275,0,0,1,4.659,13.137,73.535,73.535,0,0,1,1.644,15.9,75.034,75.034,0,0,1-1.622,15.941,56.846,56.846,0,0,1-4.607,13.252,50.762,50.762,0,0,1-16.516,19.035,69.776,69.776,0,0,1-23.329,10.241,111.075,111.075,0,0,1-26.772,3.058H8583.688c-26.459,0-70.848,7.682-70.848,59.125,0,53.139,49.546,58.875,70.848,58.875h251.465c.759,0,1.563,0,2.4,0a150.3,150.3,0,0,1,20.179,1.074,85.649,85.649,0,0,1,11.642,2.333,62.228,62.228,0,0,1,11.53,4.425,48.524,48.524,0,0,1,10.539,7.2,45.036,45.036,0,0,1,8.631,10.628,54.189,54.189,0,0,1,5.8,14.657,88.306,88.306,0,0,1-.194,39.3,55.9,55.9,0,0,1-6.3,15.28,48.434,48.434,0,0,1-9.282,11.116,53.425,53.425,0,0,1-11.215,7.569,77.123,77.123,0,0,1-24.089,7.213,138.506,138.506,0,0,1-19.65,1.207H8511.861a108.548,108.548,0,0,1-20.706-2.513,85.4,85.4,0,0,1-18.091-5.99,51.194,51.194,0,0,1-16.406-11.764,56.878,56.878,0,0,1-10.492-18.077,106.548,106.548,0,0,1-5.191-19.82,140.916,140.916,0,0,1-1.98-22.609v-200.205a123.818,123.818,0,0,1,1.53-22.649,100.076,100.076,0,0,1,5.3-20.27,60.729,60.729,0,0,1,11.4-19.135c6.784-7.46,15.871-12.852,27.011-16.023A84.873,84.873,0,0,1,8507.076,15392.83ZM8835.153,15513c21.3,0,70.847-5.8,70.847-59.527,0-50.876-44.388-58.473-70.847-58.473h-323.36l-.048,0c-.017,0-1.775-.165-4.669-.165-9.492,0-33.209,1.8-48.378,18.483-10.116,11.125-14.393,27.008-16.2,38.372a121.053,121.053,0,0,0-1.507,22.266v200.293a138.525,138.525,0,0,0,1.958,22.294c1.9,11.23,6.079,26.742,15.192,36.857s23.209,14.9,33.438,17.139a106.244,106.244,0,0,0,20.278,2.466h323.292c7.3,0,26.709,0,42.833-8.2,18.588-9.457,28.014-27.025,28.014-52.219,0-24.367-8.748-41.179-26-49.968-14.9-7.592-32.732-7.613-42.361-7.613h-.081c-.841,0-1.644,0-2.4,0H8583.688a119.8,119.8,0,0,1-17.069-1.164,85.543,85.543,0,0,1-24.35-7,53.583,53.583,0,0,1-21.93-18.19,52.107,52.107,0,0,1-6.927-14.928,70.857,70.857,0,0,1-2.572-19.594,72.339,72.339,0,0,1,2.519-19.6,51.059,51.059,0,0,1,28.428-33.234,84.046,84.046,0,0,1,24.293-7.087,122.324,122.324,0,0,1,17.608-1.2Z" transform="translate(10074 32897.828) rotate(180)" fill="#781f78" opacity="0.33"/><g transform="translate(1150 17422)" fill="#b4cd00" stroke="#fff" stroke-width="2"><circle cx="20" cy="20" r="20" stroke="none"/><circle cx="20" cy="20" r="19" fill="none"/></g><g transform="translate(1418 17133) rotate(90)" fill="#4d354e"><path d="M 20.21694564819336 17 L 1.783054947853088 17 L 11 1.917726397514343 L 20.21694564819336 17 Z" stroke="none"/><path d="M 11 3.835453033447266 L 3.566110610961914 16 L 18.43388938903809 16 L 11 3.835453033447266 M 11 0 L 22 18 L 0 18 L 11 0 Z" stroke="none" fill="#f4f4f4"/></g><g transform="translate(1447 17372) rotate(90)" fill="#4d354e"><path d="M 20.21694564819336 17 L 1.783054947853088 17 L 11 1.917726397514343 L 20.21694564819336 17 Z" stroke="none"/><path d="M 11 3.835453033447266 L 3.566110610961914 16 L 18.43388938903809 16 L 11 3.835453033447266 M 11 0 L 22 18 L 0 18 L 11 0 Z" stroke="none" fill="#f4f4f4"/></g><g transform="translate(1367 17515) rotate(-90)" fill="#4d354e"><path d="M 20.21694564819336 17 L 1.783054947853088 17 L 11 1.917726397514343 L 20.21694564819336 17 Z" stroke="none"/><path d="M 11 3.835453033447266 L 3.566110610961914 16 L 18.43388938903809 16 L 11 3.835453033447266 M 11 0 L 22 18 L 0 18 L 11 0 Z" stroke="none" fill="#f4f4f4"/></g><g transform="translate(1309 17275) rotate(-90)" fill="#4d354e"><path d="M 20.21694564819336 17 L 1.783054947853088 17 L 11 1.917726397514343 L 20.21694564819336 17 Z" stroke="none"/><path d="M 11 3.835453033447266 L 3.566110610961914 16 L 18.43388938903809 16 L 11 3.835453033447266 M 11 0 L 22 18 L 0 18 L 11 0 Z" stroke="none" fill="#f4f4f4"/></g><g transform="translate(1645 17218) rotate(180)" fill="#4d354e"><path d="M 20.21694564819336 17 L 1.783054947853088 17 L 11 1.917726397514343 L 20.21694564819336 17 Z" stroke="none"/><path d="M 11 3.835453033447266 L 3.566110610961914 16 L 18.43388938903809 16 L 11 3.835453033447266 M 11 0 L 22 18 L 0 18 L 11 0 Z" stroke="none" fill="#f4f4f4"/></g><g transform="translate(1645 17449) rotate(180)" fill="#4d354e"><path d="M 20.21694564819336 17 L 1.783054947853088 17 L 11 1.917726397514343 L 20.21694564819336 17 Z" stroke="none"/><path d="M 11 3.835453033447266 L 3.566110610961914 16 L 18.43388938903809 16 L 11 3.835453033447266 M 11 0 L 22 18 L 0 18 L 11 0 Z" stroke="none" fill="#f4f4f4"/></g><g transform="translate(1613 17302)" fill="#52c77b" stroke="#fff" stroke-width="2"><circle cx="20" cy="20" r="20" stroke="none"/><circle cx="20" cy="20" r="19" fill="none"/></g><g transform="translate(1150 17180)" fill="#05c3de" stroke="#fff" stroke-width="2"><circle cx="20" cy="20" r="20" stroke="none"/><circle cx="20" cy="20" r="19" fill="none"/></g><g transform="translate(1192.916 17170)"><rect width="54.336" height="54.336" fill="#05c3de" opacity="0"/><path d="M19.483,19.392,16.23,30.94,12.978,19.392,2,15.97l10.978-3.422L16.23,1l3.253,11.548L30.461,15.97,19.483,19.392m13.011,9.837,8.132-4.7-4.472,8.554,4.472,8.554-8.132-4.7-8.132,4.7,4.472-8.554-4.472-8.554,8.132,4.7m-14.23,3.849-3.456,6.416,3.456,6.416-6.1-3.636-6.1,3.636,3.456-6.416L6.066,33.078l6.1,3.636,6.1-3.636" transform="translate(7.426 5.284)" fill="#05c3de"/></g><g transform="translate(1187.084 17302)"><rect width="40" height="40" fill="#52c77b" opacity="0"/><path d="M27.2,14.6h5.4l-9,12.6M16.4,14.6h7.2L20,29M7.4,14.6h5.4l3.6,12.6m9-21.6H29L32.6,11H27.2m-9-5.4h3.6L23.6,11H16.4M11,5.6h3.6L12.8,11H7.4M9.2,2,2,12.8,20,38,38,12.8,30.8,2Z" transform="translate(0 0)" fill="#52c77b"/></g></g></svg>