<svg xmlns="http://www.w3.org/2000/svg" width="533" height="382" viewBox="0 0 533 382">
  <g id="economia-circular" transform="translate(-1120 -17133)">
    <text id="_1" data-name="1" transform="translate(1124 17218)" fill="#05c3de" font-size="50" font-family="DINNextLTPro-Light, DIN Next LT Pro" font-weight="300"><tspan x="0" y="0">1</tspan></text>
    <text id="regenerar_sistemas_naturais." data-name="regenerar sistemas naturais." transform="translate(1279 17416)" fill="#78787a" font-size="24" font-family="DINNextLTPro-Regular, DIN Next LT Pro" letter-spacing="-0.01em"><tspan x="0" y="18">regenerar sistemas </tspan><tspan x="0" y="42">naturais.</tspan></text>
    <text id="eliminar_resíduos_e_poluição_desde_o_princípio_" data-name="eliminar resíduos e poluição desde o princípio, " transform="translate(1257 17176)" fill="#78787a" font-size="24" font-family="DINNextLTPro-Regular, DIN Next LT Pro" letter-spacing="-0.01em"><tspan x="0" y="18">eliminar resíduos e poluição </tspan><tspan x="0" y="42">desde o princípio, </tspan></text>
    <text id="produtos_e_materiais_em_uso_em_seu_mais_alto_valor_e_" data-name="produtos e materiais em uso, em seu mais alto valor, e " transform="translate(1231 17296)" fill="#78787a" font-size="24" font-family="DINNextLTPro-Regular, DIN Next LT Pro" letter-spacing="-0.01em"><tspan x="-294.864" y="18">produtos e materiais em uso, </tspan><tspan x="-250.344" y="42">em seu mais alto valor, e </tspan></text>
    <text id="_3" data-name="3" transform="translate(1120 17459)" fill="#b4cd00" font-size="50" font-family="DINNextLTPro-Light, DIN Next LT Pro" font-weight="300"><tspan x="0" y="0">3</tspan></text>
    <g id="MDI_waves" data-name="MDI / waves" transform="translate(1207 17413.697)">
      <g id="Boundary" transform="translate(0)" fill="#b4cd00" stroke="rgba(0,0,0,0)" stroke-width="1" opacity="0">
        <rect width="48.905" height="50.303" stroke="none"/>
        <rect x="0.5" y="0.5" width="47.905" height="49.303" fill="none"/>
      </g>
      <path id="Path_waves" data-name="Path / waves" d="M40.626,16.815h4.292v3.314H40.626a23.235,23.235,0,0,1-8.584-1.657,23.612,23.612,0,0,1-17.167,0,23.32,23.32,0,0,1-8.584,1.657H2V16.815H6.292a18.074,18.074,0,0,0,8.584-2.2,18.4,18.4,0,0,0,17.167,0,18.074,18.074,0,0,0,8.584,2.2m0-9.941h4.292v3.314H40.626A23.235,23.235,0,0,1,32.043,8.53a23.612,23.612,0,0,1-17.167,0,23.32,23.32,0,0,1-8.584,1.657H2V6.874H6.292a18.074,18.074,0,0,0,8.584-2.2,18.4,18.4,0,0,0,17.167,0,18.074,18.074,0,0,0,8.584,2.2m0,19.882h4.292v3.314H40.626a23.235,23.235,0,0,1-8.584-1.657,23.612,23.612,0,0,1-17.167,0,23.32,23.32,0,0,1-8.584,1.657H2V26.756H6.292a18.074,18.074,0,0,0,8.584-2.2,18.4,18.4,0,0,0,17.167,0A18.074,18.074,0,0,0,40.626,26.756Z" transform="translate(0.937 6.45)" fill="#b4cd00"/>
    </g>
    <text id="_2" data-name="2" transform="translate(1581 17338)" fill="#5cc86f" font-size="50" font-family="DINNextLTPro-Light, DIN Next LT Pro" font-weight="300"><tspan x="0" y="0">2</tspan></text>
    <path id="Caminho_4223" data-name="Caminho 4223" d="M8507.076,15392.83c2.762,0,4.5.142,4.811.17h323.267a115.154,115.154,0,0,1,26.555,2.89,70.423,70.423,0,0,1,23.35,9.873,49.747,49.747,0,0,1,16.64,18.673,55.275,55.275,0,0,1,4.659,13.137,73.535,73.535,0,0,1,1.644,15.9,75.034,75.034,0,0,1-1.622,15.941,56.846,56.846,0,0,1-4.607,13.252,50.762,50.762,0,0,1-16.516,19.035,69.776,69.776,0,0,1-23.329,10.241,111.075,111.075,0,0,1-26.772,3.058H8583.688c-26.459,0-70.848,7.682-70.848,59.125,0,53.139,49.546,58.875,70.848,58.875h251.465c.759,0,1.563,0,2.4,0a150.3,150.3,0,0,1,20.179,1.074,85.649,85.649,0,0,1,11.642,2.333,62.228,62.228,0,0,1,11.53,4.425,48.524,48.524,0,0,1,10.539,7.2,45.036,45.036,0,0,1,8.631,10.628,54.189,54.189,0,0,1,5.8,14.657,88.306,88.306,0,0,1-.194,39.3,55.9,55.9,0,0,1-6.3,15.28,48.434,48.434,0,0,1-9.282,11.116,53.425,53.425,0,0,1-11.215,7.569,77.123,77.123,0,0,1-24.089,7.213,138.506,138.506,0,0,1-19.65,1.207H8511.861a108.548,108.548,0,0,1-20.706-2.513,85.4,85.4,0,0,1-18.091-5.99,51.194,51.194,0,0,1-16.406-11.764,56.878,56.878,0,0,1-10.492-18.077,106.548,106.548,0,0,1-5.191-19.82,140.916,140.916,0,0,1-1.98-22.609v-200.205a123.818,123.818,0,0,1,1.53-22.649,100.076,100.076,0,0,1,5.3-20.27,60.729,60.729,0,0,1,11.4-19.135c6.784-7.46,15.871-12.852,27.011-16.023A84.873,84.873,0,0,1,8507.076,15392.83ZM8835.153,15513c21.3,0,70.847-5.8,70.847-59.527,0-50.876-44.388-58.473-70.847-58.473h-323.36l-.048,0c-.017,0-1.775-.165-4.669-.165-9.492,0-33.209,1.8-48.378,18.483-10.116,11.125-14.393,27.008-16.2,38.372a121.053,121.053,0,0,0-1.507,22.266v200.293a138.525,138.525,0,0,0,1.958,22.294c1.9,11.23,6.079,26.742,15.192,36.857s23.209,14.9,33.438,17.139a106.244,106.244,0,0,0,20.278,2.466h323.292c7.3,0,26.709,0,42.833-8.2,18.588-9.457,28.014-27.025,28.014-52.219,0-24.367-8.748-41.179-26-49.968-14.9-7.592-32.732-7.613-42.361-7.613h-.081c-.841,0-1.644,0-2.4,0H8583.688a119.8,119.8,0,0,1-17.069-1.164,85.543,85.543,0,0,1-24.35-7,53.583,53.583,0,0,1-21.93-18.19,52.107,52.107,0,0,1-6.927-14.928,70.857,70.857,0,0,1-2.572-19.594,72.339,72.339,0,0,1,2.519-19.6,51.059,51.059,0,0,1,28.428-33.234,84.046,84.046,0,0,1,24.293-7.087,122.324,122.324,0,0,1,17.608-1.2Z" transform="translate(10074 32897.828) rotate(180)" fill="#781f78" opacity="0.33"/>
    <g id="Ellipse_4" data-name="Ellipse 4" transform="translate(1150 17422)" fill="#b4cd00" stroke="#fff" stroke-width="2">
      <circle cx="20" cy="20" r="20" stroke="none"/>
      <circle cx="20" cy="20" r="19" fill="none"/>
    </g>
    <g id="Polygon_14" data-name="Polygon 14" transform="translate(1418 17133) rotate(90)" fill="#4d354e">
      <path d="M 20.21694564819336 17 L 1.783054947853088 17 L 11 1.917726397514343 L 20.21694564819336 17 Z" stroke="none"/>
      <path d="M 11 3.835453033447266 L 3.566110610961914 16 L 18.43388938903809 16 L 11 3.835453033447266 M 11 0 L 22 18 L 0 18 L 11 0 Z" stroke="none" fill="#f4f4f4"/>
    </g>
    <g id="Polygon_24" data-name="Polygon 24" transform="translate(1447 17372) rotate(90)" fill="#4d354e">
      <path d="M 20.21694564819336 17 L 1.783054947853088 17 L 11 1.917726397514343 L 20.21694564819336 17 Z" stroke="none"/>
      <path d="M 11 3.835453033447266 L 3.566110610961914 16 L 18.43388938903809 16 L 11 3.835453033447266 M 11 0 L 22 18 L 0 18 L 11 0 Z" stroke="none" fill="#f4f4f4"/>
    </g>
    <g id="Polygon_23" data-name="Polygon 23" transform="translate(1367 17515) rotate(-90)" fill="#4d354e">
      <path d="M 20.21694564819336 17 L 1.783054947853088 17 L 11 1.917726397514343 L 20.21694564819336 17 Z" stroke="none"/>
      <path d="M 11 3.835453033447266 L 3.566110610961914 16 L 18.43388938903809 16 L 11 3.835453033447266 M 11 0 L 22 18 L 0 18 L 11 0 Z" stroke="none" fill="#f4f4f4"/>
    </g>
    <g id="Polygon_25" data-name="Polygon 25" transform="translate(1309 17275) rotate(-90)" fill="#4d354e">
      <path d="M 20.21694564819336 17 L 1.783054947853088 17 L 11 1.917726397514343 L 20.21694564819336 17 Z" stroke="none"/>
      <path d="M 11 3.835453033447266 L 3.566110610961914 16 L 18.43388938903809 16 L 11 3.835453033447266 M 11 0 L 22 18 L 0 18 L 11 0 Z" stroke="none" fill="#f4f4f4"/>
    </g>
    <g id="Polygon_21" data-name="Polygon 21" transform="translate(1645 17218) rotate(180)" fill="#4d354e">
      <path d="M 20.21694564819336 17 L 1.783054947853088 17 L 11 1.917726397514343 L 20.21694564819336 17 Z" stroke="none"/>
      <path d="M 11 3.835453033447266 L 3.566110610961914 16 L 18.43388938903809 16 L 11 3.835453033447266 M 11 0 L 22 18 L 0 18 L 11 0 Z" stroke="none" fill="#f4f4f4"/>
    </g>
    <g id="Polygon_22" data-name="Polygon 22" transform="translate(1645 17449) rotate(180)" fill="#4d354e">
      <path d="M 20.21694564819336 17 L 1.783054947853088 17 L 11 1.917726397514343 L 20.21694564819336 17 Z" stroke="none"/>
      <path d="M 11 3.835453033447266 L 3.566110610961914 16 L 18.43388938903809 16 L 11 3.835453033447266 M 11 0 L 22 18 L 0 18 L 11 0 Z" stroke="none" fill="#f4f4f4"/>
    </g>
    <g id="Ellipse_3" data-name="Ellipse 3" transform="translate(1613 17302)" fill="#52c77b" stroke="#fff" stroke-width="2">
      <circle cx="20" cy="20" r="20" stroke="none"/>
      <circle cx="20" cy="20" r="19" fill="none"/>
    </g>
    <g id="Ellipse_5" data-name="Ellipse 5" transform="translate(1150 17180)" fill="#05c3de" stroke="#fff" stroke-width="2">
      <circle cx="20" cy="20" r="20" stroke="none"/>
      <circle cx="20" cy="20" r="19" fill="none"/>
    </g>
    <g id="MDI_shimmer" data-name="MDI / shimmer" transform="translate(1192.916 17170)">
      <rect id="Boundary-2" data-name="Boundary" width="54.336" height="54.336" fill="#05c3de" opacity="0"/>
      <path id="Path_shimmer" data-name="Path / shimmer" d="M19.483,19.392,16.23,30.94,12.978,19.392,2,15.97l10.978-3.422L16.23,1l3.253,11.548L30.461,15.97,19.483,19.392m13.011,9.837,8.132-4.7-4.472,8.554,4.472,8.554-8.132-4.7-8.132,4.7,4.472-8.554-4.472-8.554,8.132,4.7m-14.23,3.849-3.456,6.416,3.456,6.416-6.1-3.636-6.1,3.636,3.456-6.416L6.066,33.078l6.1,3.636,6.1-3.636" transform="translate(7.426 5.284)" fill="#05c3de"/>
    </g>
    <g id="MDI_diamond-stone" data-name="MDI / diamond-stone" transform="translate(1200.084 17302)">
      <rect id="Boundary-3" data-name="Boundary" width="40" height="40" fill="#52c77b" opacity="0"/>
      <path id="Path_diamond-stone" data-name="Path / diamond-stone" d="M27.2,14.6h5.4l-9,12.6M16.4,14.6h7.2L20,29M7.4,14.6h5.4l3.6,12.6m9-21.6H29L32.6,11H27.2m-9-5.4h3.6L23.6,11H16.4M11,5.6h3.6L12.8,11H7.4M9.2,2,2,12.8,20,38,38,12.8,30.8,2Z" transform="translate(0 0)" fill="#52c77b"/>
    </g>
  </g>
</svg>
