<svg xmlns="http://www.w3.org/2000/svg" width="533" height="382" viewBox="0 0 533 382"><g transform="translate(-1120 -17133)"><text transform="translate(1124 17218)" fill="#05c3de" font-size="50" font-family="DINNextLTPro-Light, DIN Next LT Pro" font-weight="300"><tspan x="0" y="0">1</tspan></text><path d="M3.432,17a.208.208,0,0,0,.22-.22V11.016c0-1.826.66-3.08,2.266-3.08a2.969,2.969,0,0,1,1.628.506A.2.2,0,0,0,7.854,8.4L8.668,7.32c.088-.11.066-.2-.044-.308A3.238,3.238,0,0,0,6.468,6.22,2.936,2.936,0,0,0,3.674,7.76H3.652V6.682a.208.208,0,0,0-.22-.22H2.024a.208.208,0,0,0-.22.22v10.1a.208.208,0,0,0,.22.22Zm10.714.242a5.124,5.124,0,0,0,4.114-1.8.2.2,0,0,0-.022-.308l-.9-.814a.225.225,0,0,0-.33.044A3.442,3.442,0,0,1,14.3,15.526,2.6,2.6,0,0,1,11.638,13.7a3.949,3.949,0,0,1-.176-1.276.117.117,0,0,1,.132-.132H18.26a.215.215,0,0,0,.242-.22,9.194,9.194,0,0,0-.33-3.014A4.081,4.081,0,0,0,14.036,6.22,4.074,4.074,0,0,0,9.9,9.058a8.174,8.174,0,0,0-.33,2.662,8.261,8.261,0,0,0,.352,2.662A4.076,4.076,0,0,0,14.146,17.242Zm-2.552-6.424a.117.117,0,0,1-.132-.132A3.708,3.708,0,0,1,11.616,9.5a2.379,2.379,0,0,1,2.42-1.65,2.379,2.379,0,0,1,2.42,1.65,3.708,3.708,0,0,1,.154,1.188.117.117,0,0,1-.132.132ZM24.684,21.2c2.97,0,4.6-1.672,4.6-4.664V6.682a.208.208,0,0,0-.22-.22H27.654a.208.208,0,0,0-.22.22v.99h-.022A3.025,3.025,0,0,0,24.486,6.22a3.455,3.455,0,0,0-3.542,2.552,8.248,8.248,0,0,0-.352,2.772,8.248,8.248,0,0,0,.352,2.772,3.455,3.455,0,0,0,3.542,2.552,3.025,3.025,0,0,0,2.926-1.452h.022v1.232c0,1.936-.924,2.838-2.662,2.838a3.516,3.516,0,0,1-2.486-1.056.206.206,0,0,0-.33,0l-.9.9a.2.2,0,0,0-.022.308A4.762,4.762,0,0,0,24.684,21.2Zm.264-6.028a2.151,2.151,0,0,1-2.222-1.584,6.505,6.505,0,0,1-.264-2.046A6.6,6.6,0,0,1,22.726,9.5a2.156,2.156,0,0,1,2.222-1.562A2.161,2.161,0,0,1,27.192,9.5a6.494,6.494,0,0,1,.242,2.046,6.406,6.406,0,0,1-.242,2.046A2.179,2.179,0,0,1,24.948,15.174Zm11.66,2.068a5.124,5.124,0,0,0,4.114-1.8.2.2,0,0,0-.022-.308l-.9-.814a.225.225,0,0,0-.33.044,3.442,3.442,0,0,1-2.706,1.166A2.6,2.6,0,0,1,34.1,13.7a3.949,3.949,0,0,1-.176-1.276.117.117,0,0,1,.132-.132h6.666a.215.215,0,0,0,.242-.22,9.194,9.194,0,0,0-.33-3.014A4.081,4.081,0,0,0,36.5,6.22a4.074,4.074,0,0,0-4.136,2.838,8.174,8.174,0,0,0-.33,2.662,8.261,8.261,0,0,0,.352,2.662A4.076,4.076,0,0,0,36.608,17.242Zm-2.552-6.424a.117.117,0,0,1-.132-.132A3.708,3.708,0,0,1,34.078,9.5a2.6,2.6,0,0,1,4.84,0,3.708,3.708,0,0,1,.154,1.188.117.117,0,0,1-.132.132ZM51.964,17a.208.208,0,0,0,.22-.22v-6.6c0-2.4-1.364-3.96-3.652-3.96a3.331,3.331,0,0,0-2.948,1.43h-.022V6.682a.208.208,0,0,0-.22-.22H43.934a.208.208,0,0,0-.22.22v10.1a.208.208,0,0,0,.22.22h1.408a.208.208,0,0,0,.22-.22V10.51a2.365,2.365,0,0,1,2.42-2.574c1.584,0,2.354.99,2.354,2.684v6.16a.208.208,0,0,0,.22.22Zm7.436.242a5.124,5.124,0,0,0,4.114-1.8.2.2,0,0,0-.022-.308l-.9-.814a.225.225,0,0,0-.33.044,3.442,3.442,0,0,1-2.706,1.166A2.6,2.6,0,0,1,56.892,13.7a3.949,3.949,0,0,1-.176-1.276.117.117,0,0,1,.132-.132h6.666a.215.215,0,0,0,.242-.22,9.194,9.194,0,0,0-.33-3.014,4.433,4.433,0,0,0-8.272,0,8.174,8.174,0,0,0-.33,2.662,8.261,8.261,0,0,0,.352,2.662A4.076,4.076,0,0,0,59.4,17.242Zm-2.552-6.424a.117.117,0,0,1-.132-.132A3.708,3.708,0,0,1,56.87,9.5a2.6,2.6,0,0,1,4.84,0,3.708,3.708,0,0,1,.154,1.188.117.117,0,0,1-.132.132ZM68.134,17a.208.208,0,0,0,.22-.22V11.016c0-1.826.66-3.08,2.266-3.08a2.969,2.969,0,0,1,1.628.506.2.2,0,0,0,.308-.044L73.37,7.32c.088-.11.066-.2-.044-.308A3.238,3.238,0,0,0,71.17,6.22a2.936,2.936,0,0,0-2.794,1.54h-.022V6.682a.208.208,0,0,0-.22-.22H66.726a.208.208,0,0,0-.22.22v10.1a.208.208,0,0,0,.22.22Zm14.322,0a.208.208,0,0,0,.22-.22V9.806c0-2.6-1.144-3.586-4.136-3.586a5.845,5.845,0,0,0-3.586,1.034.233.233,0,0,0-.044.308L75.5,8.574c.066.11.2.11.308.022a4.1,4.1,0,0,1,2.552-.748c1.958,0,2.53.616,2.53,2.068v.77a.117.117,0,0,1-.132.132h-2.4c-2.574,0-4.114,1.034-4.114,3.256,0,2.134,1.54,3.168,3.542,3.168a3.455,3.455,0,0,0,3.124-1.386h.022v.924a.208.208,0,0,0,.22.22Zm-4.224-1.342c-1.408,0-2.2-.572-2.2-1.65,0-1.188.792-1.716,2.618-1.716h2.112a.117.117,0,0,1,.132.132V13.59C80.894,14.888,79.882,15.658,78.232,15.658ZM89.848,17.11a.208.208,0,0,0,.22-.22V15.614a.208.208,0,0,0-.22-.22h-.462c-.946,0-1.342-.286-1.342-1.342V8.09a.117.117,0,0,1,.132-.132h1.672a.208.208,0,0,0,.22-.22V6.682a.208.208,0,0,0-.22-.22H88.176a.117.117,0,0,1-.132-.132V3.36a.208.208,0,0,0-.22-.22H86.416a.208.208,0,0,0-.22.22V6.33a.117.117,0,0,1-.132.132h-.88a.208.208,0,0,0-.22.22V7.738a.208.208,0,0,0,.22.22h.88a.117.117,0,0,1,.132.132v6.028c0,2.068.792,2.992,2.838,2.992Zm6.8.132a5.124,5.124,0,0,0,4.114-1.8.2.2,0,0,0-.022-.308l-.9-.814a.225.225,0,0,0-.33.044A3.442,3.442,0,0,1,96.8,15.526,2.6,2.6,0,0,1,94.138,13.7a3.949,3.949,0,0,1-.176-1.276.117.117,0,0,1,.132-.132h6.666a.215.215,0,0,0,.242-.22,9.194,9.194,0,0,0-.33-3.014,4.433,4.433,0,0,0-8.272,0,8.174,8.174,0,0,0-.33,2.662,8.261,8.261,0,0,0,.352,2.662A4.076,4.076,0,0,0,96.646,17.242Zm-2.552-6.424a.117.117,0,0,1-.132-.132A3.708,3.708,0,0,1,94.116,9.5a2.6,2.6,0,0,1,4.84,0,3.708,3.708,0,0,1,.154,1.188.117.117,0,0,1-.132.132ZM117.062,17a.208.208,0,0,0,.22-.22v-6.6c0-2.4-1.364-3.96-3.652-3.96a3.331,3.331,0,0,0-2.948,1.43h-.022V6.682a.208.208,0,0,0-.22-.22h-1.408a.208.208,0,0,0-.22.22v10.1a.208.208,0,0,0,.22.22h1.408a.208.208,0,0,0,.22-.22V10.51a2.365,2.365,0,0,1,2.42-2.574c1.584,0,2.354.99,2.354,2.684v6.16a.208.208,0,0,0,.22.22Zm11.176,0a.208.208,0,0,0,.22-.22V9.806c0-2.6-1.144-3.586-4.136-3.586a5.845,5.845,0,0,0-3.586,1.034.233.233,0,0,0-.044.308l.594,1.012c.066.11.2.11.308.022a4.1,4.1,0,0,1,2.552-.748c1.958,0,2.53.616,2.53,2.068v.77a.117.117,0,0,1-.132.132h-2.4c-2.574,0-4.114,1.034-4.114,3.256,0,2.134,1.54,3.168,3.542,3.168a3.455,3.455,0,0,0,3.124-1.386h.022v.924a.208.208,0,0,0,.22.22Zm-4.224-1.342c-1.408,0-2.2-.572-2.2-1.65,0-1.188.792-1.716,2.618-1.716h2.112a.117.117,0,0,1,.132.132V13.59C126.676,14.888,125.664,15.658,124.014,15.658ZM135.63,17.11a.208.208,0,0,0,.22-.22V15.614a.208.208,0,0,0-.22-.22h-.462c-.946,0-1.342-.286-1.342-1.342V8.09a.117.117,0,0,1,.132-.132h1.672a.208.208,0,0,0,.22-.22V6.682a.208.208,0,0,0-.22-.22h-1.672a.117.117,0,0,1-.132-.132V3.36a.208.208,0,0,0-.22-.22H132.2a.208.208,0,0,0-.22.22V6.33a.117.117,0,0,1-.132.132h-.88a.208.208,0,0,0-.22.22V7.738a.208.208,0,0,0,.22.22h.88a.117.117,0,0,1,.132.132v6.028c0,2.068.792,2.992,2.838,2.992ZM146.52,17a.208.208,0,0,0,.22-.22V6.682a.208.208,0,0,0-.22-.22h-1.408a.208.208,0,0,0-.22.22V12.93a2.339,2.339,0,0,1-2.376,2.6c-1.562,0-2.332-.99-2.332-2.706V6.682a.208.208,0,0,0-.22-.22h-1.408a.208.208,0,0,0-.22.22V13.26c0,2.4,1.342,3.982,3.652,3.982a3.214,3.214,0,0,0,2.882-1.452h.022v.99a.208.208,0,0,0,.22.22Zm5.236,0a.208.208,0,0,0,.22-.22V11.016c0-1.826.66-3.08,2.266-3.08a2.969,2.969,0,0,1,1.628.506.2.2,0,0,0,.308-.044l.814-1.078c.088-.11.066-.2-.044-.308a3.238,3.238,0,0,0-2.156-.792A2.936,2.936,0,0,0,152,7.76h-.022V6.682a.208.208,0,0,0-.22-.22h-1.408a.208.208,0,0,0-.22.22v10.1a.208.208,0,0,0,.22.22Zm14.322,0a.208.208,0,0,0,.22-.22V9.806c0-2.6-1.144-3.586-4.136-3.586a5.845,5.845,0,0,0-3.586,1.034.233.233,0,0,0-.044.308l.594,1.012c.066.11.2.11.308.022a4.1,4.1,0,0,1,2.552-.748c1.958,0,2.53.616,2.53,2.068v.77a.117.117,0,0,1-.132.132h-2.4c-2.574,0-4.114,1.034-4.114,3.256,0,2.134,1.54,3.168,3.542,3.168a3.455,3.455,0,0,0,3.124-1.386h.022v.924a.208.208,0,0,0,.22.22Zm-4.224-1.342c-1.408,0-2.2-.572-2.2-1.65,0-1.188.792-1.716,2.618-1.716h2.112a.117.117,0,0,1,.132.132V13.59C164.516,14.888,163.5,15.658,161.854,15.658Zm11.022,1.452a.208.208,0,0,0,.22-.22V15.614a.208.208,0,0,0-.22-.22h-.418c-.726,0-1.056-.286-1.056-1.166V2.26a.208.208,0,0,0-.22-.22h-1.408a.208.208,0,0,0-.22.22V14.338c0,1.892.726,2.772,2.574,2.772Zm11.286.132c2.75,0,4.246-1.386,4.246-3.454,0-1.694-1.034-2.772-3.168-2.97l-1.1-.11c-1.562-.154-2.068-.594-2.068-1.43,0-.858.682-1.452,2-1.452a5.548,5.548,0,0,1,2.838.858.215.215,0,0,0,.308-.044l.748-.946a.212.212,0,0,0-.044-.308,6.3,6.3,0,0,0-3.74-1.166c-2.486,0-3.916,1.21-3.916,3.212,0,1.716,1.078,2.75,3.146,2.97l1.122.11c1.65.176,2.046.638,2.046,1.474,0,.946-.77,1.606-2.31,1.606a5.12,5.12,0,0,1-3.256-1.21.213.213,0,0,0-.308,0l-.9.968a.213.213,0,0,0,0,.308A6.548,6.548,0,0,0,184.162,17.242Zm7.59,3.718c1.584,0,2.4-.66,3.322-3.146l4.158-11.132c.044-.132-.044-.22-.176-.22h-1.5a.257.257,0,0,0-.264.22l-2.662,7.612h-.044l-2.772-7.612a.257.257,0,0,0-.264-.22h-1.54c-.154,0-.22.088-.176.22l3.872,10.01-.352.968c-.462,1.21-.924,1.584-1.782,1.584h-.4a.208.208,0,0,0-.22.22V20.74a.208.208,0,0,0,.22.22ZM204.8,17.242c2.75,0,4.246-1.386,4.246-3.454,0-1.694-1.034-2.772-3.168-2.97l-1.1-.11c-1.562-.154-2.068-.594-2.068-1.43,0-.858.682-1.452,2-1.452a5.548,5.548,0,0,1,2.838.858.215.215,0,0,0,.308-.044l.748-.946a.212.212,0,0,0-.044-.308,6.3,6.3,0,0,0-3.74-1.166c-2.486,0-3.916,1.21-3.916,3.212,0,1.716,1.078,2.75,3.146,2.97l1.122.11c1.65.176,2.046.638,2.046,1.474,0,.946-.77,1.606-2.31,1.606a5.12,5.12,0,0,1-3.256-1.21.213.213,0,0,0-.308,0l-.9.968a.213.213,0,0,0,0,.308A6.548,6.548,0,0,0,204.8,17.242Zm10.8-.132a.208.208,0,0,0,.22-.22V15.614a.208.208,0,0,0-.22-.22h-.462c-.946,0-1.342-.286-1.342-1.342V8.09a.117.117,0,0,1,.132-.132H215.6a.208.208,0,0,0,.22-.22V6.682a.208.208,0,0,0-.22-.22h-1.672a.117.117,0,0,1-.132-.132V3.36a.208.208,0,0,0-.22-.22h-1.408a.208.208,0,0,0-.22.22V6.33a.117.117,0,0,1-.132.132h-.88a.208.208,0,0,0-.22.22V7.738a.208.208,0,0,0,.22.22h.88a.117.117,0,0,1,.132.132v6.028c0,2.068.792,2.992,2.838,2.992Zm6.8.132a5.124,5.124,0,0,0,4.114-1.8.2.2,0,0,0-.022-.308l-.9-.814a.225.225,0,0,0-.33.044,3.442,3.442,0,0,1-2.706,1.166A2.6,2.6,0,0,1,219.89,13.7a3.949,3.949,0,0,1-.176-1.276.117.117,0,0,1,.132-.132h6.666a.215.215,0,0,0,.242-.22,9.194,9.194,0,0,0-.33-3.014,4.433,4.433,0,0,0-8.272,0,8.174,8.174,0,0,0-.33,2.662,8.261,8.261,0,0,0,.352,2.662A4.076,4.076,0,0,0,222.4,17.242Zm-2.552-6.424a.117.117,0,0,1-.132-.132,3.708,3.708,0,0,1,.154-1.188,2.6,2.6,0,0,1,4.84,0,3.708,3.708,0,0,1,.154,1.188.117.117,0,0,1-.132.132ZM244.376,17a.208.208,0,0,0,.22-.22v-6.6c0-2.4-1.32-3.96-3.762-3.96a3.923,3.923,0,0,0-3.41,1.65H237.4a3.725,3.725,0,0,0-6.028-.22h-.022V6.682a.208.208,0,0,0-.22-.22h-1.408a.208.208,0,0,0-.22.22v10.1a.208.208,0,0,0,.22.22h1.408a.208.208,0,0,0,.22-.22V10.51a2.365,2.365,0,0,1,2.42-2.574c1.584,0,2.354.99,2.354,2.684v6.16a.208.208,0,0,0,.22.22h1.408a.208.208,0,0,0,.22-.22V10.51a2.376,2.376,0,0,1,2.42-2.574c1.584,0,2.354.99,2.354,2.684v6.16a.208.208,0,0,0,.22.22Zm7.128.242c2.75,0,4.246-1.386,4.246-3.454,0-1.694-1.034-2.772-3.168-2.97l-1.1-.11c-1.562-.154-2.068-.594-2.068-1.43,0-.858.682-1.452,2-1.452a5.548,5.548,0,0,1,2.838.858.215.215,0,0,0,.308-.044l.748-.946a.212.212,0,0,0-.044-.308,6.3,6.3,0,0,0-3.74-1.166c-2.486,0-3.916,1.21-3.916,3.212,0,1.716,1.078,2.75,3.146,2.97l1.122.11c1.65.176,2.046.638,2.046,1.474,0,.946-.77,1.606-2.31,1.606a5.12,5.12,0,0,1-3.256-1.21.213.213,0,0,0-.308,0l-.9.968a.213.213,0,0,0,0,.308A6.548,6.548,0,0,0,251.5,17.242Z" transform="translate(1279 17426)" fill="#78787a"/><path d="M9.812,17a.208.208,0,0,0,.22-.22V2.26a.208.208,0,0,0-.22-.22H8.4a.208.208,0,0,0-.22.22V7.672H8.162A3.2,3.2,0,0,0,5.17,6.22,3.483,3.483,0,0,0,1.54,8.75a8.714,8.714,0,0,0-.374,2.97,8.773,8.773,0,0,0,.374,2.992,3.483,3.483,0,0,0,3.63,2.53,3.207,3.207,0,0,0,2.992-1.474h.022V16.78A.208.208,0,0,0,8.4,17Zm-4.2-1.474A2.254,2.254,0,0,1,3.3,13.92a7.31,7.31,0,0,1-.242-2.2A7.5,7.5,0,0,1,3.3,9.52,2.237,2.237,0,0,1,5.61,7.936,2.239,2.239,0,0,1,7.942,9.52a6.858,6.858,0,0,1,.242,2.2,6.771,6.771,0,0,1-.242,2.2A2.256,2.256,0,0,1,5.61,15.526Zm11.748,1.716a5.124,5.124,0,0,0,4.114-1.8.2.2,0,0,0-.022-.308l-.9-.814a.225.225,0,0,0-.33.044,3.442,3.442,0,0,1-2.706,1.166A2.6,2.6,0,0,1,14.85,13.7a3.949,3.949,0,0,1-.176-1.276.117.117,0,0,1,.132-.132h6.666a.215.215,0,0,0,.242-.22,9.194,9.194,0,0,0-.33-3.014A4.081,4.081,0,0,0,17.248,6.22a4.074,4.074,0,0,0-4.136,2.838,8.174,8.174,0,0,0-.33,2.662,8.261,8.261,0,0,0,.352,2.662A4.076,4.076,0,0,0,17.358,17.242Zm-2.552-6.424a.117.117,0,0,1-.132-.132A3.708,3.708,0,0,1,14.828,9.5a2.379,2.379,0,0,1,2.42-1.65,2.379,2.379,0,0,1,2.42,1.65,3.708,3.708,0,0,1,.154,1.188.117.117,0,0,1-.132.132Zm13.288,6.424c2.75,0,4.246-1.386,4.246-3.454,0-1.694-1.034-2.772-3.168-2.97l-1.1-.11C26.51,10.554,26,10.114,26,9.278c0-.858.682-1.452,2-1.452a5.548,5.548,0,0,1,2.838.858.215.215,0,0,0,.308-.044l.748-.946a.212.212,0,0,0-.044-.308,6.3,6.3,0,0,0-3.74-1.166C25.63,6.22,24.2,7.43,24.2,9.432c0,1.716,1.078,2.75,3.146,2.97l1.122.11c1.65.176,2.046.638,2.046,1.474,0,.946-.77,1.606-2.31,1.606a5.12,5.12,0,0,1-3.256-1.21.213.213,0,0,0-.308,0l-.9.968a.213.213,0,0,0,0,.308A6.548,6.548,0,0,0,28.094,17.242ZM36.7,4.086a.208.208,0,0,0,.22-.22V2.26a.208.208,0,0,0-.22-.22H35.2a.208.208,0,0,0-.22.22V3.866a.208.208,0,0,0,.22.22ZM36.652,17a.208.208,0,0,0,.22-.22V6.682a.208.208,0,0,0-.22-.22H35.244a.208.208,0,0,0-.22.22v10.1a.208.208,0,0,0,.22.22Zm7.04,4.2c2.97,0,4.6-1.672,4.6-4.664V6.682a.208.208,0,0,0-.22-.22H46.662a.208.208,0,0,0-.22.22v.99H46.42A3.025,3.025,0,0,0,43.494,6.22a3.455,3.455,0,0,0-3.542,2.552,8.248,8.248,0,0,0-.352,2.772,8.248,8.248,0,0,0,.352,2.772,3.455,3.455,0,0,0,3.542,2.552,3.025,3.025,0,0,0,2.926-1.452h.022v1.232c0,1.936-.924,2.838-2.662,2.838a3.516,3.516,0,0,1-2.486-1.056.206.206,0,0,0-.33,0l-.9.9a.2.2,0,0,0-.022.308A4.762,4.762,0,0,0,43.692,21.2Zm.264-6.028a2.151,2.151,0,0,1-2.222-1.584,6.505,6.505,0,0,1-.264-2.046A6.6,6.6,0,0,1,41.734,9.5a2.377,2.377,0,0,1,4.466,0,6.494,6.494,0,0,1,.242,2.046A6.406,6.406,0,0,1,46.2,13.59,2.179,2.179,0,0,1,43.956,15.174ZM59.928,17a.208.208,0,0,0,.22-.22v-6.6c0-2.4-1.364-3.96-3.652-3.96a3.331,3.331,0,0,0-2.948,1.43h-.022V6.682a.208.208,0,0,0-.22-.22H51.9a.208.208,0,0,0-.22.22v10.1a.208.208,0,0,0,.22.22h1.408a.208.208,0,0,0,.22-.22V10.51a2.365,2.365,0,0,1,2.42-2.574c1.584,0,2.354.99,2.354,2.684v6.16a.208.208,0,0,0,.22.22Zm12.43.242A4.1,4.1,0,0,0,76.516,14.4a7.913,7.913,0,0,0,.352-2.684,7.857,7.857,0,0,0-.352-2.662,4.465,4.465,0,0,0-8.316,0,7.857,7.857,0,0,0-.352,2.662A7.913,7.913,0,0,0,68.2,14.4,4.1,4.1,0,0,0,72.358,17.242Zm0-1.716a2.344,2.344,0,0,1-2.376-1.65,6.9,6.9,0,0,1-.242-2.156,6.748,6.748,0,0,1,.242-2.134,2.536,2.536,0,0,1,4.752,0,6.748,6.748,0,0,1,.242,2.134,6.9,6.9,0,0,1-.242,2.156A2.344,2.344,0,0,1,72.358,15.526ZM87.648,17a.208.208,0,0,0,.22-.22V6.682a.208.208,0,0,0-.22-.22H86.24a.208.208,0,0,0-.22.22V12.93a2.339,2.339,0,0,1-2.376,2.6c-1.562,0-2.332-.99-2.332-2.706V6.682a.208.208,0,0,0-.22-.22H79.684a.208.208,0,0,0-.22.22V13.26c0,2.4,1.342,3.982,3.652,3.982A3.214,3.214,0,0,0,86,15.79h.022v.99a.208.208,0,0,0,.22.22Zm7.48.11a.208.208,0,0,0,.22-.22V15.614a.208.208,0,0,0-.22-.22h-.462c-.946,0-1.342-.286-1.342-1.342V8.09a.117.117,0,0,1,.132-.132h1.672a.208.208,0,0,0,.22-.22V6.682a.208.208,0,0,0-.22-.22H93.456a.117.117,0,0,1-.132-.132V3.36a.208.208,0,0,0-.22-.22H91.7a.208.208,0,0,0-.22.22V6.33a.117.117,0,0,1-.132.132h-.88a.208.208,0,0,0-.22.22V7.738a.208.208,0,0,0,.22.22h.88a.117.117,0,0,1,.132.132v6.028c0,2.068.792,2.992,2.838,2.992ZM113.366,17c.154,0,.22-.088.264-.22l3.322-10.1a.151.151,0,0,0-.154-.22h-1.5a.249.249,0,0,0-.286.22l-2.266,7.612h-.044l-2.4-7.612a.279.279,0,0,0-.286-.22h-1.144a.257.257,0,0,0-.264.22l-2.376,7.612h-.044l-2.332-7.612c-.066-.176-.132-.22-.286-.22h-1.5a.151.151,0,0,0-.154.22l3.3,10.1a.279.279,0,0,0,.264.22h1.276a.279.279,0,0,0,.264-.22l2.4-7.546h.044l2.376,7.546a.279.279,0,0,0,.264.22Zm13.442,0a.208.208,0,0,0,.22-.22V9.806c0-2.6-1.144-3.586-4.136-3.586a5.845,5.845,0,0,0-3.586,1.034.233.233,0,0,0-.044.308l.594,1.012c.066.11.2.11.308.022a4.1,4.1,0,0,1,2.552-.748c1.958,0,2.53.616,2.53,2.068v.77a.117.117,0,0,1-.132.132h-2.4c-2.574,0-4.114,1.034-4.114,3.256,0,2.134,1.54,3.168,3.542,3.168a3.455,3.455,0,0,0,3.124-1.386h.022v.924a.208.208,0,0,0,.22.22Zm-4.224-1.342c-1.408,0-2.2-.572-2.2-1.65,0-1.188.792-1.716,2.618-1.716h2.112a.117.117,0,0,1,.132.132V13.59C125.246,14.888,124.234,15.658,122.584,15.658Zm11.374,1.584c2.75,0,4.246-1.386,4.246-3.454,0-1.694-1.034-2.772-3.168-2.97l-1.1-.11c-1.562-.154-2.068-.594-2.068-1.43,0-.858.682-1.452,2-1.452a5.548,5.548,0,0,1,2.838.858.215.215,0,0,0,.308-.044l.748-.946a.212.212,0,0,0-.044-.308,6.3,6.3,0,0,0-3.74-1.166c-2.486,0-3.916,1.21-3.916,3.212,0,1.716,1.078,2.75,3.146,2.97l1.122.11c1.65.176,2.046.638,2.046,1.474,0,.946-.77,1.606-2.31,1.606a5.12,5.12,0,0,1-3.256-1.21.213.213,0,0,0-.308,0l-.9.968a.213.213,0,0,0,0,.308A6.548,6.548,0,0,0,133.958,17.242Zm10.8-.132a.208.208,0,0,0,.22-.22V15.614a.208.208,0,0,0-.22-.22H144.3c-.946,0-1.342-.286-1.342-1.342V8.09a.117.117,0,0,1,.132-.132h1.672a.208.208,0,0,0,.22-.22V6.682a.208.208,0,0,0-.22-.22h-1.672a.117.117,0,0,1-.132-.132V3.36a.208.208,0,0,0-.22-.22h-1.408a.208.208,0,0,0-.22.22V6.33a.117.117,0,0,1-.132.132h-.88a.208.208,0,0,0-.22.22V7.738a.208.208,0,0,0,.22.22h.88a.117.117,0,0,1,.132.132v6.028c0,2.068.792,2.992,2.838,2.992Zm6.8.132a5.124,5.124,0,0,0,4.114-1.8.2.2,0,0,0-.022-.308l-.9-.814a.225.225,0,0,0-.33.044,3.442,3.442,0,0,1-2.706,1.166A2.6,2.6,0,0,1,149.05,13.7a3.949,3.949,0,0,1-.176-1.276.117.117,0,0,1,.132-.132h6.666a.215.215,0,0,0,.242-.22,9.194,9.194,0,0,0-.33-3.014,4.433,4.433,0,0,0-8.272,0,8.174,8.174,0,0,0-.33,2.662,8.261,8.261,0,0,0,.352,2.662A4.076,4.076,0,0,0,151.558,17.242Zm-2.552-6.424a.117.117,0,0,1-.132-.132,3.708,3.708,0,0,1,.154-1.188,2.6,2.6,0,0,1,4.84,0,3.708,3.708,0,0,1,.154,1.188.117.117,0,0,1-.132.132ZM171.4,17a.208.208,0,0,0,.22-.22V9.806c0-2.6-1.144-3.586-4.136-3.586A5.845,5.845,0,0,0,163.9,7.254a.233.233,0,0,0-.044.308l.594,1.012c.066.11.2.11.308.022a4.1,4.1,0,0,1,2.552-.748c1.958,0,2.53.616,2.53,2.068v.77a.117.117,0,0,1-.132.132h-2.4c-2.574,0-4.114,1.034-4.114,3.256,0,2.134,1.54,3.168,3.542,3.168a3.455,3.455,0,0,0,3.124-1.386h.022v.924a.208.208,0,0,0,.22.22Zm-4.224-1.342c-1.408,0-2.2-.572-2.2-1.65,0-1.188.792-1.716,2.618-1.716h2.112a.117.117,0,0,1,.132.132V13.59C169.84,14.888,168.828,15.658,167.178,15.658ZM183.172,17a.208.208,0,0,0,.22-.22v-6.6c0-2.4-1.364-3.96-3.652-3.96a3.331,3.331,0,0,0-2.948,1.43h-.022V6.682a.208.208,0,0,0-.22-.22h-1.408a.208.208,0,0,0-.22.22v10.1a.208.208,0,0,0,.22.22h1.408a.208.208,0,0,0,.22-.22V10.51a2.365,2.365,0,0,1,2.42-2.574c1.584,0,2.354.99,2.354,2.684v6.16a.208.208,0,0,0,.22.22Zm11.506,0a.208.208,0,0,0,.22-.22V2.26a.208.208,0,0,0-.22-.22H193.27a.208.208,0,0,0-.22.22V7.672h-.022a3.2,3.2,0,0,0-2.992-1.452,3.483,3.483,0,0,0-3.63,2.53,8.714,8.714,0,0,0-.374,2.97,8.773,8.773,0,0,0,.374,2.992,3.483,3.483,0,0,0,3.63,2.53,3.207,3.207,0,0,0,2.992-1.474h.022V16.78a.208.208,0,0,0,.22.22Zm-4.2-1.474a2.254,2.254,0,0,1-2.31-1.606,7.309,7.309,0,0,1-.242-2.2,7.5,7.5,0,0,1,.242-2.2,2.492,2.492,0,0,1,4.642,0,6.858,6.858,0,0,1,.242,2.2,6.771,6.771,0,0,1-.242,2.2A2.256,2.256,0,0,1,190.476,15.526Zm14.5,5.434a.208.208,0,0,0,.22-.22V15.768h.022a3.207,3.207,0,0,0,2.992,1.474,3.483,3.483,0,0,0,3.63-2.53,8.773,8.773,0,0,0,.374-2.992,8.714,8.714,0,0,0-.374-2.97,3.483,3.483,0,0,0-3.63-2.53,3.2,3.2,0,0,0-2.992,1.452h-.022v-.99a.208.208,0,0,0-.22-.22h-1.408a.208.208,0,0,0-.22.22V20.74a.208.208,0,0,0,.22.22Zm2.794-5.434a2.256,2.256,0,0,1-2.332-1.606,6.771,6.771,0,0,1-.242-2.2,6.858,6.858,0,0,1,.242-2.2,2.492,2.492,0,0,1,4.642,0,7.5,7.5,0,0,1,.242,2.2,7.309,7.309,0,0,1-.242,2.2A2.254,2.254,0,0,1,207.768,15.526Zm11.066,1.716a4.1,4.1,0,0,0,4.158-2.838,7.913,7.913,0,0,0,.352-2.684,7.857,7.857,0,0,0-.352-2.662,4.465,4.465,0,0,0-8.316,0,7.857,7.857,0,0,0-.352,2.662,7.913,7.913,0,0,0,.352,2.684A4.1,4.1,0,0,0,218.834,17.242Zm0-1.716a2.344,2.344,0,0,1-2.376-1.65,6.9,6.9,0,0,1-.242-2.156,6.748,6.748,0,0,1,.242-2.134,2.536,2.536,0,0,1,4.752,0,6.748,6.748,0,0,1,.242,2.134,6.9,6.9,0,0,1-.242,2.156A2.344,2.344,0,0,1,218.834,15.526Zm10.538,1.584a.208.208,0,0,0,.22-.22V15.614a.208.208,0,0,0-.22-.22h-.418c-.726,0-1.056-.286-1.056-1.166V2.26a.208.208,0,0,0-.22-.22H226.27a.208.208,0,0,0-.22.22V14.338c0,1.892.726,2.772,2.574,2.772Zm5.83,0a.208.208,0,0,0,.22-.22V15.614a.208.208,0,0,0-.22-.22h-.418c-.726,0-1.056-.286-1.056-1.166V2.26a.208.208,0,0,0-.22-.22H232.1a.208.208,0,0,0-.22.22V14.338c0,1.892.726,2.772,2.574,2.772ZM245.828,17a.208.208,0,0,0,.22-.22V6.682a.208.208,0,0,0-.22-.22H244.42a.208.208,0,0,0-.22.22V12.93a2.339,2.339,0,0,1-2.376,2.6c-1.562,0-2.332-.99-2.332-2.706V6.682a.208.208,0,0,0-.22-.22h-1.408a.208.208,0,0,0-.22.22V13.26c0,2.4,1.342,3.982,3.652,3.982a3.214,3.214,0,0,0,2.882-1.452h.022v.99a.208.208,0,0,0,.22.22Zm7.48.11a.208.208,0,0,0,.22-.22V15.614a.208.208,0,0,0-.22-.22h-.462c-.946,0-1.342-.286-1.342-1.342V8.09a.117.117,0,0,1,.132-.132h1.672a.208.208,0,0,0,.22-.22V6.682a.208.208,0,0,0-.22-.22h-1.672a.117.117,0,0,1-.132-.132V3.36a.208.208,0,0,0-.22-.22h-1.408a.208.208,0,0,0-.22.22V6.33a.117.117,0,0,1-.132.132h-.88a.208.208,0,0,0-.22.22V7.738a.208.208,0,0,0,.22.22h.88a.117.117,0,0,1,.132.132v6.028c0,2.068.792,2.992,2.838,2.992ZM257.84,4.086a.208.208,0,0,0,.22-.22V2.26a.208.208,0,0,0-.22-.22h-1.5a.208.208,0,0,0-.22.22V3.866a.208.208,0,0,0,.22.22ZM257.8,17a.208.208,0,0,0,.22-.22V6.682a.208.208,0,0,0-.22-.22h-1.408a.208.208,0,0,0-.22.22v10.1a.208.208,0,0,0,.22.22Zm7.48.242a4.1,4.1,0,0,0,4.158-2.838,7.913,7.913,0,0,0,.352-2.684,7.858,7.858,0,0,0-.352-2.662,4.465,4.465,0,0,0-8.316,0,7.857,7.857,0,0,0-.352,2.662,7.913,7.913,0,0,0,.352,2.684A4.1,4.1,0,0,0,265.276,17.242Zm0-1.716a2.344,2.344,0,0,1-2.376-1.65,6.9,6.9,0,0,1-.242-2.156,6.749,6.749,0,0,1,.242-2.134,2.536,2.536,0,0,1,4.752,0,6.748,6.748,0,0,1,.242,2.134,6.9,6.9,0,0,1-.242,2.156A2.344,2.344,0,0,1,265.276,15.526ZM280.786,17a.208.208,0,0,0,.22-.22v-6.6c0-2.4-1.364-3.96-3.652-3.96a3.331,3.331,0,0,0-2.948,1.43h-.022V6.682a.208.208,0,0,0-.22-.22h-1.408a.208.208,0,0,0-.22.22v10.1a.208.208,0,0,0,.22.22h1.408a.208.208,0,0,0,.22-.22V10.51a2.365,2.365,0,0,1,2.42-2.574c1.584,0,2.354.99,2.354,2.684v6.16a.208.208,0,0,0,.22.22Z" transform="translate(1268 17192)" fill="#78787a"/><path d="M25.108,17a.142.142,0,0,0,.132-.22l-3.894-6.336L24.58,6.682c.088-.11.044-.22-.088-.22H22.864a.468.468,0,0,0-.4.2L18.31,11.566V2.26a.208.208,0,0,0-.22-.22H16.682a.208.208,0,0,0-.22.22V16.78a.208.208,0,0,0,.22.22H18.09a.208.208,0,0,0,.22-.22V14.008l1.826-2.134,2.992,4.906a.377.377,0,0,0,.352.22Zm6.05.242a5.124,5.124,0,0,0,4.114-1.8.2.2,0,0,0-.022-.308l-.9-.814a.225.225,0,0,0-.33.044,3.442,3.442,0,0,1-2.706,1.166A2.6,2.6,0,0,1,28.65,13.7a3.949,3.949,0,0,1-.176-1.276.117.117,0,0,1,.132-.132h6.666a.215.215,0,0,0,.242-.22,9.194,9.194,0,0,0-.33-3.014A4.081,4.081,0,0,0,31.048,6.22a4.074,4.074,0,0,0-4.136,2.838,8.174,8.174,0,0,0-.33,2.662,8.261,8.261,0,0,0,.352,2.662A4.076,4.076,0,0,0,31.158,17.242Zm-2.552-6.424a.117.117,0,0,1-.132-.132A3.708,3.708,0,0,1,28.628,9.5a2.6,2.6,0,0,1,4.84,0,3.708,3.708,0,0,1,.154,1.188.117.117,0,0,1-.132.132Zm13.6,6.424a5.124,5.124,0,0,0,4.114-1.8.2.2,0,0,0-.022-.308l-.9-.814a.225.225,0,0,0-.33.044,3.442,3.442,0,0,1-2.706,1.166A2.6,2.6,0,0,1,39.694,13.7a3.949,3.949,0,0,1-.176-1.276.117.117,0,0,1,.132-.132h6.666a.215.215,0,0,0,.242-.22,9.194,9.194,0,0,0-.33-3.014A4.081,4.081,0,0,0,42.092,6.22a4.074,4.074,0,0,0-4.136,2.838,8.174,8.174,0,0,0-.33,2.662,8.261,8.261,0,0,0,.352,2.662A4.076,4.076,0,0,0,42.2,17.242ZM39.65,10.818a.117.117,0,0,1-.132-.132A3.708,3.708,0,0,1,39.672,9.5a2.6,2.6,0,0,1,4.84,0,3.708,3.708,0,0,1,.154,1.188.117.117,0,0,1-.132.132ZM50.936,20.96a.208.208,0,0,0,.22-.22V15.768h.022a3.207,3.207,0,0,0,2.992,1.474,3.483,3.483,0,0,0,3.63-2.53,8.773,8.773,0,0,0,.374-2.992A8.714,8.714,0,0,0,57.8,8.75a3.483,3.483,0,0,0-3.63-2.53,3.2,3.2,0,0,0-2.992,1.452h-.022v-.99a.208.208,0,0,0-.22-.22H49.528a.208.208,0,0,0-.22.22V20.74a.208.208,0,0,0,.22.22Zm2.794-5.434A2.256,2.256,0,0,1,51.4,13.92a6.771,6.771,0,0,1-.242-2.2,6.858,6.858,0,0,1,.242-2.2,2.492,2.492,0,0,1,4.642,0,7.5,7.5,0,0,1,.242,2.2,7.31,7.31,0,0,1-.242,2.2A2.254,2.254,0,0,1,53.73,15.526ZM67.612,20.96a.208.208,0,0,0,.22-.22V15.768h.022a3.207,3.207,0,0,0,2.992,1.474,3.483,3.483,0,0,0,3.63-2.53,8.773,8.773,0,0,0,.374-2.992,8.714,8.714,0,0,0-.374-2.97,3.483,3.483,0,0,0-3.63-2.53,3.2,3.2,0,0,0-2.992,1.452h-.022v-.99a.208.208,0,0,0-.22-.22H66.2a.208.208,0,0,0-.22.22V20.74a.208.208,0,0,0,.22.22Zm2.794-5.434a2.256,2.256,0,0,1-2.332-1.606,6.771,6.771,0,0,1-.242-2.2,6.858,6.858,0,0,1,.242-2.2,2.492,2.492,0,0,1,4.642,0,7.5,7.5,0,0,1,.242,2.2,7.31,7.31,0,0,1-.242,2.2A2.254,2.254,0,0,1,70.406,15.526ZM79.228,17a.208.208,0,0,0,.22-.22V11.016c0-1.826.66-3.08,2.266-3.08a2.969,2.969,0,0,1,1.628.506A.2.2,0,0,0,83.65,8.4l.814-1.078c.088-.11.066-.2-.044-.308a3.238,3.238,0,0,0-2.156-.792A2.936,2.936,0,0,0,79.47,7.76h-.022V6.682a.208.208,0,0,0-.22-.22H77.82a.208.208,0,0,0-.22.22v10.1a.208.208,0,0,0,.22.22Zm10.648.242A4.1,4.1,0,0,0,94.034,14.4a7.913,7.913,0,0,0,.352-2.684,7.857,7.857,0,0,0-.352-2.662,4.465,4.465,0,0,0-8.316,0,7.857,7.857,0,0,0-.352,2.662,7.913,7.913,0,0,0,.352,2.684A4.1,4.1,0,0,0,89.876,17.242Zm0-1.716a2.344,2.344,0,0,1-2.376-1.65,6.9,6.9,0,0,1-.242-2.156A6.748,6.748,0,0,1,87.5,9.586a2.536,2.536,0,0,1,4.752,0,6.748,6.748,0,0,1,.242,2.134,6.9,6.9,0,0,1-.242,2.156A2.344,2.344,0,0,1,89.876,15.526ZM105.144,17a.208.208,0,0,0,.22-.22V2.26a.208.208,0,0,0-.22-.22h-1.408a.208.208,0,0,0-.22.22V7.672h-.022A3.2,3.2,0,0,0,100.5,6.22a3.483,3.483,0,0,0-3.63,2.53,8.714,8.714,0,0,0-.374,2.97,8.773,8.773,0,0,0,.374,2.992,3.483,3.483,0,0,0,3.63,2.53,3.207,3.207,0,0,0,2.992-1.474h.022V16.78a.208.208,0,0,0,.22.22Zm-4.2-1.474a2.254,2.254,0,0,1-2.31-1.606,7.31,7.31,0,0,1-.242-2.2,7.5,7.5,0,0,1,.242-2.2,2.492,2.492,0,0,1,4.642,0,6.858,6.858,0,0,1,.242,2.2,6.771,6.771,0,0,1-.242,2.2A2.256,2.256,0,0,1,100.942,15.526ZM116.782,17a.208.208,0,0,0,.22-.22V6.682a.208.208,0,0,0-.22-.22h-1.408a.208.208,0,0,0-.22.22V12.93a2.339,2.339,0,0,1-2.376,2.6c-1.562,0-2.332-.99-2.332-2.706V6.682a.208.208,0,0,0-.22-.22h-1.408a.208.208,0,0,0-.22.22V13.26c0,2.4,1.342,3.982,3.652,3.982a3.214,3.214,0,0,0,2.882-1.452h.022v.99a.208.208,0,0,0,.22.22Zm2.97-5.28a9.1,9.1,0,0,0,.33,2.684,4.083,4.083,0,0,0,4.158,2.838,4.225,4.225,0,0,0,3.608-1.782c.066-.11.066-.2-.066-.308l-.968-.792a.2.2,0,0,0-.308.022,2.591,2.591,0,0,1-2.266,1.144,2.286,2.286,0,0,1-2.354-1.65,7.085,7.085,0,0,1-.242-2.156,7.02,7.02,0,0,1,.242-2.134,2.286,2.286,0,0,1,2.354-1.65,2.591,2.591,0,0,1,2.266,1.144.2.2,0,0,0,.308.022l.968-.792c.132-.11.132-.2.066-.308A4.225,4.225,0,0,0,124.24,6.22a4.083,4.083,0,0,0-4.158,2.838A9.045,9.045,0,0,0,119.752,11.72Zm14.674,5.39a.208.208,0,0,0,.22-.22V15.614a.208.208,0,0,0-.22-.22h-.462c-.946,0-1.342-.286-1.342-1.342V8.09a.117.117,0,0,1,.132-.132h1.672a.208.208,0,0,0,.22-.22V6.682a.208.208,0,0,0-.22-.22h-1.672a.117.117,0,0,1-.132-.132V3.36a.208.208,0,0,0-.22-.22h-1.408a.208.208,0,0,0-.22.22V6.33a.117.117,0,0,1-.132.132h-.88a.208.208,0,0,0-.22.22V7.738a.208.208,0,0,0,.22.22h.88a.117.117,0,0,1,.132.132v6.028c0,2.068.792,2.992,2.838,2.992Zm6.49.132c2.75,0,4.246-1.386,4.246-3.454,0-1.694-1.034-2.772-3.168-2.97l-1.1-.11c-1.562-.154-2.068-.594-2.068-1.43,0-.858.682-1.452,2-1.452a5.548,5.548,0,0,1,2.838.858.215.215,0,0,0,.308-.044l.748-.946a.212.212,0,0,0-.044-.308,6.3,6.3,0,0,0-3.74-1.166c-2.486,0-3.916,1.21-3.916,3.212,0,1.716,1.078,2.75,3.146,2.97l1.122.11c1.65.176,2.046.638,2.046,1.474,0,.946-.77,1.606-2.31,1.606a5.12,5.12,0,0,1-3.256-1.21.213.213,0,0,0-.308,0l-.9.968a.213.213,0,0,0,0,.308A6.548,6.548,0,0,0,140.916,17.242ZM160.584,17a.208.208,0,0,0,.22-.22V9.806c0-2.6-1.144-3.586-4.136-3.586a5.845,5.845,0,0,0-3.586,1.034.233.233,0,0,0-.044.308l.594,1.012c.066.11.2.11.308.022a4.1,4.1,0,0,1,2.552-.748c1.958,0,2.53.616,2.53,2.068v.77a.117.117,0,0,1-.132.132h-2.4c-2.574,0-4.114,1.034-4.114,3.256,0,2.134,1.54,3.168,3.542,3.168a3.455,3.455,0,0,0,3.124-1.386h.022v.924a.208.208,0,0,0,.22.22Zm-4.224-1.342c-1.408,0-2.2-.572-2.2-1.65,0-1.188.792-1.716,2.618-1.716h2.112a.117.117,0,0,1,.132.132V13.59C159.022,14.888,158.01,15.658,156.36,15.658ZM172.354,17a.208.208,0,0,0,.22-.22v-6.6c0-2.4-1.364-3.96-3.652-3.96a3.331,3.331,0,0,0-2.948,1.43h-.022V6.682a.208.208,0,0,0-.22-.22h-1.408a.208.208,0,0,0-.22.22v10.1a.208.208,0,0,0,.22.22h1.408a.208.208,0,0,0,.22-.22V10.51a2.365,2.365,0,0,1,2.42-2.574c1.584,0,2.354.99,2.354,2.684v6.16a.208.208,0,0,0,.22.22Zm11.506,0a.208.208,0,0,0,.22-.22V2.26a.208.208,0,0,0-.22-.22h-1.408a.208.208,0,0,0-.22.22V7.672h-.022a3.2,3.2,0,0,0-2.992-1.452,3.483,3.483,0,0,0-3.63,2.53,8.714,8.714,0,0,0-.374,2.97,8.773,8.773,0,0,0,.374,2.992,3.483,3.483,0,0,0,3.63,2.53,3.207,3.207,0,0,0,2.992-1.474h.022V16.78a.208.208,0,0,0,.22.22Zm-4.2-1.474a2.254,2.254,0,0,1-2.31-1.606,7.309,7.309,0,0,1-.242-2.2,7.5,7.5,0,0,1,.242-2.2,2.492,2.492,0,0,1,4.642,0,6.858,6.858,0,0,1,.242,2.2,6.771,6.771,0,0,1-.242,2.2A2.256,2.256,0,0,1,179.658,15.526ZM207.4,17a.208.208,0,0,0,.22-.22v-6.6c0-2.4-1.32-3.96-3.762-3.96a3.923,3.923,0,0,0-3.41,1.65h-.022a3.725,3.725,0,0,0-6.028-.22h-.022V6.682a.208.208,0,0,0-.22-.22h-1.408a.208.208,0,0,0-.22.22v10.1a.208.208,0,0,0,.22.22h1.408a.208.208,0,0,0,.22-.22V10.51a2.365,2.365,0,0,1,2.42-2.574c1.584,0,2.354.99,2.354,2.684v6.16a.208.208,0,0,0,.22.22h1.408a.208.208,0,0,0,.22-.22V10.51a2.376,2.376,0,0,1,2.42-2.574c1.584,0,2.354.99,2.354,2.684v6.16a.208.208,0,0,0,.22.22Zm11.176,0a.208.208,0,0,0,.22-.22V9.806c0-2.6-1.144-3.586-4.136-3.586a5.845,5.845,0,0,0-3.586,1.034.233.233,0,0,0-.044.308l.594,1.012c.066.11.2.11.308.022a4.1,4.1,0,0,1,2.552-.748c1.958,0,2.53.616,2.53,2.068v.77a.117.117,0,0,1-.132.132h-2.4c-2.574,0-4.114,1.034-4.114,3.256,0,2.134,1.54,3.168,3.542,3.168a3.455,3.455,0,0,0,3.124-1.386h.022v.924a.208.208,0,0,0,.22.22Zm-4.224-1.342c-1.408,0-2.2-.572-2.2-1.65,0-1.188.792-1.716,2.618-1.716h2.112a.117.117,0,0,1,.132.132V13.59C217.014,14.888,216,15.658,214.352,15.658Zm11.616,1.452a.208.208,0,0,0,.22-.22V15.614a.208.208,0,0,0-.22-.22h-.462c-.946,0-1.342-.286-1.342-1.342V8.09a.117.117,0,0,1,.132-.132h1.672a.208.208,0,0,0,.22-.22V6.682a.208.208,0,0,0-.22-.22H224.3a.117.117,0,0,1-.132-.132V3.36a.208.208,0,0,0-.22-.22h-1.408a.208.208,0,0,0-.22.22V6.33a.117.117,0,0,1-.132.132h-.88a.208.208,0,0,0-.22.22V7.738a.208.208,0,0,0,.22.22h.88a.117.117,0,0,1,.132.132v6.028c0,2.068.792,2.992,2.838,2.992Zm6.8.132a5.124,5.124,0,0,0,4.114-1.8.2.2,0,0,0-.022-.308l-.9-.814a.225.225,0,0,0-.33.044,3.442,3.442,0,0,1-2.706,1.166,2.6,2.6,0,0,1-2.662-1.826,3.949,3.949,0,0,1-.176-1.276.117.117,0,0,1,.132-.132h6.666a.215.215,0,0,0,.242-.22,9.194,9.194,0,0,0-.33-3.014,4.433,4.433,0,0,0-8.272,0,8.174,8.174,0,0,0-.33,2.662,8.261,8.261,0,0,0,.352,2.662A4.076,4.076,0,0,0,232.766,17.242Zm-2.552-6.424a.117.117,0,0,1-.132-.132,3.708,3.708,0,0,1,.154-1.188,2.6,2.6,0,0,1,4.84,0,3.708,3.708,0,0,1,.154,1.188.117.117,0,0,1-.132.132ZM241.5,17a.208.208,0,0,0,.22-.22V11.016c0-1.826.66-3.08,2.266-3.08a2.969,2.969,0,0,1,1.628.506.2.2,0,0,0,.308-.044l.814-1.078c.088-.11.066-.2-.044-.308a3.238,3.238,0,0,0-2.156-.792,2.936,2.936,0,0,0-2.794,1.54h-.022V6.682a.208.208,0,0,0-.22-.22h-1.408a.208.208,0,0,0-.22.22v10.1a.208.208,0,0,0,.22.22Zm8.844-12.914a.208.208,0,0,0,.22-.22V2.26a.208.208,0,0,0-.22-.22h-1.5a.208.208,0,0,0-.22.22V3.866a.208.208,0,0,0,.22.22ZM250.3,17a.208.208,0,0,0,.22-.22V6.682a.208.208,0,0,0-.22-.22h-1.408a.208.208,0,0,0-.22.22v10.1a.208.208,0,0,0,.22.22Zm11.286,0a.208.208,0,0,0,.22-.22V9.806c0-2.6-1.144-3.586-4.136-3.586a5.845,5.845,0,0,0-3.586,1.034.233.233,0,0,0-.044.308l.594,1.012c.066.11.2.11.308.022a4.1,4.1,0,0,1,2.552-.748c1.958,0,2.53.616,2.53,2.068v.77a.117.117,0,0,1-.132.132h-2.4c-2.574,0-4.114,1.034-4.114,3.256,0,2.134,1.54,3.168,3.542,3.168a3.455,3.455,0,0,0,3.124-1.386h.022v.924a.208.208,0,0,0,.22.22Zm-4.224-1.342c-1.408,0-2.2-.572-2.2-1.65,0-1.188.792-1.716,2.618-1.716h2.112a.117.117,0,0,1,.132.132V13.59C260.024,14.888,259.012,15.658,257.362,15.658Zm11.022,1.452a.208.208,0,0,0,.22-.22V15.614a.208.208,0,0,0-.22-.22h-.418c-.726,0-1.056-.286-1.056-1.166V2.26a.208.208,0,0,0-.22-.22h-1.408a.208.208,0,0,0-.22.22V14.338c0,1.892.726,2.772,2.574,2.772Zm6.226.132c2.75,0,4.246-1.386,4.246-3.454,0-1.694-1.034-2.772-3.168-2.97l-1.1-.11c-1.562-.154-2.068-.594-2.068-1.43,0-.858.682-1.452,2-1.452a5.548,5.548,0,0,1,2.838.858.215.215,0,0,0,.308-.044l.748-.946a.212.212,0,0,0-.044-.308,6.3,6.3,0,0,0-3.74-1.166c-2.486,0-3.916,1.21-3.916,3.212,0,1.716,1.078,2.75,3.146,2.97l1.122.11c1.65.176,2.046.638,2.046,1.474,0,.946-.77,1.606-2.31,1.606a5.12,5.12,0,0,1-3.256-1.21.213.213,0,0,0-.308,0l-.9.968a.213.213,0,0,0,0,.308A6.548,6.548,0,0,0,274.61,17.242ZM288.272,4.086a.208.208,0,0,0,.22-.22V2.26a.208.208,0,0,0-.22-.22h-1.5a.208.208,0,0,0-.22.22V3.866a.208.208,0,0,0,.22.22ZM288.228,17a.208.208,0,0,0,.22-.22V6.682a.208.208,0,0,0-.22-.22H286.82a.208.208,0,0,0-.22.22v10.1a.208.208,0,0,0,.22.22Zm11.858,0a.208.208,0,0,0,.22-.22v-6.6c0-2.4-1.364-3.96-3.652-3.96a3.331,3.331,0,0,0-2.948,1.43h-.022V6.682a.208.208,0,0,0-.22-.22h-1.408a.208.208,0,0,0-.22.22v10.1a.208.208,0,0,0,.22.22h1.408a.208.208,0,0,0,.22-.22V10.51a2.365,2.365,0,0,1,2.42-2.574c1.584,0,2.354.99,2.354,2.684v6.16a.208.208,0,0,0,.22.22ZM38.616,41a.208.208,0,0,0,.22-.22v-10.1a.208.208,0,0,0-.22-.22H37.208a.208.208,0,0,0-.22.22V36.93a2.339,2.339,0,0,1-2.376,2.6c-1.562,0-2.332-.99-2.332-2.706V30.682a.208.208,0,0,0-.22-.22H30.652a.208.208,0,0,0-.22.22V37.26c0,2.4,1.342,3.982,3.652,3.982a3.214,3.214,0,0,0,2.882-1.452h.022v.99a.208.208,0,0,0,.22.22Zm7.238.242c2.75,0,4.246-1.386,4.246-3.454,0-1.694-1.034-2.772-3.168-2.97l-1.1-.11c-1.562-.154-2.068-.594-2.068-1.43,0-.858.682-1.452,2-1.452a5.548,5.548,0,0,1,2.838.858.215.215,0,0,0,.308-.044l.748-.946a.212.212,0,0,0-.044-.308,6.3,6.3,0,0,0-3.74-1.166c-2.486,0-3.916,1.21-3.916,3.212,0,1.716,1.078,2.75,3.146,2.97l1.122.11c1.65.176,2.046.638,2.046,1.474,0,.946-.77,1.606-2.31,1.606a5.12,5.12,0,0,1-3.256-1.21.213.213,0,0,0-.308,0l-.9.968a.213.213,0,0,0,0,.308A6.548,6.548,0,0,0,45.854,41.242Zm10.868,0a5.124,5.124,0,0,0,4.114-1.8.2.2,0,0,0-.022-.308l-.9-.814a.225.225,0,0,0-.33.044,3.442,3.442,0,0,1-2.706,1.166A2.6,2.6,0,0,1,54.214,37.7a3.949,3.949,0,0,1-.176-1.276.117.117,0,0,1,.132-.132h6.666a.215.215,0,0,0,.242-.22,9.194,9.194,0,0,0-.33-3.014,4.433,4.433,0,0,0-8.272,0,8.174,8.174,0,0,0-.33,2.662,8.261,8.261,0,0,0,.352,2.662A4.076,4.076,0,0,0,56.722,41.242ZM54.17,34.818a.117.117,0,0,1-.132-.132,3.708,3.708,0,0,1,.154-1.188,2.6,2.6,0,0,1,4.84,0,3.708,3.708,0,0,1,.154,1.188.117.117,0,0,1-.132.132ZM76.566,41a.208.208,0,0,0,.22-.22V33.806c0-2.6-1.144-3.586-4.136-3.586a5.845,5.845,0,0,0-3.586,1.034.233.233,0,0,0-.044.308l.594,1.012c.066.11.2.11.308.022a4.1,4.1,0,0,1,2.552-.748c1.958,0,2.53.616,2.53,2.068v.77a.117.117,0,0,1-.132.132h-2.4c-2.574,0-4.114,1.034-4.114,3.256,0,2.134,1.54,3.168,3.542,3.168a3.455,3.455,0,0,0,3.124-1.386h.022v.924a.208.208,0,0,0,.22.22Zm-4.224-1.342c-1.408,0-2.2-.572-2.2-1.65,0-1.188.792-1.716,2.618-1.716h2.112a.117.117,0,0,1,.132.132V37.59C75,38.888,73.992,39.658,72.342,39.658ZM88.336,41a.208.208,0,0,0,.22-.22v-6.6c0-2.4-1.364-3.96-3.652-3.96a3.331,3.331,0,0,0-2.948,1.43h-.022v-.968a.208.208,0,0,0-.22-.22H80.306a.208.208,0,0,0-.22.22v10.1a.208.208,0,0,0,.22.22h1.408a.208.208,0,0,0,.22-.22V34.51a2.365,2.365,0,0,1,2.42-2.574c1.584,0,2.354.99,2.354,2.684v6.16a.208.208,0,0,0,.22.22Zm11.506,0a.208.208,0,0,0,.22-.22V26.26a.208.208,0,0,0-.22-.22H98.434a.208.208,0,0,0-.22.22v5.412h-.022A3.2,3.2,0,0,0,95.2,30.22a3.483,3.483,0,0,0-3.63,2.53,8.714,8.714,0,0,0-.374,2.97,8.773,8.773,0,0,0,.374,2.992,3.483,3.483,0,0,0,3.63,2.53,3.207,3.207,0,0,0,2.992-1.474h.022V40.78a.208.208,0,0,0,.22.22Zm-4.2-1.474a2.254,2.254,0,0,1-2.31-1.606,7.31,7.31,0,0,1-.242-2.2,7.5,7.5,0,0,1,.242-2.2,2.492,2.492,0,0,1,4.642,0,6.858,6.858,0,0,1,.242,2.2,6.771,6.771,0,0,1-.242,2.2A2.256,2.256,0,0,1,95.64,39.526ZM116.188,41a.208.208,0,0,0,.22-.22V33.806c0-2.6-1.144-3.586-4.136-3.586a5.845,5.845,0,0,0-3.586,1.034.233.233,0,0,0-.044.308l.594,1.012c.066.11.2.11.308.022a4.1,4.1,0,0,1,2.552-.748c1.958,0,2.53.616,2.53,2.068v.77a.117.117,0,0,1-.132.132h-2.4c-2.574,0-4.114,1.034-4.114,3.256,0,2.134,1.54,3.168,3.542,3.168a3.455,3.455,0,0,0,3.124-1.386h.022v.924a.208.208,0,0,0,.22.22Zm-4.224-1.342c-1.408,0-2.2-.572-2.2-1.65,0-1.188.792-1.716,2.618-1.716h2.112a.117.117,0,0,1,.132.132V37.59C114.626,38.888,113.614,39.658,111.964,39.658ZM123.58,41.11a.208.208,0,0,0,.22-.22V39.614a.208.208,0,0,0-.22-.22h-.462c-.946,0-1.342-.286-1.342-1.342V32.09a.117.117,0,0,1,.132-.132h1.672a.208.208,0,0,0,.22-.22V30.682a.208.208,0,0,0-.22-.22h-1.672a.117.117,0,0,1-.132-.132V27.36a.208.208,0,0,0-.22-.22h-1.408a.208.208,0,0,0-.22.22v2.97a.117.117,0,0,1-.132.132h-.88a.208.208,0,0,0-.22.22v1.056a.208.208,0,0,0,.22.22h.88a.117.117,0,0,1,.132.132v6.028c0,2.068.792,2.992,2.838,2.992Zm11.792,0a.208.208,0,0,0,.22-.22V39.614a.208.208,0,0,0-.22-.22h-.462c-.946,0-1.342-.286-1.342-1.342V32.09a.117.117,0,0,1,.132-.132h1.672a.208.208,0,0,0,.22-.22V30.682a.208.208,0,0,0-.22-.22H133.7a.117.117,0,0,1-.132-.132V27.36a.208.208,0,0,0-.22-.22H131.94a.208.208,0,0,0-.22.22v2.97a.117.117,0,0,1-.132.132h-.88a.208.208,0,0,0-.22.22v1.056a.208.208,0,0,0,.22.22h.88a.117.117,0,0,1,.132.132v6.028c0,2.068.792,2.992,2.838,2.992Zm11.11-.11a.208.208,0,0,0,.22-.22v-6.6c0-2.4-1.364-3.96-3.652-3.96a3.331,3.331,0,0,0-2.948,1.43h-.022V26.26a.208.208,0,0,0-.22-.22h-1.408a.208.208,0,0,0-.22.22V40.78a.208.208,0,0,0,.22.22h1.408a.208.208,0,0,0,.22-.22V34.51a2.365,2.365,0,0,1,2.42-2.574c1.584,0,2.354.99,2.354,2.684v6.16a.208.208,0,0,0,.22.22Zm7.436.242a5.124,5.124,0,0,0,4.114-1.8.2.2,0,0,0-.022-.308l-.9-.814a.225.225,0,0,0-.33.044,3.442,3.442,0,0,1-2.706,1.166A2.6,2.6,0,0,1,151.41,37.7a3.949,3.949,0,0,1-.176-1.276.117.117,0,0,1,.132-.132h6.666a.215.215,0,0,0,.242-.22,9.194,9.194,0,0,0-.33-3.014,4.433,4.433,0,0,0-8.272,0,8.174,8.174,0,0,0-.33,2.662,8.261,8.261,0,0,0,.352,2.662A4.076,4.076,0,0,0,153.918,41.242Zm-2.552-6.424a.117.117,0,0,1-.132-.132,3.708,3.708,0,0,1,.154-1.188,2.6,2.6,0,0,1,4.84,0,3.708,3.708,0,0,1,.154,1.188.117.117,0,0,1-.132.132Zm11.33-6.732a.208.208,0,0,0,.22-.22V26.26a.208.208,0,0,0-.22-.22h-1.5a.208.208,0,0,0-.22.22v1.606a.208.208,0,0,0,.22.22ZM162.652,41a.208.208,0,0,0,.22-.22v-10.1a.208.208,0,0,0-.22-.22h-1.408a.208.208,0,0,0-.22.22v10.1a.208.208,0,0,0,.22.22Zm5.236,0a.208.208,0,0,0,.22-.22V35.016c0-1.826.66-3.08,2.266-3.08a2.969,2.969,0,0,1,1.628.506.2.2,0,0,0,.308-.044l.814-1.078c.088-.11.066-.2-.044-.308a3.238,3.238,0,0,0-2.156-.792,2.936,2.936,0,0,0-2.794,1.54h-.022V30.682a.208.208,0,0,0-.22-.22H166.48a.208.208,0,0,0-.22.22v10.1a.208.208,0,0,0,.22.22Zm20.482,0a.208.208,0,0,0,.22-.22v-6.6c0-2.4-1.364-3.96-3.652-3.96a3.331,3.331,0,0,0-2.948,1.43h-.022V26.26a.208.208,0,0,0-.22-.22H180.34a.208.208,0,0,0-.22.22V40.78a.208.208,0,0,0,.22.22h1.408a.208.208,0,0,0,.22-.22V34.51a2.365,2.365,0,0,1,2.42-2.574c1.584,0,2.354.99,2.354,2.684v6.16a.208.208,0,0,0,.22.22Zm5.17-12.914a.208.208,0,0,0,.22-.22V26.26a.208.208,0,0,0-.22-.22h-1.5a.208.208,0,0,0-.22.22v1.606a.208.208,0,0,0,.22.22ZM193.5,41a.208.208,0,0,0,.22-.22v-10.1a.208.208,0,0,0-.22-.22h-1.408a.208.208,0,0,0-.22.22v10.1a.208.208,0,0,0,.22.22Zm7.04,4.2c2.97,0,4.6-1.672,4.6-4.664V30.682a.208.208,0,0,0-.22-.22h-1.408a.208.208,0,0,0-.22.22v.99h-.022a3.025,3.025,0,0,0-2.926-1.452,3.455,3.455,0,0,0-3.542,2.552,8.247,8.247,0,0,0-.352,2.772,8.247,8.247,0,0,0,.352,2.772,3.455,3.455,0,0,0,3.542,2.552,3.025,3.025,0,0,0,2.926-1.452h.022v1.232c0,1.936-.924,2.838-2.662,2.838a3.516,3.516,0,0,1-2.486-1.056.206.206,0,0,0-.33,0l-.9.9a.2.2,0,0,0-.022.308A4.762,4.762,0,0,0,200.536,45.2Zm.264-6.028a2.151,2.151,0,0,1-2.222-1.584,6.505,6.505,0,0,1-.264-2.046,6.6,6.6,0,0,1,.264-2.046,2.377,2.377,0,0,1,4.466,0,6.5,6.5,0,0,1,.242,2.046,6.406,6.406,0,0,1-.242,2.046A2.179,2.179,0,0,1,200.8,39.174ZM216.772,41a.208.208,0,0,0,.22-.22v-6.6c0-2.4-1.364-3.96-3.652-3.96a3.331,3.331,0,0,0-2.948,1.43h-.022V26.26a.208.208,0,0,0-.22-.22h-1.408a.208.208,0,0,0-.22.22V40.78a.208.208,0,0,0,.22.22h1.408a.208.208,0,0,0,.22-.22V34.51a2.365,2.365,0,0,1,2.42-2.574c1.584,0,2.354.99,2.354,2.684v6.16a.208.208,0,0,0,.22.22Zm7.436.242a5.124,5.124,0,0,0,4.114-1.8.2.2,0,0,0-.022-.308l-.9-.814a.225.225,0,0,0-.33.044,3.442,3.442,0,0,1-2.706,1.166A2.6,2.6,0,0,1,221.7,37.7a3.949,3.949,0,0,1-.176-1.276.117.117,0,0,1,.132-.132h6.666a.215.215,0,0,0,.242-.22,9.194,9.194,0,0,0-.33-3.014,4.433,4.433,0,0,0-8.272,0,8.174,8.174,0,0,0-.33,2.662,8.261,8.261,0,0,0,.352,2.662A4.076,4.076,0,0,0,224.208,41.242Zm-2.552-6.424a.117.117,0,0,1-.132-.132,3.708,3.708,0,0,1,.154-1.188,2.6,2.6,0,0,1,4.84,0,3.708,3.708,0,0,1,.154,1.188.117.117,0,0,1-.132.132Zm13.288,6.424c2.75,0,4.246-1.386,4.246-3.454,0-1.694-1.034-2.772-3.168-2.97l-1.1-.11c-1.562-.154-2.068-.594-2.068-1.43,0-.858.682-1.452,2-1.452a5.548,5.548,0,0,1,2.838.858A.215.215,0,0,0,238,32.64l.748-.946a.212.212,0,0,0-.044-.308,6.3,6.3,0,0,0-3.74-1.166c-2.486,0-3.916,1.21-3.916,3.212,0,1.716,1.078,2.75,3.146,2.97l1.122.11c1.65.176,2.046.638,2.046,1.474,0,.946-.77,1.606-2.31,1.606a5.12,5.12,0,0,1-3.256-1.21.213.213,0,0,0-.308,0l-.9.968a.213.213,0,0,0,0,.308A6.548,6.548,0,0,0,234.944,41.242Zm10.8-.132a.208.208,0,0,0,.22-.22V39.614a.208.208,0,0,0-.22-.22h-.462c-.946,0-1.342-.286-1.342-1.342V32.09a.117.117,0,0,1,.132-.132h1.672a.208.208,0,0,0,.22-.22V30.682a.208.208,0,0,0-.22-.22h-1.672a.117.117,0,0,1-.132-.132V27.36a.208.208,0,0,0-.22-.22h-1.408a.208.208,0,0,0-.22.22v2.97a.117.117,0,0,1-.132.132h-.88a.208.208,0,0,0-.22.22v1.056a.208.208,0,0,0,.22.22h.88a.117.117,0,0,1,.132.132v6.028c0,2.068.792,2.992,2.838,2.992Zm11.99-.11a.285.285,0,0,0,.286-.22l3.762-10.1c.044-.132-.022-.22-.176-.22h-1.5a.257.257,0,0,0-.264.22l-2.662,7.568h-.044l-2.728-7.568c-.066-.154-.132-.22-.286-.22H252.61c-.154,0-.22.088-.176.22l3.784,10.1c.044.132.11.22.264.22Zm13.772,0a.208.208,0,0,0,.22-.22V33.806c0-2.6-1.144-3.586-4.136-3.586a5.845,5.845,0,0,0-3.586,1.034.233.233,0,0,0-.044.308l.594,1.012c.066.11.2.11.308.022a4.1,4.1,0,0,1,2.552-.748c1.958,0,2.53.616,2.53,2.068v.77a.117.117,0,0,1-.132.132h-2.4c-2.574,0-4.114,1.034-4.114,3.256,0,2.134,1.54,3.168,3.542,3.168a3.455,3.455,0,0,0,3.124-1.386h.022v.924a.208.208,0,0,0,.22.22Zm-4.224-1.342c-1.408,0-2.2-.572-2.2-1.65,0-1.188.792-1.716,2.618-1.716h2.112a.117.117,0,0,1,.132.132V37.59C269.946,38.888,268.934,39.658,267.284,39.658Zm11.022,1.452a.208.208,0,0,0,.22-.22V39.614a.208.208,0,0,0-.22-.22h-.418c-.726,0-1.056-.286-1.056-1.166V26.26a.208.208,0,0,0-.22-.22H275.2a.208.208,0,0,0-.22.22V38.338c0,1.892.726,2.772,2.574,2.772ZM288.932,41a.208.208,0,0,0,.22-.22v-10.1a.208.208,0,0,0-.22-.22h-1.408a.208.208,0,0,0-.22.22V36.93a2.339,2.339,0,0,1-2.376,2.6c-1.562,0-2.332-.99-2.332-2.706V30.682a.208.208,0,0,0-.22-.22h-1.408a.208.208,0,0,0-.22.22V37.26c0,2.4,1.342,3.982,3.652,3.982a3.214,3.214,0,0,0,2.882-1.452h.022v.99a.208.208,0,0,0,.22.22Zm7.546.242a5.124,5.124,0,0,0,4.114-1.8.2.2,0,0,0-.022-.308l-.9-.814a.225.225,0,0,0-.33.044,3.442,3.442,0,0,1-2.706,1.166A2.6,2.6,0,0,1,293.97,37.7a3.949,3.949,0,0,1-.176-1.276.117.117,0,0,1,.132-.132h6.666a.215.215,0,0,0,.242-.22,9.194,9.194,0,0,0-.33-3.014,4.433,4.433,0,0,0-8.272,0,8.174,8.174,0,0,0-.33,2.662,8.261,8.261,0,0,0,.352,2.662A4.076,4.076,0,0,0,296.478,41.242Zm-2.552-6.424a.117.117,0,0,1-.132-.132,3.708,3.708,0,0,1,.154-1.188,2.6,2.6,0,0,1,4.84,0,3.708,3.708,0,0,1,.154,1.188.117.117,0,0,1-.132.132Z" transform="translate(1239 17299)" fill="#78787a"/><text transform="translate(1120 17459)" fill="#b4cd00" font-size="50" font-family="DINNextLTPro-Light, DIN Next LT Pro" font-weight="300"><tspan x="0" y="0">3</tspan></text><g transform="translate(1207 17413.697)"><g transform="translate(0)" fill="#b4cd00" stroke="rgba(0,0,0,0)" stroke-width="1" opacity="0"><rect width="48.905" height="50.303" stroke="none"/><rect x="0.5" y="0.5" width="47.905" height="49.303" fill="none"/></g><path d="M40.626,16.815h4.292v3.314H40.626a23.235,23.235,0,0,1-8.584-1.657,23.612,23.612,0,0,1-17.167,0,23.32,23.32,0,0,1-8.584,1.657H2V16.815H6.292a18.074,18.074,0,0,0,8.584-2.2,18.4,18.4,0,0,0,17.167,0,18.074,18.074,0,0,0,8.584,2.2m0-9.941h4.292v3.314H40.626A23.235,23.235,0,0,1,32.043,8.53a23.612,23.612,0,0,1-17.167,0,23.32,23.32,0,0,1-8.584,1.657H2V6.874H6.292a18.074,18.074,0,0,0,8.584-2.2,18.4,18.4,0,0,0,17.167,0,18.074,18.074,0,0,0,8.584,2.2m0,19.882h4.292v3.314H40.626a23.235,23.235,0,0,1-8.584-1.657,23.612,23.612,0,0,1-17.167,0,23.32,23.32,0,0,1-8.584,1.657H2V26.756H6.292a18.074,18.074,0,0,0,8.584-2.2,18.4,18.4,0,0,0,17.167,0A18.074,18.074,0,0,0,40.626,26.756Z" transform="translate(0.937 6.45)" fill="#b4cd00"/></g><text transform="translate(1581 17338)" fill="#5cc86f" font-size="50" font-family="DINNextLTPro-Light, DIN Next LT Pro" font-weight="300"><tspan x="0" y="0">2</tspan></text><path d="M8507.076,15392.83c2.762,0,4.5.142,4.811.17h323.267a115.154,115.154,0,0,1,26.555,2.89,70.423,70.423,0,0,1,23.35,9.873,49.747,49.747,0,0,1,16.64,18.673,55.275,55.275,0,0,1,4.659,13.137,73.535,73.535,0,0,1,1.644,15.9,75.034,75.034,0,0,1-1.622,15.941,56.846,56.846,0,0,1-4.607,13.252,50.762,50.762,0,0,1-16.516,19.035,69.776,69.776,0,0,1-23.329,10.241,111.075,111.075,0,0,1-26.772,3.058H8583.688c-26.459,0-70.848,7.682-70.848,59.125,0,53.139,49.546,58.875,70.848,58.875h251.465c.759,0,1.563,0,2.4,0a150.3,150.3,0,0,1,20.179,1.074,85.649,85.649,0,0,1,11.642,2.333,62.228,62.228,0,0,1,11.53,4.425,48.524,48.524,0,0,1,10.539,7.2,45.036,45.036,0,0,1,8.631,10.628,54.189,54.189,0,0,1,5.8,14.657,88.306,88.306,0,0,1-.194,39.3,55.9,55.9,0,0,1-6.3,15.28,48.434,48.434,0,0,1-9.282,11.116,53.425,53.425,0,0,1-11.215,7.569,77.123,77.123,0,0,1-24.089,7.213,138.506,138.506,0,0,1-19.65,1.207H8511.861a108.548,108.548,0,0,1-20.706-2.513,85.4,85.4,0,0,1-18.091-5.99,51.194,51.194,0,0,1-16.406-11.764,56.878,56.878,0,0,1-10.492-18.077,106.548,106.548,0,0,1-5.191-19.82,140.916,140.916,0,0,1-1.98-22.609v-200.205a123.818,123.818,0,0,1,1.53-22.649,100.076,100.076,0,0,1,5.3-20.27,60.729,60.729,0,0,1,11.4-19.135c6.784-7.46,15.871-12.852,27.011-16.023A84.873,84.873,0,0,1,8507.076,15392.83ZM8835.153,15513c21.3,0,70.847-5.8,70.847-59.527,0-50.876-44.388-58.473-70.847-58.473h-323.36l-.048,0c-.017,0-1.775-.165-4.669-.165-9.492,0-33.209,1.8-48.378,18.483-10.116,11.125-14.393,27.008-16.2,38.372a121.053,121.053,0,0,0-1.507,22.266v200.293a138.525,138.525,0,0,0,1.958,22.294c1.9,11.23,6.079,26.742,15.192,36.857s23.209,14.9,33.438,17.139a106.244,106.244,0,0,0,20.278,2.466h323.292c7.3,0,26.709,0,42.833-8.2,18.588-9.457,28.014-27.025,28.014-52.219,0-24.367-8.748-41.179-26-49.968-14.9-7.592-32.732-7.613-42.361-7.613h-.081c-.841,0-1.644,0-2.4,0H8583.688a119.8,119.8,0,0,1-17.069-1.164,85.543,85.543,0,0,1-24.35-7,53.583,53.583,0,0,1-21.93-18.19,52.107,52.107,0,0,1-6.927-14.928,70.857,70.857,0,0,1-2.572-19.594,72.339,72.339,0,0,1,2.519-19.6,51.059,51.059,0,0,1,28.428-33.234,84.046,84.046,0,0,1,24.293-7.087,122.324,122.324,0,0,1,17.608-1.2Z" transform="translate(10074 32897.828) rotate(180)" fill="#781f78" opacity="0.33"/><g transform="translate(1150 17422)" fill="#b4cd00" stroke="#fff" stroke-width="2"><circle cx="20" cy="20" r="20" stroke="none"/><circle cx="20" cy="20" r="19" fill="none"/></g><g transform="translate(1418 17133) rotate(90)" fill="#4d354e"><path d="M 20.21694564819336 17 L 1.783054947853088 17 L 11 1.917726397514343 L 20.21694564819336 17 Z" stroke="none"/><path d="M 11 3.835453033447266 L 3.566110610961914 16 L 18.43388938903809 16 L 11 3.835453033447266 M 11 0 L 22 18 L 0 18 L 11 0 Z" stroke="none" fill="#f4f4f4"/></g><g transform="translate(1447 17372) rotate(90)" fill="#4d354e"><path d="M 20.21694564819336 17 L 1.783054947853088 17 L 11 1.917726397514343 L 20.21694564819336 17 Z" stroke="none"/><path d="M 11 3.835453033447266 L 3.566110610961914 16 L 18.43388938903809 16 L 11 3.835453033447266 M 11 0 L 22 18 L 0 18 L 11 0 Z" stroke="none" fill="#f4f4f4"/></g><g transform="translate(1367 17515) rotate(-90)" fill="#4d354e"><path d="M 20.21694564819336 17 L 1.783054947853088 17 L 11 1.917726397514343 L 20.21694564819336 17 Z" stroke="none"/><path d="M 11 3.835453033447266 L 3.566110610961914 16 L 18.43388938903809 16 L 11 3.835453033447266 M 11 0 L 22 18 L 0 18 L 11 0 Z" stroke="none" fill="#f4f4f4"/></g><g transform="translate(1309 17275) rotate(-90)" fill="#4d354e"><path d="M 20.21694564819336 17 L 1.783054947853088 17 L 11 1.917726397514343 L 20.21694564819336 17 Z" stroke="none"/><path d="M 11 3.835453033447266 L 3.566110610961914 16 L 18.43388938903809 16 L 11 3.835453033447266 M 11 0 L 22 18 L 0 18 L 11 0 Z" stroke="none" fill="#f4f4f4"/></g><g transform="translate(1645 17218) rotate(180)" fill="#4d354e"><path d="M 20.21694564819336 17 L 1.783054947853088 17 L 11 1.917726397514343 L 20.21694564819336 17 Z" stroke="none"/><path d="M 11 3.835453033447266 L 3.566110610961914 16 L 18.43388938903809 16 L 11 3.835453033447266 M 11 0 L 22 18 L 0 18 L 11 0 Z" stroke="none" fill="#f4f4f4"/></g><g transform="translate(1645 17449) rotate(180)" fill="#4d354e"><path d="M 20.21694564819336 17 L 1.783054947853088 17 L 11 1.917726397514343 L 20.21694564819336 17 Z" stroke="none"/><path d="M 11 3.835453033447266 L 3.566110610961914 16 L 18.43388938903809 16 L 11 3.835453033447266 M 11 0 L 22 18 L 0 18 L 11 0 Z" stroke="none" fill="#f4f4f4"/></g><g transform="translate(1613 17302)" fill="#52c77b" stroke="#fff" stroke-width="2"><circle cx="20" cy="20" r="20" stroke="none"/><circle cx="20" cy="20" r="19" fill="none"/></g><g transform="translate(1150 17180)" fill="#05c3de" stroke="#fff" stroke-width="2"><circle cx="20" cy="20" r="20" stroke="none"/><circle cx="20" cy="20" r="19" fill="none"/></g><g transform="translate(1192.916 17170)"><rect width="54.336" height="54.336" fill="#05c3de" opacity="0"/><path d="M19.483,19.392,16.23,30.94,12.978,19.392,2,15.97l10.978-3.422L16.23,1l3.253,11.548L30.461,15.97,19.483,19.392m13.011,9.837,8.132-4.7-4.472,8.554,4.472,8.554-8.132-4.7-8.132,4.7,4.472-8.554-4.472-8.554,8.132,4.7m-14.23,3.849-3.456,6.416,3.456,6.416-6.1-3.636-6.1,3.636,3.456-6.416L6.066,33.078l6.1,3.636,6.1-3.636" transform="translate(7.426 5.284)" fill="#05c3de"/></g><g transform="translate(1190.084 17302)"><rect width="40" height="40" fill="#52c77b" opacity="0"/><path d="M27.2,14.6h5.4l-9,12.6M16.4,14.6h7.2L20,29M7.4,14.6h5.4l3.6,12.6m9-21.6H29L32.6,11H27.2m-9-5.4h3.6L23.6,11H16.4M11,5.6h3.6L12.8,11H7.4M9.2,2,2,12.8,20,38,38,12.8,30.8,2Z" transform="translate(0 0)" fill="#52c77b"/></g></g></svg>