<svg xmlns="http://www.w3.org/2000/svg" width="40.112" height="40.111" viewBox="0 0 40.112 40.111">
  <path id="ico-saibamais" d="M32.084,26.067h4.011v6.017h6.017V36.1H36.095v6.017H32.084V36.1H26.067V32.084h6.017V26.067M38.1,22.056A16.013,16.013,0,0,0,28.073,7.194v.822a4.023,4.023,0,0,1-4.011,4.011H20.05v4.011a2.011,2.011,0,0,1-2.006,2.006H14.034v4.011H26.067a2.046,2.046,0,0,1,2.006,1.625,12.022,12.022,0,0,0-3.129,18.231l-2.888.2A20.056,20.056,0,1,1,42.112,22.056l-.2,2.888A12.071,12.071,0,0,0,38.1,22.738v-.682M20.05,37.96V34.089a4.023,4.023,0,0,1-4.011-4.011V28.073L6.432,18.466A15.968,15.968,0,0,0,20.05,37.96Z" transform="translate(-2 -2)" fill="#fff"/>
</svg>
