<svg xmlns="http://www.w3.org/2000/svg" width="47" height="41" viewBox="0 0 47 41">
  <g id="ico-secmodelounico-2" transform="translate(-301.5 -11965)">
    <g id="MDI_cogs" data-name="MDI / cogs" transform="translate(307.229 11965.5)">
      <rect id="Boundary" width="40" height="40" fill="#fdb515" stroke="rgba(0,0,0,0)" stroke-width="1" opacity="0"/>
      <path id="Path_cogs" data-name="Path / cogs" d="M14.457,30.983a4.317,4.317,0,1,1,4.372-4.317,4.351,4.351,0,0,1-4.372,4.317M5.178,27.865,2.538,29.909a.613.613,0,0,0-.143.793l2.5,4.264a.628.628,0,0,0,.767.264L8.765,34a9.6,9.6,0,0,0,2.105,1.216l.482,3.26a.613.613,0,0,0,.607.529h5a.631.631,0,0,0,.625-.529l.464-3.26A9.2,9.2,0,0,0,20.149,34l3.123,1.233a.612.612,0,0,0,.749-.264l2.5-4.264a.613.613,0,0,0-.143-.793l-2.641-2.044.089-1.2-.089-1.216,2.641-2.026a.617.617,0,0,0,.143-.793l-2.5-4.264a.6.6,0,0,0-.749-.282l-3.123,1.251a8.6,8.6,0,0,0-2.105-1.216l-.464-3.277a.632.632,0,0,0-.625-.511h-5a.613.613,0,0,0-.607.511l-.482,3.277a8.942,8.942,0,0,0-2.105,1.216l-3.1-1.251a.617.617,0,0,0-.767.282l-2.5,4.264a.617.617,0,0,0,.143.793l2.641,2.026-.089,1.216.089,1.2M30.89,12.695a2.775,2.775,0,1,1,2.819-2.766,2.777,2.777,0,0,1-2.819,2.766M24.931,10.7l-1.731,1.3a.416.416,0,0,0-.054.511l1.606,2.749a.384.384,0,0,0,.482.176l2-.793,1.32.775.339,2.1a.4.4,0,0,0,.393.335H32.5a.4.4,0,0,0,.41-.335l.285-2.1,1.356-.775,2.034.793a.375.375,0,0,0,.464-.176l1.606-2.749a.4.4,0,0,0-.089-.511l-1.7-1.3.054-.775-.054-.775,1.7-1.3a.4.4,0,0,0,.089-.511L37.046,4.59a.375.375,0,0,0-.464-.176l-2.016.793-1.374-.775-.285-2.1A.4.4,0,0,0,32.5,2H29.284a.4.4,0,0,0-.393.335l-.339,2.1-1.32.775-2-.793a.384.384,0,0,0-.482.176L23.146,7.339a.416.416,0,0,0,.054.511l1.731,1.3-.054.775Z" transform="translate(-0.709 0)" fill="#fdb515" stroke="rgba(0,0,0,0)" stroke-width="1"/>
    </g>
    <rect id="Rectangle_711" data-name="Rectangle 711" width="21" height="5" transform="translate(302 11972)" fill="#fdb515" stroke="rgba(0,0,0,0)" stroke-width="1"/>
    <path id="Path_5584" data-name="Path 5584" d="M0,0,4,3V8L0,5Z" transform="translate(323 11972)" fill="#fdb515" stroke="rgba(0,0,0,0)" stroke-width="1"/>
    <path id="Path_5585" data-name="Path 5585" d="M0,0,4,3V8L0,5Z" transform="translate(336 11986)" fill="#fdb515" stroke="rgba(0,0,0,0)" stroke-width="1"/>
    <path id="Path_5586" data-name="Path 5586" d="M0,0,4,3V8L0,5Z" transform="translate(336 11997)" fill="#fdb515" stroke="rgba(0,0,0,0)" stroke-width="1"/>
    <path id="Path_5587" data-name="Path 5587" d="M0,0,4,3V8L0,5Z" transform="translate(344 11995)" fill="#fdb515" stroke="rgba(0,0,0,0)" stroke-width="1"/>
  </g>
</svg>
