<svg xmlns="http://www.w3.org/2000/svg" width="56" height="56" viewBox="0 0 56 56">
  <g id="MDI_map-marker-multiple-outline" data-name="MDI / map-marker-multiple-outline" transform="translate(0.428 0.311)">
    <g id="Boundary" transform="translate(-0.428 -0.31)" fill="#781e77" stroke="rgba(0,0,0,0)" stroke-width="1" opacity="0">
      <rect width="56" height="56" stroke="none"/>
      <rect x="0.5" y="0.5" width="55" height="55" fill="none"/>
    </g>
    <path id="Path_map-marker-multiple-outline" data-name="Path / map-marker-multiple-outline" d="M22.557,18.106a5.759,5.759,0,0,1,11.205-1.864,6.318,6.318,0,0,1,.3,1.864,5.759,5.759,0,0,1-11.182,1.933,5.975,5.975,0,0,1-.322-1.933m-14.955,0C7.6,28.46,19.29,42.633,21.407,45.279l-2.3,2.738S3,30.185,3,18.106A16.118,16.118,0,0,1,14.5,2.667,20.665,20.665,0,0,0,7.6,18.106M28.309,2A16.109,16.109,0,0,1,44.415,18.106c0,12.079-16.106,29.911-16.106,29.911S12.2,30.185,12.2,18.106A16.109,16.109,0,0,1,28.309,2m0,4.6a11.508,11.508,0,0,0-11.5,11.5c0,2.3,0,6.9,11.5,22.341,11.5-15.439,11.5-20.04,11.5-22.341A11.508,11.508,0,0,0,28.309,6.6Z" transform="translate(3.903 2.643)" fill="#781e77"/>
  </g>
</svg>
