<svg xmlns="http://www.w3.org/2000/svg" width="37.1" height="36" viewBox="0 0 37.1 36">
  <path id="ico-secmodelounico-3" d="M39,5.78V2.54l-3.165-.36A26.53,26.53,0,0,0,32.846,2C25.637,2,20.362,4.16,17.373,7.94A17.249,17.249,0,0,0,8.23,5.6a22.845,22.845,0,0,0-2.989.18L1.9,6.32l.176,3.06c.176,5.4,2.813,15.66,11.956,15.66h.352v6.12A55.118,55.118,0,0,0,2.076,34.4V38H37.242V34.4a55.118,55.118,0,0,0-12.308-3.24V25.4C36.011,25.22,39,12.44,39,5.78M19.659,30.8H17.9V20.72s-.352-6.12-5.275-6.12c0,0,2.637,1.44,3.341,6.66a7.708,7.708,0,0,1-1.934.18c-8.088,0-8.44-12.06-8.44-12.06A17.312,17.312,0,0,1,8.23,9.2c3.341,0,8.791.72,10.374,5.58.879-8.1,9.846-9.18,14.242-9.18a17.312,17.312,0,0,1,2.637.18s0,16.2-11.077,16.2H23.175c0-3.6,3.517-9,3.517-9-5.275,1.8-5.275,8.82-5.275,8.82v9Z" transform="translate(-1.9 -2)" fill="#fdb515"/>
</svg>
