<svg xmlns="http://www.w3.org/2000/svg" xmlns:xlink="http://www.w3.org/1999/xlink" width="38.106" height="38.106" viewBox="0 0 38.106 38.106">
  <defs>
    <clipPath id="clip-path">
      <rect id="Rectangle_436" data-name="Rectangle 436" width="38.106" height="38.106" fill="#fff"/>
    </clipPath>
  </defs>
  <g id="ico-crescimento" clip-path="url(#clip-path)">
    <path id="ico-crescimento-2" data-name="ico-crescimento" d="M6.017,27.075l-3.55,3.48A1.452,1.452,0,0,1,0,29.518V17.495a1.451,1.451,0,0,1,1.45-1.45H6.017m10.028,7.34-2.17-1.851a1.449,1.449,0,0,0-1.925.038l-1.921,1.773V9.472a1.451,1.451,0,0,1,1.45-1.45h4.567M26.073,20.056l-3.54,3.54a1.451,1.451,0,0,1-2.477-1.025V1.45A1.451,1.451,0,0,1,21.506,0h4.567m5.636,19.675-3.63-3.63h8.578a1.451,1.451,0,0,1,1.45,1.45v8.578L35.537,23.5a1.453,1.453,0,0,0-2.048,0L21.013,35.874a1.451,1.451,0,0,1-1.973.064L14.1,31.64a1.45,1.45,0,0,0-1.961.052l-6.2,6a1.447,1.447,0,0,1-1.009.409H3.554a1.451,1.451,0,0,1-1.015-2.487l9.494-9.3a1.448,1.448,0,0,1,1.951-.072l6.071,5.124" fill="#fff"/>
  </g>
</svg>
