<svg id="ico-secproposta-5" xmlns="http://www.w3.org/2000/svg" width="80" height="80" viewBox="0 0 80 80">
  <g id="Boundary" fill="#05c3de" stroke="rgba(0,0,0,0)" stroke-width="1" opacity="0">
    <rect width="80" height="80" stroke="none"/>
    <rect x="0.5" y="0.5" width="79" height="79" fill="none"/>
  </g>
  <path id="Path_web-check" data-name="Path / web-check" d="M50.333,35.333a55.051,55.051,0,0,0-.467-6.667H61.133A27.473,27.473,0,0,1,62,35.333a25.411,25.411,0,0,1-.267,3.6,19.085,19.085,0,0,1,6.4,2.133,32.456,32.456,0,0,0,.533-5.733A33.333,33.333,0,1,0,35.333,68.667a32.456,32.456,0,0,0,5.733-.533,19.664,19.664,0,0,1-2.4-9.467,19.889,19.889,0,0,1,.233-2.833,49.479,49.479,0,0,1-3.567,6.033,45.21,45.21,0,0,1-6.367-13.2h12.4a19.836,19.836,0,0,1,8.633-8,47.232,47.232,0,0,0,.333-5.333m-15-26.567A45.4,45.4,0,0,1,41.7,22H28.967A45.4,45.4,0,0,1,35.333,8.767M9.533,42a27.473,27.473,0,0,1-.867-6.667,27.473,27.473,0,0,1,.867-6.667H20.8a55.051,55.051,0,0,0-.467,6.667A55.051,55.051,0,0,0,20.8,42H9.533m2.733,6.667H22a57.448,57.448,0,0,0,4.667,11.867,26.694,26.694,0,0,1-14.4-11.867M22,22H12.267a26.411,26.411,0,0,1,14.4-11.867A57.448,57.448,0,0,0,22,22M43.133,42h-15.6a41.934,41.934,0,0,1,0-13.333h15.6a48.617,48.617,0,0,1,.533,6.667A49.043,49.043,0,0,1,43.133,42m.833-31.867A26.623,26.623,0,0,1,58.4,22H48.567a52.164,52.164,0,0,0-4.6-11.867m26.367,42.7L54.5,68.667l-9.167-10L49.2,54.8l5.3,5.3L66.467,48.133Z" transform="translate(4.667 4.667)" fill="#05c3de"/>
</svg>
