<svg xmlns="http://www.w3.org/2000/svg" width="146.202" height="117.574" viewBox="0 0 146.202 117.574">
  <g id="ico-secmodelounico-1" transform="translate(-2211.289 -1381.138)">
    <path id="Path_2770" data-name="Path 2770" d="M1605.5,75.622a21.438,21.438,0,1,1,21.438-21.438A21.462,21.462,0,0,1,1605.5,75.622m0-38.748a17.31,17.31,0,1,0,17.31,17.31,17.331,17.331,0,0,0-17.31-17.31" transform="translate(671.23 1385.741)" fill="#fff" stroke="#fff" stroke-width="2"/>
    <path id="Path_2771" data-name="Path 2771" d="M1633.487,62.589a12.839,12.839,0,1,1,12.838-12.838,12.854,12.854,0,0,1-12.838,12.838m0-21.55a8.711,8.711,0,1,0,8.71,8.712,8.721,8.721,0,0,0-8.71-8.712" transform="translate(710.166 1390.174)" fill="#fff" stroke="#fff" stroke-width="2"/>
    <path id="Path_2772" data-name="Path 2772" d="M1577.88,40.373A12.617,12.617,0,1,1,1590.5,27.753a12.634,12.634,0,0,1-12.617,12.619m0-21.106a8.489,8.489,0,1,0,8.489,8.487,8.5,8.5,0,0,0-8.489-8.487" transform="translate(651.217 1367)" fill="#fff" stroke="#fff" stroke-width="2"/>
    <path id="Path_2773" data-name="Path 2773" d="M1577.88,84.134A12.617,12.617,0,1,1,1590.5,71.516a12.632,12.632,0,0,1-12.617,12.617m0-21.106a8.489,8.489,0,1,0,8.489,8.489,8.5,8.5,0,0,0-8.489-8.489" transform="translate(651.217 1413.578)" fill="#fff" stroke="#fff" stroke-width="2"/>
    <path id="Path_2774" data-name="Path 2774" d="M1572.669,57.433A9.437,9.437,0,1,1,1582.105,48a9.447,9.447,0,0,1-9.436,9.438m0-14.746A5.309,5.309,0,1,0,1577.977,48a5.314,5.314,0,0,0-5.308-5.307" transform="translate(649.056 1391.929)" fill="#fff" stroke="#fff" stroke-width="2"/>
    <path id="Path_2775" data-name="Path 2775" d="M1608.894,36.119a9.811,9.811,0,1,1,9.812-9.812,9.822,9.822,0,0,1-9.812,9.812m0-15.493a5.682,5.682,0,1,0,5.683,5.681,5.686,5.686,0,0,0-5.683-5.681" transform="translate(687.215 1368.447)" fill="#fff" stroke="#fff" stroke-width="2"/>
    <path id="Path_2776" data-name="Path 2776" d="M1611.2,79.846a11.7,11.7,0,1,1,11.7-11.7,11.719,11.719,0,0,1-11.7,11.7m0-19.281a7.576,7.576,0,1,0,7.576,7.576,7.585,7.585,0,0,0-7.576-7.576" transform="translate(687.652 1410.956)" fill="#fff" stroke="#fff" stroke-width="2"/>
    <path id="Path_2777" data-name="Path 2777" d="M1602.085,52.49a2.06,2.06,0,0,1-1.42-.566l-25.938-24.6a2.065,2.065,0,1,1,2.841-3l25.938,24.6a2.064,2.064,0,0,1-1.42,3.563" transform="translate(660.603 1376.181)" fill="#fff" stroke="#fff" stroke-width="2"/>
    <path id="Path_2778" data-name="Path 2778" d="M1576.911,75.808a2.064,2.064,0,0,1-1.42-3.563l24.359-23.1a2.065,2.065,0,1,1,2.843,3l-24.362,23.1a2.059,2.059,0,0,1-1.42.566" transform="translate(661.418 1402.598)" fill="#fff" stroke="#fff" stroke-width="2"/>
    <path id="Path_2779" data-name="Path 2779" d="M1641.67,46.259H1604.9a2.064,2.064,0,1,1,0-4.129h36.771a2.064,2.064,0,0,1,0,4.129" transform="translate(691.207 1395.73)" fill="#fff" stroke="#fff" stroke-width="2"/>
  </g>
</svg>
