<svg xmlns="http://www.w3.org/2000/svg" width="36" height="36.001" viewBox="0 0 36 36.001">
  <path id="ico-rastreabilidade" d="M10.1,13A2.9,2.9,0,1,1,13,10.1h0A2.9,2.9,0,0,1,10.1,13m0-11A8.066,8.066,0,0,0,2,10.1c0,6.066,8.1,15.048,8.1,15.048s8.1-8.982,8.1-15.048A8.066,8.066,0,0,0,10.1,2M29.9,13a2.9,2.9,0,1,1,2.9-2.9A2.9,2.9,0,0,1,29.9,13m0-11a8.066,8.066,0,0,0-8.1,8.1c0,6.066,8.1,15.048,8.1,15.048S38,16.166,38,10.1A8.066,8.066,0,0,0,29.9,2m0,25.2a5.373,5.373,0,0,0-5.076,3.6H15.176A5.4,5.4,0,1,0,11.9,37.693,5.491,5.491,0,0,0,15.176,34.4h9.666A5.4,5.4,0,0,0,35.03,30.8a5.442,5.442,0,0,0-5.13-3.6h0m0,8.1a2.7,2.7,0,1,1,2.7-2.7A2.7,2.7,0,0,1,29.9,35.3Z" transform="translate(-2 -2)" fill="#781f78"/>
</svg>
