<svg id="ico-secproposta-3" xmlns="http://www.w3.org/2000/svg" width="80" height="80" viewBox="0 0 80 80">
  <g id="Boundary" transform="translate(0 -0.001)" fill="#fdb515" stroke="rgba(0,0,0,0)" stroke-width="1" opacity="0">
    <rect width="80" height="80" stroke="none"/>
    <rect x="0.5" y="0.5" width="79" height="79" fill="none"/>
  </g>
  <path id="ico-secproposta-3-2" data-name="ico-secproposta-3" d="M39.531,5a11.53,11.53,0,1,0,11.53,11.53A11.53,11.53,0,0,0,39.531,5m0,6.589A4.941,4.941,0,1,1,34.59,16.53a4.941,4.941,0,0,1,4.941-4.941M18.118,14.883A8.236,8.236,0,1,0,22.1,30.3a8.61,8.61,0,0,0,3-2.866,17.853,17.853,0,0,1-3.69-10.9v-.922a7.783,7.783,0,0,0-3.294-.725m42.826,0a7.783,7.783,0,0,0-3.294.725v.922a17.853,17.853,0,0,1-3.69,10.9,9.08,9.08,0,0,0,1.318,1.614,7.691,7.691,0,0,0,1.68,1.252,8.063,8.063,0,0,0,7.972,0,8.22,8.22,0,0,0-3.986-15.417M39.531,34.648c-7.709,0-23.06,3.854-23.06,11.53V51.12h46.12V46.178c0-7.676-15.351-11.53-23.06-11.53M15.516,36.46C9.158,37.218,0,40.446,0,46.178V51.12H9.883V44.762c0-3.327,2.273-6.094,5.633-8.3m48.03,0c3.36,2.207,5.633,4.974,5.633,8.3V51.12h9.883V46.178c0-5.732-9.158-8.96-15.516-9.718M39.531,41.237a34.175,34.175,0,0,1,13.935,3.294H25.6A34.175,34.175,0,0,1,39.531,41.237Z" transform="translate(0 11.471)" fill="#fdb515"/>
</svg>
