<svg xmlns="http://www.w3.org/2000/svg" width="34" height="36" viewBox="0 0 34 36">
  <path id="ico-secmodelounico-4" d="M11.5,2a3.692,3.692,0,0,1,3.778,3.6A3.692,3.692,0,0,1,11.5,9.2,3.692,3.692,0,0,1,7.722,5.6,3.692,3.692,0,0,1,11.5,2M8.667,38V27.2H3L7.911,13.52A3.846,3.846,0,0,1,11.5,11a3.665,3.665,0,0,1,3.589,2.52L20,27.2l4.911-13.68A3.846,3.846,0,0,1,28.5,11a3.665,3.665,0,0,1,3.589,2.52L37,27.2H31.333V38H25.667V27.2H14.333V38H8.667M28.5,2a3.692,3.692,0,0,1,3.778,3.6,3.782,3.782,0,0,1-7.556,0A3.692,3.692,0,0,1,28.5,2Z" transform="translate(-3 -2)" fill="#fdb515"/>
</svg>
