<svg xmlns="http://www.w3.org/2000/svg" width="38.106" height="38.105" viewBox="0 0 38.106 38.105">
  <path id="ico-propostavalor" d="M41.106,8.017v4.011H35.089v6.017H31.078V12.028H25.061V8.017h6.017V2h4.011V8.017h6.017M35.089,36.1H7.011V8.017H19.045V4.006H7.011A4.023,4.023,0,0,0,3,8.017V36.1a4.023,4.023,0,0,0,4.011,4.011H35.089A4.023,4.023,0,0,0,39.1,36.1V24.062H35.089V36.1M27.067,24.062v8.022h4.011V24.062H27.067m-8.022,8.022h4.011V16.039H19.045V32.084m-4.011,0V20.05H11.022V32.084Z" transform="translate(-3 -2)" fill="#fff"/>
</svg>
