<svg xmlns="http://www.w3.org/2000/svg" xmlns:xlink="http://www.w3.org/1999/xlink" width="97.819" height="94.246" viewBox="0 0 97.819 94.246">
  <defs>
    <linearGradient id="linear-gradient" x1="0.5" x2="-0.199" y2="1.793" gradientUnits="objectBoundingBox">
      <stop offset="0" stop-color="#b4cd00" stop-opacity="0.89"/>
      <stop offset="1" stop-color="#05c3de"/>
    </linearGradient>
  </defs>
  <g id="Group_780" data-name="Group 780" transform="translate(-12113.282 -17024.001)">
    <path id="Path_4020" data-name="Path 4020" d="M426.295,97.479a2.252,2.252,0,0,0,3.17-.273,16.691,16.691,0,0,0,1.949-2.931,12,12,0,0,0,9.2-9.108c1.11-4.3-.733-7.64-2.361-10.592-1.183-2.145-2.3-4.172-2.316-6.465a2.25,2.25,0,0,0-3.283-1.987c-.456.237-11.208,5.883-12.589,13.954-.6,3.469.553,6.772,3.411,9.817a2.251,2.251,0,0,0,3.281-3.083c-1.864-1.985-2.6-3.939-2.256-5.968.611-3.592,4.491-7,7.513-9.07a26.5,26.5,0,0,0,2.3,4.978c1.616,2.931,2.575,4.852,1.945,7.289A7.972,7.972,0,0,1,433.5,88.5a35.55,35.55,0,0,0,.756-9.833,2.252,2.252,0,0,0-4.488.377c.011.1.758,9.915-3.748,15.272a2.249,2.249,0,0,0,.276,3.167Z" transform="translate(11756.29 16960.225)" fill="url(#linear-gradient)"/>
    <path id="Path_4021" data-name="Path 4021" d="M320.2,115.407a14.2,14.2,0,0,0,2.278-.19,2.21,2.21,0,0,0,.756-.269c.514-.295,5.06-3.015,5.687-7.521.243-1.758-.05-4.454-2.848-7.315-2.7-2.765-5.981-3.094-8.874-3.386-2.092-.208-4.07-.409-5.709-1.5a2.251,2.251,0,0,0-3.5,1.789c-.016.409-.317,10.112,4.627,15.242a10.116,10.116,0,0,0,7.58,3.149Zm-3.452-14.2c2.54.256,4.544.456,6.106,2.055,1.234,1.26,1.761,2.419,1.61,3.534-.242,1.768-2.119,3.358-3.14,4.042a9.352,9.352,0,0,1-1.125.071,5.7,5.7,0,0,1-4.332-1.763c-2.007-2.077-2.876-5.709-3.205-8.568a26.873,26.873,0,0,0,4.086.629Z" transform="translate(11844.818 16937.305)" fill="url(#linear-gradient)"/>
    <path id="Path_4022" data-name="Path 4022" d="M216.679,279.883a2.25,2.25,0,0,0-2.251-2.251h-2.891v-6.612a2.241,2.241,0,0,0-.1-.661l-11.72-38.08v-7.255a2.25,2.25,0,0,0-2.251-2.251h-21.5a2.25,2.25,0,0,0-2.251,2.251v5.34h-1.107a2.251,2.251,0,1,0,0,4.5h.311L169.347,246.5l-.313-1.716v-6.639a2.25,2.25,0,0,0-2.251-2.251H150.91a2.25,2.25,0,0,0-2.251,2.251v6.506l-4.233,13.752-.05-.224v-3.951a2.25,2.25,0,0,0-2.251-2.251h-9.754a2.25,2.25,0,0,0-2.251,2.251V258.1l-5.26,17.1a2.268,2.268,0,0,0-.1.661v1.771h-3.652a2.251,2.251,0,1,0,0,4.5h93.317a2.25,2.25,0,0,0,2.251-2.251Zm-76.642-7.2a2.268,2.268,0,0,0-.1.661v4.29H129.266V276.2l5.26-17.1a2.284,2.284,0,0,0,.1-.664v-1.956h5.252v1.956a2.163,2.163,0,0,0,.058.508l1.858,8.031Zm22.456-3.91h-1.7a2.251,2.251,0,1,0,0,4.5h1.11v4.361H144.44v-3.951l8.621-28.027a2.271,2.271,0,0,0,.1-.661V240.4H164.53v4.594a2.487,2.487,0,0,0,.035.4l1.911,10.429Zm44.544,8.861H166.407v-4.361h27.127a2.251,2.251,0,1,0,0-4.5H167.2l3.539-11.5a2.236,2.236,0,0,0,.319-1.043l6.573-21.361h9.993a2.251,2.251,0,1,0,0-4.5h-9.405v-3.089h17v5.34a2.287,2.287,0,0,0,.1.664l11.717,38.08v6.273Z" transform="translate(11994.422 16836.113)" fill="url(#linear-gradient)"/>
    <path id="Path_4023" data-name="Path 4023" d="M416.423,339.37a7.7,7.7,0,1,0,7.7,7.7A7.71,7.71,0,0,0,416.423,339.37Zm0,10.9a3.2,3.2,0,1,1,3.2-3.2A3.206,3.206,0,0,1,416.423,350.275Z" transform="translate(11765.138 16743.885)" fill="url(#linear-gradient)"/>
    <path id="Path_4024" data-name="Path 4024" d="M207.915,151.6a2.251,2.251,0,0,0-.188,2.97,14.117,14.117,0,0,0,10.7,5.212c.226.011.453.016.675.016h0a15.111,15.111,0,0,0,10.658-4.233,2.254,2.254,0,0,0,.193-2.97,14.1,14.1,0,0,0-10.706-5.215,15.187,15.187,0,0,0-11.337,4.22Zm10.7,3.685a10.507,10.507,0,0,1-5.708-1.906,11.276,11.276,0,0,1,6.154-1.5,10.474,10.474,0,0,1,5.708,1.906A11.34,11.34,0,0,1,218.618,155.285Z" transform="translate(11924.5 16895.764)" fill="url(#linear-gradient)"/>
    <path id="Path_4025" data-name="Path 4025" d="M203.043,55.9a2.255,2.255,0,0,0-2.66,1.479c-.9,2.715-.239,5.885,1.821,8.7a14.1,14.1,0,0,0,7.935,5.326,2.249,2.249,0,0,0,2.662-1.477c.9-2.718.242-5.89-1.821-8.7a14.068,14.068,0,0,0-7.937-5.326Zm2.79,7.521a7.6,7.6,0,0,1-1.038-1.924,9.682,9.682,0,0,1,2.552,2.388,7.5,7.5,0,0,1,1.04,1.924,9.746,9.746,0,0,1-2.554-2.388Z" transform="translate(11930.248 16968.164)" fill="url(#linear-gradient)"/>
  </g>
</svg>
