<svg xmlns="http://www.w3.org/2000/svg" width="32.089" height="40.112" viewBox="0 0 32.089 40.112">
  <path id="ico-modelounico-dna" d="M4,2H8.011V6.011c0,2.888,1.364,5.235,3.771,7.581a45.651,45.651,0,0,0,6.438,4.854l-3.67,2.387A40.265,40.265,0,0,1,9.014,16.46C6.146,13.673,4,10.223,4,6.011V2M32.078,2h4.011V6.011c0,4.212-2.146,7.661-5.014,10.449a60.468,60.468,0,0,1-9.948,7.28,61.927,61.927,0,0,0-9.346,6.779C9.375,32.866,8.011,35.213,8.011,38.1v4.011H4V38.1c0-4.212,2.146-7.661,5.014-10.449a60.468,60.468,0,0,1,9.948-7.28,61.927,61.927,0,0,0,9.346-6.779c2.407-2.347,3.771-4.693,3.771-7.581V2M25.54,23.279a40.264,40.264,0,0,1,5.535,4.372c2.868,2.788,5.014,6.237,5.014,10.449v4.011H32.078V38.1c0-2.888-1.364-5.235-3.771-7.581a45.652,45.652,0,0,0-6.438-4.854l3.67-2.387M10.017,4.006H30.073V6.011l-.12,1H10.137l-.12-1V4.006m1.364,6.017H28.709A14.784,14.784,0,0,1,26.9,12.148l-1.023.882H14.168l-.983-.882a14.784,14.784,0,0,1-1.805-2.126m2.828,21.059H25.921l.983.882a14.784,14.784,0,0,1,1.805,2.126H11.381a14.784,14.784,0,0,1,1.805-2.126l1.023-.882M10.137,37.1H29.952l.12,1v2.006H10.017V38.1Z" transform="translate(-4 -2)" fill="#fff"/>
</svg>
