<svg id="MDI_camera-control" data-name="MDI / camera-control" xmlns="http://www.w3.org/2000/svg" width="35" height="35" viewBox="0 0 35 35">
  <g id="Boundary" fill="#781e77" stroke="rgba(0,0,0,0)" stroke-width="1" opacity="0">
    <rect width="35" height="35" stroke="none"/>
    <rect x="0.5" y="0.5" width="34" height="34" fill="none"/>
  </g>
  <path id="Path_camera-control" data-name="Path / camera-control" d="M12.333,16.762a4.405,4.405,0,0,1,7.543-3.115,4.405,4.405,0,1,1-6.23,6.23,4.324,4.324,0,0,1-1.314-3.115M7.211,11.507l2.628,2.628L7.211,16.762,9.839,19.39,7.211,22.017,2,16.762l5.211-5.255m4.3,14.806,2.628-2.628,2.628,2.628,2.628-2.628,2.628,2.628-5.255,5.211-5.255-5.211m14.806-4.3L23.685,19.39l2.628-2.628-2.628-2.628,2.628-2.628,5.211,5.255-5.211,5.255m-4.3-14.806L19.39,9.839,16.762,7.211,14.134,9.839,11.507,7.211,16.762,2Z" transform="translate(0.952 0.952)" fill="#781e77"/>
</svg>
