<svg xmlns="http://www.w3.org/2000/svg" width="50.645" height="74.922" viewBox="0 0 50.645 74.922"><g transform="translate(1.034 -23.505)"><path d="M86.539,234.412c-.346,0-.559.6-.774.292a1.053,1.053,0,0,1-.193-.587,9.693,9.693,0,0,0-4.81-4.9,29.01,29.01,0,0,1-6.595-4.394c-1.012-.871-1.885-1.775-2.728-2.649-1.451-1.5-2.7-2.8-4.057-3.265-1.4-.482-3.372.056-5.542,1.514a22.2,22.2,0,0,0-5.831,6.011c-2.459,3.72-5.451,7.386-5.578,7.54a1.056,1.056,0,1,1-1.635-1.338c.03-.037,3.052-3.739,5.45-7.367,3.422-5.177,9.429-9.865,13.821-8.358,1.835.63,3.319,2.168,4.891,3.8.81.84,1.649,1.708,2.586,2.515a26.343,26.343,0,0,0,6.063,4.06,11.516,11.516,0,0,1,4.672,3.835,7.263,7.263,0,0,1,1.438,3.068c-.032.452-.15.11-.582.23a6.169,6.169,0,0,1-.6.292" transform="translate(-43.061 -192.102)" fill="#781e77" stroke="#781f78" stroke-width="2"/><path d="M45.424,417.7a3.222,3.222,0,0,1-.528-.044,1.054,1.054,0,0,1-.382-.143L38.1,413.775c-.282.061-.751.179-1.209.294a52,52,0,0,1-12.455,1.884h-.009A57.377,57.377,0,0,1,11.2,414.033c-.4-.1-.8-.2-1.065-.253l-6.065,3.674a1.053,1.053,0,0,1-.374.138,3.17,3.17,0,0,1-3.464-4.3,1.053,1.053,0,0,1,.068-.14l2.943-5.05a174.574,174.574,0,0,1-.081-35.438l-1.1.016a1.057,1.057,0,0,1-1-.664,16.348,16.348,0,0,1-.427-5.063c.1-2.672.493-4.425,1.179-5.212a1.583,1.583,0,0,1,1.441-.574H45.326a1.6,1.6,0,0,1,1.39.525c.712.746,1.215,2.455,1.495,5.08a16.877,16.877,0,0,1-.035,4.977,1.056,1.056,0,0,1-.955.752l-1.57.085a142.692,142.692,0,0,1-.091,35.551l2.814,5.289a1.062,1.062,0,0,1,.079.192,3.17,3.17,0,0,1-3.028,4.081m-.018-2.113a1.058,1.058,0,0,0,1.044-1.275l-2.912-5.473a1.056,1.056,0,0,1-.116-.62,141.694,141.694,0,0,0,0-36.5,1.056,1.056,0,0,1,.992-1.179l1.825-.1a22.689,22.689,0,0,0-.132-3.455,11.544,11.544,0,0,0-.83-3.7H3.318a11.525,11.525,0,0,0-.569,3.754,21.221,21.221,0,0,0,.131,3.521l1.431-.02a1.057,1.057,0,0,1,1.066,1.16,173.655,173.655,0,0,0,0,36.547,1.057,1.057,0,0,1-.139.632L2.17,414.136a1.059,1.059,0,0,0,1.007,1.389l6.184-3.746a1.056,1.056,0,0,1,.374-.139,5.57,5.57,0,0,1,1.965.34,55.494,55.494,0,0,0,12.729,1.86h.008a50.145,50.145,0,0,0,11.94-1.82,5.952,5.952,0,0,1,2.122-.38,1.055,1.055,0,0,1,.358.129Z" transform="translate(0 -320.269)" fill="#781e77" stroke="#781f78" stroke-width="2"/><path d="M108.478,451.761H79.614a1.056,1.056,0,1,1,0-2.113h28.864a1.056,1.056,0,1,1,0,2.113" transform="translate(-69.665 -398.751)" fill="#781e77" stroke="#781f78" stroke-width="2"/><path d="M83.987,753.6c-12.24,0-15.92-2.949-16.071-3.075l1.353-1.623-.012-.01c.033.026,3.441,2.6,14.73,2.6,11.494,0,16.413-2.667,16.461-2.694a1.056,1.056,0,0,1,1.04,1.839c-.213.121-5.363,2.968-17.5,2.968" transform="translate(-60.228 -663.919)" fill="#781e77" stroke="#781f78" stroke-width="2"/></g></svg>