<svg xmlns="http://www.w3.org/2000/svg" width="62.552" height="56.252" viewBox="0 0 62.552 56.252">
  <g id="ico-plantaglobo" transform="translate(-10792.635 -16561)">
    <path id="Path_3981" data-name="Path 3981" d="M402.552,98.916a25.776,25.776,0,0,0,.055-17.011,1.315,1.315,0,0,0-.1-.282,25.9,25.9,0,0,0-24.343-17.15,1.352,1.352,0,0,0-1.352,1.352v49.02a1.352,1.352,0,0,0,1.352,1.352c.034,0,.066-.008.1-.009.544,0,1.083-.025,1.619-.062a1.206,1.206,0,0,0,.989-.078A25.922,25.922,0,0,0,402.5,99.06a1.413,1.413,0,0,0,.048-.143Zm-3.277-18.084h-8.224a35.4,35.4,0,0,0-7.007-12.9,23.252,23.252,0,0,1,15.231,12.9ZM379.52,67.218l.129.011a1.377,1.377,0,0,0,.236.274,32.228,32.228,0,0,1,8.32,13.331H379.52Zm0,16.318h9.425a30.571,30.571,0,0,1,.766,6.795,30.2,30.2,0,0,1-.79,6.832h-9.4Zm.318,29.881c-.106.008-.212.018-.318.024V99.865h8.648a35.112,35.112,0,0,1-8.329,13.552Zm4.327-.726a37.037,37.037,0,0,0,6.861-12.825h8.23a23.243,23.243,0,0,1-15.092,12.825Zm16.126-15.529h-8.58a33.352,33.352,0,0,0,.705-6.832,33.7,33.7,0,0,0-.687-6.795H400.3a23.18,23.18,0,0,1-.01,13.627Z" transform="translate(10451.163 16497.494)" fill="#781e77"/>
    <path id="Path_3982" data-name="Path 3982" d="M116.687,110.914h0a18.426,18.426,0,0,0,6.691-1.243l2.991,2.958a1.352,1.352,0,1,0,1.9-1.922l-2.05-2.027a1.339,1.339,0,0,0,.116-.545V66.428a1.352,1.352,0,0,0-2.7,0V79.817l-7.309-6.155a1.352,1.352,0,1,0-1.741,2.068l8.846,7.45a1.3,1.3,0,0,0,.2.117v8.239a19.282,19.282,0,0,0-2.982-3.876,28.235,28.235,0,0,0-13.208-7.046c.177-9.346,7.063-17.839,17.267-21.209a1.352,1.352,0,1,0-.848-2.567c-11.152,3.684-18.735,12.984-19.122,23.317a20.339,20.339,0,0,0-2.239-.133,13.862,13.862,0,0,0-5.575,1.059,1.352,1.352,0,0,0-.7.7c-3.015,6.919,1.11,17.715,6.854,23.456a19.148,19.148,0,0,0,13.6,5.678ZM98.51,83.359a11.676,11.676,0,0,1,3.993-.633,25.267,25.267,0,0,1,16.238,6.848,16.515,16.515,0,0,1,4.3,15.96l-9.155-9.054L113.83,90a1.352,1.352,0,0,0-1.352-1.339h-.012a1.352,1.352,0,0,0-1.339,1.364l.034,3.755-4.191-4.145a1.352,1.352,0,1,0-1.9,1.922l6.52,6.449s0,0,0,0l2.438,2.412-6.489-.635a1.351,1.351,0,0,0-.264,2.689l9.8.959,4.157,4.111a15.82,15.82,0,0,1-4.546.662h0a16.45,16.45,0,0,1-11.692-4.886c-4.868-4.867-8.608-14.107-6.484-19.966Z" transform="translate(10697.422 16504.23)" fill="#781e77"/>
  </g>
</svg>
