<svg xmlns="http://www.w3.org/2000/svg" width="40.112" height="32.089" viewBox="0 0 40.112 32.089">
  <path id="ico-safra" d="M8.017,4V18.561A9.022,9.022,0,1,0,19.99,28.067h8.423a6.2,6.2,0,0,0-.341,2.006,6.017,6.017,0,1,0,12.034,0,5.72,5.72,0,0,0-.361-2.006h2.367V22.05A4,4,0,0,0,38.1,18.039H28.153L25.365,4H8.017m4.011,4.011H22.056l2.006,10.028v6.017H19.529a9.085,9.085,0,0,0-7.5-5.957V8.011m-1,14.541a4.513,4.513,0,1,1-4.513,4.513,4.513,4.513,0,0,1,4.513-4.513m23.064,4.513a3.008,3.008,0,1,1-3.008,3.008A3.008,3.008,0,0,1,34.089,27.064Z" transform="translate(-2 -4)" fill="#fff"/>
</svg>
