<svg id="ico-mapa" xmlns="http://www.w3.org/2000/svg" width="51.865" height="51.865" viewBox="0 0 51.865 51.865">
  <g id="Boundary" fill="#fff" stroke="rgba(0,0,0,0)" stroke-width="1" opacity="0">
    <rect width="51.865" height="51.865" stroke="none"/>
    <rect x="0.5" y="0.5" width="50.865" height="50.865" fill="none"/>
  </g>
  <path id="Path_select-multiple-marker" data-name="Path / select-multiple-marker" d="M12.805,4h2.161V8.322H10.644V6.161A2.167,2.167,0,0,1,12.805,4M38.738,4A2.167,2.167,0,0,1,40.9,6.161V8.322H36.577V4h2.161M27.933,8.322V4h4.322V8.322H27.933m-8.644,0V4h4.322V8.322H19.288m0,25.933V29.933h4.322v4.322H19.288m-6.483,0a2.167,2.167,0,0,1-2.161-2.161V29.933h4.322v4.322H12.805M10.644,21.288h4.322v4.322H10.644V21.288m0-8.644h4.322v4.322H10.644V12.644m30.255,0v4.322H36.577V12.644H40.9m-36.738,0H6.322V38.577H29.186L32.32,42.9H4.161A2.167,2.167,0,0,1,2,40.738V14.805a2.167,2.167,0,0,1,2.161-2.161m33.5,8.644a7.657,7.657,0,0,1,7.564,7.564c0,5.619-7.564,14.047-7.564,14.047s-7.564-8.428-7.564-14.047a7.657,7.657,0,0,1,7.564-7.564m0,10.373a2.491,2.491,0,0,0,2.593-2.593,2.789,2.789,0,0,0-2.593-2.593,2.593,2.593,0,1,0,0,5.187Z" transform="translate(2.322 2.483)" fill="#fff"/>
</svg>
