<svg xmlns="http://www.w3.org/2000/svg" width="27.017" height="35.456" viewBox="0 0 27.017 35.456">
  <path id="ico-secproposta-1" d="M12.442,15.507a5.065,5.065,0,1,1,5.065,5.065,5.132,5.132,0,0,1-5.065-5.065M17.507,30.7l6.753,1.688v-5.2a12.73,12.73,0,0,1-6.753,1.823,12.73,12.73,0,0,1-6.753-1.823v5.2M17.507,5.377a9.758,9.758,0,0,0-7.158,2.938,9.758,9.758,0,0,0-2.971,7.192,9.758,9.758,0,0,0,2.971,7.142,9.758,9.758,0,0,0,7.158,2.988,9.758,9.758,0,0,0,7.158-2.988,9.758,9.758,0,0,0,2.971-7.142,9.758,9.758,0,0,0-2.971-7.192,9.758,9.758,0,0,0-7.158-2.938m13.507,10.13a13.574,13.574,0,0,1-.962,4.727,13.236,13.236,0,0,1-2.414,4.187V37.455l-10.13-3.377L7.377,37.455V24.421A13.338,13.338,0,0,1,4,15.507,12.966,12.966,0,0,1,7.935,5.985,13.051,13.051,0,0,1,17.507,2,13.051,13.051,0,0,1,27.08,5.985a12.966,12.966,0,0,1,3.934,9.522Z" transform="translate(-3.999 -1.999)" fill="#721d7f"/>
</svg>
