<svg xmlns="http://www.w3.org/2000/svg" width="54.578" height="59.541" viewBox="0 0 54.578 59.541"><path d="M56.163,16.992l.033-.033L43.892,4.654,40.385,8.16l6.979,6.979a8.257,8.257,0,0,0,2.944,15.977,8.455,8.455,0,0,0,3.308-.695V54.271a3.308,3.308,0,1,1-6.616,0V39.386a6.616,6.616,0,0,0-6.616-6.616H37.078V9.616A6.616,6.616,0,0,0,30.462,3H10.616A6.616,6.616,0,0,0,4,9.616V62.541H37.078V37.732h4.962V54.271a8.269,8.269,0,1,0,16.539,0V22.847a8.276,8.276,0,0,0-2.415-5.855m-25.7,20.74V55.925H10.616V32.77H30.462v4.962m0-11.577H10.616V9.616H30.462V26.155m19.847,0a3.308,3.308,0,1,1,3.308-3.308A3.308,3.308,0,0,1,50.309,26.155Z" transform="translate(-4 -3)" fill="#f57920"/></svg>