<svg xmlns="http://www.w3.org/2000/svg" width="83.219" height="73.973" viewBox="0 0 83.219 73.973">
  <path id="ico-secsafra-4" d="M110.194,53.092a1.254,1.254,0,0,0-.478.081c-7.417,2.8-11.051,10.184-12.064,18.19a44.071,44.071,0,0,0,3.386,22.917V123.55H95.6a1.257,1.257,0,1,0,0,2.514h79.7a1.257,1.257,0,1,0,0-2.514h-5.9v-11a1.259,1.259,0,0,0-1.262-1.258h-2.765V88.841l1.187-5.28a1.259,1.259,0,0,0-.954-1.5l-27.092-6.081a4.568,4.568,0,0,0-4.584-1.026l-17.334-3.89,1.849-14.979h0a1.258,1.258,0,0,0-.972-1.383l-7.037-1.578h0a1.23,1.23,0,0,0-.24-.031Zm.109,2.581,5.5,1.234L114.7,65.883l-10.63-5.215a14.106,14.106,0,0,1,6.234-4.995Zm-7.556,7.149,11.626,5.7-.4,3.283-.7,3.136-.2.9L100.15,71.673a26.376,26.376,0,0,1,2.6-8.85ZM116.16,73.546,131.4,76.964a4.572,4.572,0,0,0-.674,2.384v.588l-15.235-3.423Zm-16.236.7L112.51,78.31,110.718,83.3l-.007-.232-10.268.278a42.736,42.736,0,0,1-.521-9.107Zm35.437,2.991a2.109,2.109,0,0,1,1.5.6h0a1.338,1.338,0,0,0,.092.119,2.094,2.094,0,0,1,.482.985,2.232,2.232,0,0,1,.04.4v7.391H133.25V79.347a2.068,2.068,0,0,1,.038-.388c.01-.043.017-.085.031-.127a1.946,1.946,0,0,1,.065-.216c.021-.055.039-.112.063-.164s.044-.082.067-.124a2.08,2.08,0,0,1,.48-.595.155.155,0,0,1,.027-.021,2.114,2.114,0,0,1,.494-.3h0l.038-.017a2.172,2.172,0,0,1,.812-.157Zm-.021.994h0a1.265,1.265,0,1,0,.018,0h-.017Zm4.623.655,23.861,5.352-.664,2.971-23.173-5.2V79.347c0-.156-.01-.311-.024-.464Zm-25.022.085,15.787,3.543v4.227h-5.895A1.259,1.259,0,0,0,123.575,88v5.161a1.259,1.259,0,0,0,1.258,1.259h2L120.2,123.55H103.555V95.581l3.947.884h0a1.259,1.259,0,0,0,1.46-.8l5.948-16.585h0c.013-.036.024-.072.035-.109Zm25.046,5.621,22.867,5.131v21.575h-2.769a1.258,1.258,0,0,0-1.257,1.258v11h-8.312l-6.629-29.134h2a1.258,1.258,0,0,0,1.257-1.259V88a1.258,1.258,0,0,0-1.257-1.258h-5.895Zm-30.1,1.023-2.925,8.155-3.736-.839a37.087,37.087,0,0,1-2.3-7.075Zm16.2,3.642h18.535V91.9H126.089Zm3.32,5.161h11.9l.167.734-6.115,3.531-6.115-3.531Zm-.752,3.3,4.184,2.415-5.448,3.146Zm13.4,0,1.266,5.56-5.448-3.146Zm-6.7,3.867,8.188,4.727h0a1.263,1.263,0,0,0,.506.163l.121.533-8.814,6.214-8.813-6.214.121-.533h0a1.263,1.263,0,0,0,.506-.163Zm-9.418,8.076,7.235,5.1-10,7.049Zm18.836,0,2.765,12.15-10-7.05Zm16.572,4.154h5.532v9.733h-5.532ZM135.359,116.3l10.282,7.247H125.076Z" transform="translate(-93.843 -52.591)" fill="#781e77" stroke="rgba(0,0,0,0)" stroke-width="1" fill-rule="evenodd"/>
</svg>
