<svg xmlns="http://www.w3.org/2000/svg" width="113.333" height="113.333" viewBox="0 0 113.333 113.333">
  <path id="ico-lucro" d="M201.586,234.437h92.365a10.492,10.492,0,0,0,10.484-10.484V131.588A10.492,10.492,0,0,0,293.951,121.1H201.586A10.492,10.492,0,0,0,191.1,131.588v92.365a10.492,10.492,0,0,0,10.484,10.484Zm0-109.341h92.365a6.5,6.5,0,0,1,6.49,6.49v92.365a6.5,6.5,0,0,1-6.49,6.49H201.586a6.5,6.5,0,0,1-6.49-6.49V194.188l33.237-33.237,18.128,18.128a2,2,0,0,0,2.825,0l31.721-31.721V178.81a2,2,0,1,0,3.994,0V142.848a2,2,0,0,0-2-2H247.041a2,2,0,1,0,0,3.994H277.87l-30,30-18.128-18.128a2,2,0,0,0-2.824,0L195.1,188.54V131.588a6.5,6.5,0,0,1,6.49-6.49Z" transform="translate(-191.102 -121.104)" fill="#fff"/>
</svg>
