<svg xmlns="http://www.w3.org/2000/svg" width="33.766" height="27.013" viewBox="0 0 33.766 27.013">
  <path id="ico-secproposta-2" d="M8.753,4V15.818H5.377A3.365,3.365,0,0,0,2,19.195v6.753a5.065,5.065,0,1,0,10.13,0h3.377a5.065,5.065,0,0,0,10.13,0V19.195L18.883,4H8.753M27.325,5.688V29.325h8.442V26.792H29.857V5.688H27.325m-16.039.844h6.247L23.1,19.195H11.286V6.532M7.065,23.416a2.532,2.532,0,1,1-2.532,2.532,2.532,2.532,0,0,1,2.532-2.532m13.507,0a2.532,2.532,0,1,1-2.532,2.532A2.532,2.532,0,0,1,20.571,23.416Z" transform="translate(-2 -4)" fill="#781e77"/>
</svg>
