<svg xmlns="http://www.w3.org/2000/svg" width="25.251" height="50.275" viewBox="0 0 25.251 50.275">
  <path id="ico-baixar" d="M-7320,975.578l2.98-2.98,5.414,5.434V964.492h4.2v13.541l5.434-5.434,2.959,2.98-10.492,10.49Zm3.006-8.524a3.009,3.009,0,0,1-3.006-3.005V940.005a3.009,3.009,0,0,1,3.006-3.005h12.021l9.017,9.016v18.033a3.009,3.009,0,0,1-3.005,3.005h-5.976v-3.005h5.976v-16.53h-7.514v-7.514h-10.519v24.044h3.057v3.007Zm3.005-6.011v-3.005h7.514v3.005Zm0-6.011v-3.005h12.021v3.005Z" transform="translate(7320.707 -936.5)" fill="#6e6e6e" stroke="rgba(0,0,0,0)" stroke-miterlimit="10" stroke-width="1"/>
</svg>
