<svg xmlns="http://www.w3.org/2000/svg" width="366.081" height="69.493" viewBox="0 0 366.081 69.493">
  <g id="ico-secproposta-grupoicones" transform="translate(-671 -82.506)">
    <g id="Group_625" data-name="Group 625" transform="translate(972.481 83.736)">
      <path id="Path_2701" data-name="Path 2701" d="M1462.979,68.407a.979.979,0,0,1-.979-.979v-8.84a17.58,17.58,0,0,1,16.583-17.537A.978.978,0,1,1,1478.7,43a15.624,15.624,0,0,0-14.737,15.583v8.84a.978.978,0,0,1-.979.979" transform="translate(-1462 -2.829)" fill="#781e77"/>
      <path id="Path_2702" data-name="Path 2702" d="M1526.639,68.407a.979.979,0,0,1-.979-.979v-8.84A15.624,15.624,0,0,0,1510.923,43a.978.978,0,1,1,.112-1.954,17.58,17.58,0,0,1,16.583,17.537v8.84a.979.979,0,0,1-.979.979" transform="translate(-1463.019 -2.829)" fill="#781e77"/>
      <path id="Path_2703" data-name="Path 2703" d="M1505.491,69.236a.978.978,0,0,1-.979-.979V46.235a10.277,10.277,0,1,0-20.554,0V68.257a.979.979,0,1,1-1.958,0V46.235a12.235,12.235,0,1,1,24.469,0V68.257a.978.978,0,0,1-.979.979" transform="translate(-1462.424 -2.679)" fill="#781e77"/>
      <path id="Path_2704" data-name="Path 2704" d="M1472.852,37.7a6.851,6.851,0,1,1,6.852-6.851,6.86,6.86,0,0,1-6.852,6.851m0-11.745a4.894,4.894,0,1,0,4.894,4.894,4.9,4.9,0,0,0-4.894-4.894" transform="translate(-1462.085 -2.467)" fill="#781e77"/>
      <path id="Path_2705" data-name="Path 2705" d="M1515.852,37.7a6.851,6.851,0,1,1,6.851-6.851,6.86,6.86,0,0,1-6.851,6.851m0-11.745a4.894,4.894,0,1,0,4.894,4.894,4.9,4.9,0,0,0-4.894-4.894" transform="translate(-1462.998 -2.467)" fill="#781e77"/>
      <path id="Path_2706" data-name="Path 2706" d="M1494.724,27.448a12.724,12.724,0,1,1,12.724-12.724,12.739,12.739,0,0,1-12.724,12.724m0-23.491a10.767,10.767,0,1,0,10.767,10.767,10.779,10.779,0,0,0-10.767-10.767" transform="translate(-1462.424 -2)" fill="#781e77"/>
    </g>
    <g id="Group_622" data-name="Group 622" transform="translate(883.543 84.965)">
      <path id="Path_2691" data-name="Path 2691" d="M750.979,50.7H750v-.979A12.738,12.738,0,0,1,762.724,37h.979v.979A12.739,12.739,0,0,1,750.979,50.7m10.718-11.7a10.785,10.785,0,0,0-9.69,9.69,10.785,10.785,0,0,0,9.69-9.69" transform="translate(-714.764 -3.245)" fill="#781e77"/>
      <path id="Path_2692" data-name="Path 2692" d="M727.7,33.7h-.979A12.739,12.739,0,0,1,714,20.979V20h.979A12.738,12.738,0,0,1,727.7,32.724Zm-11.7-11.7a10.785,10.785,0,0,0,9.69,9.69,10.785,10.785,0,0,0-9.69-9.69" transform="translate(-714 -2.884)" fill="#781e77"/>
      <rect id="Rectangle_438" data-name="Rectangle 438" width="1.23" height="27.052" transform="translate(11.877 9.837)" fill="#781e77"/>
      <rect id="Rectangle_439" data-name="Rectangle 439" width="1.23" height="19.674" transform="translate(11.877 40.578)" fill="#781e77"/>
      <rect id="Rectangle_440" data-name="Rectangle 440" width="2.459" height="24.593" transform="translate(22.944 0)" fill="#781e77"/>
      <rect id="Rectangle_441" data-name="Rectangle 441" width="2.459" height="31.97" transform="translate(22.944 28.282)" fill="#781e77"/>
      <rect id="Rectangle_442" data-name="Rectangle 442" width="2.459" height="15.985" transform="translate(34.01 9.837)" fill="#781e77"/>
      <rect id="Rectangle_443" data-name="Rectangle 443" width="2.459" height="31.97" transform="translate(34.01 28.282)" fill="#781e77"/>
      <rect id="Rectangle_444" data-name="Rectangle 444" width="46.726" height="2.459" transform="translate(0.811 62.711)" fill="#781e77"/>
    </g>
    <g id="Group_620" data-name="Group 620" transform="translate(779.514 84.965)">
      <path id="Path_2684" data-name="Path 2684" d="M249.788,38.276A9.8,9.8,0,0,1,240,28.488c0-5.05,8.558-21.3,8.922-21.99l.865-1.638.865,1.638c.364.689,8.922,16.941,8.922,21.99a9.8,9.8,0,0,1-9.788,9.788m0-29.2c-2.788,5.449-7.83,16.011-7.83,19.409a7.83,7.83,0,1,0,15.66,0c0-3.4-5.043-13.96-7.83-19.409" transform="translate(-217.239 -4.859)" fill="#781e77"/>
      <path id="Path_2685" data-name="Path 2685" d="M234.757,57.918a5.57,5.57,0,0,1-1.359-.17c-2.182-.54-3.411-2.129-4.6-3.665-1.275-1.648-2.592-3.352-5.245-4.18a11.3,11.3,0,0,0-6.31.011l-.5-1.891a13.211,13.211,0,0,1,7.393.011c3.241,1.013,4.818,3.052,6.21,4.852,1.118,1.446,2,2.586,3.521,2.964,2.133.523,3.756-.838,6.227-3.109,2.409-2.219,5.141-4.73,9.194-4.751h.05c4.03,0,6.7,2.491,9.05,4.692,2.46,2.3,4.083,3.68,6.345,3.163,1.656-.381,2.811-1.62,4.147-3.055,1.8-1.937,3.848-4.132,7.653-4.787a12.686,12.686,0,0,1,4.24,0l-.32,1.93a10.8,10.8,0,0,0-3.589,0c-3.154.542-4.881,2.4-6.55,4.19-1.426,1.532-2.9,3.114-5.141,3.629-3.391.782-5.8-1.467-8.122-3.641-2.19-2.048-4.455-4.165-7.715-4.165H249.3c-3.295.017-5.626,2.161-7.878,4.234-2,1.842-4.065,3.737-6.663,3.737" transform="translate(-216.745 -5.764)" fill="#781e77"/>
      <path id="Path_2686" data-name="Path 2686" d="M234.757,69.919a5.619,5.619,0,0,1-1.359-.17c-2.182-.541-3.411-2.13-4.6-3.666-1.275-1.648-2.592-3.352-5.245-4.18a11.3,11.3,0,0,0-6.31.012l-.5-1.892a13.238,13.238,0,0,1,7.393.011c3.241,1.013,4.818,3.053,6.21,4.852,1.118,1.446,2,2.587,3.521,2.964,2.133.524,3.756-.838,6.227-3.109,2.409-2.218,5.141-4.729,9.194-4.751h.05c4.03,0,6.7,2.492,9.05,4.692,2.46,2.3,4.083,3.678,6.345,3.163,1.656-.381,2.811-1.62,4.147-3.055,1.8-1.937,3.848-4.132,7.653-4.786a12.686,12.686,0,0,1,4.24,0l-.32,1.931a10.827,10.827,0,0,0-3.589,0c-3.154.542-4.881,2.4-6.55,4.19-1.426,1.532-2.9,3.114-5.141,3.629-3.391.779-5.8-1.468-8.122-3.642-2.19-2.046-4.455-4.164-7.715-4.164H249.3c-3.295.018-5.626,2.161-7.878,4.234-2,1.841-4.065,3.738-6.663,3.738" transform="translate(-216.745 -6.018)" fill="#781e77"/>
    </g>
    <g id="Group_619" data-name="Group 619" transform="translate(671 82.506)">
      <path id="Path_2679" data-name="Path 2679" d="M15.132,9.45,13.954,7.886A33.963,33.963,0,0,1,34.553,1V2.958A32.018,32.018,0,0,0,15.132,9.45" transform="translate(-0.296 -0.021)" fill="#781e77"/>
      <path id="Path_2680" data-name="Path 2680" d="M19.037,15.306l-1.2-1.545A27.132,27.132,0,0,1,34.636,8V9.958a25.2,25.2,0,0,0-15.6,5.348" transform="translate(-0.379 -0.17)" fill="#781e77"/>
      <path id="Path_2681" data-name="Path 2681" d="M34.406,63.035A27.437,27.437,0,0,1,7,35.629a27.1,27.1,0,0,1,6.008-17.113l1.528,1.223a25.163,25.163,0,0,0-5.578,15.89,25.448,25.448,0,1,0,50.9,0c0-.567-.024-1.166-.077-1.886l1.953-.143c.056.769.082,1.413.082,2.029A27.437,27.437,0,0,1,34.406,63.035" transform="translate(-0.149 -0.393)" fill="#781e77"/>
      <path id="Path_2682" data-name="Path 2682" d="M34.257,69.758A34.257,34.257,0,0,1,8.915,12.45l1.449,1.317A32.3,32.3,0,1,0,66.556,35.5c0-.638-.023-1.271-.061-1.9l1.955-.115c.039.668.064,1.339.064,2.015A34.3,34.3,0,0,1,34.257,69.758" transform="translate(0 -0.264)" fill="#781e77"/>
      <path id="Path_2683" data-name="Path 2683" d="M43.734,49.288v-20.9H31.462L44.077,0H63.991L52.31,19.576H63.161Zm-9.26-22.86H45.691V42.718L59.543,21.533H48.862L60.543,1.958H45.349Z" transform="translate(-0.668 0)" fill="#781e77"/>
    </g>
  </g>
</svg>
