<svg xmlns="http://www.w3.org/2000/svg" width="40" height="73.294" viewBox="0 0 40 73.294"><g transform="translate(-6511.669 3343)" opacity="0.47"><path d="M299.715,442.6l-2.273,2.273-2.273-2.273a.682.682,0,0,0-.964.964l2.755,2.755a.666.666,0,0,0,.964,0l2.755-2.755a.682.682,0,0,0-.964-.964Z" transform="translate(6234.227 -3716.235)" fill="#fff" opacity="0.11"/><path d="M300.68,381.006a.666.666,0,0,0-.964,0l-2.273,2.273-2.273-2.273a.682.682,0,0,0-.964.964l2.755,2.755a.666.666,0,0,0,.964,0l2.755-2.755a.666.666,0,0,0,0-.964Z" transform="translate(6234.227 -3658.427)" fill="#fff" opacity="0.11"/><path d="M289.2,90.4v-20a20,20,0,1,0-40,0v20a20,20,0,1,0,40,0Zm-20,15.555A15.6,15.6,0,0,1,253.645,90.4v-20a15.555,15.555,0,0,1,31.11,0v20A15.6,15.6,0,0,1,269.2,105.955Z" transform="translate(6262.469 -3393.4)" fill="#fff"/><path d="M341.023,112a2.228,2.228,0,0,0-2.222,2.222v6.667a2.222,2.222,0,0,0,4.444,0v-6.667A2.228,2.228,0,0,0,341.023,112Z" transform="translate(6190.646 -3442.778)" fill="#fff"/></g></svg>