<svg xmlns="http://www.w3.org/2000/svg" width="40" height="60" viewBox="0 0 40 60">
  <g id="scroll" transform="translate(-6511.669 3350)">
    <path id="Path_4213" data-name="Path 4213" d="M289.2,90.4v-20a20,20,0,1,0-40,0v20a20,20,0,1,0,40,0Zm-20,15.555A15.6,15.6,0,0,1,253.645,90.4v-20a15.555,15.555,0,0,1,31.11,0v20A15.6,15.6,0,0,1,269.2,105.955Z" transform="translate(6262.469 -3400.4)" fill="#fff"/>
    <path id="Path_4214" data-name="Path 4214" d="M341.023,112a2.228,2.228,0,0,0-2.222,2.222v6.667a2.222,2.222,0,0,0,4.444,0v-6.667A2.228,2.228,0,0,0,341.023,112Z" transform="translate(6190.646 -3451.778)" fill="#fff"/>
  </g>
</svg>
