<svg xmlns="http://www.w3.org/2000/svg" width="40.112" height="42.18" viewBox="0 0 40.112 42.18"><path d="M17.323,25.869a11.278,11.278,0,0,0-7.3-2.808v6.017L2,21.056l8.022-8.022V19.05a15.306,15.306,0,0,1,9.286,3.189,15.984,15.984,0,0,0-1.986,3.63m16.767,3.209V23.062c-1,0-9.025.321-9.928,8.423a6.02,6.02,0,1,1-7.681,3.67,5.9,5.9,0,0,1,3.67-3.67A13.533,13.533,0,0,1,34.089,19.05V13.034l8.022,8.022-8.022,8.022M24.061,37.1a2.006,2.006,0,1,0-2.006,2.006A2.006,2.006,0,0,0,24.061,37.1M20.05,21.3a17.561,17.561,0,0,1,4.011-3.389V9.022h6.017L22.056,1,14.034,9.022H20.05Z" transform="translate(-2 -1)" fill="#fff"/></svg>