<svg xmlns="http://www.w3.org/2000/svg" width="11" height="21.79" viewBox="0 0 11 21.79">
  <path id="ico-bullet-planta" d="M7.33,18.33A6.2,6.2,0,0,1,6.5,14.5a14.373,14.373,0,0,1,4.17,3.17l.33.56V15.95a12.5,12.5,0,0,1-3.67-2.87A6.2,6.2,0,0,1,6.5,9.25a14.373,14.373,0,0,1,4.17,3.17L11,13V10.7A12.5,12.5,0,0,1,7.33,7.83,6.2,6.2,0,0,1,6.5,4a14.373,14.373,0,0,1,4.17,3.17,3.35,3.35,0,0,1,.27.45,7.185,7.185,0,0,1-.29-1.8,12.189,12.189,0,0,1,1.31-4.61,11.255,11.255,0,0,1,1.39,4.48,6.575,6.575,0,0,1-.28,1.9,4.785,4.785,0,0,1,.26-.42A14.373,14.373,0,0,1,17.5,4a6.2,6.2,0,0,1-.83,3.83A12.5,12.5,0,0,1,13,10.7V13l.33-.58A14.373,14.373,0,0,1,17.5,9.25a6.2,6.2,0,0,1-.83,3.83A12.5,12.5,0,0,1,13,15.95v2.28l.33-.56A14.373,14.373,0,0,1,17.5,14.5a6.2,6.2,0,0,1-.83,3.83A12.5,12.5,0,0,1,13,21.2V23H11V21.2A12.5,12.5,0,0,1,7.33,18.33Z" transform="translate(-6.5 -1.21)" fill="#781e77"/>
</svg>
