<svg xmlns="http://www.w3.org/2000/svg" width="83.565" height="57.325" viewBox="0 0 83.565 57.325">
  <g id="ico-secsafra-2" transform="translate(-87.504 -99.576)">
    <path id="Path_5501" data-name="Path 5501" d="M125.107,112.278a10.69,10.69,0,0,0-5.195-.279l-4.735.181a2.576,2.576,0,0,0-1.268-2.075l-9.554-6.1h0a1.393,1.393,0,0,0-1.936.432L87.713,127.975a1.392,1.392,0,0,0,.459,1.922l9.373,5.71a2.616,2.616,0,0,0,2.34.251l2.131,1.393a4.847,4.847,0,0,0,2.953,7.716,4.929,4.929,0,0,0,4.568,6.211h.181a4.82,4.82,0,0,0,2.117-.5,4.952,4.952,0,0,0,1.17,2.172,4.834,4.834,0,0,0,6.491.543,4.978,4.978,0,0,0,1.128,1.964,4.888,4.888,0,0,0,6.894.237l1.518-1.393,2.563,1.671h0a4.875,4.875,0,0,0,7.521-3.621,4.858,4.858,0,0,0,1.616.292,4.943,4.943,0,0,0,4.93-4.9,4.931,4.931,0,0,0,5.237-5.683,4.888,4.888,0,0,0,3.454-7.284l4.485-2.59a2.793,2.793,0,0,0,.612.167h.4a2.788,2.788,0,0,0,1.671-.557l8.983-6.727h0a1.392,1.392,0,0,0,.292-1.935l-16.713-22.882a1.392,1.392,0,0,0-1.963-.293l-9.289,6.964a2.786,2.786,0,0,0-1.058,2.785l-8.356.335a19.5,19.5,0,0,0-8.315,2.34ZM90.818,128.293l13.189-21.155,8.356,5.362-1.992,3.106L99.007,133.224Zm12.939,11.894a2.075,2.075,0,0,1,.668-1.393l.7-.655,2.577-2.4a2.074,2.074,0,0,1,1.393-.557h.07a2.118,2.118,0,0,1,1.5.71,2.089,2.089,0,0,1-.1,2.953l-3.245,2.953a2.133,2.133,0,0,1-3.551-1.658Zm5.821,8.356a2.119,2.119,0,0,1-1.49-.752,2.089,2.089,0,0,1,.1-2.953l1.5-1.393,2.785-2.646,3.05-2.785a2.062,2.062,0,0,1,1.393-.557,2.173,2.173,0,0,1,1.587.711,2.089,2.089,0,0,1-.1,2.952l-2.6,2.437-2.785,2.549-2.047,1.908a2.171,2.171,0,0,1-1.379.446Zm5.348,2.507a2.089,2.089,0,0,1,.1-2.953l6.992-6.518h0a2.075,2.075,0,0,1,1.393-.557h.07a2.113,2.113,0,0,1,1.5.71,2.089,2.089,0,0,1-.1,2.953l-3.44,3.106-.683.64-2.785,2.618h0a2.1,2.1,0,0,1-3.036-.084Zm7.618,2.521h0a2.089,2.089,0,0,1,.112-2.994l.683-.64,1.49-1.393h0a2.074,2.074,0,0,1,1.393-.557h.07a2.115,2.115,0,0,1,1.5.71,2.089,2.089,0,0,1-.1,2.953l-2.131,1.992a2.1,2.1,0,0,1-3.008-.153ZM151.9,138.391a2.173,2.173,0,0,1-2.785.738,4.306,4.306,0,0,0-.515-.376L141.54,134.2h0a1.8,1.8,0,0,0-.446-.223,1.393,1.393,0,0,0-1.393,2.3,3.889,3.889,0,0,0,.724.376l6.964,4.61h.083a2.116,2.116,0,0,1,.251,2.646,2.2,2.2,0,0,1-2.925.627l-.919-.585h0a4.568,4.568,0,0,0-.515-.4l-1.824-1.184-4.178-2.716a1.392,1.392,0,0,0-1.685.167,1.294,1.294,0,0,0-.154.125,1.367,1.367,0,0,0-.1.167,1.411,1.411,0,0,0-.153.279,1.345,1.345,0,0,0,0,.265.614.614,0,0,0,0,.431,1.388,1.388,0,0,0,0,.279,1.341,1.341,0,0,0,.126.181,1.376,1.376,0,0,0,.167.251,3.894,3.894,0,0,0,.669.515l5.961,3.858a2.089,2.089,0,0,1,.264,2.632,2.186,2.186,0,0,1-2.938.64l-1.811-1.184h-.153a5.044,5.044,0,0,0-.711-.557l-3.147-2.02a1.393,1.393,0,1,0-1.5,2.34l3.147,2.02a2.131,2.131,0,0,1,.64,2.939,2.228,2.228,0,0,1-2.938.64l-2.312-1.49a4.93,4.93,0,0,0-.92-5.389,4.836,4.836,0,0,0-2.061-1.3,4.828,4.828,0,0,0,.627-2.172,4.9,4.9,0,0,0-6.574-4.8,4.959,4.959,0,0,0-1.225-2.34,4.875,4.875,0,0,0-6.741-.348,4.967,4.967,0,0,0-1.114-1.936,4.875,4.875,0,0,0-6.894-.237l-1.783,1.658-2.131-1.393,10.167-15.807,1.963-3.05,6.045-.223h.237l.515-.07-5.167,2.981h0a5.635,5.635,0,1,0,5.655,9.749l8.552-5.348h0a3.468,3.468,0,0,1,4.109.307l6.587,5.571c.905.766,1.769,1.462,2.66,2.117,1.156.864,2.34,1.685,3.51,2.424l4.443,2.785h.1a2.118,2.118,0,0,1,.627,3.009Zm.794-35.346,15.041,20.528-7.882,5.905-3.2-4.248L144.6,109.06Zm-9.206,9.387,7.479,9.986,5.78,7.729-4.54,2.618-3.97-2.66c-1.114-.71-2.242-1.476-3.342-2.3-.836-.627-1.658-1.281-2.521-2.006l-6.587-5.571a6.253,6.253,0,0,0-7.4-.543l-8.509,5.32a2.819,2.819,0,1,1-2.785-4.9l8.857-5.111a16.713,16.713,0,0,1,7.674-2.228Z" transform="translate(0 0)" fill="#05c3de"/>
    <path id="Path_5502" data-name="Path 5502" d="M137.283,255.5a2.8,2.8,0,1,1-2.8-2.8,2.8,2.8,0,0,1,2.8,2.8" transform="translate(-37.148 -128.752)" fill="#05c3de"/>
  </g>
</svg>
