<svg xmlns="http://www.w3.org/2000/svg" width="72.217" height="72.217" viewBox="0 0 72.217 72.217">
  <path id="ico-secsafra-1" d="M149.569,78.44V35.56a1.13,1.13,0,0,0-1.388-1.106l-15.911,3.836-1.885-25.377a1.133,1.133,0,0,0-1.128-1.05h-6.771a1.132,1.132,0,0,0-1.128,1.049l-2.11,28.537-3.791.914a1.121,1.121,0,0,0-.869,1.1V58.128h-9.027V57h1.128a3.385,3.385,0,1,0,0-6.77h-1.128V41.2h1.128a3.385,3.385,0,1,0,0-6.77h-1.128V25.4h1.128a3.385,3.385,0,1,0,0-6.77H105.5a11.284,11.284,0,0,0-22.455,0H81.865a3.389,3.389,0,0,0-3.385,3.385A3.4,3.4,0,0,0,81.865,25.4h1.128v9.027H81.865a3.389,3.389,0,0,0-3.385,3.385A3.4,3.4,0,0,0,81.865,41.2h1.128v9.027H81.865a3.389,3.389,0,0,0-3.385,3.385A3.4,3.4,0,0,0,81.865,57h1.128v9.039H81.865a3.389,3.389,0,0,0-3.385,3.385,3.4,3.4,0,0,0,3.385,3.385h1.128v5.631H79.608a1.128,1.128,0,0,0,0,2.257h69.961a1.128,1.128,0,1,0,0-2.257Zm-11.284,0H125.873v-15.8h12.412ZM122.86,23.148h6.014l.248,3.385h-6.511Zm5.349-9.027.5,6.771h-5.676l.5-6.771ZM122.442,28.79h6.85l.745,10.054L121.551,40.9Zm-5.6,15.561,30.467-7.357V78.44h-6.771V62.225a1.84,1.84,0,0,0-1.84-1.84H125.456a1.84,1.84,0,0,0-1.84,1.84V78.441h-6.771ZM94.277,10.735a9.042,9.042,0,0,1,8.959,7.9H85.317a9.044,9.044,0,0,1,8.96-7.9ZM80.736,22.02a1.132,1.132,0,0,1,.35-.8,1.049,1.049,0,0,1,.779-.328H106.69a1.128,1.128,0,0,1,0,2.257H81.864a1.132,1.132,0,0,1-1.128-1.128ZM85.25,25.4H103.3v9.027H85.25ZM80.736,37.817a1.132,1.132,0,0,1,.35-.8,1.049,1.049,0,0,1,.779-.327H106.69a1.128,1.128,0,0,1,0,2.257H81.864a1.132,1.132,0,0,1-1.128-1.128ZM85.25,41.2H103.3v9.027H85.25ZM80.736,53.614a1.132,1.132,0,0,1,.35-.8,1.049,1.049,0,0,1,.779-.327H106.69a1.128,1.128,0,0,1,0,2.257H81.864a1.132,1.132,0,0,1-1.128-1.128ZM85.25,57H103.3v9.039H85.25ZM80.736,69.423a1.132,1.132,0,0,1,.35-.8,1.065,1.065,0,0,1,.779-.327H106.69a1.128,1.128,0,0,1,0,2.257H81.864a1.132,1.132,0,0,1-1.128-1.129ZM103.3,72.809v5.631H85.25V72.809Zm2.257,0h1.128a3.385,3.385,0,1,0,0-6.77h-1.128V60.385h9.027V78.44h-9.027Z" transform="translate(-78.48 -8.478)" fill="#05c3de"/>
</svg>
