<svg xmlns="http://www.w3.org/2000/svg" width="36" height="36" viewBox="0 0 36 36">
  <path id="ico-secmodelounico-5" d="M4.8,3H6.6V6.6H3V4.8A1.805,1.805,0,0,1,4.8,3M33.6,3a1.805,1.805,0,0,1,1.8,1.8V6.6H31.8V3h1.8m-9,3.6V3h3.6V6.6H24.6m-7.2,0V3H21V6.6H17.4m-7.2,0V3h3.6V6.6H10.2m7.2,28.8V31.8H21v3.6H17.4m-7.2,0V31.8h3.6v3.6H10.2m-5.4,0A1.805,1.805,0,0,1,3,33.6V31.8H6.6v3.6H4.8M3,24.6H6.6v3.6H3V24.6m0-7.2H6.6V21H3V17.4m0-7.2H6.6v3.6H3V10.2m32.4,0v3.6H31.8V10.2h3.6M32.7,21A6.378,6.378,0,0,1,39,27.3C39,31.98,32.7,39,32.7,39s-6.3-7.02-6.3-11.7A6.378,6.378,0,0,1,32.7,21m0,8.64a2.075,2.075,0,0,0,2.16-2.16,2.323,2.323,0,0,0-2.16-2.16,2.16,2.16,0,0,0,0,4.32Z" transform="translate(-3 -3)" fill="#fdb515"/>
</svg>
