<svg xmlns="http://www.w3.org/2000/svg" width="73.066" height="75.189" viewBox="0 0 73.066 75.189">
  <g id="ico-redessociais" transform="translate(-1600 -24080)">
    <g id="Group_851" data-name="Group 851" transform="translate(1638.682 24080)">
      <g id="Group_848" data-name="Group 848" transform="translate(0 40.805)">
        <path id="Path_4236" data-name="Path 4236" d="M34.384,290.1a17.192,17.192,0,1,1-17.192-17.192A17.192,17.192,0,0,1,34.384,290.1" transform="translate(0 -272.909)" fill="#781e77"/>
        <g id="MDI_linkedin" data-name="MDI / linkedin" transform="translate(5.23 5.83)">
          <g id="Boundary" fill="#fff" stroke="rgba(0,0,0,0)" stroke-width="1" opacity="0">
            <rect width="23.323" height="23.323" stroke="none"/>
            <rect x="0.5" y="0.5" width="22.323" height="22.323" fill="none"/>
          </g>
          <path id="Path_linkedin" data-name="Path / linkedin" d="M18.549,3a1.944,1.944,0,0,1,1.944,1.944V18.549a1.944,1.944,0,0,1-1.944,1.944H4.944A1.944,1.944,0,0,1,3,18.549V4.944A1.944,1.944,0,0,1,4.944,3H18.549m-.486,15.063V12.912a3.168,3.168,0,0,0-3.168-3.168,2.816,2.816,0,0,0-2.255,1.263V9.929H9.929v8.134H12.64V13.272a1.356,1.356,0,1,1,2.711,0v4.791h2.711M6.771,8.4A1.637,1.637,0,1,0,5.128,6.771,1.633,1.633,0,0,0,6.771,8.4m1.351,9.66V9.929H5.429v8.134Z" transform="translate(-0.085 -0.085)" fill="#fff"/>
        </g>
      </g>
      <g id="Group_847" data-name="Group 847" transform="translate(0 0)">
        <path id="Path_4236-2" data-name="Path 4236" d="M34.384,290.1a17.192,17.192,0,1,1-17.192-17.192A17.192,17.192,0,0,1,34.384,290.1" transform="translate(0 -272.909)" fill="#781e77"/>
        <path id="Path_4237" data-name="Path 4237" d="M26.616,287.953a4.128,4.128,0,0,0-4.128-4.128H11.932A4.129,4.129,0,0,0,7.8,287.953v4.912a4.129,4.129,0,0,0,4.129,4.128H22.488a4.128,4.128,0,0,0,4.128-4.128Zm-6.208,2.824-4.734,2.342c-.186.1-.816-.034-.816-.245v-4.807c0-.214.636-.348.821-.242l4.531,2.465c.19.108.39.383.2.487" transform="translate(-0.22 -273.217)" fill="#fff"/>
      </g>
    </g>
    <g id="Group_850" data-name="Group 850" transform="translate(1600 24080)">
      <g id="Group_846" data-name="Group 846" transform="translate(0 40.805)">
        <g id="Group_844" data-name="Group 844" transform="translate(0 0)">
          <path id="Path_4230" data-name="Path 4230" d="M34.384,71.774A17.192,17.192,0,1,1,17.192,54.582,17.192,17.192,0,0,1,34.384,71.774" transform="translate(0 -54.582)" fill="#781e77"/>
          <path id="Path_4231" data-name="Path 4231" d="M26.923,66.157a7.747,7.747,0,0,1-1.9.54c.305-.051.752-.6.932-.826a3.489,3.489,0,0,0,.63-1.148c.017-.033.028-.074,0-.1a.108.108,0,0,0-.1.009,9.693,9.693,0,0,1-2.248.86.151.151,0,0,1-.155-.041,1.841,1.841,0,0,0-.2-.2,3.99,3.99,0,0,0-1.089-.667,3.777,3.777,0,0,0-1.671-.269,4,4,0,0,0-1.584.447,4.08,4.08,0,0,0-1.279,1.045,3.935,3.935,0,0,0-.764,1.529,4.141,4.141,0,0,0-.04,1.614c.012.09,0,.1-.078.09a12.009,12.009,0,0,1-7.725-3.932c-.09-.1-.139-.1-.214.008a3.918,3.918,0,0,0,.669,4.629c.151.144.307.287.474.418a3.949,3.949,0,0,1-1.491-.418c-.09-.057-.135-.024-.144.078a2.4,2.4,0,0,0,.025.443,3.961,3.961,0,0,0,2.441,3.157,2.25,2.25,0,0,0,.5.152,4.453,4.453,0,0,1-1.463.046c-.106-.02-.147.032-.106.135a4.113,4.113,0,0,0,3.072,2.572c.139.024.278.024.418.056-.009.013-.017.013-.025.025a4.864,4.864,0,0,1-2.1,1.112,7.529,7.529,0,0,1-3.187.408c-.171-.025-.207-.023-.254,0s-.006.07.049.114c.218.144.438.271.664.394a10.532,10.532,0,0,0,2.13.852,11.345,11.345,0,0,0,11.013-2.575,11.557,11.557,0,0,0,3.048-8.431c0-.121.143-.188.228-.252a7.452,7.452,0,0,0,1.5-1.559.473.473,0,0,0,.1-.3v-.017c0-.05,0-.035-.077,0" transform="translate(-0.233 -54.856)" fill="#fff"/>
        </g>
      </g>
      <g id="Group_845" data-name="Group 845" transform="translate(0 0)">
        <path id="Path_4232" data-name="Path 4232" d="M34.384,17.192A17.192,17.192,0,1,1,17.192,0,17.192,17.192,0,0,1,34.384,17.192" fill="#781e77"/>
        <path id="Path_4233" data-name="Path 4233" d="M23.148,11a1.182,1.182,0,1,0,1.182,1.182A1.182,1.182,0,0,0,23.148,11" transform="translate(-0.619 -0.31)" fill="#fff"/>
        <path id="Path_4234" data-name="Path 4234" d="M17.632,12.558A4.964,4.964,0,1,0,22.6,17.522a4.969,4.969,0,0,0-4.964-4.964m0,8.144a3.18,3.18,0,1,1,3.18-3.18,3.184,3.184,0,0,1-3.18,3.18" transform="translate(-0.357 -0.354)" fill="#fff"/>
        <path id="Path_4235" data-name="Path 4235" d="M21.422,27.452H13.374A6.061,6.061,0,0,1,7.32,21.4V13.349a6.06,6.06,0,0,1,6.054-6.054h8.047a6.061,6.061,0,0,1,6.055,6.054V21.4a6.062,6.062,0,0,1-6.055,6.054M13.374,9.191a4.162,4.162,0,0,0-4.158,4.158V21.4a4.163,4.163,0,0,0,4.158,4.158h8.047A4.164,4.164,0,0,0,25.581,21.4V13.349a4.163,4.163,0,0,0-4.159-4.158Z" transform="translate(-0.206 -0.207)" fill="#fff"/>
      </g>
    </g>
  </g>
</svg>
