<svg id="iico-secproposta-4" xmlns="http://www.w3.org/2000/svg" width="80" height="80" viewBox="0 0 80 80">
  <g id="Boundary" fill="#781f78" stroke="rgba(0,0,0,0)" stroke-width="1" opacity="0">
    <rect width="80" height="80" stroke="none"/>
    <rect x="0.5" y="0.5" width="79" height="79" fill="none"/>
  </g>
  <path id="Path_weather-partly-cloudy" data-name="Path / weather-partly-cloudy" d="M39.993,13.987a18.325,18.325,0,0,1,10.6,19.967,20.006,20.006,0,0,1,6.933,15.133v.567A10,10,0,1,1,60.86,69.087H17.527a13.333,13.333,0,1,1,0-26.667h.9A18.346,18.346,0,0,1,39.993,13.987m-2.7,6.1a11.667,11.667,0,0,0-15.067,16.1A20.073,20.073,0,0,1,44.193,30.22a11.687,11.687,0,0,0-6.9-10.133m5.4-12.2a26.214,26.214,0,0,0-5.567-1.733l8.3-4.333,3,9.633a25.569,25.569,0,0,0-5.733-3.567M17.827,10.553a23.289,23.289,0,0,0-4.3,3.967l.367-9.367L23.76,7.42a22.1,22.1,0,0,0-5.933,3.133m39.7,17.567a32.3,32.3,0,0,0-1.367-5.7l7.933,5L57.26,34.853a28.221,28.221,0,0,0,.267-6.733M7.66,33.42a25.563,25.563,0,0,0,1.3,5.667l-7.9-5,6.8-7.4a26.622,26.622,0,0,0-.2,6.733m53.2,22.333h-10V49.087a13.333,13.333,0,0,0-26.667,0H17.527a6.667,6.667,0,1,0,0,13.333H60.86a3.333,3.333,0,0,0,0-6.667Z" transform="translate(5.608 4.847)" fill="#781f78"/>
</svg>
