<svg xmlns="http://www.w3.org/2000/svg" xmlns:xlink="http://www.w3.org/1999/xlink" width="271" height="235" viewBox="0 0 271 235">
  <defs>
    <clipPath id="clip-path">
      <rect id="Rectangle_542" data-name="Rectangle 542" width="271" height="235" transform="translate(0 0.001)" fill="none"/>
    </clipPath>
  </defs>
  <g id="Group_824" data-name="Group 824" transform="translate(0 0.193)">
    <rect id="Rectangle_540" data-name="Rectangle 540" width="271" height="235" transform="translate(0 -0.192)" fill="#f10037"/>
    <g id="Group_823" data-name="Group 823" transform="translate(0 -0.193)">
      <g id="Group_822" data-name="Group 822" transform="translate(0 0)" clip-path="url(#clip-path)">
        <path id="Path_4150" data-name="Path 4150" d="M87.318,180.3l-2.269,6.713H77.834L88.491,156.1h9.22l11.134,30.911h-7.695L98.743,180.3Zm9.817-5.932c-2.142-6.3-3.495-10.357-4.253-13.155h-.045c-.756,3.024-2.257,7.777-3.972,13.155Z" transform="translate(-11.525 -22.913)" fill="#fff"/>
        <path id="Path_4151" data-name="Path 4151" d="M131.827,156.1h7.3v24.979h15.5l-.834,5.932H131.827Z" transform="translate(-19.519 -22.913)" fill="#fff"/>
        <rect id="Rectangle_541" data-name="Rectangle 541" width="7.299" height="30.911" transform="translate(139.002 133.192)" fill="#fff"/>
        <path id="Path_4152" data-name="Path 4152" d="M184.744,177.763c.7,2.922,2.853,4.21,6.469,4.21,3.5,0,4.919-1.254,4.919-3.35,0-2.345-1.469-3.329-6.736-4.492-8.947-2-10.929-5.221-10.929-9.359,0-5.644,4.415-9.221,11.814-9.221,8.686,0,11.955,4.584,12.391,9.066h-7.338c-.3-1.7-1.228-3.712-5.243-3.712-2.634,0-4.191,1.019-4.191,3.035,0,1.959,1.236,2.771,6.241,3.886,9.408,2.117,11.43,5.477,11.43,9.921,0,5.725-4.364,9.656-12.96,9.656-8.131,0-12.423-3.869-13.2-9.64Z" transform="translate(-26.268 -22.831)" fill="#fff"/>
        <path id="Path_4153" data-name="Path 4153" d="M218.882,162.03h-9.474V156.1h26.2v5.925H226.18v24.986h-7.3Z" transform="translate(-31.006 -22.913)" fill="#fff"/>
        <path id="Path_4154" data-name="Path 4154" d="M104.135,241.015v-.245c0-4.259,2.8-8.668,8.875-13.269,4.724-3.6,6.007-4.75,6.007-8.007,0-2.954-1.569-5.192-5.11-5.192-3.57,0-5.247,1.862-5.866,5.463h-3.854c.519-4.989,3.7-8.755,9.72-8.755,6.607,0,9.174,4.251,9.174,8.381,0,4.458-1.893,6.2-7.341,10.411-4.059,3.141-6.225,5.5-6.962,7.75h15.465l-.562,3.462Z" transform="translate(-15.419 -31.042)" fill="#fff"/>
        <path id="Path_4155" data-name="Path 4155" d="M152.879,226.074c0,7.3-2.08,15.48-10.311,15.48-8.054,0-10.281-7.652-10.281-15.271,0-7.559,2.425-15.272,10.416-15.272,7.909,0,10.176,7.522,10.176,15.063m-16.435.205c0,5.606.971,11.936,6.156,11.936,5.223,0,6.134-6.017,6.134-12.125,0-5.675-.974-11.74-6-11.74-5.155,0-6.287,5.454-6.287,11.929" transform="translate(-19.587 -31.042)" fill="#fff"/>
        <path id="Path_4156" data-name="Path 4156" d="M161.542,241.015v-.245c0-4.259,2.8-8.668,8.875-13.269,4.724-3.6,6.007-4.75,6.007-8.007,0-2.954-1.569-5.192-5.11-5.192-3.571,0-5.247,1.862-5.866,5.463h-3.854c.519-4.989,3.7-8.755,9.72-8.755,6.607,0,9.174,4.251,9.174,8.381,0,4.458-1.893,6.2-7.341,10.411-4.059,3.141-6.225,5.5-6.962,7.75H181.65l-.562,3.462Z" transform="translate(-23.919 -31.042)" fill="#fff"/>
        <path id="Path_4157" data-name="Path 4157" d="M210.286,226.074c0,7.3-2.08,15.48-10.311,15.48-8.054,0-10.281-7.652-10.281-15.271,0-7.559,2.425-15.272,10.416-15.272,7.909,0,10.176,7.522,10.176,15.063m-16.435.205c0,5.606.971,11.936,6.156,11.936,5.223,0,6.134-6.017,6.134-12.125,0-5.675-.974-11.74-6-11.74-5.155,0-6.287,5.454-6.287,11.929" transform="translate(-28.087 -31.042)" fill="#fff"/>
        <path id="Path_4158" data-name="Path 4158" d="M70.31,69.189c.43-.516-.271-.673-.328-1.035.762.59.639-.036.639-.47,0-5.974-.011-11.948.018-17.92,0-.766-.183-1.007-.981-1-5.719.035-11.438.02-17.155.014-.3,0-.627.089-.908-.112q5.437-.02,10.876-.038c2.437-.006,4.874.039,7.309-.024.829-.021.959.268.956,1.006-.026,6.119,0,12.239-.032,18.358,0,.82.164,1.079,1.057,1.076,10.567-.04,21.135-.026,31.7-.032.3,0,.748.157.873-.1.177-.359-.282-.555-.5-.78Q87.477,51.769,71.114,35.415c-.079-.079-.147-.17-.293-.341.363-.018.655-.045.946-.045,10.653,0,21.305.01,31.958-.02.843,0,1.017.245,1.016,1.044-.024,10.766-.01,21.532-.023,32.3,0,.46.026.758.568.728.007.139.014.278.02.417-.351-.193-.634-.289-.594.309.031.452.01.906.01,1.36q0,15.211,0,30.423v1.072c-.306.168-.407-.065-.531-.188Q90.242,88.514,76.3,74.553q-2.4-2.4-4.811-4.792c-.175-.175-.336-.494-.585-.414-.355.114-.163.5-.163.745q-.022,12.493-.013,24.984v.873a.969.969,0,0,1-.74-.6c.505.15.682,0,.652-.557-.053-.959-.014-1.924-.014-2.885q0-10.908-.014-21.815c0-.3.294-.77-.3-.9" transform="translate(-7.639 -4.982)" fill="#fff"/>
        <path id="Path_4159" data-name="Path 4159" d="M185.44,88.541c0-5.156-.019-10.312.02-15.468.006-.813-.251-1-1.011-.978-1.971.052-1.972.019-1.972-1.934,0-1.842.025-3.684-.016-5.525-.013-.582.182-.7.717-.7,6.374.02,12.752-.1,19.123.056,6.24.152,11.733,2.276,15.975,7.051a19.17,19.17,0,0,1,4.849,12.3,19.608,19.608,0,0,1-6.358,15.94,21.271,21.271,0,0,1-14.488,5.568c-5.352.107-10.708.027-16.062.06-.645,0-.8-.2-.8-.82.024-5.185.014-10.369.014-15.554Zm8.973-4.105h0q0,5.776-.005,11.551c0,.467-.012.808.643.8,2.491-.043,4.987.054,7.473-.067a11.4,11.4,0,0,0,8.19-3.731c2.525-2.78,3.239-6.135,3-9.766a11.49,11.49,0,0,0-10.179-10.971c-2.731-.38-5.486-.083-8.227-.189-.711-.028-.918.2-.913.909.031,3.823.014,7.644.014,11.467" transform="translate(-27.016 -9.263)" fill="#fff"/>
        <path id="Path_4160" data-name="Path 4160" d="M237.095,88.429c0-5.127-.011-10.254.012-15.381,0-.716-.092-1.05-.954-1-1.99.108-1.993.055-1.993-1.939,0-1.813.019-3.626-.011-5.439-.009-.549.149-.73.715-.728,6.685.026,13.371-.051,20.055.067a15.417,15.417,0,0,1,9.9,3.47,12.858,12.858,0,0,1,4.6,9.144,13.959,13.959,0,0,1-2.863,10.452c-2.594,3.173-6.109,4.664-10.059,5.274a66.844,66.844,0,0,1-8.907.258c-1.768.037-1.5-.183-1.505,1.473q-.02,5.057.006,10.112c0,.524-.056.741-.671.731-2.492-.041-4.986-.037-7.477,0-.654.009-.868-.164-.864-.853.03-5.211.016-10.423.016-15.636Zm8.983-10.112c0,1.9,0,3.8,0,5.694,0,.374,0,.665.518.647,2.715-.1,5.436.147,8.148-.154a6.13,6.13,0,0,0,5.626-5.711c.11-3.682-1.732-5.994-5.266-6.518-2.844-.422-5.711-.116-8.568-.193-.561-.015-.451.4-.452.712-.008,1.841,0,3.683,0,5.524" transform="translate(-34.669 -9.266)" fill="#fff"/>
        <path id="Path_4161" data-name="Path 4161" d="M157.015,105.452c-10.231.014-18.075-5.594-20.818-14.61-3.286-10.8,1.732-22.829,13.07-26.486,7.631-2.46,14.991-1.662,21.543,3.4,2.026,1.563,1.991,1.595.308,3.506-1.233,1.4-2.471,2.8-3.656,4.236-.4.49-.622.433-1.058.05a15.487,15.487,0,0,0-7.581-3.921c-7.385-1.276-13.058,3.7-14.022,10.407a13.564,13.564,0,0,0,2.973,11.135c3.885,4.608,10.186,4.888,14.737,2.656a17.7,17.7,0,0,0,4.214-2.977c.423-.393.685-.38,1.09.044q2.286,2.39,4.65,4.7c.472.46.4.725-.019,1.161a20.474,20.474,0,0,1-15.431,6.7" transform="translate(-20.019 -9.129)" fill="#fff"/>
        <path id="Path_4162" data-name="Path 4162" d="M68.944,75.1c.592.131.3.6.3.9q.028,10.908.014,21.815c0,.962-.038,1.926.014,2.886.03.558-.147.707-.652.557-1.851-1.825-3.713-3.639-5.553-5.475Q52.759,85.5,42.466,75.206c-.034-.034-.036-.1-.1-.292h1.52q11.813.01,23.627.027a13.127,13.127,0,0,1,1.429.157" transform="translate(-6.273 -10.891)" fill="#fff"/>
        <path id="Path_4163" data-name="Path 4163" d="M51.427,51.028c.281.2.6.112.907.112,5.718.005,11.437.02,17.155-.014.8-.005.987.236.982,1-.03,5.974-.016,11.948-.018,17.92,0,.435.124,1.061-.639.47-2.109-2.08-4.226-4.154-6.325-6.245Q57.216,58.02,50.961,51.746c-.187-.187-.48-.317-.5-.707a2.162,2.162,0,0,1,.969-.01" transform="translate(-7.471 -7.347)" fill="#fff"/>
        <path id="Path_4164" data-name="Path 4164" d="M114.639,75.406c-.007-.139-.014-.278-.02-.417,4.157-.018,8.313-.027,12.469-.062.66-.006.543.416.543.8q0,5.643,0,11.286v1.242l-.257.16c-.7-.756-1.382-1.533-2.109-2.264q-4.81-4.839-9.639-9.658a4.137,4.137,0,0,1-.311-.394.963.963,0,0,0-.659-.676Z" transform="translate(-16.971 -10.893)" fill="#fff"/>
        <path id="Path_4165" data-name="Path 4165" d="M273.389,66.364c-.394-.261-.275-.84-.672-1.131-.409.285-.038.771-.484,1.277,0-.745.011-1.3-.005-1.849-.007-.223.07-.59-.368-.446-.272.089-.748-.122-.731.459.016.55,0,1.1,0,1.88a1.7,1.7,0,0,1-.324-1.406c-.009-.521.049-1.031-.768-1.011.843-.359,1.663-.014,2.456-.158.233-.043.251.258.329.434a4.649,4.649,0,0,0,.585,1.332,4.963,4.963,0,0,0,.667-1.481c.071-.157.125-.334.345-.3a.258.258,0,0,1,.222.308,11.911,11.911,0,0,1-.1,2.1c-.428-.256.006-.916-.436-.933-.477-.018-.251.768-.724.924" transform="translate(-39.984 -9.269)" fill="#fff"/>
        <path id="Path_4166" data-name="Path 4166" d="M114.664,75.5a.963.963,0,0,1,.659.676,1.39,1.39,0,0,1-.659-.676" transform="translate(-16.978 -10.978)" fill="#fff"/>
        <path id="Path_4167" data-name="Path 4167" d="M160.446,131.982c0,1.249-.047,2.368.017,3.482.039.688-.341.617-.781.633-.48.017-.774-.012-.757-.653.049-1.834,0-3.671.036-5.506,0-.274-.294-.79.241-.826.458-.031,1-.243,1.4.3.745,1.026,1.523,2.028,2.308,3.024.144.183.247.543.537.457.363-.107.181-.482.189-.734.024-.846.043-1.7,0-2.54-.031-.6.332-.548.7-.524.354.023.827-.183.82.5-.02,2,0,4.01-.007,6.015,0,.185.057.452-.233.455-.456.005-.952.2-1.32-.3q-1.107-1.5-2.26-2.958a2.179,2.179,0,0,0-.887-.83" transform="translate(-23.525 -18.906)" fill="#fff"/>
        <path id="Path_4168" data-name="Path 4168" d="M250.13,131.989c0,1.194-.045,2.348.017,3.5.037.711-.386.6-.8.611s-.751.037-.736-.588c.041-1.834,0-3.671.026-5.506,0-.3-.224-.8.221-.871.48-.079,1.046-.263,1.461.319.718,1.008,1.491,1.976,2.247,2.956a1.239,1.239,0,0,0,.771.607c0-1.038.039-2.035-.014-3.029-.037-.682.136-.959.875-.917.508.029.671.132.661.661-.036,1.835-.007,3.671-.036,5.505-.005.281.25.765-.267.826-.439.052-.933.2-1.3-.311-.827-1.141-1.7-2.252-2.558-3.366a.672.672,0,0,0-.562-.4" transform="translate(-36.806 -18.905)" fill="#fff"/>
        <path id="Path_4169" data-name="Path 4169" d="M186.033,133.622c.221,1.92-.425,2.149-2.442,2.523a3.491,3.491,0,0,1-4.141-2.634,3.6,3.6,0,0,1,2.519-4.387,4.061,4.061,0,0,1,3.123.322c.268.145.843.294.416.775-.283.319-.385,1.085-1.2.528a2.031,2.031,0,0,0-2.961.595,2.251,2.251,0,0,0,.542,3.089,2.3,2.3,0,0,0,2.261.177c.443-.16.429-.549.389-.925-.047-.435-.4-.295-.656-.326-.4-.049-.935.206-.894-.6.026-.534.091-.813.7-.7a4.128,4.128,0,0,0,.762.008c1.588,0,1.588,0,1.584,1.554" transform="translate(-26.555 -18.892)" fill="#fff"/>
        <path id="Path_4170" data-name="Path 4170" d="M241.948,129.006a3.484,3.484,0,0,1,3.735,3.68,3.708,3.708,0,0,1-7.411-.09,3.548,3.548,0,0,1,3.676-3.59m2.139,3.576a2.048,2.048,0,0,0-2.172-2.169,2.02,2.02,0,0,0-2.041,2.2,2.162,2.162,0,0,0,2.174,2.207,2.118,2.118,0,0,0,2.04-2.235" transform="translate(-35.28 -18.9)" fill="#fff"/>
        <path id="Path_4171" data-name="Path 4171" d="M71.976,132.588v-2.966c0-.258-.025-.542.362-.524a17.473,17.473,0,0,1,3.375.137,3.346,3.346,0,0,1,2.684,3.674,3.308,3.308,0,0,1-2.949,3.111c-1,.12-2.03.047-3.046.079-.422.014-.433-.234-.43-.545.009-.988,0-1.977,0-2.966m1.524.02c0,.48.026.962-.008,1.439-.035.492.093.758.645.68.222-.032.451,0,.676-.012a1.987,1.987,0,0,0,1.936-1.474,2.211,2.211,0,0,0-.893-2.447,2.447,2.447,0,0,0-2.117-.242c-.543.189-.152.906-.234,1.379a3.892,3.892,0,0,0-.006.676" transform="translate(-10.657 -18.912)" fill="#fff"/>
        <path id="Path_4172" data-name="Path 4172" d="M141.021,135.982a1.857,1.857,0,0,1-2.517-1.039c-.247-.484-.469-1.119-1.253-1.085-.448.02-.7.13-.663.627.018.224-.036.458,0,.676.142.807-.221,1.011-.968.949-.436-.037-.58-.152-.576-.593q.032-2.969,0-5.938c0-.365.089-.508.468-.5,1.017.023,2.037-.015,3.053.034a2.363,2.363,0,0,1,2.243,1.522,2.4,2.4,0,0,1-.912,2.7c-.354.267-.413.446-.14.808.44.581.826,1.2,1.257,1.841m-3.14-3.474a5.376,5.376,0,0,0,.574-.038.973.973,0,0,0,.69-1.569,3.273,3.273,0,0,0-2.454-.348.411.411,0,0,0-.089.135,1.229,1.229,0,0,0,1.279,1.82" transform="translate(-19.996 -18.911)" fill="#fff"/>
        <path id="Path_4173" data-name="Path 4173" d="M108.3,132.531a3.708,3.708,0,0,1,7.411.127,3.615,3.615,0,0,1-3.742,3.556,3.543,3.543,0,0,1-3.669-3.683m5.783.11a2.1,2.1,0,1,0-4.2,0,2.149,2.149,0,0,0,2.11,2.174,2.088,2.088,0,0,0,2.086-2.176" transform="translate(-16.035 -18.899)" fill="#fff"/>
        <path id="Path_4174" data-name="Path 4174" d="M143.559,132.607c0-.988.024-1.977-.01-2.966-.017-.485.207-.555.608-.55,1.384.015,2.77.033,4.153-.005.587-.017.545.315.538.694-.007.358.1.735-.519.7-.872-.051-1.753.032-2.626-.024-.691-.043-.6.371-.623.8-.023.5.126.712.673.667.674-.055,1.358.02,2.033-.028.6-.043.613.285.611.728,0,.423-.044.7-.587.659-.675-.048-1.357.02-2.033-.022-.58-.038-.716.2-.7.739.012.488.047.8.668.762.844-.05,1.7.02,2.541-.031.515-.032.636.167.619.627-.015.406.06.77-.576.75-1.384-.04-2.769-.024-4.152,0-.464.009-.651-.118-.63-.618.038-.959.011-1.921.011-2.882Z" transform="translate(-21.254 -18.912)" fill="#fff"/>
        <path id="Path_4175" data-name="Path 4175" d="M188.966,132.556c0-.96.039-1.922-.014-2.879-.034-.626.309-.6.731-.587s.88-.089.818.606c-.043.475.016.96-.016,1.438-.036.518.1.745.687.756,2.149.039,2.166.062,2.167-2.083,0-.523.094-.762.688-.729.533.029.894.013.872.745q-.082,2.792-.007,5.588c.018.681-.3.7-.812.7-.486,0-.851-.038-.729-.665a.586.586,0,0,0,0-.169c-.065-.633.305-1.527-.162-1.843-.614-.417-1.53-.1-2.316-.133-.371-.014-.381.244-.38.515,0,.593-.026,1.187,0,1.778.034.7-.469.482-.814.5s-.751.142-.727-.488c.039-1.015.01-2.032.01-3.048" transform="translate(-27.977 -18.91)" fill="#fff"/>
        <path id="Path_4176" data-name="Path 4176" d="M170.559,129.024a2.95,2.95,0,0,1,1.643.372c.279.157.922.175.627.743-.223.431-.431,1.131-1.225.548a1.779,1.779,0,0,0-1.54-.273c-.235.065-.5.136-.532.463a.565.565,0,0,0,.4.659c.639.221,1.288.416,1.92.655a1.814,1.814,0,0,1,1.351,2.145,1.942,1.942,0,0,1-1.683,1.752,4.324,4.324,0,0,1-3.177-.534c-.279-.158-.784-.334-.37-.8.273-.308.452-.946,1.108-.428a2.452,2.452,0,0,0,1.749.511c.372-.031.755-.117.829-.575.067-.421-.213-.606-.564-.719-.4-.129-.8-.278-1.2-.387-1.479-.4-2.041-1.088-1.885-2.347.139-1.127,1.053-1.785,2.551-1.781" transform="translate(-24.848 -18.902)" fill="#fff"/>
        <path id="Path_4177" data-name="Path 4177" d="M215.128,136.023c-.835.235-1.132-.133-1.25-.688a.931.931,0,0,0-1.217-.8,2.7,2.7,0,0,1-.76-.008c-.914-.129-1.577.086-1.8,1.113-.083.387-1.136.652-1.5.439-.279-.161-.083-.349-.017-.506.857-2.023,1.742-4.036,2.575-6.069.213-.521.58-.429.964-.444s.682-.026.872.44c.833,2.034,1.717,4.048,2.575,6.071.346.816-.362.417-.442.457m-3-4.936c-.433.342-.476.82-.652,1.211-.4.889-.379.9.59.9.945,0,.944,0,.555-.912-.161-.377-.314-.757-.494-1.194" transform="translate(-30.865 -18.907)" fill="#fff"/>
        <path id="Path_4178" data-name="Path 4178" d="M87.5,129.028a3.342,3.342,0,0,1,1.591.348c.877.4.883.486.3,1.269-.218.292-.366.363-.676.147a2.353,2.353,0,0,0-1.608-.411c-.33.032-.622.135-.67.519a.6.6,0,0,0,.485.693c.591.192,1.191.359,1.771.578a1.816,1.816,0,0,1,1.4,2.121,1.932,1.932,0,0,1-1.731,1.8,4.247,4.247,0,0,1-3.239-.618c-.253-.159-.646-.326-.272-.688.27-.262.374-.942,1.02-.52a2.905,2.905,0,0,0,1.74.575c.418-.02.837-.1.943-.557.119-.512-.325-.676-.69-.812-.476-.176-.978-.28-1.457-.447a1.862,1.862,0,0,1-1.5-2.285,2.126,2.126,0,0,1,2.126-1.712c.141-.006.283,0,.474,0" transform="translate(-12.54 -18.903)" fill="#fff"/>
        <path id="Path_4179" data-name="Path 4179" d="M121,129.032a2.837,2.837,0,0,1,1.585.36c.311.181.972.2.59.844-.262.438-.516.978-1.216.429a1.842,1.842,0,0,0-1.466-.268c-.308.054-.537.2-.563.533a.581.581,0,0,0,.434.644c.59.193,1.188.366,1.772.578a1.8,1.8,0,0,1,1.456,2.155,1.932,1.932,0,0,1-1.821,1.8,4.186,4.186,0,0,1-3.152-.636c-.26-.167-.63-.348-.258-.693.273-.252.371-.975,1.018-.5a2.78,2.78,0,0,0,1.826.56c.383-.02.759-.11.851-.549.1-.467-.25-.658-.611-.78-.533-.181-1.087-.308-1.617-.5a1.827,1.827,0,0,1-1.414-2.259,2.1,2.1,0,0,1,2.115-1.713c.141-.005.283,0,.474,0" transform="translate(-17.502 -18.903)" fill="#fff"/>
        <path id="Path_4180" data-name="Path 4180" d="M132.095,131.527c0,.706.055,1.417-.011,2.115a2.714,2.714,0,0,1-2.995,2.576,2.658,2.658,0,0,1-2.99-2.457,37.634,37.634,0,0,1-.073-4.229c-.011-.706.549-.377.872-.43.343-.056.676-.056.666.48-.023,1.185-.032,2.371,0,3.557.033,1.089.574,1.648,1.513,1.666.921.019,1.479-.558,1.513-1.652.036-1.128.055-2.261-.005-3.386-.038-.707.332-.673.823-.682s.8.043.738.665c-.059.588-.013,1.184-.013,1.777h-.042" transform="translate(-18.656 -18.91)" fill="#fff"/>
        <path id="Path_4181" data-name="Path 4181" d="M222,129a2.9,2.9,0,0,1,1.691.5c.278.188.873.328.434.857-.3.359-.48.971-1.245.45a2,2,0,0,0-3.16,1.01,2.438,2.438,0,0,0,.735,2.6,2.02,2.02,0,0,0,2.443-.024c.513-.364.786-.267,1.177.168.352.393.265.584-.089.869a3.943,3.943,0,0,1-4.447.175,3.684,3.684,0,0,1-1.384-4.119,3.468,3.468,0,0,1,3.43-2.488H222" transform="translate(-32.277 -18.899)" fill="#fff"/>
        <path id="Path_4182" data-name="Path 4182" d="M96.22,129.011a3.1,3.1,0,0,1,1.923.58c.25.179.717.358.289.755-.3.282-.4,1.015-1.156.509a2.014,2.014,0,0,0-3.07.561,2.4,2.4,0,0,0,.4,2.885,2.031,2.031,0,0,0,2.652.062c.665-.516.912-.026,1.211.328.44.521-.142.674-.414.869a3.8,3.8,0,0,1-4.3-.014,3.648,3.648,0,0,1-1.316-4.07,3.556,3.556,0,0,1,3.78-2.466" transform="translate(-13.66 -18.901)" fill="#fff"/>
        <path id="Path_4183" data-name="Path 4183" d="M229.357,129.092c.791,0,1.584.027,2.373-.009.612-.028.508.373.509.728s.1.706-.51.722c-1.6.043-1.607.076-1.614,1.665-.005,1.1-.034,2.206.019,3.305.034.711-.411.583-.821.594s-.757.064-.735-.576c.049-1.411-.009-2.826.023-4.238.014-.574-.143-.858-.756-.781-.222.028-.455-.02-.677.01-.516.071-.773-.042-.76-.658.013-.561.12-.82.747-.773.73.055,1.468.013,2.2.013Z" transform="translate(-33.523 -18.911)" fill="#fff"/>
        <path id="Path_4184" data-name="Path 4184" d="M200.222,129.1c.791,0,1.581.02,2.371-.006.757-.025.468.525.52.887.062.439-.1.553-.567.541-1.58-.041-1.58-.014-1.579,1.614,0,1.073-.031,2.147.012,3.219.024.59-.161.772-.755.762-.555-.009-.807-.106-.785-.738.048-1.354-.012-2.711.029-4.065.019-.626-.161-.906-.812-.8-.193.032-.4-.02-.591.009-.579.086-.77-.121-.772-.727,0-.647.266-.739.812-.7.7.044,1.412.011,2.117.011Z" transform="translate(-29.212 -18.912)" fill="#fff"/>
        <path id="Path_4185" data-name="Path 4185" d="M101.351,132.5c0-.9.034-1.809-.014-2.711-.029-.561.147-.737.7-.7.471.032.874-.05.845.672-.056,1.382.006,2.768-.031,4.151-.015.6.122.877.791.82.729-.062,1.47.011,2.2-.028.588-.032.523.333.538.71.015.408.007.708-.552.7-1.327-.03-2.655-.025-3.983,0-.438.008-.509-.189-.5-.56.017-1.017.006-2.034.005-3.051" transform="translate(-15.004 -18.911)" fill="#fff"/>
        <path id="Path_4186" data-name="Path 4186" d="M234.751,132.664c0-1.016.026-2.034-.009-3.05-.027-.772.522-.469.876-.517.389-.053.686-.058.672.538-.045,1.948-.05,3.9,0,5.845.017.693-.358.61-.792.622-.463.012-.81.021-.763-.642.065-.928.016-1.863.016-2.8" transform="translate(-34.756 -18.91)" fill="#fff"/>
        <path id="Path_4187" data-name="Path 4187" d="M82.784,132.578c0,.987-.037,1.975.013,2.959.033.656-.371.573-.758.557-.355-.015-.8.167-.792-.521q.05-2.96,0-5.919c-.013-.733.463-.521.848-.565.473-.055.731.035.7.614-.049.956-.014,1.916-.014,2.874" transform="translate(-12.03 -18.91)" fill="#fff"/>
        <path id="Path_4188" data-name="Path 4188" d="M156.594,132.661c0,.958-.035,1.919.011,2.876.031.647-.367.577-.761.558-.357-.017-.795.16-.783-.527q.054-2.96,0-5.922c-.014-.745.475-.515.849-.555.45-.048.735.012.7.608-.056.984-.015,1.973-.016,2.96" transform="translate(-22.959 -18.911)" fill="#fff"/>
        <path id="Path_4189" data-name="Path 4189" d="M177.377,132.586c0,.987-.032,1.974.011,2.958.028.652-.383.562-.768.553-.367-.009-.79.135-.778-.537.036-1.971.033-3.945,0-5.917-.011-.74.485-.524.861-.544s.722-.085.686.53c-.059.983-.015,1.971-.015,2.957" transform="translate(-26.036 -18.912)" fill="#fff"/>
      </g>
    </g>
  </g>
</svg>
