<?xml version="1.0" encoding="UTF-8"?><svg id="Layer_2" xmlns="http://www.w3.org/2000/svg" viewBox="0 0 502.17 112.6"><defs><style>.cls-1{fill:#fff;}</style></defs><g id="Layer_1-2"><g><path class="cls-1" d="M100.4,11.58l-18.22,11.25v5.88l18.22-6.35V11.58Zm119.71,20.36c-5.19,0-9.37,1.8-13.36,5.58v-4.49h-11.67v47.57h11.97v-25.23c0-6.58,2.89-12.07,10.97-12.07,7.48,0,9.57,5.49,9.57,12.07v25.23h11.87v-28.92c0-10.87-6.48-19.75-19.35-19.75m-65.83,19.15c1.69-5.88,6.18-8.68,11.67-8.68s9.87,2.49,11.37,8.68h-23.04Zm11.57-19.15c-14.16,0-23.83,11.07-23.83,24.63s9.77,24.63,23.83,24.63c11.37,0,19.15-6.28,22.14-15.46h-12.37c-1.69,2.89-4.39,4.49-9.07,4.49-7.08,0-11.17-3.59-12.37-9.67h35.1c.1-1.2,.2-2.09,.2-3.29,0-16.45-10.57-25.33-23.64-25.33m-46.07,68.51c-6.38,0-10.67-4.69-10.67-10.87s4.29-10.87,10.67-10.87,10.67,4.69,10.67,10.87-4.39,10.87-10.67,10.87m3.89-42.19l16.85-14.96v-10.27h-40.49v11.07h23.34l-14.96,13.06,9.97,11.57c-12.96,.8-20.94,9.97-20.94,20.94,0,12.37,10.07,21.84,22.44,21.84s22.54-9.48,22.54-21.84c0-6.58-1.8-11.47-5.88-16.26l-12.86-15.16ZM11.67,37.72v-4.69H0v47.57H11.97v-25.13c0-6.58,2.89-11.67,11.67-11.67h3.59v-11.37h-2.59c-5.19,0-8.98,1.5-12.96,5.29m70.81,42.88h12.07V31.34l-12.07,2.99v46.27Zm-30.42-10.97c-7.28,0-12.37-5.29-12.37-13.06s5.09-13.16,12.37-13.16,12.37,5.39,12.37,13.16-5.09,13.06-12.37,13.06m.2-37.7c-13.86,0-24.53,10.97-24.53,24.63s9.37,24.63,23.24,24.63c4.69,0,9.97-1.89,13.76-5.88v5.29h11.67v-25.13c0-13.07-10.17-23.54-24.13-23.54"/><rect class="cls-1" x="265.76" width="4.85" height="112.6"/><g><path class="cls-1" d="M306.31,54.68l-2.59-7.95c-.4,.05-.97,.05-1.4,.05h-4.23l-1.54,7.9h-1.56l3.61-18.6h5.8c3.67,0,5.72,1.92,5.72,4.61,0,3.34-1.7,5.15-4.93,5.77l2.72,8.22h-1.59Zm-3.72-9.36c4.04,0,5.93-1.16,5.93-4.5,0-2.37-1.56-3.29-4.4-3.29h-4.23l-1.54,7.79h4.23Z"/><path class="cls-1" d="M312.51,48.31l-.11,.57c-.54,2.78,.21,4.58,3.21,4.58,1.91,0,2.8-.54,3.8-1.7l1.05,.89c-1.05,1.4-2.56,2.18-5.04,2.18-3.78,0-5.15-2.59-4.5-5.96l.38-1.94c.78-4.1,2.99-5.91,6.36-5.91s4.72,2.51,4.02,6.04l-.24,1.24h-8.92Zm.27-1.35h7.44c.57-2.97-.38-4.56-2.83-4.56s-4.04,1.35-4.61,4.53v.03Z"/><path class="cls-1" d="M335.78,36.07h1.48l-3.61,18.6h-1.48l.27-1.4c-1.02,1.13-2.35,1.56-4.21,1.56-3.13,0-4.99-2.26-4.26-5.96l.38-1.94c.78-4.04,3.05-5.91,6.39-5.91,2.02,0,3.18,.86,3.75,1.81l1.29-6.77Zm-2.51,12.83l.38-1.94c.54-2.75-.19-4.56-3.07-4.56-2.56,0-4.12,1.38-4.75,4.53l-.38,1.94c-.54,2.83,.38,4.58,2.99,4.58,3.02,0,4.26-1.64,4.83-4.56Z"/><path class="cls-1" d="M339.47,48.31l-.11,.57c-.54,2.78,.21,4.58,3.21,4.58,1.91,0,2.8-.54,3.8-1.7l1.05,.89c-1.05,1.4-2.56,2.18-5.04,2.18-3.78,0-5.15-2.59-4.5-5.96l.38-1.94c.78-4.1,2.99-5.91,6.36-5.91s4.72,2.51,4.02,6.04l-.24,1.24h-8.92Zm.27-1.35h7.44c.57-2.97-.38-4.56-2.83-4.56s-4.04,1.35-4.61,4.53v.03Z"/><path class="cls-1" d="M353.62,41.2l.19-.97c.57-2.97,1.67-4.15,4.64-4.15h.62l-.27,1.43h-.59c-2.16,0-2.56,.75-2.99,3.1l-.11,.59h2.97l-.27,1.38h-2.97l-2.35,12.11h-1.48l2.35-12.11h-1.73l.27-1.38h1.73Z"/><path class="cls-1" d="M361.17,41.2h1.48l-2.62,13.48h-1.48l2.62-13.48Zm.84-5.12h1.81l-.35,1.81h-1.81l.35-1.81Z"/><path class="cls-1" d="M366.84,41.2h1.48l-.32,1.7c1.05-1.27,2.32-1.86,4.23-1.86,2.97,0,4.64,2.27,3.96,5.66l-1.56,7.98h-1.48l1.54-7.95c.59-3.07-.7-4.29-2.7-4.29-2.83,0-4.23,1.62-4.72,4.15l-1.56,8.09h-1.48l2.62-13.48Z"/><path class="cls-1" d="M381.42,41.2h1.48l-2.62,13.48h-1.48l2.62-13.48Zm.84-5.12h1.81l-.35,1.81h-1.81l.35-1.81Z"/><path class="cls-1" d="M387.08,41.2h1.48l-.32,1.7c1.05-1.27,2.32-1.86,4.23-1.86,2.97,0,4.64,2.27,3.96,5.66l-1.56,7.98h-1.48l1.54-7.95c.59-3.07-.7-4.29-2.7-4.29-2.83,0-4.23,1.62-4.72,4.15l-1.56,8.09h-1.48l2.62-13.48Z"/><path class="cls-1" d="M410.92,36.07h1.48l-3.61,18.6h-1.48l.27-1.4c-1.02,1.13-2.35,1.56-4.21,1.56-3.13,0-4.99-2.26-4.26-5.96l.38-1.94c.78-4.04,3.05-5.91,6.39-5.91,2.02,0,3.18,.86,3.75,1.81l1.29-6.77Zm-2.51,12.83l.38-1.94c.54-2.75-.19-4.56-3.07-4.56-2.56,0-4.12,1.38-4.75,4.53l-.38,1.94c-.54,2.83,.38,4.58,2.99,4.58,3.02,0,4.26-1.64,4.83-4.56Z"/><path class="cls-1" d="M423.94,48.91c-.73,3.86-2.75,5.93-6.55,5.93-3.29,0-5.1-2.26-4.4-5.93l.38-1.97c.73-3.83,2.91-5.91,6.55-5.91,3.42,0,5.1,2.27,4.39,5.91l-.38,1.97Zm-1.11-1.97c.57-2.94-.54-4.53-3.1-4.53-2.86,0-4.31,1.59-4.88,4.53l-.38,1.97c-.54,2.83,.38,4.56,3.1,4.56,2.88,0,4.34-1.73,4.88-4.56l.38-1.97Z"/><path class="cls-1" d="M305.82,77.19c-.73,3.86-2.75,5.93-6.55,5.93-3.29,0-5.1-2.27-4.4-5.93l.38-1.97c.73-3.83,2.91-5.9,6.55-5.9,3.42,0,5.1,2.26,4.39,5.9l-.38,1.97Zm-1.11-1.97c.57-2.94-.54-4.53-3.1-4.53-2.86,0-4.31,1.59-4.88,4.53l-.38,1.97c-.54,2.83,.38,4.56,3.1,4.56,2.88,0,4.34-1.73,4.88-4.56l.38-1.97Z"/><path class="cls-1" d="M317.17,69.48l.19-.97c.57-2.97,1.67-4.15,4.64-4.15h.62l-.27,1.43h-.59c-2.16,0-2.56,.75-2.99,3.1l-.11,.59h2.97l-.27,1.38h-2.97l-2.35,12.11h-1.48l2.35-12.11h-1.73l.27-1.38h1.73Z"/><path class="cls-1" d="M331.84,82.96h-1.48l.32-1.73c-.94,1.19-2.32,1.89-4.18,1.89-2.78,0-4.75-1.83-3.99-5.66l1.56-7.98h1.48l-1.56,7.98c-.59,3.05,.7,4.26,2.78,4.26,2.56,0,4.15-1.7,4.64-4.15l1.56-8.09h1.48l-2.62,13.48Z"/><path class="cls-1" d="M336.77,69.48h1.73l.59-2.97h1.48l-.59,2.97h3.32l-.24,1.38h-3.34l-1.46,7.55c-.43,2.16-.35,3.13,1.83,3.13h.89l-.3,1.43h-.94c-2.67,0-3.61-1.29-3.05-4.15l1.54-7.95h-1.7l.24-1.38Z"/><path class="cls-1" d="M353.79,82.96h-1.48l.32-1.73c-.94,1.19-2.32,1.89-4.18,1.89-2.78,0-4.75-1.83-3.99-5.66l1.56-7.98h1.48l-1.56,7.98c-.59,3.05,.7,4.26,2.78,4.26,2.56,0,4.15-1.7,4.64-4.15l1.56-8.09h1.48l-2.62,13.48Z"/><path class="cls-1" d="M360.36,74.84l-1.59,8.12h-1.48l2.62-13.48h1.48l-.32,1.7c.86-1.08,2.05-1.86,3.75-1.86s2.67,.89,3.32,1.94l-1.29,.84c-.51-.92-1.24-1.38-2.37-1.38-2.16,0-3.61,1.67-4.1,4.12Z"/><path class="cls-1" d="M378.73,77.19c-.73,3.86-2.75,5.93-6.55,5.93-3.29,0-5.1-2.27-4.4-5.93l.38-1.97c.73-3.83,2.91-5.9,6.55-5.9,3.42,0,5.1,2.26,4.39,5.9l-.38,1.97Zm-1.11-1.97c.57-2.94-.54-4.53-3.1-4.53-2.86,0-4.31,1.59-4.88,4.53l-.38,1.97c-.54,2.83,.38,4.56,3.1,4.56,2.88,0,4.34-1.73,4.88-4.56l.38-1.97Z"/><path class="cls-1" d="M399.19,64.36h1.48l-3.61,18.6h-1.48l.27-1.4c-1.02,1.13-2.35,1.56-4.21,1.56-3.13,0-4.99-2.27-4.26-5.96l.38-1.94c.78-4.04,3.05-5.9,6.39-5.9,2.02,0,3.18,.86,3.75,1.81l1.29-6.77Zm-2.51,12.83l.38-1.94c.54-2.75-.19-4.56-3.07-4.56-2.56,0-4.12,1.38-4.75,4.53l-.38,1.94c-.54,2.83,.38,4.58,2.99,4.58,3.02,0,4.26-1.65,4.83-4.56Z"/><path class="cls-1" d="M405.96,75.3h3.94l.32-1.67c.43-2.29-.35-2.91-2.72-2.91-2,0-2.75,.13-3.88,1.56l-1.03-.81c1.24-1.62,2.43-2.16,5.1-2.16,3.29,0,4.58,1.46,4.02,4.31l-1.81,9.33h-1.48l.32-1.67c-1.02,1.43-2.32,1.83-4.02,1.83-2.35,0-4.18-1.21-4.18-3.48,0-2.8,1.94-4.34,5.42-4.34Zm3.69,1.32h-3.94c-3.07,0-3.67,1.46-3.67,2.83,0,1.7,1.13,2.26,2.78,2.26,2.18,0,3.96-.75,4.56-3.77l.27-1.32Z"/><path class="cls-1" d="M430.28,80.96c-1.27,1.64-3.05,2.24-5.42,2.24-3.8,0-5.53-2.62-4.85-6.09l.38-1.83c.78-4.07,2.86-6.07,6.71-6.04,3.75,.03,5.04,2.59,4.31,6.31l-.3,1.54h-7.68c-.32,1.86,0,3.21,1.91,3.21,1.43,0,2.02-.43,2.64-1.16l2.29,1.83Zm-6.36-6.34h4.23c.27-1.75-.3-2.48-1.59-2.48-1.38,0-2.21,.94-2.64,2.48Z"/><path class="cls-1" d="M434.81,69.48h3.37l-.19,.94c.7-.67,1.86-1.19,3.34-1.19,2.64,0,4.66,1.43,3.91,5.31l-1.64,8.41h-3.42l1.51-7.79c.4-2.13-.11-2.97-1.62-2.97s-2.56,1.19-2.91,2.94l-1.51,7.82h-3.45l2.62-13.48Z"/><path class="cls-1" d="M457.02,80.96c-1.27,1.64-3.05,2.24-5.42,2.24-3.8,0-5.53-2.62-4.85-6.09l.38-1.83c.78-4.07,2.86-6.07,6.71-6.04,3.75,.03,5.04,2.59,4.31,6.31l-.3,1.54h-7.68c-.32,1.86,0,3.21,1.91,3.21,1.43,0,2.02-.43,2.64-1.16l2.29,1.83Zm-6.36-6.34h4.23c.27-1.75-.3-2.48-1.59-2.48-1.38,0-2.21,.94-2.64,2.48Z"/><path class="cls-1" d="M468.13,73.23c-.24-.51-.62-1.02-1.48-1.02-1.29,0-2.35,.94-2.72,2.83l-1.54,7.93h-3.45l2.62-13.48h3.37l-.19,.94c.62-.62,1.64-1.19,3.1-1.19,1.7,0,2.75,.94,3.24,2.16l-2.94,1.83Z"/><path class="cls-1" d="M479.89,69.48h3.42l-2.56,13.21c-.86,4.5-3.32,5.55-6.85,5.55-2.67,0-4.1-.86-4.91-2.48l2.56-1.62c.43,.81,1.13,1.21,2.4,1.21,2.05,0,3.1-.54,3.42-3.05-.83,.62-1.83,.89-2.99,.89-3.5,0-4.85-2.72-4.21-6.09l.35-1.83c.75-3.96,3.07-6.04,6.34-6.04,1.4,0,2.29,.46,2.86,1l.16-.75Zm-1.51,7.71l.35-1.7c.46-2.26-.05-3.34-1.75-3.34s-2.67,1.19-3.07,3.34l-.27,1.4c-.38,1.94-.11,3.4,1.75,3.4s2.62-1.29,2.99-3.1Z"/><path class="cls-1" d="M486.22,69.48h3.45l-2.62,13.48h-3.45l2.62-13.48Zm.86-5.12h3.72l-.65,3.34h-3.72l.65-3.34Z"/><path class="cls-1" d="M495.82,74.87h2.67l.16-.78c.3-1.51-.08-2-2.02-2-1.32,0-1.94,.24-2.67,1.13l-2.21-1.78c1.38-1.78,2.99-2.21,5.77-2.21,3.42,0,5.2,1.35,4.5,4.88l-1.73,8.84h-3.37l.22-1.05c-.73,.86-1.62,1.29-3.18,1.29-2.37,0-4.02-1.4-4.02-3.56,0-3.24,2.4-4.77,5.88-4.77Zm2.18,2.53h-2.26c-1.7,0-2.35,.62-2.35,1.78,0,.84,.65,1.24,1.7,1.24,1.56,0,2.45-.67,2.8-2.51l.11-.51Z"/></g></g></g></svg>