<svg xmlns="http://www.w3.org/2000/svg" width="116.29" height="99.817" viewBox="0 0 116.29 99.817">
  <g id="logo-bolsa" transform="translate(0 0.002)">
    <g id="Group_615" data-name="Group 615" transform="translate(0 -0.002)">
      <path id="Path_2674" data-name="Path 2674" d="M339.994,438.316q0-13.771,0-27.542c0-.85-.092-.73.717-.731q14.921,0,29.842,0a16.69,16.69,0,0,1,16.114,12.24,16.355,16.355,0,0,1-2.408,14.09,1.385,1.385,0,0,1-.145.2c-.22.223-.207.384.053.6a13.2,13.2,0,0,1,1.72,1.7,16.54,16.54,0,0,1,4.024,12.475,16.742,16.742,0,0,1-13.876,15,14.954,14.954,0,0,1-2.535.217q-16.382,0-32.764,0c-.862,0-.742.092-.742-.774q0-13.74,0-27.48m21.837,5.2q-3.7,0-7.4,0c-.542,0-.542.006-.55.542,0,.041,0,.083,0,.124q0,5.656,0,11.311c0,.765,0,.664.677.664q7.116,0,14.232,0a8.44,8.44,0,0,0,1.237-.088,6.317,6.317,0,0,0-1.053-12.557q-3.573,0-7.147,0m-.442-10.409q3.078,0,6.156,0a7.465,7.465,0,0,0,1.786-.191,6.3,6.3,0,0,0-1.491-12.427q-6.622,0-13.244,0c-.145,0-.29,0-.435,0-.176,0-.273.068-.272.252,0,.124,0,.249,0,.373q0,5.689,0,11.379c0,.124,0,.249,0,.373a.211.211,0,0,0,.225.236q.248.006.5.006h6.777" transform="translate(-318.848 -384.539)" fill="#fff"/>
      <path id="Path_2675" data-name="Path 2675" d="M1157.973,170.439q0,22.633,0,45.267c0,.83.147.764-.755.764q-9.918,0-19.835,0c-.9,0-.752.066-.755-.764-.007-1.865,0-3.731,0-5.6,0-.568-.12-.611.6-.611q6.5,0,13,0c.954,0,.806.1.807-.837q0-38.241,0-76.481c0-.947.125-.819-.823-.82q-6.373-.007-12.747,0c-.1,0-.207,0-.311,0-.516-.007-.522-.007-.523-.5q0-2.985,0-5.969c0-.493.008-.5.523-.5q4.042,0,8.083,0,5.969,0,11.939,0c.922,0,.8-.114.8.778q0,22.634,0,45.267" transform="translate(-1065.936 -116.654)" fill="#fff"/>
      <path id="Path_2676" data-name="Path 2676" d="M0,171.046q0-22.632,0-45.265c0-.859-.113-.756.76-.756q9.917,0,19.834,0c.806,0,.689-.046.69.705,0,1.886,0,3.772,0,5.658,0,.59.059.563-.577.563H7.656c-.145,0-.29.007-.435,0-.23-.013-.352.071-.337.318.01.165,0,.332,0,.5q0,38.239,0,76.478c0,.1,0,.207,0,.311.007.532.007.538.554.538q6.435,0,12.871,0h.311c.777,0,.668-.023.67.664q.005,2.829,0,5.658c0,.687.094.649-.686.649H3.63c-1.057,0-2.114,0-3.171,0-.444,0-.445-.01-.456-.44,0-.145,0-.29,0-.435v-45.14" transform="translate(0.001 -117.247)" fill="#fff"/>
      <path id="Path_2677" data-name="Path 2677" d="M1609.516,11.016c.115.09.177.145.246.19a4.843,4.843,0,0,1,2.208,4.869,6.389,6.389,0,0,1-4.117,5.542,10.177,10.177,0,0,1-9-.241,7.171,7.171,0,0,1-3.964-5.64.834.834,0,0,1,.514-.078c1.74,0,3.481.005,5.221-.008a.675.675,0,0,1,.715.415,2.684,2.684,0,0,0,3.787,1.056,1.923,1.923,0,0,0,1.049-1.957,1.844,1.844,0,0,0-1.324-1.635,3.359,3.359,0,0,0-1.216-.215c-.6,0-1.2-.009-1.8.005-.274.007-.415-.043-.411-.367.016-1.222.013-2.445,0-3.667,0-.276.1-.348.36-.35a13.766,13.766,0,0,0,2.294-.073,2.972,2.972,0,0,0,.715-.2,1.724,1.724,0,0,0,1.153-1.485,1.9,1.9,0,0,0-.931-1.9,2.593,2.593,0,0,0-3.763,1.169.66.66,0,0,1-.73.475c-1.636-.018-3.273-.006-4.91-.009-.533,0-.533-.008-.429-.509a7.674,7.674,0,0,1,6.8-6.29,10.03,10.03,0,0,1,5.763.774,6.533,6.533,0,0,1,3.7,4.193,6.423,6.423,0,0,1,.167,2.648,4.426,4.426,0,0,1-1.631,2.909c-.08.065-.165.125-.245.19-.064.051-.124.107-.221.191" transform="translate(-1495.71 0.001)" fill="#fff"/>
    </g>
  </g>
</svg>
