<?xml version="1.0" encoding="utf-8"?>
<!-- Generator: Adobe Illustrator 26.3.1, SVG Export Plug-In . SVG Version: 6.00 Build 0)  -->
<svg version="1.1" id="图层_1" xmlns="http://www.w3.org/2000/svg" xmlns:xlink="http://www.w3.org/1999/xlink" x="0px" y="0px"
	 viewBox="0 0 397.3 403.5" style="enable-background:new 0 0 397.3 403.5;" xml:space="preserve">
<style type="text/css">
	.st0{fill:#205870;}
	.st1{clip-path:url(#SVGID_00000114773901678557640680000014667464097286095521_);}
	.st2{clip-path:url(#SVGID_00000154404790939383971890000005999138613791528581_);}
	.st3{clip-path:url(#SVGID_00000175312888487889315450000009524572169532026790_);}
	.st4{clip-path:url(#SVGID_00000036942223339709269930000016633718171911826564_);}
	.st5{clip-path:url(#SVGID_00000011713403281832631740000016911836554007496088_);}
	.st6{clip-path:url(#SVGID_00000007398712010959446180000013057387824236628129_);}
	.st7{clip-path:url(#SVGID_00000132804437852279553390000010100062293298365114_);}
	.st8{clip-path:url(#SVGID_00000041975409063094320660000016325485244935297931_);}
	.st9{clip-path:url(#SVGID_00000084532344672390821190000015161263606031107205_);}
	.st10{clip-path:url(#SVGID_00000013894971263540930480000001631125217616915886_);}
	.st11{clip-path:url(#SVGID_00000111180838434709095190000001959067507648747447_);}
	.st12{clip-path:url(#SVGID_00000109744943831801879420000011255223458553694380_);}
	.st13{clip-path:url(#SVGID_00000091726395482914597630000013020879316702357166_);}
</style>
<g>
	<path class="st0" d="M285.2,38c-4.4,8-3.7,15,0.9,17.9c4.5,2.8,11-0.2,15.9-7.6c4.6-7.1,4.8-14.2-0.8-17.7
		C295.1,27,289.5,30.2,285.2,38 M278.7,35.7c5.4-9.6,14.9-12.6,24.3-6.7c8.9,5.4,10.3,14.1,5,22.2c-5.7,8.9-15.4,11.9-24.2,6.6
		C275.8,53,274,44.2,278.7,35.7 M2.9,196.4l27.8,0l1.8-5.5h1.4c-0.4,9,0,17.5,0,17.5h-1.4l-1.7-5.5H2.9l0.1,7.1l6.9,2.5v2H0.4
		c0,0-1-15.1,0.1-29.6h9.4v2L3,189.4L2.9,196.4z M394.5,201.7l-27.8,0l-1.8,5.5h-1.4c0.4-9,0-17.4,0-17.4h1.4l1.7,5.5h27.8l-0.1-7.1
		l-6.9-2.5v-2h9.5c0,0,1,15-0.1,29.6h-9.4v-2.1l6.9-2.5L394.5,201.7z M364.9,175.6l7.3,1.3l0.4,2.2l-8.1,1.1l-0.4-0.7
		c-2-4.3-2.9-6.7-3.5-9.6c-2-10.2,3-17,13.1-19.5c10.7-2.7,18.9,3.3,21,14.6c0.6,3,0.7,6.7,0.4,10.8l-8.2,1.5l-0.4-2.2l6.2-3.7
		c0-0.9,0-1.9-0.2-3.1c-1.8-9.5-8.4-13.6-17.2-11.4c-8.6,2.2-12.9,7.5-11.3,15.6c0.2,1.1,0.6,1.8,1,3L364.9,175.6z M363.7,125.8
		l3.2,8l9.3-7.9L363.7,125.8z M361.1,126l-10.3,0l-0.2,4.2l-1.3,0.5c-2.2-5-4.9-10.2-4.9-10.2l1.3-0.6l3.1,2.9l34.2,0.7l1,2.8
		l-24.8,22.4l-0.2,4.2l-1.3,0.5c-2.2-7-4.5-13.5-4.5-13.5l1.3-0.5l3,2.9l7.5-6.8L361.1,126z M352.1,102.2c1.4,2.4,2.5,3.3,4,3.8
		c2.1,0.6,4.5,0.5,6.8-0.9c2.1-1.3,3.4-2.9,3.8-4.7c0.4-1.8,0.2-3.2-1.2-5.2l-1.8-2.6l-12.5,8.3L352.1,102.2z M349.5,102l-9.1,5.9
		l0.8,4.5l-1.1,0.7c-3.9-6.1-8.1-12.4-8.1-12.4l1.2-0.7l3.6,2.5l22.6-15.1l-0.7-4.4l1.2-0.8l7.9,12.1c2.6,4.2,3.4,6.7,3.2,9.5
		c-0.2,2.8-1.6,5.2-4.2,6.8c-5.3,3.3-11.4,0.9-15.5-5.7L349.5,102z M323.3,75.3l23.9-8.7l6.9,8.2l-1,1l-4.3-1.8l-20.4,18l1.8,4.3
		l-1,1c-4.6-5.4-9.2-10.6-9.2-10.6l1-1l4.1,1.7l16.4-15l-26.3,9.5l-0.9-0.9l9.7-26.2l-15.2,16.3l1.6,4.1l-1,1l-9.1-7.6l1-1l4.2,1.7
		l19-19.7l-1.7-4.2l1-1l8.3,7.2L323.3,75.3z M262.5,43.4l4.8-5.6l2.1,0.8l-3.1,7.6l-0.8-0.1c-4.7-0.4-7.3-0.9-10.1-1.9
		c-9.6-3.5-13.3-11.4-10.3-21.3c3.2-10.3,10.9-14.7,23.3-10.7c2.9,0.9,5.9,2.6,9.2,4.9l-2.8,7.8l-2.1-0.7v-7.2c0,0-1.1-0.7-2.5-1.2
		c-10.5-3.7-16.2,1.2-18.7,9.3c-2.6,8.3,0.3,15,7.8,17.6C260.4,43,261.1,43.2,262.5,43.4 M206.7,30.7L209,3.5l-4-2.1l0.1-1.4
		c7.7,0.4,14.9,1,14.9,1l-0.1,1.4l-4.4,1.4l-2.5,28l7.9,0.8l3.7-5.9l2.1,0.2l-1.5,8.6c0,0-12.6-1.5-23-2l0.1-1.4L206.7,30.7z
		 M174.4,19.9l8.5-0.9l-5-11.1L174.4,19.9z M173.7,22.4l-2.6,10l4,1.4l0.2,1.4l-11.2,1.8l-0.1-1.4l3.6-2.1l10-32.7l2.5-0.2l15.1,30
		l4,1.3l0.1,1.4l-14.5,0.9l-0.1-1.4l3.6-2.2l-4.2-9.3L173.7,22.4z M146.2,39.8l1.8-0.7c2.8-0.9,3.9-1.6,5-3.2c1-1.6,1.1-3.5,0.5-5.5
		c-1.3-4.3-4.6-5.9-9.3-4.4l-2.4,0.9L146.2,39.8z M141.2,24.7l2.1-0.7c3.8-1.2,5.8-4.6,4.6-8.5c-1.2-3.9-4.1-5.5-8-4.2l-2.9,1.2
		L141.2,24.7z M139.8,41.3l-8.8-26l-4.5-0.4l-0.4-1.3l15.7-5.2c3.7-1.2,6-1.2,8.3-0.1c2.1,0.9,3.5,2.5,4.1,4.6
		c1.4,4.4-1.2,8.3-6.9,10.9c6.8-1.9,11.2-0.1,12.7,4.9c0.8,2.7,0.3,5.5-1.4,7.5c-1.7,2.1-3.9,3.4-8.3,4.8l-13.5,4.7l-0.4-1.3
		L139.8,41.3z M102.1,44.1c4.7,7.8,11.1,10.8,15.9,8.3c4.7-2.5,5.4-9.6,1.4-17.6c-3.8-7.6-9.8-11.2-15.6-8.1
		C97.7,29.9,97.6,36.4,102.1,44.1 M96.9,48.4c-5.6-9.4-3.4-19.1,6.4-24.4c9.1-4.9,17.3-1.6,21.7,7c4.8,9.4,2.5,19.2-6.4,24.2
		C110.4,59.7,101.9,56.9,96.9,48.4 M85.4,74.6L67.7,53.7l-4.4,1.4L62.4,54l11.4-9.6l0.9,1l-2.1,4.1l18,21.4l6.6-5.5l-1.6-6.7
		l1.6-1.4l5,7.1c0,0-9,7.3-18,15.3l-0.9-1.1L85.4,74.6z M71.3,77.2l7.1,6.1c-2.1,4.5-3.7,7.2-5.8,9.7c-6.8,8.3-15.7,9.2-23.8,2.5
		c-8.3-6.8-10.4-15.8-2-25.6c1.8-2.2,4.5-4.4,7.9-7.2l0.7-0.5l6.3,5.4l-1.6,1.9l-6.6-2.3c-0.9,0.5-1.7,1.1-2.4,1.9
		c-7.1,7.6-5.6,15.1,1.9,21.3c6.7,5.5,14.1,5.1,19.2-1.2c0.9-1.2,1.1-2,1.1-2l-6.2-5.2L63.1,84L62,83.1l9.5-11.2l1.1,0.9L71.3,77.2z
		 M32.7,127.3l12.4,5.1l4.4-9.1l-4-5l0.9-1.8l7,3.8c0,0-5.3,10.8-10.1,22.8l-1.3-0.6l0.1-4.5l-25.3-10l-3.3,3.2l-1.3-0.6
		c5.3-13.2,10.6-24.9,10.6-24.9L30,109l-0.7,1.8l-6.3-0.1l-4.4,11.1l11.8,4.5l3.5-7.8l-3.4-3.5l0.8-1.8l10.2,4.6l-0.8,1.8l-4.6-0.1
		L32.7,127.3L32.7,127.3z M20,168.6l12.7,2.2l2.6-3.7l1.3,0.3l-2.2,14.6l-1.4-0.3l-0.9-4.5l-27-4.4l-2.6,3.8l-1.4-0.3l2.5-14.9
		l1.4,0.3l0.9,4.5l11.5,2l2.9-14.5l-11.3-2.9l-2.6,3.8l-1.4-0.3l3.6-14.7l1.4,0.3l0.9,4.5l26.7,6.7l2.6-3.7l1.4,0.3L37.9,162
		l-1.3-0.3l-0.9-4.5l-12.8-3L20,168.4V168.6z"/>
</g>
<g>
	<path class="st0" d="M39.4,331.5c12.9,10.2,29.7,9,44.2,14.6c-13.4-12.8-15.6-31.8-21.3-48.7c-3.9-10.4-9.7-19.8-16.2-28.9
		c7.1,16.7,3.8,38.6,13.2,54.1c2.6,5.1,6.9,9.7,10.6,13.6l-0.2,0.2c-3.4-1.8-6.4-4.5-9.4-7.6c-16.2-15.7-40.2-17.9-49.9-43.6
		C13,304.1,25.8,320.8,39.4,331.5"/>
	<path class="st0" d="M145,359.1c2.1,0,3.7-0.7,3.7-0.7c-12.5-2.8-23.1-5.1-33.8-14c-14.1-11.8-25-23.8-40.6-33.5
		c2,1.2,10.9,19.4,18.4,30.4c5.2,7.7,13.6,12,20.9,13.8c6.4,1.5,7.7,2.2,7.7,2.2s-1.1,0.6-3.4,0.1c0,0-20.8-4.4-32-4.4
		c-44.8,0-56.4-17.1-56.4-17.1c13.2,24.1,40.6,33,58.5,33C113.4,368.9,132.7,359.1,145,359.1"/>
	<path class="st0" d="M309.4,368.9c17.9,0,45.3-8.9,58.5-33c0,0-11.6,17.1-56.4,17.1c-11.2,0-32,4.3-32,4.3
		c-2.3,0.5-3.4-0.1-3.4-0.1s1.4-0.7,7.7-2.2c7.3-1.8,15.7-6.1,20.9-13.8c7.5-11,16.4-29.2,18.4-30.4c-15.6,9.7-26.5,21.7-40.6,33.5
		c-10.7,8.9-21.3,11.2-33.8,14c0,0,1.5,0.7,3.7,0.7C264.6,359.1,283.9,368.9,309.4,368.9"/>
	<path class="st0" d="M31.2,297.2c4.4,3.8,13.4,12.1,15.1,14.5c0,0-1-3.4-2-7.6c-1-4.2-2.5-14.5-6.6-23.4c-3.3-7-17-29.7-19.6-42.2
		C18,238.6,8.3,277.7,31.2,297.2"/>
	<path class="st0" d="M313.8,346.1c14.4-5.6,31.3-4.5,44.2-14.6c13.5-10.7,26.4-27.3,29-46.3c-9.6,25.8-33.7,27.9-49.9,43.6
		c-3,3.1-6.1,5.8-9.4,7.6l-0.2-0.2c3.7-4,8-8.5,10.6-13.6c9.4-15.5,6.1-37.4,13.2-54.1c-6.4,9.1-12.3,18.6-16.2,28.9
		C329.4,314.3,327.1,333.3,313.8,346.1"/>
	<path class="st0" d="M278.1,374.4c-22.3-9.1-45.5-20.6-72.4-15.1c-3,0.5-5.5,1.2-8.2,1.2c-2.7,0-5.1-0.7-8.1-1.2
		c-26.9-5.5-50.1,6.1-72.4,15.1c-16.6,6.1-38.4,5.1-53-4.3c7.2,8.5,16.9,13.8,26.9,17.3c18.6,6.9,40.7,2.2,56.1-7.9
		c13.2-6.9,24.5-20.6,41.9-15.4c-17.7,7.7-33.9,18.5-48.5,32.4l9.2,7.1c0,0,17.2-23.1,48-37c30.9,13.9,48,37,48,37l9.2-7.1
		c-14.7-13.9-30.8-24.7-48.5-32.4c17.3-5.2,28.7,8.5,41.9,15.4c15.4,10.1,37.5,14.8,56.1,7.9c10-3.5,19.7-8.8,26.9-17.3
		C316.6,379.5,294.8,380.5,278.1,374.4"/>
	<path class="st0" d="M366.1,297.2c22.9-19.5,13.2-58.7,13.2-58.7c-2.6,12.5-16.3,35.2-19.6,42.2c-4.2,8.9-5.6,19.2-6.6,23.4
		c-1,4.2-2,7.6-2,7.6C352.7,309.4,361.7,301,366.1,297.2"/>
</g>
<g>
	<defs>
		<path id="SVGID_1_" d="M282.8,146.8C282.8,146.8,282.8,146.8,282.8,146.8c-0.4,0-1,0.3-1.8,1.2c-5.4,5.4-12.4,10.2-21,14.4
			c-2,1-2.4,1.7-2.4,2.6c0,0.6,0.2,1.3,0.6,2.2c6.5,16.9,10.8,34.1,13,51.2c0,0,0.3,3.3,1.1,4c0.7,0.6,3.1-0.8,3.3-1
			c9.8-5.9,19-13.3,24.2-18.6c0.9-1,1.6-1.8,2.1-2.6v-8.1c-3.9-15.7-9.8-30.4-17.5-43.9C283.8,147.2,283.2,146.8,282.8,146.8
			L282.8,146.8z"/>
	</defs>
	<use xlink:href="#SVGID_1_"  style="overflow:visible;fill:#205870;"/>
	<clipPath id="SVGID_00000018220153388212610460000016166722445973893818_">
		<use xlink:href="#SVGID_1_"  style="overflow:visible;"/>
	</clipPath>
	<g style="clip-path:url(#SVGID_00000018220153388212610460000016166722445973893818_);">
		<defs>
			<rect id="SVGID_00000092456343196772674130000002852736086926613182_" x="257.4" y="145.9" width="44.9" height="77.2"/>
		</defs>
		<use xlink:href="#SVGID_00000092456343196772674130000002852736086926613182_"  style="overflow:visible;fill:#205870;"/>
		<clipPath id="SVGID_00000175287486006667684150000003933594443034651558_">
			<use xlink:href="#SVGID_00000092456343196772674130000002852736086926613182_"  style="overflow:visible;"/>
		</clipPath>
	</g>
</g>
<g>
	<defs>
		<path id="SVGID_00000004541103216101294700000005452450614650737047_" d="M260.9,238.4c-0.7,0.1-1.3,0.4-1.3,0.4
			c-16.9,6-35.4,9.2-54.8,9.8c-3.7,0.2-3.5,1.1-3.6,4c-0.2,17.1-0.6,33.2-1,47.9c0,0-0.1,1.5,0.4,2c0.5,0.5,1.9,0.4,1.9,0.4
			c19.3-1.2,37.6-5.3,54.4-12.2c2.5-1,2.9-2.5,3.6-5.4c4.6-18.4,3.5-43,3.5-43s0.1-3.1-1-3.7c0,0-0.1-0.1-0.1-0.1H260.9z"/>
	</defs>
	<use xlink:href="#SVGID_00000004541103216101294700000005452450614650737047_"  style="overflow:visible;fill:#205870;"/>
	<clipPath id="SVGID_00000017513777032946436730000003585098276612937366_">
		<use xlink:href="#SVGID_00000004541103216101294700000005452450614650737047_"  style="overflow:visible;"/>
	</clipPath>
	<g style="clip-path:url(#SVGID_00000017513777032946436730000003585098276612937366_);">
		<defs>
			<rect id="SVGID_00000137129656837775687150000007999835626339825826_" x="200" y="238.1" width="65.1" height="65.1"/>
		</defs>
		<use xlink:href="#SVGID_00000137129656837775687150000007999835626339825826_"  style="overflow:visible;fill:#205870;"/>
		<clipPath id="SVGID_00000034066438112835775900000006525403998285224100_">
			<use xlink:href="#SVGID_00000137129656837775687150000007999835626339825826_"  style="overflow:visible;"/>
		</clipPath>
	</g>
</g>
<g>
	<defs>
		<path id="SVGID_00000089538399307554945650000012005728982230036922_" d="M238.9,101c-3.8,2.3-9.4,4.5-15.2,5.9
			c11,13.2,20.5,28.5,28.3,45.4c0.8,1.7,1.3,2.7,1.9,2.8c0.7,0.3,1.8-0.2,2.7-0.7c7.6-4.1,14.6-9,19.2-13.5c1-1,1.4-1.9,1.4-2.8
			c0-1-0.5-2.1-1.5-3.6c-10.1-13.9-22-25.2-34.9-33.5H238.9z"/>
	</defs>
	<use xlink:href="#SVGID_00000089538399307554945650000012005728982230036922_"  style="overflow:visible;fill:#205870;"/>
	<clipPath id="SVGID_00000064316828606067402420000014726886106388508085_">
		<use xlink:href="#SVGID_00000089538399307554945650000012005728982230036922_"  style="overflow:visible;"/>
	</clipPath>
	<g style="clip-path:url(#SVGID_00000064316828606067402420000014726886106388508085_);">
		<defs>
			<rect id="SVGID_00000029041945895573830420000012224053646336695980_" x="223.1" y="100.5" width="55" height="55"/>
		</defs>
		<use xlink:href="#SVGID_00000029041945895573830420000012224053646336695980_"  style="overflow:visible;fill:#205870;"/>
		<clipPath id="SVGID_00000096041868840821056840000004670289273004384908_">
			<use xlink:href="#SVGID_00000029041945895573830420000012224053646336695980_"  style="overflow:visible;"/>
		</clipPath>
	</g>
</g>
<g>
	<defs>
		<path id="SVGID_00000033332196399629222080000008253732631387043972_" d="M199.6,109.6c0.5,18.5,1,36.8,1.3,54.5
			c0,1.6,0.3,2.5,0.8,2.9c0.4,0.3,1.2,0.6,2,0.6c12.1,0,29.5-3.7,39.4-7.5c1-0.4,1.6-0.6,1.9-1.5c0.3-0.9-0.5-2.6-0.5-2.6
			c-7.4-18.3-16.6-34.9-26.1-48C213.3,108.9,203.2,109.7,199.6,109.6"/>
	</defs>
	<use xlink:href="#SVGID_00000033332196399629222080000008253732631387043972_"  style="overflow:visible;fill:#205870;"/>
	<clipPath id="SVGID_00000031907270411051124580000017008165264621586607_">
		<use xlink:href="#SVGID_00000033332196399629222080000008253732631387043972_"  style="overflow:visible;"/>
	</clipPath>
</g>
<g>
	<defs>
		<path id="SVGID_00000097486020698163967900000014315742779520932519_" d="M253.4,299.1c-21.1,6.7-39.5,8.3-51.3,8.4
			c-1.6,0.1-2.1,0.5-2.2,2.5l-0.9,15.6c0,0,23.8,0.5,48.1-9.7c3.2-4.3,6-9.2,8.3-14.7v-2.7C254.9,298.6,254.4,298.8,253.4,299.1"/>
	</defs>
	<use xlink:href="#SVGID_00000097486020698163967900000014315742779520932519_"  style="overflow:visible;fill:#205870;"/>
	<clipPath id="SVGID_00000101819579277146525590000010617619791362775181_">
		<use xlink:href="#SVGID_00000097486020698163967900000014315742779520932519_"  style="overflow:visible;"/>
	</clipPath>
	<g style="clip-path:url(#SVGID_00000101819579277146525590000010617619791362775181_);">
		<defs>
			<rect id="SVGID_00000113335173189967555030000005534664712234884789_" x="198.5" y="297.5" width="57" height="28.8"/>
		</defs>
		<use xlink:href="#SVGID_00000113335173189967555030000005534664712234884789_"  style="overflow:visible;fill:#205870;"/>
		<clipPath id="SVGID_00000034792542676434288030000018199236456048325515_">
			<use xlink:href="#SVGID_00000113335173189967555030000005534664712234884789_"  style="overflow:visible;"/>
		</clipPath>
		<g style="clip-path:url(#SVGID_00000034792542676434288030000018199236456048325515_);">
			
				<image style="overflow:visible;" width="7" height="4" xlink:href="1979E2AAD28AE6C6.jpg"  transform="matrix(8.1476 0 0 7.2048 198.4594 297.5391)">
			</image>
		</g>
	</g>
</g>
<g>
	<defs>
		<path id="SVGID_00000154390170388404245740000003323058235650522245_" d="M305.2,212c-5.6,5.6-16,13.2-28.1,19.4
			c-3.9,2-4.3,3.5-4.4,6.8c0.2,19.5-2.1,34.5-6.4,47.2c0,0-0.4,0.9,0.8,0.3c1.1-0.6,18.8-9,30.9-21.3c4.1-4,7.2-10.1,7.9-16.4
			c2.4-21.6-0.4-36.1-0.4-36.1c0-0.1-0.1-0.2-0.1-0.2C305.3,211.8,305.2,212,305.2,212"/>
	</defs>
	<use xlink:href="#SVGID_00000154390170388404245740000003323058235650522245_"  style="overflow:visible;fill:#205870;"/>
	<clipPath id="SVGID_00000022546434376731347600000006417308931998584462_">
		<use xlink:href="#SVGID_00000154390170388404245740000003323058235650522245_"  style="overflow:visible;"/>
	</clipPath>
	<g style="clip-path:url(#SVGID_00000022546434376731347600000006417308931998584462_);">
		<defs>
			<rect id="SVGID_00000103981816791500843330000004226227101608831361_" x="266" y="211.4" width="42.9" height="75.2"/>
		</defs>
		<use xlink:href="#SVGID_00000103981816791500843330000004226227101608831361_"  style="overflow:visible;fill:#205870;"/>
		<clipPath id="SVGID_00000096756829469738812090000014332904496919927179_">
			<use xlink:href="#SVGID_00000103981816791500843330000004226227101608831361_"  style="overflow:visible;"/>
		</clipPath>
	</g>
</g>
<g>
	<defs>
		<path id="SVGID_00000142891417159737935850000004468896680400424359_" d="M295,118.8c0,4.8-1.1,9.9-3.4,15c-0.8,1.9-1.1,3.1-1.1,4
			c0,1,0.5,1.6,1.1,2.8c0,0,12.8,17.6,20.1,46.4c4.1-7.1,6.1-13.5,7.1-18.2v-12.4c-4-14.7-12.1-28.7-24-41.6
			C294.9,116.2,295,117.5,295,118.8"/>
	</defs>
	<use xlink:href="#SVGID_00000142891417159737935850000004468896680400424359_"  style="overflow:visible;fill:#205870;"/>
	<clipPath id="SVGID_00000124869881794083308070000013357342562897158566_">
		<use xlink:href="#SVGID_00000142891417159737935850000004468896680400424359_"  style="overflow:visible;"/>
	</clipPath>
	<g style="clip-path:url(#SVGID_00000124869881794083308070000013357342562897158566_);">
		<defs>
			<rect id="SVGID_00000050628633434830181910000010706418342765423780_" x="290.2" y="114.1" width="28.8" height="73.2"/>
		</defs>
		<use xlink:href="#SVGID_00000050628633434830181910000010706418342765423780_"  style="overflow:visible;fill:#205870;"/>
		<clipPath id="SVGID_00000155856345908406858840000001877001448052052116_">
			<use xlink:href="#SVGID_00000050628633434830181910000010706418342765423780_"  style="overflow:visible;"/>
		</clipPath>
	</g>
</g>
<g>
	<defs>
		<path id="SVGID_00000109001410778690399790000000268166680109873566_" d="M192.6,71.7C114,74.5,72,143.6,72,198.6
			c0,67.9,57.6,127,124.1,127c-0.1-1.1-0.9-15.9-0.9-15.9c-0.1-1.7-0.5-2.2-2.5-2.4c0,0-29-2.2-38.5-7.1c-0.4-0.2-0.2-0.6,0.3-0.5
			c0,0,19.6,3.4,38.2,3.4c0,0,2.1,0.1,2.1-2.2c0-2.1-0.8-48.2-0.8-48.2c-0.2-3.5-0.7-4-4-4.3c-20.2-0.9-39.9-5.2-57-12.4
			c-0.4-0.2-0.7-0.2-0.9-0.1c-0.4,0.2-0.4,0.9-0.4,0.9c-1.5,21.3,0.9,42.2,0.9,42.2c0,0.3-0.1,0.5-0.4,0.5c-0.4,0-0.4-0.4-0.4-0.4
			c-3.1-11.5-4.6-24-4.6-37.2c0-0.9,0.1-6.3,0.1-6.3c0-1.4-0.6-2.3-1.9-3c-8.1-4-15.3-9-21.7-14.2c0,0-0.5-0.4-0.1-0.8
			c0.3-0.3,0.7-0.1,0.7-0.1c6.6,4.3,14.2,7.9,22.1,11.1l0.9,0.1c0.5-0.3,0.5-1,0.6-2c1.2-19.7,6.6-40.5,14.2-60.2
			c0.2-0.4,0.2-0.8,0.2-1c0-0.6-0.3-0.9-1.4-1.5c-12.4-5.5-22-12.9-28.2-21c0,0-0.4-0.4,0-0.8c0.4-0.3,0.8,0.1,0.8,0.1
			c7,6.9,17.4,12.6,29.3,17c0.5,0.2,0.9,0.3,1.2,0.3c0.5,0,0.9-0.3,1.8-2.1c8.1-18.6,18.6-36.1,30.5-50.7
			c-10-2.4-20.2-7.8-22.8-13.7c0,0-0.3-0.6,0.1-0.9c0.5-0.3,0.9,0.3,0.9,0.3c11.2,12.1,43.5,11.3,43.5,11.3
			c12.8,0,38.7-4.2,41.3-14.4v-3.8c-1.8-8.5-15-13.1-37.8-13.9H192.6z"/>
	</defs>
	<use xlink:href="#SVGID_00000109001410778690399790000000268166680109873566_"  style="overflow:visible;fill:#205870;"/>
	<clipPath id="SVGID_00000081635158283355979100000013009766796884797115_">
		<use xlink:href="#SVGID_00000109001410778690399790000000268166680109873566_"  style="overflow:visible;"/>
	</clipPath>
	<g style="clip-path:url(#SVGID_00000081635158283355979100000013009766796884797115_);">
		<defs>
			<rect id="SVGID_00000148633239434080155680000003809347378407662984_" x="71.5" y="71.3" width="167.9" height="254.5"/>
		</defs>
		<use xlink:href="#SVGID_00000148633239434080155680000003809347378407662984_"  style="overflow:visible;fill:#205870;"/>
		<clipPath id="SVGID_00000001641471372536650420000016133234440350398893_">
			<use xlink:href="#SVGID_00000148633239434080155680000003809347378407662984_"  style="overflow:visible;"/>
		</clipPath>
	</g>
</g>
<g>
	<defs>
		<path id="SVGID_00000049212417300176145150000017380112254322859395_" d="M248.5,86.9c0,3.2-1.5,6.5-4.4,9.8
			c14.2,8.2,26.2,18.1,36.6,30.1c0,0,1.6,2.1,2.6,2c0.7-0.1,1.2-1.7,1.2-1.7c1-2.7,1.7-5.8,1.8-9v-2.6c-0.1-2.7-0.6-5.3-1.6-7.6
			c-2.2-5.3-9.3-10.6-9.3-10.6c-10.8-8.4-22.9-13.7-28.6-15.9C248,83.1,248.5,85,248.5,86.9"/>
	</defs>
	<use xlink:href="#SVGID_00000049212417300176145150000017380112254322859395_"  style="overflow:visible;fill:#205870;"/>
	<clipPath id="SVGID_00000137820958751526336140000010051882488251720860_">
		<use xlink:href="#SVGID_00000049212417300176145150000017380112254322859395_"  style="overflow:visible;"/>
	</clipPath>
	<g style="clip-path:url(#SVGID_00000137820958751526336140000010051882488251720860_);">
		<defs>
			<rect id="SVGID_00000150808803502568804280000016055468623879620014_" x="243.8" y="80.4" width="42.9" height="49"/>
		</defs>
		<use xlink:href="#SVGID_00000150808803502568804280000016055468623879620014_"  style="overflow:visible;fill:#205870;"/>
		<clipPath id="SVGID_00000165216284826825942340000013182466385687762870_">
			<use xlink:href="#SVGID_00000150808803502568804280000016055468623879620014_"  style="overflow:visible;"/>
		</clipPath>
	</g>
</g>
<g>
	<defs>
		<path id="SVGID_00000054224781357137778550000016436367242218588551_" d="M317.5,195.7c-2.3,3.8-3.1,6.4-2.9,8.9
			c0.7,8.5,0.8,16,0.8,16c0,8.7-0.9,17.3-2.5,25.4c5.6-9.6,10.4-22.7,12.1-38v-24.4c-0.2-1.9-0.5-3.7-0.8-5.6
			C322.9,184.1,320.9,190.1,317.5,195.7"/>
	</defs>
	<use xlink:href="#SVGID_00000054224781357137778550000016436367242218588551_"  style="overflow:visible;fill:#205870;"/>
	<clipPath id="SVGID_00000000915399883363879800000015310573199848316308_">
		<use xlink:href="#SVGID_00000054224781357137778550000016436367242218588551_"  style="overflow:visible;"/>
	</clipPath>
	<g style="clip-path:url(#SVGID_00000000915399883363879800000015310573199848316308_);">
		<defs>
			<rect id="SVGID_00000152971263192344750610000004727529623459984025_" x="312.3" y="177.1" width="12.7" height="69.1"/>
		</defs>
		<use xlink:href="#SVGID_00000152971263192344750610000004727529623459984025_"  style="overflow:visible;fill:#205870;"/>
		<clipPath id="SVGID_00000047738831525228274020000011826639979841019022_">
			<use xlink:href="#SVGID_00000152971263192344750610000004727529623459984025_"  style="overflow:visible;"/>
		</clipPath>
	</g>
</g>
<g>
	<defs>
		<path id="SVGID_00000067924321516174180350000010552419612249087669_" d="M295.6,276.9c-8.7,6.9-18.7,12.7-29.7,17.5
			c-2.2,0.9-4.2,3.6-5.3,5.7c-2.2,4.6-4.8,9-7.7,13.1c14.8-7.3,31.6-21.5,43.2-36.3H295.6z"/>
	</defs>
	<use xlink:href="#SVGID_00000067924321516174180350000010552419612249087669_"  style="overflow:visible;fill:#205870;"/>
	<clipPath id="SVGID_00000099626649374890965370000006580785294938003842_">
		<use xlink:href="#SVGID_00000067924321516174180350000010552419612249087669_"  style="overflow:visible;"/>
	</clipPath>
	<g style="clip-path:url(#SVGID_00000099626649374890965370000006580785294938003842_);">
		<defs>
			<rect id="SVGID_00000176005767640072885850000000808491054232902025_" x="252.4" y="276.4" width="44.9" height="36.9"/>
		</defs>
		<use xlink:href="#SVGID_00000176005767640072885850000000808491054232902025_"  style="overflow:visible;fill:#205870;"/>
		<clipPath id="SVGID_00000072245663153751313480000000654861975662344112_">
			<use xlink:href="#SVGID_00000176005767640072885850000000808491054232902025_"  style="overflow:visible;"/>
		</clipPath>
		
			<g transform="matrix(1 0 0 1 1.525879e-05 0)" style="clip-path:url(#SVGID_00000072245663153751313480000000654861975662344112_);">
			
				<image style="overflow:visible;" width="6" height="5" xlink:href="1979E2AAD28AE6CA.jpg"  transform="matrix(7.4902 0 0 7.3761 252.3657 276.3672)">
			</image>
		</g>
	</g>
</g>
<g>
	<defs>
		<path id="SVGID_00000088837428789703952100000013094924438694848929_" d="M146.3,167.9c-11.7,29.4-14,61.1-14,61.1
			c-0.1,1.5,0.3,1.8,1.3,2.2c0,0,24.8,9.4,56.6,9.4c0,0,2.2-0.1,2.8-0.6c0.8-0.8,0.9-1.4,0.9-4c0.1-15.7,0.4-57.1,0.4-57.1
			c0-2.6-1.3-4-3.6-4.1c-14.8-0.7-29.3-3.4-41.8-7.9c-0.6-0.2-1.1-0.3-1.4-0.3C147,166.7,146.8,166.9,146.3,167.9"/>
	</defs>
	<use xlink:href="#SVGID_00000088837428789703952100000013094924438694848929_"  style="overflow:visible;fill:#205870;"/>
	<clipPath id="SVGID_00000056420282420398020800000008109257028066247611_">
		<use xlink:href="#SVGID_00000088837428789703952100000013094924438694848929_"  style="overflow:visible;"/>
	</clipPath>
	<g style="clip-path:url(#SVGID_00000056420282420398020800000008109257028066247611_);">
		<defs>
			<rect id="SVGID_00000144303023514973144660000012820059550518202017_" x="132" y="166.1" width="63.1" height="75.2"/>
		</defs>
		<use xlink:href="#SVGID_00000144303023514973144660000012820059550518202017_"  style="overflow:visible;fill:#205870;"/>
		<clipPath id="SVGID_00000125580022149670515250000012247443662677858718_">
			<use xlink:href="#SVGID_00000144303023514973144660000012820059550518202017_"  style="overflow:visible;"/>
		</clipPath>
	</g>
</g>
<g>
	<defs>
		<path id="SVGID_00000002352529938447898020000011512195707385287824_" d="M149.9,158.9L149.9,158.9c-0.8,1.7-0.4,2.2-0.4,2.2
			c0.2,0.4,0.7,0.5,0.7,0.5c9.5,3.1,27.8,6.2,40.6,6.2c1.4,0,2.2-0.3,2.8-0.7c0.5-0.5,0.9-1.5,0.9-3.3v0c0.2-11.5,0.5-23.3,1-35.2
			v-19c-5.3-0.2-11.5-1.1-16-2C167.7,122.8,157.8,139.9,149.9,158.9"/>
	</defs>
	<use xlink:href="#SVGID_00000002352529938447898020000011512195707385287824_"  style="overflow:visible;fill:#205870;"/>
	<clipPath id="SVGID_00000123439615375805883640000008445089282919742649_">
		<use xlink:href="#SVGID_00000002352529938447898020000011512195707385287824_"  style="overflow:visible;"/>
	</clipPath>
	<g style="clip-path:url(#SVGID_00000123439615375805883640000008445089282919742649_);">
		<defs>
			<rect id="SVGID_00000071557915342659593530000018097974113059412401_" x="148.6" y="107.1" width="47" height="61.1"/>
		</defs>
		<use xlink:href="#SVGID_00000071557915342659593530000018097974113059412401_"  style="overflow:visible;fill:#205870;"/>
		<clipPath id="SVGID_00000140002525199732396970000000199483587322844090_">
			<use xlink:href="#SVGID_00000071557915342659593530000018097974113059412401_"  style="overflow:visible;"/>
		</clipPath>
	</g>
</g>
<g>
	<defs>
		<path id="SVGID_00000096058929685477929760000005754340324606146953_" d="M246,168c-12.6,4.2-26.5,6.5-41.2,7
			c-2.8,0.1-3.7,2-3.7,4.1c0.1,9.1,0.2,23.4,0.2,42.6c0,4.9,0,11.4,0,16.2c0,0-0.1,1.5,0.5,2.1c0.4,0.4,1.1,0.5,2.1,0.5
			c8.9-0.5,31.6-2,54.5-10.9c1.5-0.6,2.4-1.2,3-2v-10c-2.4-15.8-6.3-31.7-11.6-47.4c-0.4-1.1-0.7-1.8-1-2.2H246z"/>
	</defs>
	<use xlink:href="#SVGID_00000096058929685477929760000005754340324606146953_"  style="overflow:visible;fill:#205870;"/>
	<clipPath id="SVGID_00000087386701893365464040000001782062112253769611_">
		<use xlink:href="#SVGID_00000096058929685477929760000005754340324606146953_"  style="overflow:visible;"/>
	</clipPath>
	<g style="clip-path:url(#SVGID_00000087386701893365464040000001782062112253769611_);">
		<defs>
			<rect id="SVGID_00000147905911546342287170000011209987633055853954_" x="201" y="167.6" width="61.1" height="73.1"/>
		</defs>
		<use xlink:href="#SVGID_00000147905911546342287170000011209987633055853954_"  style="overflow:visible;fill:#205870;"/>
		<clipPath id="SVGID_00000112599941013275242660000017980984336938508452_">
			<use xlink:href="#SVGID_00000147905911546342287170000011209987633055853954_"  style="overflow:visible;"/>
		</clipPath>
	</g>
</g>
</svg>
