<svg xmlns="http://www.w3.org/2000/svg" width="236.458" height="98.703" viewBox="0 0 236.458 98.703">
  <path id="Path_2636" data-name="Path 2636" d="M51.609,20.1a24.043,24.043,0,0,0-24.232,24.32c0,14.081,9.251,24.323,22.946,24.323a19.047,19.047,0,0,0,13.591-5.808v5.212H75.427V43.337c0-12.889-10.045-23.234-23.817-23.234m-.2,37.221c-7.184,0-12.212-5.212-12.212-12.9s5.027-12.992,12.212-12.992,12.215,5.319,12.215,12.992-5.027,12.9-12.215,12.9M81.435,68.161h11.91V19.519L81.435,22.47ZM11.525,25.816V21.187H0V68.161H11.816V43.337c0-6.5,2.86-11.525,11.525-11.525h3.547V20.591H24.323a17,17,0,0,0-12.8,5.225M122.113,46.1l16.646-14.767V21.2H98.771V32.129h23.037l-14.767,12.9,9.844,11.421C104.09,57.233,96.2,66.3,96.2,77.134c0,12.215,9.951,21.57,22.153,21.57,12.108,0,22.256-9.355,22.256-21.57a22.9,22.9,0,0,0-5.808-16.05Zm-3.838,41.659c-6.3,0-10.534-4.632-10.534-10.735S111.977,66.3,118.274,66.3c6.206,0,10.534,4.632,10.534,10.731s-4.34,10.735-10.534,10.735m45.5-67.659c-13.99,0-23.542,10.929-23.542,24.32,0,13.485,9.646,24.323,23.542,24.323,11.22,0,18.907-6.206,21.858-15.256H173.418c-1.668,2.857-4.327,4.431-8.959,4.431-6.987,0-11.023-3.547-12.215-9.552H186.9c.1-1.179.2-2.067.2-3.255,0-16.238-10.427-25.009-23.328-25.009M152.337,39.009c1.681-5.808,6.1-8.561,11.525-8.561,5.61,0,9.753,2.462,11.22,8.561ZM217.35,20.1a18.163,18.163,0,0,0-13.193,5.516V21.187H192.632V68.161h11.816V43.246c0-6.5,2.857-11.91,10.838-11.91,7.382,0,9.445,5.413,9.445,11.91V68.161h11.726V39.605c-.013-10.731-6.4-19.5-19.108-19.5M99.141,0l-18,11.1v5.808l18-6.271Z" fill="#fff"/>
</svg>
