<svg xmlns="http://www.w3.org/2000/svg" width="143.15" height="59.753" viewBox="0 0 143.15 59.753"><path d="M31.244,12.17a14.556,14.556,0,0,0-14.67,14.723c0,8.524,5.6,14.725,13.891,14.725A11.531,11.531,0,0,0,38.694,38.1v3.155h6.969V26.235A13.992,13.992,0,0,0,31.244,12.17M31.122,34.7c-4.349,0-7.393-3.155-7.393-7.81s3.043-7.865,7.393-7.865,7.395,3.22,7.395,7.865-3.043,7.81-7.395,7.81M49.3,41.264h7.21V11.817L49.3,13.6ZM6.977,15.629v-2.8H0V41.264H7.154V26.235c0-3.934,1.732-6.977,6.977-6.977h2.147V12.466H14.725a10.289,10.289,0,0,0-7.748,3.163M73.926,27.91,84,18.97V12.834H59.8V19.45H73.742l-8.94,7.81,5.959,6.914c-7.746.473-12.521,5.959-12.521,12.521a13.448,13.448,0,0,0,26.885,0,13.861,13.861,0,0,0-3.516-9.716ZM71.6,53.129a6.2,6.2,0,0,1-6.377-6.5,6.378,6.378,0,1,1,12.754,0,6.237,6.237,0,0,1-6.377,6.5M99.146,12.17c-8.469,0-14.252,6.616-14.252,14.723,0,8.163,5.84,14.725,14.252,14.725,6.793,0,11.446-3.757,13.233-9.236h-7.393c-1.01,1.73-2.62,2.683-5.424,2.683-4.23,0-6.673-2.147-7.395-5.783H113.15c.063-.714.12-1.251.12-1.971,0-9.83-6.312-15.14-14.123-15.14M92.224,23.615A6.812,6.812,0,0,1,99.2,18.433c3.4,0,5.9,1.49,6.793,5.183ZM131.583,12.17a11,11,0,0,0-7.987,3.339V12.826h-6.977V41.264h7.154V26.18c0-3.934,1.73-7.21,6.561-7.21,4.469,0,5.718,3.277,5.718,7.21V41.264h7.1V23.976c-.008-6.5-3.877-11.807-11.568-11.807M60.019,0l-10.9,6.722v3.516l10.9-3.8Z" fill="#781e77"/></svg>