<svg id="logo-globlcompact" xmlns="http://www.w3.org/2000/svg" xmlns:xlink="http://www.w3.org/1999/xlink" width="161.826" height="164.358" viewBox="0 0 161.826 164.358">
  <defs>
    <clipPath id="clip-path">
      <rect id="Rectangle_682" data-name="Rectangle 682" width="161.826" height="164.358" fill="#781f78"/>
    </clipPath>
    <clipPath id="clip-path-2">
      <path id="Path_5514" data-name="Path 5514" d="M267.874,146.766h-.028c-.137,0-.379.133-.7.477a30.844,30.844,0,0,1-8.56,5.858c-.808.4-.987.707-.989,1.07a2.558,2.558,0,0,0,.248.9,90.315,90.315,0,0,1,5.291,20.868s.128,1.346.452,1.639c.29.249,1.254-.343,1.34-.394a54.673,54.673,0,0,0,9.867-7.567,5.094,5.094,0,0,0,.862-1.069v-3.291a70.563,70.563,0,0,0-7.125-17.864c-.267-.452-.493-.627-.636-.627Z" transform="translate(-257.593 -146.766)" fill="#781f78"/>
    </clipPath>
    <clipPath id="clip-path-4">
      <path id="Path_5516" data-name="Path 5516" d="M224.892,238.359a3.535,3.535,0,0,0-.518.153,73.18,73.18,0,0,1-22.313,3.971c-1.508.1-1.415.448-1.476,1.623-.073,6.966-.226,13.534-.414,19.494,0,0-.051.611.166.831.194.191.789.146.789.146a69.953,69.953,0,0,0,22.163-4.983c1-.423,1.174-1.025,1.461-2.18,1.858-7.488,1.406-17.508,1.406-17.508s.026-1.244-.407-1.518a.123.123,0,0,0-.057-.029Z" transform="translate(-200.165 -238.359)" fill="#781f78"/>
    </clipPath>
    <clipPath id="clip-path-6">
      <path id="Path_5518" data-name="Path 5518" d="M229.811,100.96a23.312,23.312,0,0,1-6.212,2.419,84.741,84.741,0,0,1,11.545,18.491c.312.691.528,1.085.764,1.142a1.6,1.6,0,0,0,1.088-.274,34.739,34.739,0,0,0,7.809-5.518,1.568,1.568,0,0,0,.554-1.139,2.663,2.663,0,0,0-.6-1.464,53.758,53.758,0,0,0-14.218-13.657Z" transform="translate(-223.6 -100.96)" fill="#781f78"/>
    </clipPath>
    <clipPath id="clip-path-8">
      <path id="Path_5520" data-name="Path 5520" d="M199.608,108.662c.213,7.532.4,15,.512,22.2a1.644,1.644,0,0,0,.312,1.175,1.36,1.36,0,0,0,.833.226,53.76,53.76,0,0,0,16.06-3.048c.4-.146.659-.252.792-.6a2.044,2.044,0,0,0-.184-1.06A94.273,94.273,0,0,0,207.3,108.007a57.075,57.075,0,0,1-7.694.655" transform="translate(-199.608 -108.007)" fill="#781f78"/>
    </clipPath>
    <clipPath id="clip-path-10">
      <path id="Path_5522" data-name="Path 5522" d="M221.1,298.764a72.488,72.488,0,0,1-20.906,3.424c-.662.045-.85.22-.91,1.031l-.379,6.357a53.356,53.356,0,0,0,19.6-3.945,29.194,29.194,0,0,0,3.373-5.976v-1.1a6.46,6.46,0,0,0-.783.21" transform="translate(-198.904 -298.554)" fill="#781f78"/>
    </clipPath>
    <clipPath id="clip-path-12">
      <path id="Path_5524" data-name="Path 5524" d="M282.158,211.883a48.777,48.777,0,0,1-11.427,7.911c-1.594.821-1.763,1.406-1.775,2.778a58.258,58.258,0,0,1-2.588,19.236s-.152.363.306.127,7.675-3.672,12.6-8.661A11.323,11.323,0,0,0,282.5,226.6a53.634,53.634,0,0,0-.172-14.7c-.006-.054-.025-.077-.054-.077a.208.208,0,0,0-.115.064" transform="translate(-266.344 -211.819)" fill="#781f78"/>
    </clipPath>
    <clipPath id="clip-path-14">
      <path id="Path_5526" data-name="Path 5526" d="M292.323,116.466a15.337,15.337,0,0,1-1.371,6.106,4.264,4.264,0,0,0-.461,1.626,2.505,2.505,0,0,0,.439,1.129,59.913,59.913,0,0,1,8.175,18.9,25.924,25.924,0,0,0,2.88-7.4v-5.04a41,41,0,0,0-9.782-16.945,11.421,11.421,0,0,1,.121,1.623" transform="translate(-290.49 -114.843)" fill="#781f78"/>
    </clipPath>
    <clipPath id="clip-path-16">
      <path id="Path_5528" data-name="Path 5528" d="M121.121,71.718c-32.025,1.13-49.153,29.266-49.153,51.7,0,27.646,23.468,51.728,50.56,51.728-.025-.452-.347-6.485-.347-6.485-.029-.678-.191-.888-1.015-.983,0,0-11.818-.913-15.7-2.9-.163-.1-.077-.258.14-.21a106.666,106.666,0,0,0,15.554,1.378.823.823,0,0,0,.85-.91c0-.859-.334-19.617-.334-19.617-.064-1.416-.28-1.639-1.636-1.757a69.49,69.49,0,0,1-23.229-5.04c-.178-.079-.27-.1-.363-.041-.156.064-.156.366-.156.366a104.921,104.921,0,0,0,.366,17.173c.019.14-.025.2-.165.223-.159.016-.181-.165-.181-.165A59.079,59.079,0,0,1,94.43,141c-.007-.382.038-2.584.038-2.584a1.231,1.231,0,0,0-.773-1.209,48.825,48.825,0,0,1-8.856-5.779.224.224,0,0,1-.022-.337.231.231,0,0,1,.286-.026,54.785,54.785,0,0,0,9.009,4.525l.349.025c.2-.131.185-.388.226-.809a84.441,84.441,0,0,1,5.766-24.534,1.228,1.228,0,0,0,.1-.426c-.013-.248-.118-.385-.579-.595A29.072,29.072,0,0,1,88.5,100.71a.233.233,0,0,1,.01-.325.222.222,0,0,1,.305.026c2.858,2.794,7.09,5.123,11.942,6.93a1.323,1.323,0,0,0,.477.118c.213,0,.385-.13.723-.843a88.641,88.641,0,0,1,12.4-20.636C110.3,85,106.124,82.8,105.09,80.39c0,0-.134-.261.057-.366.223-.124.382.137.382.137,4.551,4.922,17.731,4.6,17.731,4.6,5.206,0,15.771-1.731,16.834-5.855V77.369c-.732-3.456-6.122-5.349-15.4-5.651Z" transform="translate(-71.968 -71.718)" fill="#781f78"/>
    </clipPath>
    <clipPath id="clip-path-18">
      <path id="Path_5530" data-name="Path 5530" d="M245.936,83.613a6.248,6.248,0,0,1-1.789,4,57.562,57.562,0,0,1,14.927,12.254s.665.859,1.059.821c.277-.038.51-.706.51-.706a11.9,11.9,0,0,0,.741-3.656V95.288a9.329,9.329,0,0,0-.649-3.112c-.907-2.16-3.8-4.333-3.8-4.333a48.471,48.471,0,0,0-11.656-6.476,4.33,4.33,0,0,1,.656,2.246" transform="translate(-244.147 -81.367)" fill="#781f78"/>
    </clipPath>
    <clipPath id="clip-path-20">
      <path id="Path_5532" data-name="Path 5532" d="M314.758,185.232a5.942,5.942,0,0,0-1.19,3.643c.3,3.472.311,6.53.311,6.53a52.052,52.052,0,0,1-1.021,10.329,40.09,40.09,0,0,0,4.929-15.474v-9.938c-.089-.754-.191-1.518-.318-2.291a21.936,21.936,0,0,1-2.711,7.2" transform="translate(-312.858 -178.031)" fill="#781f78"/>
    </clipPath>
    <clipPath id="clip-path-22">
      <path id="Path_5534" data-name="Path 5534" d="M270.312,276.929a54.39,54.39,0,0,1-12.1,7.115,4.94,4.94,0,0,0-2.151,2.316,38.067,38.067,0,0,1-3.15,5.339c6.011-2.988,12.862-8.769,17.59-14.771Z" transform="translate(-252.913 -276.929)" fill="#781f78"/>
    </clipPath>
    <clipPath id="clip-path-24">
      <path id="Path_5536" data-name="Path 5536" d="M138,167.227a95.7,95.7,0,0,0-5.718,24.884c-.048.608.117.726.531.914a71.684,71.684,0,0,0,23.067,3.847s.894-.026,1.123-.255c.337-.337.382-.576.366-1.617.029-6.386.153-23.254.153-23.254a1.473,1.473,0,0,0-1.479-1.68,60.8,60.8,0,0,1-17.037-3.2,2.043,2.043,0,0,0-.557-.134c-.172,0-.277.073-.448.493" transform="translate(-132.276 -166.734)" fill="#781f78"/>
    </clipPath>
    <clipPath id="clip-path-26">
      <path id="Path_5538" data-name="Path 5538" d="M149.6,128.48v.009c-.315.674-.165.891-.165.891a.581.581,0,0,0,.3.222,63.875,63.875,0,0,0,16.553,2.514,1.619,1.619,0,0,0,1.12-.3,1.84,1.84,0,0,0,.363-1.327v-.009c.092-4.7.21-9.508.395-14.336v-7.758a40.425,40.425,0,0,1-6.5-.821A91.3,91.3,0,0,0,149.6,128.48" transform="translate(-149.404 -107.57)" fill="#781f78"/>
    </clipPath>
    <clipPath id="clip-path-28">
      <path id="Path_5540" data-name="Path 5540" d="M219.359,168.007a60.715,60.715,0,0,1-16.786,2.87,1.463,1.463,0,0,0-1.5,1.667c.038,3.7.1,9.511.1,17.342,0,1.992.019,4.646.019,6.584a1.408,1.408,0,0,0,.222.868,1.108,1.108,0,0,0,.856.2,73.723,73.723,0,0,0,22.2-4.445,2.617,2.617,0,0,0,1.206-.8V188.2a111.777,111.777,0,0,0-4.741-19.309,4.009,4.009,0,0,0-.388-.885Z" transform="translate(-201.068 -168.007)" fill="#781f78"/>
    </clipPath>
  </defs>
  <g id="Group_1106" data-name="Group 1106">
    <g id="Group_1105" data-name="Group 1105" clip-path="url(#clip-path)">
      <path id="Path_5505" data-name="Path 5505" d="M116.146,15.468c-1.785,3.258-1.524,6.11.353,7.306,1.823,1.127,4.474-.073,6.485-3.087,1.89-2.909,1.963-5.766-.331-7.2-2.438-1.512-4.748-.2-6.508,2.979m-2.619-.936c2.2-3.908,6.055-5.12,9.915-2.737,3.615,2.2,4.178,5.76,2.017,9.056-2.329,3.605-6.268,4.85-9.849,2.692-3.274-1.966-4.025-5.521-2.084-9.012M1.168,79.976l11.3.019.719-2.246h.563c-.156,3.653,0,7.115,0,7.115H13.17l-.7-2.247H1.168l.044,2.88,2.826,1v.828H.181A95.982,95.982,0,0,1,.207,75.279H4.038v.834L1.212,77.143Zm159.5,2.2-11.309-.019-.719,2.24h-.566c.159-3.65,0-7.105,0-7.105h.589l.7,2.237h11.309l-.054-2.876-2.826-1.006v-.818h3.86a97.17,97.17,0,0,1-.022,12.057h-3.838v-.85L160.613,85ZM148.638,71.543l2.963.547.162.881-3.315.442-.147-.28a16.387,16.387,0,0,1-1.426-3.924c-.815-4.172,1.216-6.931,5.356-7.958,4.363-1.082,7.685,1.352,8.544,5.944a16.91,16.91,0,0,1,.163,4.4l-3.36.611-.169-.894,2.527-1.5a5.034,5.034,0,0,0-.1-1.26c-.751-3.885-3.436-5.55-7.016-4.633-3.51.891-5.235,3.061-4.617,6.342a10.539,10.539,0,0,0,.4,1.238Zm-.5-20.289,1.285,3.255,3.787-3.208Zm-1.05.048-4.213-.019L142.8,53.01l-.534.21c-.916-2.017-2.011-4.162-2.011-4.162l.535-.239,1.244,1.187,13.947.293.394,1.146-10.084,9.12-.073,1.715-.538.213c-.914-2.858-1.824-5.505-1.824-5.505l.541-.207,1.235,1.165,3.045-2.759Zm-3.66-9.664a3,3,0,0,0,1.639,1.546,3.371,3.371,0,0,0,2.765-.356,3.178,3.178,0,0,0,1.549-1.916,2.474,2.474,0,0,0-.5-2.132l-.726-1.076-5.088,3.4Zm-1.092-.073-3.7,2.39.305,1.83-.461.3c-1.578-2.482-3.3-5.034-3.3-5.034l.481-.3,1.477,1.009,9.2-6.132-.267-1.775.5-.305,3.23,4.913a6.163,6.163,0,0,1,1.3,3.882,3.476,3.476,0,0,1-1.722,2.759c-2.158,1.333-4.636.378-6.31-2.314ZM131.687,30.682l9.715-3.554,2.825,3.322-.417.4-1.734-.725-8.308,7.325L134.5,39.2l-.426.4c-1.868-2.218-3.742-4.331-3.742-4.331l.4-.42,1.664.684,6.692-6.112-10.7,3.863-.35-.382,3.955-10.685-6.2,6.644.655,1.686-.426.395-3.691-3.106.4-.4,1.722.7,7.729-8.009-.7-1.728.417-.4,3.4,2.931ZM106.927,17.67l1.935-2.266.872.305-1.283,3.08-.327-.022a15.122,15.122,0,0,1-4.1-.792c-3.9-1.406-5.425-4.659-4.191-8.659,1.289-4.191,4.449-5.973,9.5-4.375A14.377,14.377,0,0,1,113.1,6.931l-1.139,3.185L111.1,9.83V6.883a6.571,6.571,0,0,0-1.037-.5c-4.28-1.5-6.619.5-7.621,3.771-1.06,3.4.137,6.112,3.179,7.188a5.147,5.147,0,0,0,1.311.325M84.176,12.515,85.14,1.432,83.5.563,83.552,0c3.153.143,6.059.423,6.059.423l-.051.56-1.782.563-1,11.4,3.2.327,1.5-2.39.843.077-.611,3.507s-5.139-.63-9.355-.821l.048-.554Zm-13.148-4.4,3.481-.366L72.453,3.236Zm-.264,1.008L69.684,13.2l1.642.563.076.557-4.569.725-.045-.56,1.451-.859L72.329.305,73.34.213,79.5,12.426l1.61.538.051.589-5.925.347-.045-.557,1.47-.891-1.731-3.8ZM59.533,16.219l.748-.28A3.2,3.2,0,0,0,62.3,14.654a2.7,2.7,0,0,0,.2-2.247c-.541-1.734-1.878-2.386-3.771-1.8l-.977.35ZM57.5,10.062l.866-.3A2.659,2.659,0,0,0,60.24,6.3a2.337,2.337,0,0,0-3.258-1.715l-1.19.471Zm-.567,6.762-3.6-10.6-1.849-.181L51.317,5.5,57.7,3.4a4.446,4.446,0,0,1,3.4-.054A2.873,2.873,0,0,1,62.76,5.222c.566,1.776-.509,3.389-2.807,4.429,2.756-.754,4.547-.057,5.174,1.98a3.338,3.338,0,0,1-.56,3.067,6.248,6.248,0,0,1-3.4,1.941l-5.5,1.919-.159-.535ZM41.605,17.95c1.922,3.186,4.512,4.407,6.479,3.376,1.9-1.012,2.2-3.911.589-7.176-1.55-3.1-4-4.576-6.361-3.315-2.536,1.356-2.575,4-.707,7.115m-2.119,1.782c-2.278-3.837-1.391-7.8,2.616-9.953,3.717-1.986,7.058-.672,8.843,2.839,1.944,3.84,1.028,7.841-2.625,9.852-3.348,1.852-6.807.7-8.834-2.737M34.77,30.376,27.56,21.858l-1.776.567-.369-.446,4.652-3.908.369.42-.84,1.661,7.325,8.706,2.673-2.224L38.936,23.9l.659-.57,2.033,2.905S37.971,29.2,34.3,32.458l-.363-.439Zm-5.728,1.053,2.9,2.479A18.465,18.465,0,0,1,29.6,37.87c-2.756,3.37-6.383,3.768-9.705,1.031-3.373-2.768-4.239-6.444-.821-10.437A22.575,22.575,0,0,1,22.3,25.536l.28-.216L25.148,27.5,24.5,28.3l-2.669-.955a3.753,3.753,0,0,0-.99.792c-2.9,3.106-2.291,6.154.78,8.662,2.74,2.247,5.728,2.062,7.809-.5a2.286,2.286,0,0,0,.455-.821l-2.536-2.126-1.661.872-.439-.356L29.132,29.3l.446.35ZM13.333,51.865l5.031,2.081,1.8-3.694-1.639-2.04.356-.745,2.848,1.54s-2.154,4.4-4.124,9.285l-.532-.229.051-1.846L6.822,52.164,5.47,53.456l-.519-.235c2.158-5.378,4.305-10.157,4.305-10.157L12.228,44.4l-.293.732L9.352,45.1,7.576,49.621,12.4,51.464l1.432-3.182-1.384-1.426.325-.751,4.169,1.874-.321.748-1.855-.022-1.429,3.134Zm-5.174,16.8,5.174.888,1.06-1.518.547.121-.9,5.941-.567-.118-.347-1.826L2.144,70.372,1.094,71.9l-.557-.121L1.556,65.72l.56.114.356,1.826,4.684.8L8.35,62.538,3.738,61.36l-1.05,1.527-.573-.121L3.6,56.781l.563.115.35,1.823L15.4,61.44l1.047-1.524.563.114-1.566,5.944L14.9,65.86l-.35-1.833-5.2-1.235-1.193,5.8Z" transform="translate(0)" fill="#781f78"/>
      <path id="Path_5506" data-name="Path 5506" d="M22.162,294.112c5.244,4.143,12.1,3.659,17.992,5.957-5.442-5.206-6.345-12.964-8.687-19.84a53.045,53.045,0,0,0-6.593-11.783c2.883,6.82,1.534,15.707,5.381,22.039a24.9,24.9,0,0,0,4.324,5.55l-.086.089a16.716,16.716,0,0,1-3.834-3.1c-6.58-6.4-16.394-7.271-20.308-17.756,1.063,7.713,6.3,14.491,11.812,18.847" transform="translate(-6.134 -159.105)" fill="#781f78"/>
      <path id="Path_5507" data-name="Path 5507" d="M76.451,330.569a3.872,3.872,0,0,0,1.489-.293c-5.11-1.133-9.412-2.072-13.785-5.7-5.763-4.808-10.177-9.693-16.547-13.645.8.5,4.436,7.921,7.478,12.388a14.462,14.462,0,0,0,8.518,5.6,19.19,19.19,0,0,1,3.134.907,2.066,2.066,0,0,1-1.381.035s-8.465-1.773-13.04-1.773c-18.259,0-22.968-6.969-22.968-6.969,5.4,9.8,16.541,13.438,23.841,13.438,10.4,0,18.252-3.99,23.261-3.99" transform="translate(-17.396 -184.285)" fill="#781f78"/>
      <path id="Path_5508" data-name="Path 5508" d="M273.412,334.562c7.306,0,18.443-3.628,23.847-13.432,0,0-4.716,6.969-22.975,6.969-4.582,0-13.04,1.766-13.04,1.766a2.079,2.079,0,0,1-1.384-.029,19.754,19.754,0,0,1,3.131-.907,14.443,14.443,0,0,0,8.525-5.6c3.042-4.468,6.676-11.885,7.474-12.381-6.367,3.946-10.784,8.83-16.544,13.632-4.372,3.637-8.678,4.576-13.785,5.7a3.8,3.8,0,0,0,1.49.3c5.008,0,12.862,3.984,23.261,3.984" transform="translate(-147.38 -184.295)" fill="#781f78"/>
      <path id="Path_5509" data-name="Path 5509" d="M22.161,262.468a67.608,67.608,0,0,1,6.141,5.9s-.407-1.393-.824-3.1-1-5.909-2.708-9.527c-1.34-2.845-6.912-12.1-7.993-17.174,0,0-3.961,15.942,5.384,23.9" transform="translate(-9.449 -141.399)" fill="#781f78"/>
      <path id="Path_5510" data-name="Path 5510" d="M313.788,300.065c5.884-2.294,12.747-1.814,17.988-5.954,5.508-4.356,10.746-11.137,11.809-18.851-3.914,10.488-13.718,11.36-20.3,17.759a16.943,16.943,0,0,1-3.841,3.109l-.073-.1a25.4,25.4,0,0,0,4.324-5.546c3.844-6.329,2.482-15.22,5.372-22.036a52.944,52.944,0,0,0-6.587,11.787c-2.345,6.873-3.252,14.631-8.687,19.834" transform="translate(-185.98 -159.105)" fill="#781f78"/>
      <path id="Path_5511" data-name="Path 5511" d="M151.209,364.592c-9.078-3.691-18.526-8.394-29.485-6.16a18.919,18.919,0,0,1-3.329.49,18.905,18.905,0,0,1-3.319-.49c-10.959-2.234-20.406,2.469-29.495,6.16-6.771,2.495-15.65,2.081-21.606-1.76a24.988,24.988,0,0,0,10.966,7.042c7.567,2.829,16.566.9,22.841-3.2,5.372-2.819,10-8.385,17.082-6.281A68.335,68.335,0,0,0,95.1,373.578l3.736,2.877a54.139,54.139,0,0,1,19.557-15.07,54.09,54.09,0,0,1,19.564,15.07l3.742-2.877a68.393,68.393,0,0,0-19.754-13.186c7.064-2.1,11.7,3.462,17.062,6.281,6.282,4.1,15.274,6.03,22.854,3.2a25.053,25.053,0,0,0,10.969-7.042c-5.973,3.84-14.832,4.254-21.622,1.76" transform="translate(-37.918 -212.097)" fill="#781f78"/>
      <path id="Path_5512" data-name="Path 5512" d="M357.159,262.468c9.34-7.955,5.372-23.9,5.372-23.9-1.069,5.072-6.648,14.329-7.987,17.174-1.705,3.618-2.288,7.819-2.7,9.527s-.831,3.1-.831,3.1a66.844,66.844,0,0,1,6.145-5.9" transform="translate(-208.043 -141.399)" fill="#781f78"/>
      <path id="Path_5513" data-name="Path 5513" d="M267.873,146.765h-.029c-.137,0-.379.134-.7.477a30.864,30.864,0,0,1-8.56,5.858c-.809.4-.986.706-.99,1.069a2.562,2.562,0,0,0,.248.9,90.342,90.342,0,0,1,5.292,20.868s.127,1.346.452,1.639c.29.248,1.254-.343,1.34-.394a54.645,54.645,0,0,0,9.867-7.567,5.089,5.089,0,0,0,.863-1.069v-3.29a70.57,70.57,0,0,0-7.125-17.864c-.267-.452-.493-.627-.636-.627Z" transform="translate(-152.673 -86.987)" fill="#781f78"/>
    </g>
  </g>
  <g id="Group_1108" data-name="Group 1108" transform="translate(104.92 59.779)">
    <g id="Group_1107" data-name="Group 1107" clip-path="url(#clip-path-2)">
      <rect id="Rectangle_683" data-name="Rectangle 683" width="18.306" height="31.439" transform="translate(-0.077 -0.36)" fill="#781f78"/>
    </g>
  </g>
  <g id="Group_1110" data-name="Group 1110">
    <g id="Group_1109" data-name="Group 1109" clip-path="url(#clip-path)">
      <path id="Path_5515" data-name="Path 5515" d="M224.892,238.359a3.549,3.549,0,0,0-.519.153,73.18,73.18,0,0,1-22.313,3.971c-1.508.1-1.416.449-1.477,1.623-.073,6.966-.226,13.534-.413,19.494,0,0-.051.611.166.831.194.191.789.146.789.146a69.954,69.954,0,0,0,22.163-4.983c1-.423,1.174-1.025,1.461-2.18,1.859-7.487,1.407-17.508,1.407-17.508s.025-1.244-.407-1.518a.124.124,0,0,0-.057-.029Z" transform="translate(-118.636 -141.274)" fill="#781f78"/>
    </g>
  </g>
  <g id="Group_1112" data-name="Group 1112" transform="translate(81.529 97.085)">
    <g id="Group_1111" data-name="Group 1111" clip-path="url(#clip-path-4)">
      <rect id="Rectangle_685" data-name="Rectangle 685" width="26.513" height="26.513" transform="translate(-0.077 -0.112)" fill="#781f78"/>
    </g>
  </g>
  <g id="Group_1114" data-name="Group 1114">
    <g id="Group_1113" data-name="Group 1113" clip-path="url(#clip-path)">
      <path id="Path_5517" data-name="Path 5517" d="M229.811,100.961a23.3,23.3,0,0,1-6.212,2.418,84.767,84.767,0,0,1,11.545,18.491c.312.69.528,1.085.764,1.143a1.6,1.6,0,0,0,1.088-.274,34.749,34.749,0,0,0,7.808-5.518,1.565,1.565,0,0,0,.554-1.139,2.659,2.659,0,0,0-.6-1.464,53.743,53.743,0,0,0-14.217-13.657Z" transform="translate(-132.526 -59.839)" fill="#781f78"/>
    </g>
  </g>
  <g id="Group_1116" data-name="Group 1116" transform="translate(91.074 41.122)">
    <g id="Group_1115" data-name="Group 1115" clip-path="url(#clip-path-6)">
      <rect id="Rectangle_687" data-name="Rectangle 687" width="22.411" height="22.408" transform="translate(-0.185 -0.172)" fill="#781f78"/>
    </g>
  </g>
  <g id="Group_1118" data-name="Group 1118">
    <g id="Group_1117" data-name="Group 1117" clip-path="url(#clip-path)">
      <path id="Path_5519" data-name="Path 5519" d="M199.608,108.663c.213,7.532.4,15,.512,22.2a1.644,1.644,0,0,0,.312,1.174,1.359,1.359,0,0,0,.834.226,53.756,53.756,0,0,0,16.06-3.048c.4-.147.659-.251.792-.6a2.043,2.043,0,0,0-.184-1.059A94.271,94.271,0,0,0,207.3,108.008a57.211,57.211,0,0,1-7.694.655" transform="translate(-118.306 -64.016)" fill="#781f78"/>
    </g>
  </g>
  <g id="Group_1120" data-name="Group 1120" transform="translate(81.302 43.992)">
    <g id="Group_1119" data-name="Group 1119" clip-path="url(#clip-path-8)">
      <rect id="Rectangle_689" data-name="Rectangle 689" width="19.128" height="24.871" transform="translate(-0.057 -0.579)" fill="#781f78"/>
    </g>
  </g>
  <g id="Group_1122" data-name="Group 1122">
    <g id="Group_1121" data-name="Group 1121" clip-path="url(#clip-path)">
      <path id="Path_5521" data-name="Path 5521" d="M221.1,298.764a72.489,72.489,0,0,1-20.906,3.424c-.662.045-.85.22-.91,1.031l-.378,6.358a53.36,53.36,0,0,0,19.6-3.946,29.189,29.189,0,0,0,3.373-5.976v-1.1a6.51,6.51,0,0,0-.783.21" transform="translate(-117.89 -176.951)" fill="#781f78"/>
    </g>
  </g>
  <g id="Group_1124" data-name="Group 1124" transform="translate(81.015 121.603)">
    <g id="Group_1123" data-name="Group 1123" clip-path="url(#clip-path-10)">
      <rect id="Rectangle_691" data-name="Rectangle 691" width="23.229" height="11.736" transform="translate(-0.181 -0.414)" fill="#781f78"/>
    </g>
  </g>
  <g id="Group_1126" data-name="Group 1126">
    <g id="Group_1125" data-name="Group 1125" clip-path="url(#clip-path)">
      <path id="Path_5523" data-name="Path 5523" d="M282.158,211.884a48.784,48.784,0,0,1-11.427,7.911c-1.594.821-1.763,1.406-1.775,2.778a58.26,58.26,0,0,1-2.587,19.236s-.153.363.306.127,7.675-3.672,12.6-8.661A11.325,11.325,0,0,0,282.5,226.6a53.655,53.655,0,0,0-.172-14.7c-.007-.054-.025-.076-.054-.076a.207.207,0,0,0-.114.064" transform="translate(-157.86 -125.544)" fill="#781f78"/>
    </g>
  </g>
  <g id="Group_1128" data-name="Group 1128" transform="translate(108.484 86.275)">
    <g id="Group_1127" data-name="Group 1127" clip-path="url(#clip-path-12)">
      <rect id="Rectangle_693" data-name="Rectangle 693" width="17.482" height="30.615" transform="translate(-0.15 -0.168)" fill="#781f78"/>
    </g>
  </g>
  <g id="Group_1130" data-name="Group 1130">
    <g id="Group_1129" data-name="Group 1129" clip-path="url(#clip-path)">
      <path id="Path_5525" data-name="Path 5525" d="M292.324,116.467a15.341,15.341,0,0,1-1.372,6.106,4.266,4.266,0,0,0-.461,1.626,2.5,2.5,0,0,0,.439,1.13,59.915,59.915,0,0,1,8.175,18.9,25.905,25.905,0,0,0,2.88-7.4v-5.04a41,41,0,0,0-9.782-16.944,11.362,11.362,0,0,1,.121,1.623" transform="translate(-172.172 -68.067)" fill="#781f78"/>
    </g>
  </g>
  <g id="Group_1132" data-name="Group 1132" transform="translate(118.319 46.776)">
    <g id="Group_1131" data-name="Group 1131" clip-path="url(#clip-path-14)">
      <rect id="Rectangle_695" data-name="Rectangle 695" width="11.735" height="29.8" transform="translate(-0.133 -0.286)" fill="#781f78"/>
    </g>
  </g>
  <g id="Group_1134" data-name="Group 1134">
    <g id="Group_1133" data-name="Group 1133" clip-path="url(#clip-path)">
      <path id="Path_5527" data-name="Path 5527" d="M121.121,71.718c-32.025,1.129-49.154,29.266-49.154,51.7,0,27.646,23.468,51.728,50.56,51.728-.025-.452-.347-6.485-.347-6.485-.029-.678-.191-.888-1.015-.983,0,0-11.818-.914-15.7-2.9-.162-.1-.076-.258.14-.21a106.726,106.726,0,0,0,15.554,1.378.823.823,0,0,0,.85-.91c0-.859-.334-19.618-.334-19.618-.064-1.416-.28-1.639-1.635-1.756a69.5,69.5,0,0,1-23.23-5.04c-.178-.079-.27-.1-.363-.042-.156.064-.156.366-.156.366a104.976,104.976,0,0,0,.366,17.174c.019.14-.025.2-.165.223-.159.016-.181-.166-.181-.166A59.1,59.1,0,0,1,94.43,141c-.007-.382.038-2.584.038-2.584a1.231,1.231,0,0,0-.773-1.209,48.786,48.786,0,0,1-8.856-5.779.224.224,0,0,1-.022-.337.231.231,0,0,1,.286-.025,54.763,54.763,0,0,0,9.008,4.525l.35.026c.2-.131.185-.388.226-.809a84.44,84.44,0,0,1,5.766-24.534,1.23,1.23,0,0,0,.1-.426c-.013-.248-.118-.385-.579-.6A29.074,29.074,0,0,1,88.5,100.71a.233.233,0,0,1,.009-.325.223.223,0,0,1,.305.025c2.858,2.794,7.09,5.123,11.943,6.931a1.326,1.326,0,0,0,.477.118c.213,0,.385-.13.722-.843a88.632,88.632,0,0,1,12.4-20.636C110.3,85,106.124,82.8,105.09,80.389c0,0-.134-.261.057-.366.223-.124.382.137.382.137,4.55,4.923,17.73,4.6,17.73,4.6,5.206,0,15.771-1.731,16.833-5.855V77.369c-.732-3.456-6.122-5.349-15.4-5.651Z" transform="translate(-42.654 -42.507)" fill="#781f78"/>
    </g>
  </g>
  <g id="Group_1136" data-name="Group 1136" transform="translate(29.313 29.211)">
    <g id="Group_1135" data-name="Group 1135" clip-path="url(#clip-path-16)">
      <rect id="Rectangle_697" data-name="Rectangle 697" width="68.373" height="103.672" transform="translate(-0.191 -0.162)" fill="#781f78"/>
    </g>
  </g>
  <g id="Group_1138" data-name="Group 1138">
    <g id="Group_1137" data-name="Group 1137" clip-path="url(#clip-path)">
      <path id="Path_5529" data-name="Path 5529" d="M245.936,83.613a6.246,6.246,0,0,1-1.789,4A57.554,57.554,0,0,1,259.074,99.87s.665.859,1.059.821c.277-.038.509-.707.509-.707a11.891,11.891,0,0,0,.742-3.656V95.288a9.339,9.339,0,0,0-.649-3.112c-.907-2.16-3.8-4.334-3.8-4.334a48.49,48.49,0,0,0-11.656-6.476,4.335,4.335,0,0,1,.655,2.247" transform="translate(-144.704 -48.225)" fill="#781f78"/>
    </g>
  </g>
  <g id="Group_1140" data-name="Group 1140" transform="translate(99.443 33.141)">
    <g id="Group_1139" data-name="Group 1139" clip-path="url(#clip-path-18)">
      <rect id="Rectangle_699" data-name="Rectangle 699" width="17.482" height="19.945" transform="translate(-0.14 -0.389)" fill="#781f78"/>
    </g>
  </g>
  <g id="Group_1142" data-name="Group 1142">
    <g id="Group_1141" data-name="Group 1141" clip-path="url(#clip-path)">
      <path id="Path_5531" data-name="Path 5531" d="M314.758,185.232a5.935,5.935,0,0,0-1.19,3.643c.3,3.472.312,6.53.312,6.53a52.055,52.055,0,0,1-1.022,10.329,40.09,40.09,0,0,0,4.929-15.474v-9.938c-.089-.754-.191-1.518-.318-2.291a21.927,21.927,0,0,1-2.711,7.2" transform="translate(-185.429 -105.518)" fill="#781f78"/>
    </g>
  </g>
  <g id="Group_1144" data-name="Group 1144" transform="translate(127.429 72.513)">
    <g id="Group_1143" data-name="Group 1143" clip-path="url(#clip-path-20)">
      <rect id="Rectangle_701" data-name="Rectangle 701" width="5.174" height="28.158" transform="translate(-0.22 -0.36)" fill="#781f78"/>
    </g>
  </g>
  <g id="Group_1146" data-name="Group 1146">
    <g id="Group_1145" data-name="Group 1145" clip-path="url(#clip-path)">
      <path id="Path_5533" data-name="Path 5533" d="M270.312,276.929a54.425,54.425,0,0,1-12.1,7.115,4.938,4.938,0,0,0-2.151,2.316,38.091,38.091,0,0,1-3.151,5.34c6.011-2.988,12.862-8.77,17.591-14.771Z" transform="translate(-149.899 -164.134)" fill="#781f78"/>
    </g>
  </g>
  <g id="Group_1148" data-name="Group 1148" transform="translate(103.013 112.795)">
    <g id="Group_1147" data-name="Group 1147" clip-path="url(#clip-path-22)">
      <rect id="Rectangle_703" data-name="Rectangle 703" width="18.303" height="15.019" transform="translate(-0.223 -0.229)" fill="#781f78"/>
    </g>
  </g>
  <g id="Group_1150" data-name="Group 1150">
    <g id="Group_1149" data-name="Group 1149" clip-path="url(#clip-path)">
      <path id="Path_5535" data-name="Path 5535" d="M138,167.227a95.719,95.719,0,0,0-5.718,24.884c-.048.608.118.725.532.913a71.686,71.686,0,0,0,23.067,3.847s.894-.025,1.123-.255c.337-.337.382-.576.366-1.616.029-6.387.153-23.255.153-23.255a1.474,1.474,0,0,0-1.48-1.68,60.776,60.776,0,0,1-17.037-3.2,2.043,2.043,0,0,0-.557-.134c-.172,0-.277.073-.449.493" transform="translate(-78.399 -98.822)" fill="#781f78"/>
    </g>
  </g>
  <g id="Group_1152" data-name="Group 1152" transform="translate(53.877 67.912)">
    <g id="Group_1151" data-name="Group 1151" clip-path="url(#clip-path-24)">
      <rect id="Rectangle_705" data-name="Rectangle 705" width="25.692" height="30.618" transform="translate(-0.129 -0.277)" fill="#781f78"/>
    </g>
  </g>
  <g id="Group_1154" data-name="Group 1154">
    <g id="Group_1153" data-name="Group 1153" clip-path="url(#clip-path)">
      <path id="Path_5537" data-name="Path 5537" d="M149.6,128.48v.009c-.315.675-.165.891-.165.891a.583.583,0,0,0,.3.223,63.893,63.893,0,0,0,16.553,2.514,1.619,1.619,0,0,0,1.12-.3,1.838,1.838,0,0,0,.363-1.327v-.009c.092-4.7.21-9.508.395-14.335v-7.758a40.38,40.38,0,0,1-6.5-.821A91.29,91.29,0,0,0,149.6,128.48" transform="translate(-88.551 -63.756)" fill="#781f78"/>
    </g>
  </g>
  <g id="Group_1156" data-name="Group 1156" transform="translate(60.853 43.814)">
    <g id="Group_1155" data-name="Group 1155" clip-path="url(#clip-path-26)">
      <rect id="Rectangle_707" data-name="Rectangle 707" width="19.124" height="24.874" transform="translate(-0.334 -0.185)" fill="#781f78"/>
    </g>
  </g>
  <g id="Group_1158" data-name="Group 1158">
    <g id="Group_1157" data-name="Group 1157" clip-path="url(#clip-path)">
      <path id="Path_5539" data-name="Path 5539" d="M219.359,168.007a60.732,60.732,0,0,1-16.786,2.87,1.463,1.463,0,0,0-1.5,1.667c.038,3.7.1,9.511.1,17.342,0,1.992.019,4.646.019,6.584a1.406,1.406,0,0,0,.222.869,1.109,1.109,0,0,0,.856.2,73.733,73.733,0,0,0,22.2-4.445,2.621,2.621,0,0,0,1.206-.8V188.2a111.78,111.78,0,0,0-4.741-19.309,4.009,4.009,0,0,0-.388-.885Z" transform="translate(-119.172 -99.577)" fill="#781f78"/>
    </g>
  </g>
  <g id="Group_1160" data-name="Group 1160" transform="translate(81.897 68.431)">
    <g id="Group_1159" data-name="Group 1159" clip-path="url(#clip-path-28)">
      <rect id="Rectangle_709" data-name="Rectangle 709" width="24.874" height="29.794" transform="translate(-0.038 -0.184)" fill="#781f78"/>
    </g>
  </g>
</svg>
