<?xml version="1.0" encoding="UTF-8"?><svg id="Layer_2" xmlns="http://www.w3.org/2000/svg" viewBox="0 0 512.66 112.6"><defs><style>.cls-1{fill:#fff;}</style></defs><g id="Layer_1-2"><g><path class="cls-1" d="M100.44,11.5l-18.23,11.24v5.88l18.22-6.34V11.5Zm119.71,20.42c-5.19,0-9.37,1.79-13.37,5.58v-4.49h-11.67l-.02,47.57h11.97v-25.23c.02-6.58,2.91-12.07,10.99-12.06,7.48,0,9.57,5.49,9.57,12.07v25.23h11.86v-28.92c.02-10.87-6.46-19.75-19.32-19.76m-65.84,19.12c1.7-5.88,6.19-8.67,11.67-8.67s9.87,2.5,11.37,8.68h-23.04Zm11.58-19.15c-14.16,0-23.84,11.06-23.85,24.62s9.76,24.64,23.82,24.64c11.37,0,19.15-6.27,22.15-15.45h-12.37c-1.7,2.89-4.39,4.48-9.08,4.48-7.08,0-11.17-3.6-12.36-9.68l35.1,.02c.1-1.2,.2-2.09,.2-3.29,0-16.45-10.56-25.34-23.62-25.34m-46.11,68.49c-6.38,0-10.67-4.69-10.67-10.88s4.29-10.87,10.68-10.87,10.67,4.69,10.67,10.88-4.39,10.87-10.68,10.87m3.91-42.18l16.86-14.95v-10.27l-40.49-.02v11.07h23.33l-14.97,13.07,9.97,11.57c-12.96,.79-20.95,9.96-20.95,20.93,0,12.37,10.06,21.85,22.43,21.85s22.54-9.46,22.55-21.83c0-6.58-1.79-11.47-5.88-16.26l-12.86-15.17ZM11.69,37.6v-4.69H.02l-.02,47.57H11.97v-25.13c.02-6.58,2.91-11.67,11.69-11.66h3.59v-11.37h-2.59c-5.19,0-8.98,1.49-12.97,5.28m70.79,42.92h12.07l.02-49.26-12.07,2.99-.02,46.27Zm-30.41-10.99c-7.28,0-12.36-5.29-12.36-13.07s5.09-13.16,12.37-13.16c7.28,0,12.36,5.39,12.36,13.17s-5.09,13.06-12.37,13.06m.22-37.7c-13.86,0-24.54,10.96-24.55,24.62,0,14.26,9.36,24.64,23.23,24.64,4.69,0,9.97-1.89,13.77-5.88v5.29h11.67v-25.13c.02-13.07-10.15-23.54-24.11-23.55"/><rect class="cls-1" x="265.77" y="0" width="4.85" height="112.6"/><g><path class="cls-1" d="M306.28,54.58l-2.58-7.96c-.4,.05-.97,.05-1.4,.05h-4.23l-1.54,7.9h-1.56l3.62-18.6h5.8c3.67,0,5.71,1.92,5.71,4.62,0,3.34-1.7,5.15-4.94,5.77l2.72,8.22h-1.59Zm-3.72-9.36c4.04,0,5.93-1.16,5.93-4.5,0-2.37-1.56-3.29-4.39-3.29h-4.23l-1.54,7.79h4.23Z"/><path class="cls-1" d="M312.48,48.22l-.11,.57c-.54,2.78,.21,4.58,3.21,4.58,1.91,0,2.8-.54,3.8-1.7l1.05,.89c-1.05,1.4-2.56,2.18-5.04,2.18-3.78,0-5.15-2.59-4.5-5.96l.38-1.94c.78-4.1,3-5.9,6.37-5.9,3.37,0,4.72,2.51,4.01,6.04l-.24,1.24h-8.92Zm.27-1.35h7.44c.57-2.96-.37-4.55-2.83-4.55-2.45,0-4.04,1.35-4.61,4.53v.03Z"/><path class="cls-1" d="M333.24,43.99c-.59-1.19-1.37-1.64-3.45-1.65-1.91,0-3.56,.59-3.56,2.48,0,1.67,1.29,1.97,3.15,2.27,2.26,.35,4.12,1.24,4.12,3.51,0,2.35-1.54,4.15-5.58,4.15-2.56,0-4.02-.81-4.72-2.29l1.24-.75c.59,1.13,1.51,1.65,3.61,1.65,2.7,0,3.94-.81,3.94-2.59,0-1.54-1.24-2.02-3.31-2.35-1.89-.27-3.96-.97-3.96-3.37,0-2.59,2-4.1,5.26-4.1,2.35,0,3.72,.7,4.45,2.32l-1.19,.73Z"/><path class="cls-1" d="M339.53,35.99h1.48l-1.33,6.82c1.05-1.27,2.32-1.86,4.23-1.86,2.97,0,4.64,2.27,3.96,5.66l-1.57,7.98h-1.48l1.54-7.95c.59-3.07-.7-4.29-2.69-4.29-2.83,0-4.23,1.62-4.72,4.15l-1.57,8.09h-1.48l3.62-18.6Z"/><path class="cls-1" d="M355.49,46.94h3.94l.32-1.67c.43-2.29-.35-2.91-2.72-2.91-2,0-2.75,.13-3.88,1.56l-1.03-.81c1.24-1.62,2.43-2.16,5.1-2.16,3.29,0,4.58,1.46,4.01,4.32l-1.81,9.33h-1.48l.32-1.67c-1.02,1.43-2.32,1.83-4.02,1.83-2.35,0-4.18-1.21-4.18-3.48,0-2.8,1.94-4.34,5.42-4.34Zm3.69,1.32h-3.94c-3.07,0-3.67,1.45-3.67,2.83,0,1.7,1.13,2.27,2.78,2.27,2.18,0,3.96-.75,4.56-3.77l.27-1.32Z"/><path class="cls-1" d="M375.14,48.81c-.78,4.07-2.92,5.96-6.39,5.96-1.86,0-3.1-.54-3.77-1.73l-1.3,6.69h-1.48l3.62-18.6h1.48l-.27,1.43c1.11-1.05,2.32-1.59,4.29-1.59,3.15,0,4.91,2.29,4.2,5.91l-.38,1.94Zm-1.48,0l.38-1.94c.54-2.83-.46-4.53-3.02-4.53-2.86,0-4.23,1.45-4.8,4.37l-.46,2.34c-.49,2.53,.16,4.34,3.12,4.34,2.59,0,4.18-1.48,4.77-4.58Z"/><path class="cls-1" d="M380.13,41.13h1.48l-2.62,13.48h-1.48l2.62-13.48Zm.84-5.12h1.81l-.35,1.81h-1.81l.35-1.81Z"/><path class="cls-1" d="M385.79,41.14h1.48l-.32,1.7c1.05-1.27,2.32-1.86,4.23-1.86,2.97,0,4.64,2.27,3.96,5.66l-1.57,7.98h-1.48l1.54-7.95c.59-3.07-.7-4.29-2.69-4.29-2.83,0-4.23,1.62-4.72,4.15l-1.57,8.09h-1.48l2.62-13.48Z"/><path class="cls-1" d="M398.19,46.88c.76-3.91,2.97-5.9,6.34-5.9,2.1,0,3.29,.92,3.8,1.83l.32-1.67h1.46l-2.51,12.94c-.73,3.83-2.59,5.82-6.45,5.82-2.13,0-3.59-.76-4.18-2.24l1.27-.78c.51,1.16,1.51,1.65,3.07,1.65,3.1,0,4.21-1.8,4.8-4.45l.19-.86c-1.05,1.13-2.37,1.56-4.18,1.56-3.21,0-5.04-2.27-4.31-5.96l.38-1.94Zm8.95,1.97l.41-2.13c.51-2.64-.29-4.37-3.1-4.37-2.56,0-4.15,1.32-4.78,4.53l-.38,1.94c-.54,2.83,.38,4.58,2.99,4.58,3.21,0,4.34-1.91,4.86-4.55Z"/><path class="cls-1" d="M295.84,69.37h1.73l.59-2.96h1.48l-.6,2.97h3.32l-.24,1.38h-3.34l-1.46,7.55c-.43,2.16-.35,3.13,1.83,3.13h.89l-.3,1.43h-.94c-2.67,0-3.61-1.3-3.04-4.15l1.54-7.95h-1.7l.24-1.38Z"/><path class="cls-1" d="M306.06,64.25h1.48l-1.33,6.82c1.05-1.27,2.32-1.86,4.23-1.86,2.96,0,4.63,2.27,3.96,5.67l-1.57,7.98h-1.48l1.54-7.95c.6-3.07-.7-4.29-2.69-4.29-2.83,0-4.23,1.62-4.72,4.15l-1.57,8.09h-1.48l3.62-18.6Z"/><path class="cls-1" d="M318.4,76.5l-.11,.57c-.54,2.78,.21,4.58,3.21,4.58,1.91,0,2.8-.54,3.8-1.7l1.05,.89c-1.05,1.4-2.56,2.18-5.04,2.18-3.78,0-5.15-2.59-4.5-5.96l.38-1.94c.78-4.1,3-5.9,6.37-5.9,3.37,0,4.72,2.51,4.01,6.04l-.24,1.24h-8.92Zm.27-1.35h7.44c.57-2.96-.37-4.55-2.83-4.55-2.45,0-4.04,1.35-4.61,4.53v.03Z"/><path class="cls-1" d="M338.76,69.39l.19-.97c.57-2.97,1.67-4.15,4.64-4.15h.62l-.27,1.43h-.59c-2.16,0-2.56,.75-3,3.1l-.11,.59h2.97l-.27,1.38h-2.97l-2.35,12.1h-1.48l2.35-12.11h-1.73l.27-1.38h1.73Z"/><path class="cls-1" d="M353.42,82.88h-1.48l.33-1.73c-.94,1.19-2.32,1.89-4.18,1.89-2.78,0-4.74-1.84-3.99-5.66l1.57-7.98h1.48l-1.57,7.98c-.59,3.05,.7,4.26,2.77,4.26,2.56,0,4.15-1.7,4.64-4.15l1.57-8.09h1.48l-2.62,13.48Z"/><path class="cls-1" d="M358.36,69.4h1.73l.59-2.96h1.48l-.6,2.97h3.32l-.24,1.38h-3.34l-1.46,7.55c-.43,2.16-.35,3.13,1.83,3.13h.89l-.3,1.43h-.94c-2.67,0-3.61-1.3-3.04-4.15l1.54-7.95h-1.7l.24-1.38Z"/><path class="cls-1" d="M375.37,82.89h-1.48l.33-1.73c-.94,1.19-2.32,1.89-4.18,1.89-2.78,0-4.74-1.84-3.99-5.66l1.57-7.98h1.48l-1.57,7.98c-.59,3.05,.7,4.26,2.77,4.26,2.56,0,4.15-1.7,4.64-4.15l1.57-8.09h1.48l-2.62,13.48Z"/><path class="cls-1" d="M381.95,74.78l-1.59,8.12h-1.48l2.62-13.48h1.48l-.32,1.7c.86-1.08,2.05-1.86,3.75-1.86,1.75,0,2.67,.89,3.32,1.94l-1.29,.83c-.51-.92-1.24-1.38-2.37-1.38-2.16,0-3.61,1.67-4.1,4.12Z"/><path class="cls-1" d="M390.98,76.54l-.11,.57c-.54,2.78,.21,4.58,3.21,4.59,1.91,0,2.8-.54,3.8-1.7l1.05,.89c-1.05,1.4-2.56,2.18-5.04,2.18-3.78,0-5.15-2.59-4.5-5.96l.38-1.94c.78-4.1,3-5.9,6.37-5.9,3.37,0,4.72,2.51,4.01,6.04l-.24,1.24h-8.92Zm.27-1.35h7.44c.57-2.96-.37-4.55-2.83-4.55-2.45,0-4.04,1.35-4.61,4.53v.03Z"/><path class="cls-1" d="M419.56,77.14c-.73,3.86-2.75,5.93-6.55,5.93-3.29,0-5.09-2.27-4.39-5.93l.38-1.97c.73-3.83,2.92-5.9,6.55-5.9,3.42,0,5.09,2.27,4.39,5.91l-.38,1.97Zm-1.1-1.97c.57-2.94-.54-4.53-3.1-4.53-2.86,0-4.32,1.59-4.88,4.53l-.38,1.97c-.54,2.83,.38,4.56,3.1,4.56,2.88,0,4.34-1.72,4.88-4.55l.38-1.97Z"/><path class="cls-1" d="M424.44,69.43l.19-.97c.57-2.97,1.67-4.15,4.64-4.15h.62l-.27,1.43h-.59c-2.16,0-2.56,.75-3,3.1l-.11,.59h2.97l-.27,1.38h-2.97l-2.35,12.1h-1.48l2.35-12.11h-1.73l.27-1.38h1.73Z"/><path class="cls-1" d="M445.57,80.93c-1.27,1.64-3.05,2.24-5.42,2.24-3.8,0-5.53-2.62-4.85-6.1l.38-1.83c.78-4.07,2.86-6.06,6.72-6.04,3.75,.03,5.04,2.59,4.31,6.31l-.3,1.54h-7.68c-.32,1.86,0,3.21,1.91,3.21,1.43,0,2.02-.43,2.64-1.16l2.29,1.83Zm-6.36-6.34h4.23c.27-1.75-.3-2.48-1.59-2.48-1.38,0-2.21,.94-2.64,2.48Z"/><path class="cls-1" d="M450.11,69.45h3.37l-.19,.95c.7-.67,1.86-1.19,3.34-1.18,2.64,0,4.66,1.43,3.91,5.31l-1.65,8.41h-3.42l1.51-7.79c.41-2.13-.11-2.97-1.62-2.97-1.56,0-2.56,1.19-2.91,2.94l-1.51,7.82h-3.45l2.62-13.48Z"/><path class="cls-1" d="M472.32,80.94c-1.27,1.64-3.05,2.24-5.42,2.23-3.8,0-5.53-2.62-4.85-6.09l.38-1.83c.78-4.07,2.86-6.07,6.72-6.04,3.75,.03,5.04,2.59,4.31,6.31l-.3,1.54h-7.68c-.32,1.86,0,3.21,1.91,3.21,1.43,0,2.02-.43,2.64-1.16l2.29,1.83Zm-6.36-6.34h4.23c.27-1.75-.3-2.48-1.59-2.48-1.38,0-2.21,.94-2.64,2.48Z"/><path class="cls-1" d="M483.43,73.21c-.24-.51-.62-1.02-1.48-1.02-1.29,0-2.35,.94-2.72,2.83l-1.54,7.93h-3.45l2.62-13.48h3.37l-.19,.94c.62-.62,1.64-1.18,3.1-1.18,1.7,0,2.75,.95,3.23,2.16l-2.94,1.83Z"/><path class="cls-1" d="M495.19,69.47h3.42l-2.57,13.21c-.87,4.5-3.32,5.55-6.85,5.55-2.67,0-4.1-.86-4.91-2.48l2.56-1.62c.43,.81,1.13,1.21,2.4,1.21,2.05,0,3.1-.54,3.43-3.04-.84,.62-1.83,.89-2.99,.89-3.5,0-4.85-2.73-4.2-6.1l.35-1.83c.76-3.96,3.08-6.04,6.34-6.04,1.4,0,2.29,.46,2.86,1l.16-.75Zm-1.51,7.71l.35-1.7c.46-2.26-.05-3.34-1.75-3.34-1.7,0-2.67,1.19-3.08,3.34l-.27,1.4c-.38,1.94-.11,3.4,1.75,3.4,1.83,0,2.62-1.29,2.99-3.1Z"/><path class="cls-1" d="M503.36,69.47l1.29,8.79,4.4-8.79h3.61l-7.37,14.1c-1.89,3.61-3.37,4.5-7.15,4.5l.59-3.07c1.86,0,2.59-.51,3.4-1.88l-2.26-13.64h3.48Z"/></g></g></g></svg>