<svg xmlns="http://www.w3.org/2000/svg" xmlns:xlink="http://www.w3.org/1999/xlink" width="1248.399" height="151.656" viewBox="0 0 1248.399 151.656">
  <defs>
    <clipPath id="clip-path">
      <rect id="Rectangle_500" data-name="Rectangle 500" width="44.684" height="67.656" transform="translate(0 0)" fill="none"/>
    </clipPath>
    <clipPath id="clip-path-2">
      <rect id="Rectangle_500-2" data-name="Rectangle 500" width="60.535" height="91.656" fill="none"/>
    </clipPath>
    <clipPath id="clip-path-3">
      <rect id="Rectangle_500-3" data-name="Rectangle 500" width="88.275" height="133.656" fill="none"/>
    </clipPath>
  </defs>
  <g id="rede-energia" transform="translate(-359.875 -16546)">
    <text id="XX_GW" data-name="XX GW" transform="translate(360 16546)" fill="#781f78" font-size="47" font-family="DINNextLTPro-Light, DIN Next LT Pro" font-weight="300"><tspan x="0" y="35">XX </tspan><tspan y="35" font-size="33">GW</tspan></text>
    <g id="Group_777" data-name="Group 777" transform="translate(360 16630)" opacity="0.5">
      <g id="Group_776" data-name="Group 776" clip-path="url(#clip-path)">
        <path id="Path_4066" data-name="Path 4066" d="M43.043,67.656a1,1,0,0,1-.97-.76L26.184,2.733A.965.965,0,0,0,25.246,2H20.919a.965.965,0,0,0-.938.733L4.091,66.9a1,1,0,1,1-1.941-.48L18.04,2.253A2.96,2.96,0,0,1,20.919,0h4.327a2.962,2.962,0,0,1,2.879,2.253l15.89,64.163a1,1,0,0,1-.731,1.211,1.044,1.044,0,0,1-.241.029" fill="#781e77"/>
        <path id="Path_4067" data-name="Path 4067" d="M43.684,14.291H1a1,1,0,0,1,0-2H43.684a1,1,0,0,1,0,2" fill="#781e77"/>
        <path id="Path_4068" data-name="Path 4068" d="M43.684,29.976H1a1,1,0,0,1,0-2H43.684a1,1,0,0,1,0,2" fill="#781e77"/>
        <path id="Path_4069" data-name="Path 4069" d="M40.683,58.121H5.482a1,1,0,0,1,0-2h35.2a1,1,0,0,1,0,2" fill="#781e77"/>
        <path id="Path_4070" data-name="Path 4070" d="M12.63,29.976a1,1,0,0,1-.674-1.739l17.2-15.685A1,1,0,0,1,30.5,14.031L13.3,29.715a1,1,0,0,1-.673.261" fill="#781e77"/>
        <path id="Path_4071" data-name="Path 4071" d="M33.712,29.976a.99.99,0,0,1-.669-.258L15.667,14.034a1,1,0,0,1,1.339-1.485L34.382,28.234a1,1,0,0,1-.67,1.742" fill="#781e77"/>
        <path id="Path_4072" data-name="Path 4072" d="M5.482,58.121a1,1,0,0,1-.706-1.708l28.23-28.146a1,1,0,0,1,1.413,1.417L6.188,57.829a1,1,0,0,1-.706.292" fill="#781e77"/>
        <path id="Path_4073" data-name="Path 4073" d="M40.683,58.121a1,1,0,0,1-.708-.294L11.922,29.682a1,1,0,0,1,1.417-1.413L41.391,56.415a1,1,0,0,1-.708,1.706" fill="#781e77"/>
      </g>
    </g>
    <g id="Group_778" data-name="Group 778" transform="translate(760 16606)" opacity="0.75">
      <g id="Group_776-2" data-name="Group 776" transform="translate(0 0)" clip-path="url(#clip-path-2)">
        <path id="Path_4066-2" data-name="Path 4066" d="M57.56,91.656a1.356,1.356,0,0,1-1.314-1.03L34.72,3.7a1.308,1.308,0,0,0-1.271-.993H27.588a1.307,1.307,0,0,0-1.271.993L4.79,90.627a1.354,1.354,0,1,1-2.63-.65L23.687,3.052A4.011,4.011,0,0,1,27.588,0H33.45a4.013,4.013,0,0,1,3.9,3.052L58.877,89.976a1.356,1.356,0,0,1-.99,1.641,1.415,1.415,0,0,1-.326.039" transform="translate(0.752 0)" fill="#781e77"/>
        <path id="Path_4067-2" data-name="Path 4067" d="M59.18,15H1.355a1.355,1.355,0,1,1,0-2.709H59.18a1.355,1.355,0,1,1,0,2.709" transform="translate(0 4.36)" fill="#781e77"/>
        <path id="Path_4068-2" data-name="Path 4068" d="M59.18,30.685H1.355a1.355,1.355,0,1,1,0-2.709H59.18a1.355,1.355,0,1,1,0,2.709" transform="translate(0 9.924)" fill="#781e77"/>
        <path id="Path_4069-2" data-name="Path 4069" d="M53.525,58.83H5.837a1.355,1.355,0,0,1,0-2.709H53.525a1.355,1.355,0,1,1,0,2.709" transform="translate(1.59 19.908)" fill="#781e77"/>
        <path id="Path_4070-2" data-name="Path 4070" d="M12.985,36.249a1.355,1.355,0,0,1-.913-2.356l23.3-21.249a1.356,1.356,0,0,1,1.826,2L13.9,35.9a1.349,1.349,0,0,1-.912.354" transform="translate(4.125 4.36)" fill="#781e77"/>
        <path id="Path_4071-2" data-name="Path 4071" d="M40.231,36.25a1.342,1.342,0,0,1-.906-.35L15.784,14.652A1.354,1.354,0,1,1,17.6,12.641L41.138,33.89a1.354,1.354,0,0,1-.908,2.36" transform="translate(5.44 4.36)" fill="#781e77"/>
        <path id="Path_4072-2" data-name="Path 4072" d="M5.837,68.815A1.355,1.355,0,0,1,4.88,66.5L43.125,28.37a1.355,1.355,0,0,1,1.914,1.92L6.793,68.419a1.355,1.355,0,0,1-.956.4" transform="translate(1.59 9.924)" fill="#781e77"/>
        <path id="Path_4073-2" data-name="Path 4073" d="M50.989,68.815a1.35,1.35,0,0,1-.959-.4l-38-38.129a1.355,1.355,0,0,1,1.92-1.914l38,38.13a1.355,1.355,0,0,1-.959,2.311" transform="translate(4.126 9.924)" fill="#781e77"/>
      </g>
    </g>
    <g id="Group_779" data-name="Group 779" transform="translate(1520 16564)">
      <g id="Group_776-3" data-name="Group 776" transform="translate(0 0)" clip-path="url(#clip-path-3)">
        <path id="Path_4066-3" data-name="Path 4066" d="M82.964,133.656a1.978,1.978,0,0,1-1.916-1.5L49.659,5.4a1.907,1.907,0,0,0-1.853-1.448H39.258A1.907,1.907,0,0,0,37.4,5.4L6.013,132.155a1.975,1.975,0,1,1-3.835-.948L33.57,4.451A5.848,5.848,0,0,1,39.258,0h8.548a5.852,5.852,0,0,1,5.688,4.451L84.884,131.207A1.978,1.978,0,0,1,83.44,133.6a2.063,2.063,0,0,1-.476.057" transform="translate(2.068 0)" fill="#781e77"/>
        <path id="Path_4067-3" data-name="Path 4067" d="M86.3,16.242H1.976a1.976,1.976,0,1,1,0-3.951H86.3a1.976,1.976,0,1,1,0,3.951" transform="translate(0 11.99)" fill="#781e77"/>
        <path id="Path_4068-3" data-name="Path 4068" d="M86.3,31.927H1.976a1.976,1.976,0,1,1,0-3.951H86.3a1.976,1.976,0,1,1,0,3.951" transform="translate(0 27.291)" fill="#781e77"/>
        <path id="Path_4069-3" data-name="Path 4069" d="M76,60.072H6.458a1.976,1.976,0,0,1,0-3.951H76a1.976,1.976,0,1,1,0,3.951" transform="translate(4.372 54.747)" fill="#781e77"/>
        <path id="Path_4070-3" data-name="Path 4070" d="M13.606,47.228a1.976,1.976,0,0,1-1.332-3.435L46.25,12.806a1.977,1.977,0,0,1,2.663,2.922L14.935,46.712a1.967,1.967,0,0,1-1.33.516" transform="translate(11.345 11.99)" fill="#781e77"/>
        <path id="Path_4071-3" data-name="Path 4071" d="M51.638,47.229a1.957,1.957,0,0,1-1.322-.51L15.99,15.735A1.975,1.975,0,1,1,18.635,12.8L52.962,43.787a1.975,1.975,0,0,1-1.324,3.441" transform="translate(14.961 11.989)" fill="#781e77"/>
        <path id="Path_4072-3" data-name="Path 4072" d="M6.457,87.529a1.976,1.976,0,0,1-1.395-3.374l55.769-55.6a1.977,1.977,0,0,1,2.791,2.8L7.852,86.952a1.975,1.975,0,0,1-1.395.577" transform="translate(4.372 27.291)" fill="#781e77"/>
        <path id="Path_4073-3" data-name="Path 4073" d="M69.025,87.529a1.968,1.968,0,0,1-1.4-.581l-55.42-55.6a1.977,1.977,0,0,1,2.8-2.791l55.418,55.6a1.976,1.976,0,0,1-1.4,3.37" transform="translate(11.346 27.291)" fill="#781e77"/>
      </g>
    </g>
    <path id="Path_4074" data-name="Path 4074" d="M7677.684,16429.2s85.7,22.078,189.542,17.191,225.847-36.734,225.847-36.734,176.229,40.057,372.773,32.049,413.407-64.081,413.407-64.081" transform="translate(-7273 214)" fill="none" stroke="#781f78" stroke-width="1" opacity="0.22"/>
    <path id="Path_4076" data-name="Path 4076" d="M8093.073,16409.652s176.229,40.057,372.773,32.049,413.407-64.081,413.407-64.081" transform="translate(-7333.073 213.379)" fill="none" stroke="#781f78" stroke-width="1" opacity="0.22"/>
    <path id="Path_4075" data-name="Path 4075" d="M7677.684,16429.2s85.7,22.078,189.542,17.191,225.847-36.734,225.847-36.734" transform="translate(-7317.684 214)" fill="none" stroke="#781f78" stroke-width="1" opacity="0.22"/>
  </g>
</svg>
