<svg xmlns="http://www.w3.org/2000/svg" width="17.168" height="19.742" viewBox="0 0 17.168 19.742">
  <g id="scroll-arrows" transform="translate(-6523.084 3286.538)">
    <path id="Path_4211" data-name="Path 4211" d="M308.247,442.911l-5.665,5.665-5.665-5.666a1.7,1.7,0,0,0-2.4,2.4l6.867,6.867a1.659,1.659,0,0,0,2.4,0l6.867-6.867a1.7,1.7,0,0,0-2.4-2.4Z" transform="translate(6229.087 -3719.492)" fill="#fff"/>
    <path id="Path_4212" data-name="Path 4212" d="M310.65,381.315a1.659,1.659,0,0,0-2.4,0l-5.665,5.665-5.665-5.665a1.7,1.7,0,1,0-2.4,2.4l6.867,6.867a1.66,1.66,0,0,0,2.4,0l6.867-6.867a1.659,1.659,0,0,0,0-2.4Z" transform="translate(6229.087 -3667.337)" fill="#fff"/>
  </g>
</svg>
