<svg xmlns="http://www.w3.org/2000/svg" xmlns:xlink="http://www.w3.org/1999/xlink" width="138" height="138" viewBox="0 0 138 138">
  <defs>
    <filter id="Rectangle_514" x="0" y="0" width="138" height="138" filterUnits="userSpaceOnUse">
      <feOffset dy="3" input="SourceAlpha"/>
      <feGaussianBlur stdDeviation="5" result="blur"/>
      <feFlood flood-opacity="0.161"/>
      <feComposite operator="in" in2="blur"/>
      <feComposite in="SourceGraphic"/>
    </filter>
    <clipPath id="clip-path">
      <rect id="Rectangle_513" data-name="Rectangle 513" width="98" height="102" rx="20.202" transform="translate(-0.31 0.116)" fill="none"/>
    </clipPath>
  </defs>
  <g id="Group_820" data-name="Group 820" transform="translate(-494.224 -17572.224)">
    <g transform="matrix(1, 0, 0, 1, 494.22, 17572.22)" filter="url(#Rectangle_514)">
      <rect id="Rectangle_514-2" data-name="Rectangle 514" width="108" height="108" rx="23" transform="translate(15 12)" fill="#fff"/>
    </g>
    <g id="Group_783" data-name="Group 783" transform="translate(514.533 17585.107)">
      <g id="Group_782" data-name="Group 782" transform="translate(0 0)" clip-path="url(#clip-path)">
        <rect id="Rectangle_511" data-name="Rectangle 511" width="99" height="50" transform="translate(-0.31 52.116)" fill="#fdb515"/>
        <rect id="Rectangle_512" data-name="Rectangle 512" width="99" height="52" transform="translate(-0.31 0.116)" fill="#fff"/>
        <path id="Path_4081" data-name="Path 4081" d="M81.533,51.052c-1.841.008-3.682,0-5.523.026a.5.5,0,0,0-.373.159,3.32,3.32,0,0,1-4.57-.052.3.3,0,0,0-.232-.1c-1.155-.028-2.311-.023-3.467-.025q-3.877,0-7.754.007c-.119,0-.151-.038-.163-.146q-.3-2.576-.6-5.151c-.116-.987-.236-1.974-.35-2.962a.279.279,0,0,0-.137-.212c-2.039-1.445-4.084-2.882-6.085-4.379l-.021-.017c-.584-.443-.579-.444-.712-1.167a21.96,21.96,0,0,1-.358-3.431,20.881,20.881,0,0,1,.72-5.952,22.118,22.118,0,0,1,4.853-9.015,22.411,22.411,0,0,1,8.067-5.854,21.374,21.374,0,0,1,6.267-1.632A19.512,19.512,0,0,1,73.5,11,22.028,22.028,0,0,1,84.916,14.33a22.574,22.574,0,0,1,8.507,9.449,21.4,21.4,0,0,1,1.691,13.787.49.49,0,0,1-.189.308c-1.045.818-2.126,1.585-3.2,2.357q-1.665,1.194-3.34,2.374a.269.269,0,0,0-.12.209q-.44,3.729-.883,7.458c-.027.227-.057.453-.077.681-.008.085-.039.111-.124.111q-1.707-.008-3.414-.01c-.743,0-1.487,0-2.231,0m-4.11-10.962,0,0c.022-.053.043-.107.068-.16l4.1-8.733q2.443-5.206,4.888-10.411a.262.262,0,0,0-.012-.275,2.9,2.9,0,0,0-.378-.488,11.152,11.152,0,0,0-2.978-2.248,3.558,3.558,0,0,0-1.218-.4c-.119-.014-.161.025-.193.136q-3.063,10.75-6.132,21.5c-.024.084-.053.167-.08.249a2.668,2.668,0,0,1,.042-.279q.923-4.6,1.846-9.195l2.048-10.209c.2-1.006.4-2.011.609-3.016a.172.172,0,0,0-.087-.221c-.141-.078-.272-.174-.414-.25a8.041,8.041,0,0,0-2.544-.825,8.7,8.7,0,0,0-2.475-.108c-.131.015-.176.059-.181.2q-.088,2.5-.191,5-.209,5.318-.419,10.635-.142,3.606-.282,7.211c-.013.321-.006.644-.05,1-.007-.089-.013-.142-.015-.195q-.082-2.074-.162-4.149-.154-3.9-.309-7.8-.2-5.056-.4-10.112c-.021-.542-.046-1.083-.066-1.625,0-.081-.014-.138-.112-.144-.116-.008-.231-.03-.347-.038a9.686,9.686,0,0,0-2.8.256,6.926,6.926,0,0,0-2.33.939.206.206,0,0,0-.1.252q1.246,6.177,2.483,12.356l2.012,10.025c.012.061.021.124.032.186a.416.416,0,0,1-.068-.148q-.585-2.048-1.168-4.1-2.482-8.694-4.962-17.39c-.032-.113-.076-.147-.193-.134a3.35,3.35,0,0,0-1.06.329,11.036,11.036,0,0,0-2.719,1.9,4.9,4.9,0,0,0-.766.861.324.324,0,0,0-.022.358q4.426,9.418,8.843,18.84c.02.042.058.081.04.142-.051-.026-.065-.075-.089-.115L62.3,27.892q-1.564-2.712-3.126-5.426c-.06-.105-.108-.115-.2-.052a2.624,2.624,0,0,0-.57.527,13.37,13.37,0,0,0-1.971,3.3,3.273,3.273,0,0,0-.249.807.4.4,0,0,0,.09.336q4.8,5.867,9.592,11.739.791.967,1.577,1.939l-.024.025c-.023-.022-.046-.043-.069-.065l-4.016-4.08-7.335-7.451c-.12-.122-.121-.122-.2.032a5.492,5.492,0,0,0-.419,1.017,9.491,9.491,0,0,0-.05,5.083.224.224,0,0,0,.1.134c.219.156.436.315.654.472l5.851,4.225a.243.243,0,0,1,.126.176c.266,2.115.537,4.23.8,6.345.017.138.062.172.2.172q3.951-.006,7.9,0a.331.331,0,0,1,.24.09,6.967,6.967,0,0,0,1.313.93,1.723,1.723,0,0,0,1.755.005,6.941,6.941,0,0,0,1.314-.927.365.365,0,0,1,.264-.1q3.925,0,7.849,0c.041,0,.081,0,.121,0,.067.005.1-.023.1-.091.018-.174.043-.347.065-.52q.37-2.912.738-5.825a.356.356,0,0,1,.158-.273q3.228-2.325,6.452-4.653a.357.357,0,0,0,.148-.225,10.194,10.194,0,0,0,.257-3.414A7.191,7.191,0,0,0,91,29.554c-.1-.19-.1-.189-.25-.036L79.55,40.9a.572.572,0,0,1-.161.139.239.239,0,0,1,.085-.151Q84.931,34.2,90.4,27.525a.69.69,0,0,0,.147-.724c-.014-.042-.023-.087-.039-.129a12.808,12.808,0,0,0-2.172-3.778,2.242,2.242,0,0,0-.5-.461c-.15-.1-.15-.1-.238.056L77.534,39.924c-.034.058-.074.111-.111.167" transform="translate(-23.99 -5.424)" fill="#ec1c24"/>
        <path id="Path_4082" data-name="Path 4082" d="M70.767,44.646q-.788-.969-1.577-1.939Q64.4,36.837,59.6,30.968a.4.4,0,0,1-.089-.336,3.279,3.279,0,0,1,.249-.807,13.4,13.4,0,0,1,1.971-3.3A2.627,2.627,0,0,1,62.3,26c.1-.063.144-.053.2.052q1.559,2.715,3.126,5.426l6.808,11.8c.023.04.038.089.088.115.019-.061-.02-.1-.04-.142q-4.42-9.421-8.843-18.84a.324.324,0,0,1,.021-.358,4.922,4.922,0,0,1,.766-.861,11.036,11.036,0,0,1,2.719-1.9,3.346,3.346,0,0,1,1.06-.329c.117-.014.161.021.193.134q2.478,8.7,4.962,17.39l1.167,4.1a.416.416,0,0,0,.068.148c-.01-.062-.019-.124-.032-.186L72.557,32.516q-1.24-6.178-2.483-12.356a.207.207,0,0,1,.1-.252,6.932,6.932,0,0,1,2.33-.939,9.684,9.684,0,0,1,2.8-.255c.116.007.231.03.347.038.1.007.108.064.112.144.02.542.044,1.083.066,1.625l.4,10.112q.155,3.9.308,7.8.083,2.075.163,4.15c0,.053.008.106.015.194.043-.356.037-.678.05-1q.145-3.606.281-7.212.209-5.318.419-10.635.1-2.5.191-5c0-.138.05-.182.181-.2a8.7,8.7,0,0,1,2.475.108,8.041,8.041,0,0,1,2.544.825c.142.077.273.173.413.25a.172.172,0,0,1,.087.221q-.308,1.507-.608,3.016-1.025,5.1-2.048,10.209-.922,4.6-1.846,9.195a2.4,2.4,0,0,0-.042.28c.027-.083.055-.166.079-.25q3.067-10.749,6.132-21.5c.032-.111.074-.15.193-.135a3.539,3.539,0,0,1,1.217.4,11.177,11.177,0,0,1,2.979,2.248,2.892,2.892,0,0,1,.378.488.259.259,0,0,1,.012.275q-2.447,5.2-4.888,10.411l-4.1,8.733c-.025.052-.045.106-.068.16a.028.028,0,0,1,.006.008l0,.006c0-.005,0-.011,0-.017.037-.056.077-.109.111-.167L90.924,26.073c.088-.152.088-.153.238-.056a2.227,2.227,0,0,1,.5.461,12.8,12.8,0,0,1,2.172,3.778c.015.042.025.087.04.129a.689.689,0,0,1-.148.724q-5.47,6.672-10.922,13.359a.245.245,0,0,0-.085.151.55.55,0,0,0,.161-.139L94.084,33.1c.15-.152.153-.153.25.036a7.18,7.18,0,0,1,.725,2.585,10.205,10.205,0,0,1-.257,3.414.359.359,0,0,1-.148.225q-3.227,2.326-6.453,4.653a.359.359,0,0,0-.158.273q-.364,2.914-.737,5.825c-.022.174-.046.347-.065.52-.007.067-.035.1-.1.091-.04,0-.081,0-.121,0q-3.925,0-7.849,0a.363.363,0,0,0-.264.1,6.941,6.941,0,0,1-1.314.927,1.724,1.724,0,0,1-1.755-.005,6.977,6.977,0,0,1-1.313-.93.33.33,0,0,0-.24-.09q-3.951,0-7.9,0c-.135,0-.179-.034-.2-.172-.263-2.115-.534-4.23-.8-6.345a.243.243,0,0,0-.127-.176l-5.851-4.224c-.218-.158-.435-.316-.654-.472a.225.225,0,0,1-.1-.134,9.485,9.485,0,0,1,.05-5.083,5.492,5.492,0,0,1,.419-1.017c.083-.153.084-.153.2-.032l7.335,7.451,4.016,4.08c.022.022.046.043.069.065l.028.029c.01,0,.026.015.029.013s0-.027-.01-.037l-.024-.03m11.659.3c-.005-.023.007-.03.027-.03s.009-.009.009,0h-.01c.012.03,0,.039-.027.028l-.006.015-.007-.007.015-.007m-11.558-.162a.03.03,0,0,0,.005.01h.008l-.015-.007c0-.02,0-.03-.026-.027l0-.021-.011,0,.014.016.027.027m11.806-.1c.011-.011.03-.021.012-.037s-.024.01-.036.017l-.023.028-.128.144,0,.005v-.008c.072-.012.1-.072.145-.121l.027-.027M72.591,43.494l-.019-.024c-.015.014-.006.027,0,.04s.013.044.043.04c0,.01,0,.02,0,.03l.011,0-.018-.025a.055.055,0,0,0-.023-.058m8.11.3-.009-.006.013-.011s0,.007,0,.01-.005,0-.008.007m-1.9-.837a.082.082,0,0,1-.017.011s-.007,0-.011-.005l.011-.018.016.012m-6.242.468-.007-.009-.008.008.011.008,0-.007" transform="translate(-27.323 -9.009)" fill="#fed400"/>
        <path id="Path_4083" data-name="Path 4083" d="M103.584,67.517l.128-.144.02.02c-.041.05-.073.109-.145.121Z" transform="translate(-48.408 -31.69)" fill="#ec1c24"/>
        <path id="Path_4084" data-name="Path 4084" d="M100.21,65.684s.007,0,.008-.007,0-.006,0-.01l-.013.011.009.006" transform="translate(-46.832 -30.895)" fill="#ec1c24"/>
        <path id="Path_4085" data-name="Path 4085" d="M96.63,64.119l-.017-.012-.011.018s.009.007.011.006a.089.089,0,0,0,.017-.012" transform="translate(-45.155 -30.168)" fill="#ec1c24"/>
        <path id="Path_4086" data-name="Path 4086" d="M85.018,65.129a.056.056,0,0,1,.023.058l0,0c-.03,0-.033-.022-.043-.039l.017-.017" transform="translate(-39.75 -30.644)" fill="#ec1c24"/>
        <path id="Path_4087" data-name="Path 4087" d="M85.076,65.235l.018.026-.011,0c0-.011,0-.021,0-.031l0,0" transform="translate(-39.785 -30.693)" fill="#ec1c24"/>
        <path id="Path_4088" data-name="Path 4088" d="M100.321,65.47v.017l0-.006s0-.005-.006-.008l0,0" transform="translate(-46.887 -30.803)" fill="#ec1c24"/>
        <path id="Path_4089" data-name="Path 4089" d="M84.952,65l0,.007L84.937,65l.008-.008.007.009" transform="translate(-39.72 -30.58)" fill="#ec1c24"/>
        <path id="Path_4090" data-name="Path 4090" d="M84.992,65.125c-.008-.013-.017-.026,0-.04l.019.023-.017.017" transform="translate(-39.741 -30.624)" fill="#ec1c24"/>
        <path id="Path_4091" data-name="Path 4091" d="M81.6,67.34l-.028-.029.023-.025.024.03-.019.023" transform="translate(-38.154 -31.649)" fill="#ec1c24"/>
        <path id="Path_4092" data-name="Path 4092" d="M103.867,67.3c.012-.007.018-.033.036-.017s0,.027-.012.037l-.023-.021" transform="translate(-48.54 -31.647)" fill="#ec1c24"/>
        <path id="Path_4093" data-name="Path 4093" d="M81.646,67.342c.013.011.024.022.009.037s-.018-.008-.028-.013l.019-.024" transform="translate(-38.178 -31.676)" fill="#ec1c24"/>
        <path id="Path_4094" data-name="Path 4094" d="M103.87,67.342l-.027.027-.02-.02.023-.028.024.021" transform="translate(-48.52 -31.666)" fill="#ec1c24"/>
        <path id="Path_4095" data-name="Path 4095" d="M81.743,67.484l-.015-.016.012,0c0,.007,0,.014,0,.021Z" transform="translate(-38.225 -31.733)" fill="#ec1c24"/>
        <path id="Path_4096" data-name="Path 4096" d="M81.753,67.5c.021,0,.028.008.026.027l0,0-.026-.027,0,0" transform="translate(-38.237 -31.749)" fill="#ec1c24"/>
        <path id="Path_4097" data-name="Path 4097" d="M81.8,67.553l.015.007h-.008a.03.03,0,0,1-.005-.01l0,0" transform="translate(-38.259 -31.772)" fill="#ec1c24"/>
        <path id="Path_4098" data-name="Path 4098" d="M103.587,67.637v.008l0-.005,0,0" transform="translate(-48.408 -31.813)" fill="#ec1c24"/>
        <path id="Path_4099" data-name="Path 4099" d="M103.5,67.793l.01,0q0-.017-.008,0Z" transform="translate(-48.368 -31.882)" fill="#ec1c24"/>
        <path id="Path_4100" data-name="Path 4100" d="M103.474,67.8c-.02,0-.033.007-.028.03h0c.03.011.04,0,.028-.028v0" transform="translate(-48.344 -31.888)" fill="#ec1c24"/>
        <path id="Path_4101" data-name="Path 4101" d="M103.435,67.853l-.015.007.008.007.006-.015h0" transform="translate(-48.332 -31.913)" fill="#ec1c24"/>
        <text id="B" transform="translate(13.009 84.747)" font-size="37" font-family="FuturaPT-Medium, Futura PT" font-weight="500"><tspan x="0" y="0">B</tspan></text>
        <text id="O" transform="translate(32.846 85.747)" font-size="38" font-family="FuturaPT-Medium, Futura PT" font-weight="500"><tspan x="0" y="0">O</tspan></text>
        <text id="X" transform="translate(62.435 85.747)" font-size="38" font-family="FuturaPT-Medium, Futura PT" font-weight="500"><tspan x="0" y="0">X</tspan></text>
      </g>
    </g>
  </g>
</svg>
