<?xml version="1.0" encoding="utf-8"?>
<!-- Generator: Adobe Illustrator 25.0.1, SVG Export Plug-In . SVG Version: 6.00 Build 0)  -->
<svg version="1.1" id="Layer_1" xmlns="http://www.w3.org/2000/svg" xmlns:xlink="http://www.w3.org/1999/xlink" x="0px" y="0px"
	 viewBox="0 0 495.2 495.2" style="enable-background:new 0 0 495.2 495.2;" xml:space="preserve">
<style type="text/css">
	.st0{fill:#BDB7B4;}
	.st1{fill:#FCB525;}
	.st2{fill:#F08521;}
	.st3{fill:#958A85;}
	.st4{fill:#E85C24;}
	.st5{fill:#746761;}
	.st6{fill:#FFFFFF;}
</style>
<path class="st0" d="M392.7,103.4c52.4,31.4,88.6,84,99.3,144.2c2.1-12.1,3.2-24.4,3.2-36.7C495.2,94.4,400.7,0,284.1,0
	c-12.2,0-24.5,1.1-36.5,3.2C308.3,13.9,361.3,50.5,392.7,103.4"/>
<path class="st0" d="M102.5,391.8c-52.4-31.4-88.6-84-99.3-144.2C1.1,259.7,0,272,0,284.3c0,116.5,94.5,210.9,211.1,210.9
	c12.2,0,24.5-1.1,36.5-3.2C187,481.4,134,444.8,102.5,391.8"/>
<path class="st1" d="M102.5,103.4C134,50.5,187,13.9,247.6,3.2C235.6,1.1,223.4,0,211.1,0C94.5,0,0,94.4,0,210.9
	c0,12.3,1.1,24.6,3.2,36.7C13.9,187.4,50.1,134.9,102.5,103.4"/>
<path class="st1" d="M392.7,391.8c-31.4,53-84.4,89.5-145.1,100.2c12.1,2.1,24.3,3.2,36.5,3.2c116.6,0,211.1-94.4,211.1-210.9
	c0-12.3-1.1-24.6-3.2-36.7C481.3,307.8,445.1,360.4,392.7,391.8"/>
<path class="st2" d="M102.5,103.4c43.6-26.1,95.1-35.6,145.1-26.8c50-8.8,101.5,0.7,145.1,26.8c-31.4-53-84.4-89.6-145.1-100.2
	C187,13.9,134,50.5,102.5,103.4"/>
<path class="st2" d="M102.5,391.8C83.2,359.3,73,322.1,73,284.3c0-12.3,1.1-24.6,3.2-36.7c-2.1-12.1-3.2-24.4-3.2-36.7
	c0-37.8,10.1-75,29.5-107.5c-52.4,31.4-88.6,84-99.2,144.2C13.9,307.8,50.1,360.4,102.5,391.8"/>
<path class="st2" d="M392.7,103.4c25.8,43.4,35.1,94.5,26.2,144.2c8.8,49.7-0.5,100.8-26.2,144.2c52.4-31.4,88.6-84,99.3-144.2
	C481.4,187.4,445.1,134.8,392.7,103.4"/>
<path class="st2" d="M392.7,391.8c-32.8,19.7-70.3,30.1-108.6,30c-12.2,0-24.5-1.1-36.5-3.2c-50,8.8-101.5-0.7-145.1-26.8
	c31.4,53,84.4,89.6,145.1,100.2C308.3,481.3,361.3,444.7,392.7,391.8"/>
<path class="st3" d="M419,247.6c8.8-49.7-0.5-100.8-26.2-144.2c-43.6-26.1-95.1-35.6-145.1-26.8C335,91.9,403.5,160.3,419,247.6"/>
<path class="st3" d="M76.2,247.6C74.1,259.7,73,272,73,284.3c0,37.8,10.1,75,29.5,107.5c32.8,19.7,70.3,30.1,108.6,30
	c12.2,0,24.5-1.1,36.5-3.2C160.2,403.3,91.8,334.9,76.2,247.6"/>
<path class="st4" d="M247.6,76.6c-50-8.8-101.5,0.7-145.1,26.8C83.2,135.9,73,173.1,73,210.9c0,12.3,1.1,24.6,3.2,36.7
	C91.8,160.3,160.2,92,247.6,76.6"/>
<path class="st4" d="M419,247.6c-15.5,87.3-84,155.7-171.3,171c12.1,2.1,24.3,3.2,36.5,3.2c38.2,0.1,75.8-10.3,108.6-30
	C418.5,348.5,427.8,297.3,419,247.6"/>
<path class="st5" d="M419,247.6c-15.5-87.3-84-155.7-171.3-171C160.3,92,91.8,160.3,76.3,247.6c15.5,87.3,84,155.7,171.3,171
	C335,403.3,403.5,335,419,247.6"/>
<path class="st6" d="M107.7,200.8h18l16,52.1c1.4,4.7,2.8,9.8,4.2,15.3h0.3c1.4-5.5,2.9-10.2,4.5-15.1l11.7-36.4l-5.4-15.8h16.1
	l16.8,51.3c1.7,5.1,3.6,10.6,4.9,16h0.4c1.3-5.5,2.4-10.3,4-15.7l15.1-51.6h16.4L201.1,292h-13.5l-13.1-38.4
	c-1.8-5.4-3.6-10.3-4.8-15.1h-0.4c-1.3,4.9-2.8,9.6-4.6,15L151.6,292h-13.2L107.7,200.8z M328.6,291.5h27.9
	c20.2,0,30.5-12.8,30.5-26.8c0-10.6-6.2-19.2-16.4-21.9v-0.3c6.9-3.6,10.6-10.9,10.6-18.7c0-11.8-8.5-23-27.1-23h-25.5V291.5z
	 M344.4,238.6v-24.2h7.4c9.5,0,13.6,5.4,13.6,12.1c0,7-4.6,12.1-13.5,12.1L344.4,238.6z M344.4,277.8v-25.6h11.9
	c8.8,0,14.5,4.7,14.5,12.4c0,9.2-5.7,13.2-16.2,13.2L344.4,277.8z M230.3,246.5c0,27.8,18.2,46.3,43.8,46.3
	c25.3,0,43.8-18.6,43.8-46.4c0-27.4-18.1-46.5-43.8-46.5S230.3,219,230.3,246.5 M301,246.5c0,20.5-11,32.5-26.9,32.5
	s-26.9-12-26.9-32.5s10.8-32.6,26.9-32.6C290.6,213.9,301,226.4,301,246.5"/>
</svg>
